<svg xmlns="http://www.w3.org/2000/svg" xmlns:xlink="http://www.w3.org/1999/xlink" width="32" height="32" xmlns:v="https://vecta.io/nano"><style><![CDATA[.B{fill-rule:nonzero}.C{fill:#fff}.D{fill:#d15794}.E{fill:#f071a9}]]></style><defs><path d="M.414 2.713c.565-.992 1.354-1.42 2.367-1.283 1.519.205 1.803 1.674 2.695 1.834S6.368.312 3.8.025C2.088-.166.959.73.414 2.713z" id="A"/><path d="M0 2.713c.565-.992 1.354-1.42 2.367-1.283 1.519.205 1.803 1.674 2.695 1.834S5.955.312 3.386.025C1.674-.166.546.73 0 2.713z" id="B"/><path d="M.038 1.973c-.382 1.365 2.199 2.281 4.467 1.829 1.149-.229 3.196-.913 6.139-2.052.928-.359 1.586-1.379.909-1.445-3.15-.31-5.5-.384-7.048-.221C1.682.381.42.608.038 1.973z" id="C"/><path d="M13.231 12.192l.582-2.361c.411.43.87.666 1.375.707s1.157-.105 1.956-.437c-.246.766-.716 1.335-1.409 1.705-.644.344-1.409.48-2.296.407l-.207-.02.582-2.361-.582 2.361zm-1.491-9.459c1.925.06 3.551.638 4.88 1.734s2.136 2.854 2.424 5.275c-.874-.302-1.765-.453-2.671-.453l-2.499.115c-.022-1.315-.121-2.34-.297-3.077s-.788-1.935-1.837-3.594zM3.057.38c.84.057 2.055.499 3.646 1.327C3.465 6.04 1.439 7.898.623 7.281s-.617-1.454.595-2.513c-.592 0-.888-.31-.888-.93s.593-1.143 1.778-1.569c-.82 0-1.231-.26-1.231-.779C.878.71 1.797.295 3.057.38z" id="D"/><path d="M7.403.396c3.602 0 6.522 3.07 6.522 6.857 0 1.501-.459 2.889-1.237 4.018l.019.007c-.393.803-.638 1.382-.736 1.736s-.126.769-.084 1.242c-.346-.18-.575-.363-.685-.549s-.218-.482-.322-.887c-.201.672-.376 1.15-.525 1.436s-.407.641-.776 1.066c-.316-.435-.52-.79-.612-1.066s-.146-.69-.162-1.242c-.902 1.551-1.627 2.507-2.175 2.867s-1.414.451-2.599.272h0l-.283-3.22c-.562-.4-1.061-.89-1.479-1.45l-1.374.625a5.27 5.27 0 0 1-.371-1.776C.496 9.685.62 8.711.896 7.412l-.012.058-.003-.217c0-3.787 2.92-6.857 6.522-6.857z" id="E"/><ellipse id="F" cx="2.609" cy="2.878" rx="2.609" ry="2.612"/><ellipse id="G" cx="2.609" cy="2.878" rx="2.609" ry="2.612"/><ellipse id="H" cx="2.609" cy="2.878" rx="2.609" ry="2.612"/><ellipse id="I" cx="2.609" cy="2.878" rx="2.609" ry="2.612"/><path d="M0 18.013C1.674 12.454 2.51 8.41 2.51 5.881c0-3.794 2.311-6.649 5.168-5.696S11.403 4.966 8.8 9.682c-1.735 3.144-4.668 5.921-8.8 8.331z" id="J"/></defs><g transform="translate(1)" fill="none" fill-rule="evenodd"><g transform="translate(12.54 26.33)"><path d="M.414 2.713c.565-.992 1.354-1.42 2.367-1.283 1.519.205 1.803 1.674 2.695 1.834S6.368.312 3.8.025C2.088-.166.959.73.414 2.713z" class="B E"/><mask id="K" class="C"><use xlink:href="#A"/></mask><path d="M5.72 3.163c-.038 0 .125-.373.08-.889-.064-.725-.871-1.47-1.85-2.034C2.831-.404 1.659-.342.433.424 1.651-.789 2.695-1.303 3.565-1.119c1.305.277 3.127 2.33 3.166 2.879.057.803-.929 1.402-1.011 1.402z" mask="url(#K)" transform="matrix(.99863 .052336 -.052336 .99863 .057445 -.186144)" class="B D"/></g><g class="B"><path d="M11.773 8.711l11.167 3.823c1.228 5.495.91 9.641-.955 12.438s-6.471 3.984-13.82 3.563c.911-2.417 1.449-4.141 1.617-5.172.647-3.99.43-6.708 1.076-8.015 0-2.988.305-5.2.915-6.636z" fill="#41b449"/><path d="M18.605 12.839c-2.218 7.87-2.712 12.248-1.481 13.134 1.846 1.328 4.221-1.307 4.989-3.534s.704-5.875.615-7.524c-.06-1.099-.198-2.332-.415-3.698l-2.939-.489-.768 2.111z" fill="#abd598" opacity=".4"/></g><g transform="translate(11.888 26.759)"><path d="M0 2.713c.565-.992 1.354-1.42 2.367-1.283 1.519.205 1.803 1.674 2.695 1.834S5.955.312 3.386.025C1.674-.166.546.73 0 2.713z" class="B E"/><mask id="L" class="C"><use xlink:href="#B"/></mask><path d="M5.089 3.599c-.091 0 .344-2.21-1.332-3.176C2.64-.22 1.322-.074-.198.861 1.021-.352 2.065-.867 2.935-.682c1.305.277 3.127 2.33 3.166 2.879.057.803-.929 1.402-1.012 1.402z" mask="url(#L)" class="B D"/></g><g transform="translate(.359 26.969)"><path d="M.038 1.973c-.382 1.365 2.199 2.281 4.467 1.829 1.149-.229 3.196-.913 6.139-2.052.928-.359 1.586-1.379.909-1.445-3.15-.31-5.5-.384-7.048-.221C1.682.381.42.608.038 1.973z" fill="#41b449" class="B"/><mask id="M" class="C"><use xlink:href="#C"/></mask><path d="M-1.005.442c1.033 1.68 2.401 2.52 4.106 2.52s4.715-.438 9.03-1.314L9.423 3.972 0 4.663c0 0-.335-1.407-1.005-4.221z" fill="#16a64a" mask="url(#M)" class="B"/></g><g transform="translate(10.235 .283)"><path d="M13.231 12.192l.582-2.361c.411.43.87.666 1.375.707s1.157-.105 1.956-.437c-.246.766-.716 1.335-1.409 1.705-.644.344-1.409.48-2.296.407l-.207-.02.582-2.361-.582 2.361zm-1.491-9.459c1.925.06 3.551.638 4.88 1.734s2.136 2.854 2.424 5.275c-.874-.302-1.765-.453-2.671-.453l-2.499.115c-.022-1.315-.121-2.34-.297-3.077s-.788-1.935-1.837-3.594zM3.057.38c.84.057 2.055.499 3.646 1.327C3.465 6.04 1.439 7.898.623 7.281s-.617-1.454.595-2.513c-.592 0-.888-.31-.888-.93s.593-1.143 1.778-1.569c-.82 0-1.231-.26-1.231-.779C.878.71 1.797.295 3.057.38z" class="B E"/><mask id="N" class="C"><use xlink:href="#D"/></mask><path d="M.131 6.559c.915.558 1.75.385 2.504-.52l-.281 1.442-2.995.334c-.401-1.396-.144-1.815.771-1.257z" mask="url(#N)" class="B D"/><mask id="O" class="C"><use xlink:href="#E" href="#D"/></mask><path d="M9.781 2.857c.116 1.065 2.859.384 5.61 1.843 1.497.794 2.957 3.051 4.378 6.772L18.059 1.349c-5.71-.748-8.469-.245-8.278 1.508z" opacity=".2" mask="url(#O)" class="B C"/><mask id="P" class="C"><use xlink:href="#F" href="#D"/></mask><path d="M.275 3.621c.11 0 .175.607 1.229.607.593 0 1.406-.29 2.438-.869l.314.869c-.992.36-2.005.54-3.038.54S-.404 4.64-.551 4.384c.371-.509.646-.763.826-.763z" mask="url(#P)" class="B D"/><mask id="Q" class="C"><use xlink:href="#G" href="#D"/></mask><path d="M1.25.915c-.35.787.011 1.164 1.082 1.131.799-.025 2.184-.273 4.156-.745l.058.253a32.24 32.24 0 0 1-4.3.993c-1.393.218-2.06.178-2.004-.12L1.25.915z" mask="url(#Q)" transform="matrix(.97437 .224951 -.224951 .97437 .491795 -.717309)" class="B D"/></g><g transform="translate(10.858 1.237)"><path d="M7.403.396c3.602 0 6.522 3.07 6.522 6.857 0 1.501-.459 2.889-1.237 4.018l.019.007c-.393.803-.638 1.382-.736 1.736s-.126.769-.084 1.242c-.346-.18-.575-.363-.685-.549s-.218-.482-.322-.887c-.201.672-.376 1.15-.525 1.436s-.407.641-.776 1.066c-.316-.435-.52-.79-.612-1.066s-.146-.69-.162-1.242c-.902 1.551-1.627 2.507-2.175 2.867s-1.414.451-2.599.272h0l-.283-3.22c-.562-.4-1.061-.89-1.479-1.45l-1.374.625a5.27 5.27 0 0 1-.371-1.776C.496 9.685.62 8.711.896 7.412l-.012.058-.003-.217c0-3.787 2.92-6.857 6.522-6.857z" fill="#cdcaca" class="B"/><mask id="R" class="C"><use xlink:href="#E"/></mask><path d="M11.116 1.278c-.244 0-4.859-.882-6.633 2.973-1.183 2.57-.711 5.167 1.416 7.791l-2.174.934c-1.046.384-1.888.436-2.528.155l-.053-.024c-.012-.006-.61-.628-1.796-1.868C-.652 5.219.762 1.494 3.59.063c4.242-2.146 7.77 1.214 7.526 1.214z" fill="#979897" mask="url(#R)" class="B"/></g><g transform="translate(16.756 3.904)"><ellipse cx="2.609" cy="2.878" rx="2.609" ry="2.612" class="B C"/><mask id="S" class="C"><use xlink:href="#F"/></mask><path d="M0 0l2.067.266C1.156.906.647 1.668.539 2.553s.148 1.775.765 2.672H0V0z" fill="#979897" opacity=".2" mask="url(#S)" class="B"/><mask id="T" class="C"><use xlink:href="#G"/></mask><ellipse fill="#975c1d" mask="url(#T)" cx="3.259" cy="2.889" rx="1.304" ry="1.306" class="B"/><mask id="U" class="C"><use xlink:href="#H"/></mask><circle fill="#1b1b1b" mask="url(#U)" cx="3.541" cy="2.753" r="1" class="B"/><mask id="V" class="C"><use xlink:href="#I"/></mask><circle mask="url(#V)" cx="3.871" cy="2.508" r="1" class="B C"/></g><g transform="translate(7.314 13.346)"><path d="M0 18.013C1.674 12.454 2.51 8.41 2.51 5.881c0-3.794 2.311-6.649 5.168-5.696S11.403 4.966 8.8 9.682c-1.735 3.144-4.668 5.921-8.8 8.331z" fill="#6bc168" class="B"/><mask id="W" class="C"><use xlink:href="#J"/></mask><path fill="#abd598" mask="url(#W)" d="M4.544 4.765v3.208l2.738-2.345-.466 2.345L9.215 6.11v2.71L11.5 6.415l-1.113-8.006-7.919 2.74v5.266z" class="B"/><mask id="X" class="C"><use xlink:href="#N" href="#J"/></mask><path d="M0 18.001c3.384-4.016 5.526-7.076 6.427-9.181S7.75 3.783 7.692.027l-9.001-1.618v13.85L0 18.001z" opacity=".2" mask="url(#X)" class="B C"/></g></g></svg>