<svg xmlns="http://www.w3.org/2000/svg" width="468" height="118" xmlns:v="https://vecta.io/nano"><path d="M0 0h468v118H0V0z" fill="#fefdff"></path><path d="M376.5 50.438C379 52 379 52 380 53l1-3h14l.11 19.269.041 6.55.044 9.435.031 2.94c.001 7.999-.83 14.275-6.484 20.295-5.809 5.041-12.835 5.101-20.258 4.926-5.852-.695-10.813-2.694-14.984-6.941-2.219-3.029-2.5-4.657-2.5-8.473l6.75-.25 3.797-.141c4.081.462 4.758 1.483 7.453 4.391 2.299.38 2.299.38 4.625-.062l2.352-.285c2.399-.542 2.399-.542 4.023-3.652.079-2.332.088-4.668 0-7l-1.312 1.438c-3.6 3.334-8.19 2.96-12.832 2.898-5.417-.637-9.061-3.076-12.422-7.309C348.825 81.003 348.107 74.335 349 66c2.138-6.864 5.934-12.105 12-16 5.347-1.782 10.287-1.704 15.5.438z" fill="#000"></path><path d="M255.922 49.824c1.641 1.051 1.641 1.051 4.078 3.176v2h2l1-3c4.822-3.255 9.355-3.884 15-3 3.59 1.287 6.266 3.083 8.677 6.094 1.813 3.983 1.699 7.383 1.616 11.706l-.013 2.534-.093 7.977-.041 5.424L288 96h-13l-.06-2.998-.257-10.992-.104-4.761-.164-6.836-.035-2.156c-.013-4.079-.013-4.079-2.379-7.258-3-.417-3-.417-6 0-2.371 3.556-2.345 6.18-2.414 10.293l-.059 2.139-.152 6.755-.117 4.584L263 96h-14l-1-34c-4.485-.713-4.485-.713-9-1-1.158 3.475-1.228 6.673-1.316 10.293l-.063 2.139-.183 6.755-.131 4.584L237 96h-13V50h13l1 4 1.813-1.937c4.152-3.914 10.873-4.484 16.109-2.238z" fill="#000"></path><path d="M441 53c5.066 4.318 8.483 9.86 9.316 16.535.326 7.469-.93 14.492-5.895 20.316-6.436 5.885-12.867 7.681-21.484 7.434-6.805-.661-11.481-2.962-15.937-8.285-5.577-7.592-6.035-14.685-5-24 2.329-6.524 6.077-10.779 12.07-14.16 8.729-3.799 18.86-2.653 26.93 2.16zm-111.062-2.25c5.891 3.036 10.502 6.449 12.625 12.98 1.861 9.653.904 17.75-4.25 25.957-5.081 5.081-11.776 7.447-18.875 7.688C313 97.289 308.131 95.965 303 92c-6.994-8.133-7.664-15.506-7-26 .657-2.846 1.472-4.435 3-7l1.563-2.625c8.096-7.889 18.903-9.991 29.375-5.625zM208 52c3.905 3.667 6.933 6.961 7.114 12.44l-.016 4.412-.004 2.346-.031 7.428-.014 5.031L215 96h-13l-1-4-1.812 1.938c-3.972 3.745-8.266 3.402-13.461 3.34-5.248-.534-7.782-3.184-11.102-7.027-1.996-3.993-2.474-6.875-1.625-11.25 2.481-5.161 5.884-7.689 11-10 2.785-.809 5.575-1.305 8.438-1.75l2.217-.379L200 66c-.379-3.291-.379-3.291-2-6-3.065-.161-5.055.018-8 1l-1 4h-14c1.045-5.227 2.248-8.977 6.68-12.234C189.75 47.986 199.735 47 208 52zM76 49c4.941 2.336 7.391 5.25 10 10 .515 2.908.469 5.734.391 8.68l-.017 2.463-.123 7.732-.055 5.266L86 96H73l-.076-2.89-.296-10.617-.125-4.595-.186-6.605-.051-2.074C72.173 66.229 71.953 63.86 71 61c-1.436-.108-2.874-.186-4.312-.25l-2.426-.141c-2.358.187-2.358.187-3.871 1.967-1.884 3.284-1.825 5.821-1.902 9.596l-.054 2.068-.121 6.51-.104 4.426L58 96H44V50h14l1 3 2.313-2c4.528-3.012 9.459-2.764 14.688-2zm52 4c3.827 3.54 4.839 7.066 6 12-12.066.795-12.066.795-15.937-2.5L116 60c-3.211-.419-3.211-.419-6 0l-1 5 1.649.38 7.476 1.808 2.594.596c5.653 1.413 9.146 3.075 13.281 7.217 1.726 3.452 1.361 7.219 1 11-2.135 5.056-5.726 7.917-10.625 10.25C116.62 97.973 108.067 97.998 101 94c-4.9-4.172-7.262-7.533-8-14 4.37-.288 8.639-.454 13 0 2.75 2.5 2.75 2.5 5 5 3.043.442 5.947.299 9 0l1-4c-4.212-1.685-8.165-3.097-12.625-3.937-5.194-1.093-8.766-3.185-12.25-7.25C94.514 65.784 94.216 62.274 95 58c2.746-4.634 5.732-6.949 10.77-8.527 8.043-1.704 15.059-.492 22.23 3.527z" fill="#000"></path><path d="M146 34h14v16h8v11h-8l1 23 7 1v11l-7.687.25-2.186.102c-3.864.071-5.708-.092-9.084-2.18-3.416-3.631-3.162-6.806-3.141-11.59l.01-3.799.025-3.971.014-4.006L146 61h-6V50h6V34z" fill="#000"></path><path d="M21 32h14v64H20l-.052-24.148-.024-11.212-.019-10.815-.011-4.131-.008-5.775-.007-3.324C20 34 20 34 21 32z" fill="#12a617"></path><path d="M430 61c3.22 2.535 4.704 4.113 6 8 .396 5.243-.164 8.544-3 13-2.472 2.649-3.806 2.972-7.437 3.5-4.453-.625-5.78-2.062-8.562-5.5-1.968-3.935-1.464-8.711-1-13 3.443-5.739 7.414-7.148 14-6z" fill="#fcfbff"></path><path d="M321.066 60.531c3.022.733 4.801 2.272 6.934 4.469 1.96 3.92 1.353 8.716 1 13-1.603 3.74-2.597 4.732-6 7-5.037.65-6.896.828-11-2.25-3.273-4.675-2.903-10.334-2-15.75 2.096-5.192 5.68-6.876 11.066-6.469z" fill="#fdfcff"></path><path d="M377 61c2.691 2.176 4.455 3.911 6 7 .403 5.237-.169 8.551-3 13-2.305 2.385-3.597 2.93-6.875 3.5-4.364-.698-5.979-2.427-9.125-5.5-1.599-3.198-1.369-6.521-1-10 2.679-6.888 6.558-9.465 14-8z" fill="#fbfaff"></path><path d="M28.75 6.75c3.861.048 6.166.801 9.25 3.25 2.468 3.702 2.681 6.705 2 11-3 5.5-3 5.5-6 7-3.059.421-5.947.485-9 0-2.756-2.182-4.436-3.872-6-7-.507-5.154-.507-5.154 0-8 2.438-2.937 2.438-2.937 5-5 1-1 1-1 4.75-1.25z" fill="#12a617"></path><path d="M202 76c-.17 4.425-.356 6.387-3.625 9.5-4.026 1.789-6.156 1.576-10.375.5-1-1-1-1-1.062-3.562L187 80c5.066-2.284 9.363-4 15-4z" fill="#f7f3ff"></path></svg>