<svg xmlns="http://www.w3.org/2000/svg" xmlns:xlink="http://www.w3.org/1999/xlink" width="981" height="314" xmlns:v="https://vecta.io/nano"><style><![CDATA[.B{fill:#b70000}.C{fill:#b60000}.D{fill:#b60001}.E{fill:#b80000}.F{fill:#b50000}.G{fill:#b40001}.H{fill:#b50001}.I{fill:#b70001}.J{fill:#e60001}.K{fill:#e70000}.L{fill:#e60000}.M{fill:#b20000}.N{fill:#b40000}.O{fill:#e70001}.P{fill:#e50000}.Q{fill:#fbde0f}.R{fill:#b30001}.S{fill:#9d1112}.T{fill:#e30001}.U{fill:#e50001}.V{fill:#f27505}.W{fill:#e80000}.X{fill:#e90001}.Y{fill:#e90000}.Z{fill:#fddf13}.a{fill:#740000}.b{fill:#b90000}.c{fill:#ec0000}]]></style><path d="M0 0h981v354H0V0z" fill="#fefefe"/><path d="M387.402 60.781c16.079 13.734 28.532 28.893 38.098 47.781l1.026 2.021c1.691 3.445 2.948 6.606 3.474 10.417l3.5-.25c5.991.011 10.33 2.291 14.715 6.25 2.619 4.401 2.255 8.292 2.098 13.313l-.029 2.764c-.044 2.646-.146 5.281-.283 7.924l-.106 2.325c-.253 3.202-.464 5.205-2.671 7.616l-2.16 1.621c-5.436 5.591-5.081 11.941-5.472 19.329-.51 9.651-2.336 18.731-4.591 28.109h4l2-4 5 1 1 5-3 1 .438 4.813.246 2.707c.251 2.608.251 2.608 1.316 5.48l2.438.438C451 227 451 227 452 228c.041 1.666.043 3.334 0 5-4.75 1-4.75 1-7 1l-2 3 3 2c.188 3.125.188 3.125 0 6-2.375.625-2.375.625-5 1l-2-2v-4l-2.125 1c-3.135 1.09-5.581 1.153-8.875 1l1.563 1.75C431 246 431 246 430.688 248.25L430 250c-2.375.625-2.375.625-5 1l-2-2c.327-2.616.82-4.641 2-7h-5l-.754 2.121C414.601 254.853 406.009 263.683 398 272l-1.727 1.918C378.688 292.902 351.908 304.883 327 310l-2.202.458c-18.669 3.741-37.241 3.875-55.798-.458l-2.315-.52C245.339 304.611 224.531 295.619 208 281l-2.547-2.219A199.94 199.94 0 0 1 181 253l-1.949.805c-14.076 5.502-29.89 7.875-44.32 2.461-6.536-3.029-11.251-6.863-14.73-13.266-.879-2.838-1.119-5.365-1.098-8.328l.01-2.422.025-2.5.014-2.547L119 221c6.484.89 6.484.89 9.429 1.518 10.549 1.977 23.915 2.454 33.157-3.424L163 218l-.77-2.648c-7.136-25.498-8.835-50.91-3.129-76.957 2.294-10.625.649-21.465-.389-32.175-.522-5.439-.816-10.755-.712-16.219 2.466-1.233 3.943-1.037 6.691-.93 10.621.52 10.621.52 20.238-3.055 1.792-2.356 3.364-4.76 4.897-7.29C207.523 52.701 242.091 36.739 272 31l2.918-.621c39.162-7.346 82.01 5.289 112.484 30.402z" fill="#fdbf0b"/><path d="M745 92c22.316 0 22.316 0 29.438 5.25 6.505 6.981 5.944 14.087 5.75 23.188l-.041 3.662L780 133l1.653-1.048 2.175-1.37 2.153-1.36c6.422-3.887 12.736-3.505 20.019-3.222l2.355.055c10.3.638 20.45 5.626 27.645 12.945 10.41 13.074 11.583 26.306 11.391 42.328l-.017 5.531-.099 14.44-.079 14.782L847 245l-8.176.074-2.325.03c-7.204.037-12.973-1.025-18.874-5.354-6.545-6.856-6.041-14.034-5.996-23.059l-.04-5.871-.025-14.394-.032-8.101-.004-7.603c-.061-7.039-.669-11.766-4.529-17.722-4.369-3.41-8.996-3.582-14.375-3.406-4.367.676-5.782 1.994-8.625 5.406-4.005 7.778-3.478 16-3.512 24.531l-.054 4.808-.103 12.586-.121 12.871L780 245l-7.687.035-2.186.014c-9.121.023-14.727-.762-21.463-7.163-2.131-2.416-3.496-4.893-4.664-7.887l-1.328 1.355c-11.885 11.33-25.421 12.034-40.969 11.855-10.834-.285-21.572-2.849-29.363-10.934-1.139-1.405-2.244-2.838-3.34-4.277h-2c-1.069 1.166-2.08 2.385-3.062 3.625-7.095 8.263-16.413 13.577-27.368 14.603-16.781.977-32.986-.351-46.57-11.228-2.468-2.225-4.79-4.519-7-7l-1.437 2.063C573.912 238.832 563.64 244.65 552 246c-11.51.602-23.028.925-34-3l-2.48-.773c-17.437-6.043-30.766-20.254-38.77-36.477-7.521-17.214-7.369-34.838-2.75-52.75l.773-3.109c4.944-17.144 17.429-31.3 32.688-40.168 16.428-7.997 37.133-10.933 54.859-5.703 11.106 4.063 18.331 8.742 23.488 19.555 1.986 5.71 2.174 11.421 2.191 17.426l1.18-1.355c7.92-8.559 17.832-12.459 29.398-12.945l4.672-.012 2.506.017c13.98.274 27.181 3.923 37.306 13.983L667 145l3 3 1.285-1.539c9.136-10.722 19.326-18.169 33.831-19.682 14.021-.753 25.864 1.642 37.884 9.221v2h2V92z" fill="#cb100a"/><path d="M387.402 60.781C404.978 75.793 424.695 96.546 430 120c-9.796.312-19.431-.87-29.15-1.934-16.965-2.444-16.965-2.444-32.85 1.934-2.152 2.375-2.978 3.935-4 7-8.406.155-16.684-.357-25.062-1-10.142-.712-20.268-1.258-30.437-1.375l-3.25-.078c-6.039-.016-9.723.293-14.25 4.453-2.274 5.413-2.534 11.197-3 17l2.077-.053c10.958-.147 21.817.727 32.736 1.553l5.893.434L343 149c-2.748 4.374-5.677 7.924-9.359 11.59l-1.54 1.538-3.217 3.194-4.845 4.824c-4.949 4.932-9.949 9.751-15.26 14.295-3.002 2.63-5.792 5.466-8.591 8.308l-1.693 1.707-3.087 3.12L291 202l.219-3.34L292 184l.112-2.312c.525-12.197-.206-24.222-8.424-33.981-5.752-5.819-11.947-9.163-19.687-11.707l-2.004-.687c-12.268-3.457-27.061-2.585-38.246 3.438L221 141l-1.59 1.285c-5.763 5.509-6.306 13.186-7.41 20.715l2.922-1.496 3.828-1.941 1.922-.986c6.504-3.286 11.416-3.758 18.578-3.764l2.488-.037c8.049-.019 14.773 1.064 21.262 6.225 4.849 5.374 5.114 9.057 5 16l-2.855-.032-10.64-.078-4.576-.041c-14.194-.158-27.291.102-38.73 9.655-1.507 1.451-1.507 1.451-3.199 3.496-1.249-3.747-1.512-7.447-1.867-11.355l-.24-2.551-.506-5.444-.798-8.548-2.245-24.366-.787-8.662-.517-5.857c-.582-6.404-1.377-12.627-2.748-18.914-.306-2.413-.04-4.007.708-6.302l-2.625-1.25C193 95 193 95 189.938 92.938c-2.62-1.728-4.992-2.898-7.937-3.937 3.615-5.973 8.237-10.921 13-16l2.504-2.703C217.349 49.594 243.958 36.38 272 31l2.918-.621c39.162-7.346 82.01 5.289 112.484 30.402z" fill="#7e0101"/><path d="M171.625 88.688l3.238-.088c6.885-.055 11.279.72 17.137 4.4l2 2 2.563.875C199 97 199 97 199.875 98.938 200 101 200 101 199 104c.281 1.984.281 1.984.877 4.097 1.149 4.778 1.685 9.462 2.088 14.352l.236 2.678.489 5.648 1.291 14.751.26 2.96 2.51 26.262.386 3.815L208 187c2.699 0 3.437-1.042 5.5-2.75 9.434-7.242 19.554-8.437 31.125-8.375l2.649.006c6.947.046 13.812.413 20.726 1.119-.848-7.113-1.589-12.081-7-17-9.366-5.779-23.97-5.58-34.512-3.211a52.6 52.6 0 0 0-10.152 4.848C214 163 214 163 212 163c.281-8.553.771-14.596 6.797-20.871 9.29-8.66 19.127-9.606 31.414-9.406 12.683.511 24.908 4.731 33.664 14.152 5.057 6.261 8.656 12.844 7.952 21.168-.323 2.167-.715 4.308-1.14 6.457l-.396 2.184c-.847 4.526-2.012 8.89-3.291 13.316l-.437 3.563C286 197 286 197 284.438 199.813c-1.75 3.881-1.491 6.684-1.348 10.867-.12 3.093-1.38 4.79-3.09 7.32l-.312 3.563C279 225 279 225 276.063 227.438 273 229 273 229 271 229v3c-5.129 2.984-8.898 4.61-15 4l-2-1-2.437 1.5c-5.58 2.349-11.554 1.721-17.152-.551-2.599-1.194-2.599-1.194-6.41-.949h-3l-1-4-9-2-1-9c-3.011 2.007-3.63 2.839-5 6l-2-2-1.32 2.816c-7.307 15.308-15.978 23.297-32.359 29.184-13.627 4.104-28.2 5.081-41.32-1-5.657-3.296-10.583-7.426-12.592-13.909-.429-2.196-.522-4.183-.506-6.419l.01-2.422.025-2.5.014-2.547L119 221c6.484.89 6.484.89 9.429 1.518 10.549 1.977 23.915 2.454 33.157-3.424L163 218l-.77-2.648c-7.136-25.498-8.835-50.91-3.129-76.957 2.294-10.625.649-21.465-.389-32.175-.522-5.439-.816-10.755-.712-16.219 4.048-2.024 9.176-1.273 13.625-1.312z" fill="#fdcf10"/><path d="M207 223l2 2.125c12.806 12.628 28.297 16.248 45.838 16.25 8.735-.222 15.142-3.41 22.162-8.375l3-1 1-2c1-2 1-2 4-3l1.75 2.375c3.857 4.499 7.725 5.046 13.438 5.625l2.289.242c13.804 1.364 27.672 2.075 41.523 2.758l3.138.167 7.487.271 3.914.121c4.454-.719 7.28-2.382 10.461-5.559 1.478-2.638 1.478-2.638 2-5 12.896.435 25.651 1.482 38.469 2.984 15.475 1.933 15.475 1.933 30.531-.984l-3 6h-3v2l-2.055-.344c-3.491-.193-5.679.03-8.945 1.344-3.181 3.381-5.219 7.629-7.473 11.652-3.652 6.5-8.497 11.888-13.527 17.348l-2.613 2.863C380.111 291.053 354.201 304.412 327 310l-2.202.458c-18.669 3.741-37.241 3.875-55.798-.458l-2.315-.52C245.339 304.611 224.531 295.619 208 281l-2.547-2.219C187.602 262.986 187.602 262.986 182 254c1.287-3.86 2.638-4.158 6.125-6.125 9.797-6.071 14.137-14.618 18.875-24.875z" fill="#740101"/><path d="M749 97l7.207-.102 2.049-.041c5.283-.042 9.74.517 13.744 4.143 3.968 4.929 4.6 8.388 4.609 14.461l.05 2.396.091 7.518.09 5.121L777 143l1.183-1.428c4.595-5.468 8.425-9.868 15.888-10.843 13.01-.984 25.068.646 35.894 8.446 8.047 7.213 11.547 16.381 13.035 26.824a213.98 213.98 0 0 1 .114 7.566v2.219l-.016 7.207-.004 5.019-.025 13.168-.02 13.454L843 241l-6.219.07-3.498.04c-5.01-.168-8.979-1.048-12.842-4.504-4.106-4.594-4.565-8.274-4.567-14.225l-.012-3.42-.003-3.687-.059-7.754-.051-12.205-.078-11.792.021-3.65c-.109-7.61-1.263-13.552-5.693-19.873-4.958-4.6-11.435-5.242-18-5-5.142 1.088-8.712 3.981-12 8-2.486 4.961-3.381 8.592-3.432 14.22l-.031 2.072-.048 6.704-.054 4.678-.103 12.256-.121 12.529L776 240l-7.625.188-2.16.076c-4.829.066-8.014-.631-12.215-3.264-4.389-4.755-6.252-8.332-6.243-14.804l-.009-3.585.022-3.915v-4.12l.033-11.136.024-9.258L749 97z" fill="#fcc306"/><path d="M655 139.223c11.635 10.339 11.635 10.339 12.179 16.956l-.09 2.341-.061 2.6-.195 5.352c-.124 5.739.883 9.205 3.166 14.529.358 3.489.286 6.935.188 10.438l-.041 2.795L670 201h-4l.095 1.693c.954 19.508.954 19.508-4.341 25.627L660 230l-1.535 1.68c-7.19 7.101-17.964 10.419-27.902 10.508-15.29-.185-29.416-2.568-40.801-13.297-7.602-8.06-9.389-14.42-9.105-25.488.842-8.33 5.093-14.93 11.344-20.402 11.663-7.663 24.182-8.427 37.688-8.187l4.475.041L645 175l-1.391-5.809-.782-3.267c-.996-3.522-2.042-5.526-4.827-7.924-10.792-5.494-22.644-5.189-34.137-1.992-4.527 1.569-8.672 3.691-12.863 5.992l-4 2c.152-9.865.813-16.351 7.535-23.672 14.711-14.05 44.753-12.8 60.465-1.105z" fill="#fdcd09"/><path d="M574.75 114.875c3.82 3.608 7.069 7.802 7.364 13.21l-.016 2.365-.01 2.568-.025 2.67-.014 2.705L582 145l-1.325-1.198c-3.659-3.235-7.14-5.877-11.55-8.052l-2.867-1.453c-11.454-4.56-26.659-5.619-38.445-1.734-8.907 3.993-15.218 9.863-19.812 18.438l-1.254 2.211c-5.085 10.949-4.612 27.268-1.121 38.664 4.105 9.89 10.26 17.958 19.875 22.938 6.705 2.275 12.698 3.556 19.75 3.5l2.236-.015c9.523-.202 17.643-2.262 25.771-7.309C575 210 575 210 577 210c1.821 5.893 2.706 10.961 1 17-5.317 8.379-13.678 11.812-23.023 14.273-17.953 3.713-36.701-.423-51.977-10.273-14.393-10.494-23.718-25.568-27-43-.41-4.282-.478-8.513-.437-12.812l.025-3.448c.379-18.928 6.859-34.352 20.412-47.74l1.859-1.926c19.318-18.616 54.774-22.279 76.891-7.199z" fill="#fcce09"/><path d="M543.75 133.563l2.661.021c11.536.284 22.099 3.799 30.276 12.167 2.394 2.737 2.394 2.737 7.313 3.25l-1 19c7.573-.676 7.573-.676 12.223-4.656 6.822-5.157 15.287-5.713 23.527-5.781l2.399-.031c6.571.097 12.484 1.161 17.351 5.906C640 166 640 166 640 170l-2.456.12-9.22.515-5.873.303c-13.741.839-28.079 3.874-37.826 14.375-3.806 4.87-6.183 10.319-7.312 16.375-1.998 5.041-5.568 6.948-10.312 9.313-13.852 5.266-27.155 5.534-41 0-8.76-4.463-14.282-12.162-17.309-21.324-3.088-11.952-3.806-26.638 2.309-37.676 7.749-12.32 18.198-18.612 32.75-18.437z" fill="#fefcfc"/><path d="M277.852 141.305c6.867 5.418 11.999 12.291 13.832 20.91.365 4.361-.153 8.021-.996 12.285l-.396 2.184c-.847 4.526-2.012 8.89-3.291 13.316l-.437 3.563C286 197 286 197 284.438 199.813c-1.75 3.881-1.491 6.684-1.348 10.867-.12 3.093-1.38 4.79-3.09 7.32l-.312 3.563C279 225 279 225 276.063 227.438 273 229 273 229 271 229v3c-5.129 2.984-8.898 4.61-15 4l-2-1-2.437 1.5c-5.58 2.349-11.554 1.721-17.152-.551-2.599-1.194-2.599-1.194-6.41-.949h-3l-1-4-9-2-1-9c-3.011 2.007-3.63 2.839-5 6-1.933-3.979-1.857-5.761-1-10 .269-3.267.414-6.538.563-9.812l.131-2.678L209 197h3c2.419-2.633 3.865-4.594 5-8 1.766-1.027 1.766-1.027 4-2l2.297-1.254c5.407-2.884 9.6-4.325 15.703-4.746l2.063-.625c3.03-.586 5.903.191 8.938.625 2.322-.347 2.322-.347 4-1v2l12-3-3-2h5c-.848-7.113-1.589-12.081-7-17-9.366-5.779-23.97-5.58-34.512-3.211a52.6 52.6 0 0 0-10.152 4.848C214 163 214 163 212 163c.281-8.553.771-14.596 6.797-20.871 15.334-14.294 42.367-11.857 59.055-.824z" fill="#fcc10c"/><path d="M712.063 131.563l2.794-.031c8.329.105 16.261 1.584 23.144 6.531l2.188 1.535C742 141 742 141 744 143c.227 2.063.227 2.063.195 4.57l-.02 2.715-.051 2.84-.027 2.863L744 163l-2.309-1.242c-9.69-5.057-17.058-6.899-27.879-7.07l-2.342-.054c-5.852.009-10.185 1.082-14.47 5.367-.472 4.061-.472 4.061 0 8 2.774 2.459 5.208 3.546 8.781 4.43l2.785.713 2.934.732c25.556 6.709 25.556 6.709 32.5 17.125.457 4.334.457 8.677.48 13.031l.145 6.392c.111 7.157-.026 12.61-5 18.107-9.783 8.845-19.949 10.645-32.875 10.719l-2.699.063c-10.639.062-19.447-3.072-28.051-9.312-2.5-2.625-2.5-2.625-4-5l-1.086-1.664c-1.304-3.334-1.126-6.565-1.039-10.086l.027-2.113L670 206c3.752 0 5.136 1.535 8.059 3.695 8.865 5.958 21.549 7.327 31.941 6.305 3.86-.874 7.004-2.155 10.063-4.75 1.459-3.501 1.028-5.657-.062-9.25-4.67-3.865-9.359-5.14-15.187-6.5l-5.094-1.285-2.465-.625C687.147 190.947 677.901 187.079 672 178c-2.951-7.559-3.524-16.181-.437-23.812 4.243-8.1 10.485-13.817 18.438-18.187l2.246-1.258c6.455-2.954 12.834-3.125 19.816-3.18z" fill="#fdd00a"/><path d="M375 139l2.18.168 3.05.235 6.957.535 3.428.264 6.886.537 7.157.481 3.517.222 3.173.182C414 142 414 142 417 144c-8.112 10.164-18.216 18.834-28.047 27.297-3.484 3.038-6.879 6.176-10.285 9.301-2.24 2.017-4.525 3.931-6.855 5.84-8.946 7.786-14.153 16.948-15.812 28.563l-38-2c1.924-3.848 4.113-6.587 7-9.687l1.484-1.607c3.79-4.05 7.801-7.768 11.977-11.42 2.823-2.541 5.501-5.205 8.164-7.91 3.068-3.111 6.137-6.086 9.5-8.875 9.089-7.799 16.103-16.846 17.973-28.754l.52-3.264L375 139z" fill="#900100"/><path d="M447 148l1 4h-2l-.25 2.063c-.75 2.938-.75 2.938-2.734 5.82-3.061 5.247-2.779 11.002-3.016 16.93-.612 11.102-2.112 21.462-5 32.188-14.749.688-29.373-1.338-44-3 1.417-3.756 2.716-6.082 5.625-8.875l2.172-2.09c2.648-2.447 5.338-4.835 8.07-7.187L414 181.5l8.875-7.875L427 170l2.883-2.492c6.765-5.944 12.141-11.942 17.117-19.508z" fill="#6a0402"/><path d="M371 228c12.896.435 25.651 1.482 38.469 2.984 15.475 1.933 15.475 1.933 30.531-.984l-3 6h-3v2l-2.266.078c-6.141.209-6.141.209-11.422 2.984L419 243l-1-1c-1.396-.021-2.793.009-4.187.063-4.063.051-6.955-.751-10.812-2.062-3.658-.462-7.322-.751-11-1l-1-3c-1.666-.043-3.334-.041-5 0l-1 1c-1.666.041-3.334.043-5 0v-2h-7l-.687 3.313C371 242 371 242 368.5 243.938 366 245 366 245 364 245v2l-8.437.063-2.432.025c-2.044.009-4.088-.036-6.131-.088l-1-1c-2.35-.235-4.706-.414-7.062-.562l-3.91-.254L332 245v-2l-2.68.484c-5.786.821-11.612.74-17.445.766l-3.535.063-3.41.016-3.086.028c-3.321-.416-5.215-1.299-7.843-3.356v-3h-2l-1-4 3.215.367c16.554 1.81 33.157 2.805 49.785 3.633l3.129.167 7.496.271 3.914.121c4.454-.719 7.28-2.382 10.461-5.559 1.478-2.638 1.478-2.638 2-5z" fill="#410000"/><path d="M341 152c.688 1.688.688 1.688 1 4-1.819 3.842-4.369 6.626-7.352 9.617l-2.582 2.59-2.691 2.668-2.621 2.645C314.473 185.763 314.473 185.763 308 189l-1 3c-3.062 1.188-3.062 1.188-6 2l-.187 2.688c-1.002 4.084-2.613 5.66-5.812 8.313h-2l-.875 2.688C291 211 291 211 289.969 213.344c-1.056 2.895-1.372 5.401-1.594 8.469l-.227 2.957L288 227l3 1 1 5c-3.243-.559-4.931-1.413-7-4v-2l-1.469 1.355c-11.751 10.598-21.681 14.467-37.476 13.766-13.739-.81-26.217-5.283-36.055-15.121-.125-2.625-.125-2.625 0-5l4-2 1 9 9 2 1 4 4-1v2l4-2v2l4-1v2l1.563-.562c2.438-.437 2.438-.437 5.75.188 4.44.452 6.683-.812 10.688-2.625 2.063.375 2.063.375 4 1 4.217-.458 8.013-1.576 12-3v-3l3.438-1.562c1.966-1.035 1.966-1.035 3.563-2.437.836-3.434.836-3.434 1-7l1.563-2.312c1.594-2.98 1.527-4.142 1.375-7.437-.171-4.804.965-7.71 3.109-11.937 1.4-3.396 1.581-6.704 1.777-10.344C287 184 287 184 288 183l1.563-8.562.42-2.443L291 166l2 1a417.44 417.44 0 0 1-1 34l1.039-1.258c4.09-4.815 8.441-9.333 12.898-13.805l1.735-1.749c2.949-2.939 5.952-5.759 9.113-8.47 5.159-4.461 9.917-9.313 14.715-14.156l2.781-2.795L341 152z" fill="#fbda12"/><path d="M254.813 191.188c5.032 2.861 8.746 6.522 11.188 11.813-.43 2.152-.43 2.152-1 4l-1.434-1.574c-4.736-4.994-9.369-8.442-15.566-11.426 2.154 7.035 6.191 9.775 12 14 2.024 1.605 3.378 2.946 5 5 .189 3.684-1.141 5.204-3.25 8.25-2.75 2.75-2.75 2.75-5.062 4-5.162-.48-9.028-4.333-12.324-8.141l-1.488-1.859c-2.57-3.199-4.787-4.374-8.875-5.25 3.505 5.855 7.144 10.386 12.461 14.688L248 226v1c-4.992.535-8.04.435-12.25-2.437-4.941-4.153-7.159-8.829-8.16-15.152-.26-4.441-.03-7.485 2.785-11.035C233 196 233 196 235 196l1-3c5.39-4.695 12.416-3.805 18.813-1.812z" fill="#f20b0b"/><path d="M375 139l2.18.168 3.05.235 6.957.535 3.428.264 6.886.537 7.157.481 3.517.222 3.173.182C414 142 414 142 417 144c-1.359 2.512-1.359 2.512-4 5-3.456.5-6.787.15-10.25-.187l-2.836-.213L393 148v2l-6.312-.437-3.551-.246C380 149 380 149 377 148v2h-2l.359 1.977c1.063 7.21 1.063 7.21-.984 11.148L372 166l-2.437 4.188c-2.097 3.408-4.041 4.867-7.562 6.813-1.645 2.463-1.645 2.463-3 5-1.95 2.507-2.923 2.978-6.062 3.875L350 187l-2 5c-1.653 1.398-3.395 2.555-5.199 3.75-2.582 1.793-4.64 3.976-6.801 6.25-1.628 1.704-3.288 3.38-5 5h-2l-.937 1.875L326 213h-8c1.61-3.851 4.192-6.672 7-9.687l1.484-1.607c3.79-4.05 7.801-7.768 11.977-11.42 2.823-2.541 5.501-5.205 8.164-7.91 3.068-3.111 6.137-6.086 9.5-8.875 9.089-7.799 16.103-16.846 17.973-28.754l.52-3.264L375 139z" fill="#260000"/><path d="M207 223l2 2.125c12.806 12.628 28.297 16.248 45.838 16.25 8.735-.222 15.142-3.41 22.162-8.375l3-1 1-2c1-2 1-2 4-3 .25 3.313.25 3.313 0 7-1.875 1.625-1.875 1.625-4 3l-.875 2.563C279 242 279 242 276.313 243L273 244l-2.988 2.566c-4.877 3.566-9.725 2.833-15.512 2.371l-3.208-.199c-23.1-1.546-23.1-1.546-26.292-4.738v-2l-2.625.25c-4.222-.313-6.097-1.627-9.375-4.25-1.875-2.25-1.875-2.25-3-4-2.756.498-2.756.498-5 2l-.812 4.375c-.921 4.392-.921 4.392-3.187 6.375l-2 1.25-.875 2.563L197 253l-6 2c-2.364 2.494-2.364 2.494-4 5-4.004-4.395-4.004-4.395-5-6 1.287-3.86 2.638-4.158 6.125-6.125 9.797-6.071 14.137-14.618 18.875-24.875z" fill="#520001"/><path d="M221 164l1 2 2.313-1c4.987-1.352 9.553-1.208 14.688-1l3.027.09c9.903.523 17.719 3.038 24.973 9.91v-5h1v8l-2.855-.032-10.64-.078-4.576-.041c-14.194-.158-27.291.102-38.73 9.655-1.507 1.451-1.507 1.451-3.199 3.496-.886-2.659-1.18-4.481-1.316-7.23l-.127-2.432-.119-2.525-.131-2.561L206 169c3.75-1.125 3.75-1.125 6 0 1.964-.205 1.964-.205 4.063-.75l2.16-.484L220 167l1-3z" fill="#940201"/><path d="M369 130c5.75 4.75 5.75 4.75 8 7 2.44.243 2.44.243 5.125.125l2.758-.055L387 137l1-3 2.375.875c2.938.912 5.815 1.699 8.813 2.375l2.543.578c2.553.428 2.553.428 5.27-1.828v2l9 2v2c-8.784.243-17.379-.092-26.125-.937l-2.727-.263c-4.099-.418-8.126-.873-12.148-1.799l.25 3.375c-.085 12.083-8.688 22.174-16.75 30.375-3.32 3.207-6.764 6.237-10.27 9.238-3.4 3.067-6.584 6.343-9.799 9.602-2.802 2.826-5.638 5.527-8.681 8.097-4.363 3.703-8.043 7.965-11.75 12.313-1.318-3.953-.353-5.116 1.438-8.812 2.984-5.759 6.115-8.846 11.563-12.187l2.074-1.594C335 188 335 188 337.688 187.063L340 186c.672-1.936.672-1.936 1-4a101.46 101.46 0 0 1 3-3l1.188-2.312c3.077-4.562 7.593-7.948 12.813-9.687 1.05-1.85 1.05-1.85 2-4l1.469-1.781c2.307-3.343 2.815-6.935 3.688-10.855L366 148l3-1-1-2c-.097-2.353-.13-4.708-.125-7.062l-.008-3.848C368 131 368 131 369 130z" fill="#fad110"/><path d="M161 132h1c1.628 13.21 2.988 26.442 4.287 39.688l1.033 10.398.656 6.672.312 3.109c1.067 10.999 1.067 10.999.711 15.133l-3 2c-.25 3.584-.25 3.584 0 7l-3 1c-7.844-24.767-14.141-60.718-2-85z" fill="#630503"/><path d="M733 161c2.901 1.409 5.492 2.974 8 5l1.699 1.176c2.079 2.915 1.613 6.077 1.488 9.512l-.041 2.127L744 184l-2.605-1.609c-10.768-6.496-21.459-9.866-33.738-12.582-2.892-.88-5.134-2.159-7.656-3.809.188-2.312.188-2.312 1-5 8.538-6.548 22.547-3.197 32 0z" fill="#fdf6f6"/><path d="M674 188c3.278 1.254 6.304 2.683 9.375 4.375 7.309 3.709 15.238 5.393 23.188 7.211 3.939.91 7.307 1.773 10.438 4.414.625 2.5.625 2.5 0 5-4.324 3.537-8.36 3.471-13.687 3.375l-2.435-.031c-10.215-.266-19.423-2.89-26.877-10.344-.073-2.353-.084-4.708-.062-7.062l.027-3.91L674 188z" fill="#fdf9f9"/><path d="M416 145c.688 1.688.688 1.688 1 4-2.275 4.669-5.244 8.897-9.668 11.676-4.943 3.21-8.758 7.737-12.766 12.012-3.624 3.75-6.286 6.188-11.566 7.313v2l-1.875.25c-2.286.556-2.286.556-3.312 2.688L377 187l-1 2h-2v2c-4.2 4.666-4.2 4.666-7.07 5.863-2.112.996-2.112.996-2.906 3.273l-.648 2.551-.73 2.699-1.133 4.758c-1.084 4.477-1.084 4.477-3.137 6.293-2.882.683-5.518.649-8.469.566-2.103-.004-3.912.331-5.906.996v-2l-4 1v-2h16v-7c4.166-13.338 15.612-23.289 26-32l4.875-4.375 2.555-2.305L392 167l5-4.5 2.477-2.23 5.234-4.695 2.664-2.387 2.398-2.145c2.136-1.96 4.193-3.977 6.227-6.043z" fill="#fbd712"/><path d="M127 252l2.156.867L132 254l2.656 1.07c15.545 5.765 32.146 2.629 47.344-3.07l5 8c-2.709 1.354-5.009 1.065-8 1v2c-7.782 3.537-16.042 3.239-24.437 3.313l-3.314.088c-6.92.054-11.333-.756-17.248-4.4v-2l-2.375-.625C129 258 129 258 127.688 254.875L127 252z" fill="#e5e5e5"/><path d="M625.328 197.902l2.422.01 2.5.025 2.547.014L639 198c.464 9.804.464 9.804-1.187 14.063-3.269 3.495-5.969 3.883-10.687 4.188-4.545-.129-9.11-.692-12.797-3.543-2.137-2.747-1.798-5.249-1.684-8.613C613 202 613 202 614.75 200c3.567-1.585 6.685-2.125 10.578-2.098z" fill="#fdf7f7"/><path d="M439 161v9h-2v-2c-2.562 2.312-2.562 2.312-5 5v3c-3.17 2.449-5.995 4.384-10 5l-.312 2.313c-.75 2.931-1.522 3.703-3.687 5.688l-1 3c-2.652 2.043-2.652 2.043-5.937 4.188l-3.277 2.168C405 200 405 200 403 200v6h-12c1.759-4.397 2.445-5.822 5.625-8.875l2.172-2.09c2.648-2.447 5.338-4.835 8.07-7.187L414 181.5l10.914-9.66 4.734-4.273 2.727-2.504 2.523-2.34C437 161 437 161 439 161z" fill="#1f0b00"/><path d="M624.859 193.902l3.379.01 3.512.025 3.559.014L644 194c.708 15.459.708 15.459-4 22-5.17 4.51-10.096 4.604-16.832 4.395-5.629-.701-10.558-2.914-14.168-7.395-1.198-4.473-1.557-8.622.188-12.937 4.727-5.378 8.68-6.196 15.672-6.16zM613 202c-.433 3.053-.475 5.952 0 9 2.95 3.371 5.59 4.59 10 5 5.614.356 9.164.224 14-3 2.149-3.252 2.216-5.91 2.125-9.75l-.055-2.984L639 198l-8.562-.187-2.424-.076c-5.308-.065-11.002.252-15.014 4.264z" fill="#cb1108"/><path d="M804.5 152.438l2.203.736L812 155l1 5h2v4c-3-1-3-1-5.125-3.375-4.302-3.928-8.642-5.503-14.469-5.723-5.435.336-9.361 1.24-13.406 5.098-4.327 6.961-6.089 13.089-6.205 21.259l-.06 3.76-.051 4.031-.063 4.149-.153 10.885-.161 11.121L775 237h-1l-.184-2.082-.254-2.73-.246-2.707c-.251-2.608-.251-2.608-1.316-5.48a62.38 62.38 0 0 1-.062-4.133l.023-2.445.078-5.023c.045-4.789-.217-9.384-.808-14.135-.407-3.98-.376-7.954-.356-11.951l-.012-2.471c.015-9.038 1.329-18.007 6.137-25.842 2.313-1.625 2.313-1.625 5-3l2.813-2.125c6.841-4.024 12.604-2.95 19.688-.437z" fill="#fcd60c"/><path d="M293 147c16.776-.297 33.294.471 50 2-3.75 5.75-3.75 5.75-6 8a98.48 98.48 0 0 1-8.312-.25l-2.522-.158L318 156l-2.888-.22-8.55-.717-2.706-.226-2.54-.239-2.236-.203c-2.3-.436-4.043-1.261-6.08-2.395v-5z" fill="#370100"/><path d="M254.813 191.188c5.032 2.861 8.746 6.522 11.188 11.813-.43 2.152-.43 2.152-1 4l-1.434-1.574c-4.736-4.994-9.369-8.442-15.566-11.426l1 6-2-1.062c-4.614-1.442-8.676-.738-13.199.82-2.01 1.104-2.01 1.104-2.41 3.406l-.141 2.461-.172 2.477L231 210h3c1.324 1.723 1.324 1.723 2.688 4.063 2.734 4.36 5.789 7.401 9.773 10.625L248 226v1c-4.992.535-8.04.435-12.25-2.437-4.941-4.153-7.159-8.829-8.16-15.152-.26-4.441-.03-7.485 2.785-11.035C233 196 233 196 235 196l1-3c5.39-4.695 12.416-3.805 18.813-1.812z" fill="#c61f06"/><path d="M207 223l2 2.125c12.806 12.628 28.297 16.248 45.838 16.25 8.735-.222 15.142-3.41 22.162-8.375l3-1 1-2c1-2 1-2 4-3-.559 3.243-1.413 4.931-4 7h-2l-1 3c-4.415 4.906-8.42 8.053-15 9-3.272.116-6.539.094-9.812.063l-2.678-.014L244 246v-2l-3.43-.367-4.445-.508-2.262-.238c-5.637-.66-5.637-.66-7.863-2.887l-2.625.25c-4.965-.368-7.77-2.968-11.375-6.25-1.377-1.631-2.727-3.287-4-5l-2-1 1-5z" fill="#220400"/><path d="M443 223l3 1v2l2.438.438C451 227 451 227 452 228v5c-4.75 1-4.75 1-7 1l-2 3 3 2c.188 3.125.188 3.125 0 6-2.375.625-2.375.625-5 1l-2-2v-4l-2.125 1c-3.135 1.09-5.581 1.153-8.875 1l1.563 1.75C431 246 431 246 430.688 248.25L430 250c-2.375.625-2.375.625-5 1l-2-2c.327-2.616.82-4.641 2-7l-4-1 2-3c2.602-.293 2.602-.293 5.625-.187l3.039.082L434 238v-2h3l.75-3.125c1.091-3.881 2.879-6.635 5.25-9.875z" fill="#a9a09f"/><path d="M239.5 154.688l2.434-.01c9.307.083 16.656 1.912 23.441 8.697 1.934 3.123 1.961 5.016 1.625 8.625l-1.937-2.25c-8.562-8.49-20.898-7.836-32.125-8.312l-2.912-.131L223 161l-1-3c6.071-2.639 10.913-3.445 17.5-3.312z" fill="#170300"/><path d="M443 150l2 2c-5.686 8.099-12.388 14.714-19.867 21.152L418 179.5l-8.875 7.875C403.651 192.14 398.336 197.082 393 202l-1-3a63.33 63.33 0 0 1 4.25-6.187l1.238-1.693c1.215-1.6 1.215-1.6 3.512-4.119h3l.625-1.641c1.912-3.281 4.58-5.598 7.375-8.109l1.656-1.535C417.742 172 417.742 172 420 172l-1-3 5.813-3 3.27-1.687C431 163 431 163 434 163l1-4 4-1v-3h2l.438-1.937C442 151 442 151 443 150z" fill="#f9da13"/><path d="M161 132h1c1.806 13.964 2.947 27.961 4 42l-6 1-1-5-3 1c-.623-12.241-.601-27.798 5-39z" fill="#5e0201"/><path d="M838 153c4.141 3.563 4.372 7.774 5 13 .241 4.413.234 8.808.195 13.227l-.009 3.724-.062 11.675-.027 7.957L843 222l-2-3-1 3h-2l-.062-9.062-.025-2.568c-.015-3.764.071-7.262.654-10.99.415-3.236.185-5.911-.295-9.121-.55-4.587-.456-9.207-.458-13.821l-.037-3.037c-.011-5.539.369-10.17 2.225-15.4h-2v-5z" fill="#fcdd0e"/><path d="M297 236c9.349-.131 18.583.204 27.908.855 13.716.95 27.339 1.41 41.092 1.145-1.219 2.495-1.219 2.495-4 5-4.176.627-8.295.32-12.5.086l-3.721-.149-11.779-.562-7.937-.332-14.531-.667-2.951-.147c-2.316-.206-4.346-.615-6.58-1.23l-6-1 1-3z" fill="#1a0400"/><path d="M438 230l2 1c-1.312 2.5-1.312 2.5-3 5h-3v2l-2.266.078c-6.141.209-6.141.209-11.422 2.984L419 243l-1-1c-1.396-.021-2.793.009-4.187.063-4.063.051-6.955-.751-10.812-2.062-3.658-.462-7.322-.751-11-1v-3h22l1-4 1.681.032 7.569.093 2.645.051 2.559.02 2.349.032c2.455-.254 4.015-1.13 6.198-2.227z" fill="#300200"/><path d="M816 170h3v4h2l-.254 3.727-.309 4.898-.17 2.449c-.275 4.515-.092 8.453.732 12.926-.937 2.063-.937 2.063-2 4-.168 2.667-.168 2.667 0 5l2-1-.062 3.313c-.123 3.631-.123 3.631 1.063 6.688a203.24 203.24 0 0 1-2 5c-.747 2.984-1.383 5.987-2 9-2-2-2-2-2.241-4.442l.013-3.109v-3.518l.031-3.813.009-3.893.049-10.249.04-10.457L816 170z" fill="#fbd90e"/><path d="M615 176l-6.937 3.438c-4.952 2.526-8.8 5.054-12.687 9.063l-2.289 2.344L591 193l-1.742 1.586c-2.095 2.356-1.862 5.348-2.258 8.414a152.57 152.57 0 0 1-1.625 4.438c-1.634 4.593-1.324 7.818-.375 12.563-3.067-2.8-3.908-4.83-4.238-9.039-.227-10.958 1.67-18.078 9.184-26.172 6.807-5.927 16.076-9.227 25.055-8.789z" class="Q"/><path d="M181 252l4 5c-4.159 4.875-10.829 5.712-16.956 6.268-2.958.096-5.897.093-8.857.044l-3.021.01c-9.609-.07-9.609-.07-14.166-2.322l-1-3 2.938.105c12.773.314 25.232-.929 37.063-6.105z" fill="#aaa8a9"/><path d="M372 222h9l1 2c5.141 1.157 5.141 1.157 10 0v2l2.781-.035c6.509-.048 12.787.006 19.219 1.035v2l5 1v2a149.58 149.58 0 0 1-18.41-.875l-2.585-.269-8.068-.856-5.514-.578L371 228l-1 4c-1.392-4.176.177-6.135 2-10z" fill="#f5d311"/><path d="M749 112c3.238 1.619 3.763 3.642 5 7-.07 2.598-.366 5.067-.773 7.633-.235 2.453.161 4.01.773 6.367l-.437 4.375c-.654 5.498-.557 10.897-.402 16.426-.16 3.199-.16 3.199-1.144 5.458-1.247 3.364-1.338 6.207-1.43 9.792l-.059 1.996-.152 6.265-.117 4.268L750 192h-1v-80z" fill="#fde70f"/><path d="M369 167l1 2c-1.951 4.227-4.11 5.666-8 8-1.645 2.463-1.645 2.463-3 5-1.95 2.507-2.923 2.978-6.062 3.875L350 187l-2 5c-1.653 1.398-3.395 2.555-5.199 3.75-2.582 1.793-4.64 3.976-6.801 6.25-1.628 1.704-3.288 3.38-5 5h-2l-.937 1.875L326 213h-8c1.571-3.535 3.218-6.286 6-9 1.792-.68 3.609-1.3 5.438-1.875 4.843-1.589 6.946-3.056 9.527-7.395 3.192-5.337 9.093-10.051 14.438-13.102 2.803-1.758 4.86-3.695 7.16-6.066l2.254-2.309L365 171l4-4z" fill="#3a0100"/><path d="M376 139l16.071 1.172 5.468.396 7.856.581 2.472.168c3.786.298 5.916.539 9.134 2.684-1.582 2.504-1.582 2.504-4 5-3.199.34-3.199.34-6.687-.062l-3.512-.348L400 148l-1-2-2.117.035-2.758.027-2.742.035C389 146 389 146 387 145a142.02 142.02 0 0 0-5.625-.562l-3.039-.254L376 144v-5z" fill="#180500"/><path d="M531 108c-3.155 2.804-4.86 3.106-9 3l-3 2-3 1-1.812 1.813C512 118 512 118 509.27 119.734c-3.71 2.571-6.652 5.464-9.77 8.703-3.993 4.121-8.028 7.96-12.5 11.563-.652-1.766-.652-1.766-1-4 6.651-13.246 21.41-22.494 35-27 3.412-.979 6.445-1.081 10-1z" fill="#fcdf0f"/><path d="M212 220h2l1 9 9 2 1 4 4-1v2l4-2v2l4-1v2l1.754-.586c2.637-.486 3.75-.09 6.184.961 5.27 2.139 10.432 2.852 16.063 3.625v1c-17.999.384-34.755-.545-49-13-2-2-2-2-2.25-4.5.25-2.5.25-2.5 2.25-4.5z" fill="#f5dc13"/><path d="M447 148l1 4h-2l-.25 2.063C445 157 445 157 443 159.813c-3.035 4.942-2.646 10.821-2.824 16.445-.144 3.058-.466 5.777-1.176 8.742h-2l-2-4c-3.926-.573-5.92-.75-9.246 1.559-1.984 1.758-3.897 3.55-5.754 5.441l-2-1 1.438-1.25c1.735-1.623 1.735-1.623 1.875-3.812L422 180c1.986-.706 3.988-1.369 6-2 2.398-1.813 2.398-1.813 4-4v-3c1.375-1.687 1.375-1.687 3-3h2v2h2l-.465-1.871c-.759-4.12-1.198-6.933.887-10.691 1.779-2.235 3.642-4.338 5.578-6.437l2-3z" fill="#570000"/><path d="M371 228c14.801.475 29.333 1.981 44 4l-1 4-6.625.125-3.727.07C400 236 400 236 397.281 235.031c-4.982-1.566-9.963-1.503-15.156-1.656l-3.242-.117L371 233v-5z" fill="#1b0800"/><path d="M316 125c39.571-.395 39.571-.395 48 3 1.281 2.074 1.281 2.074 2 4l-3.762-.473-4.926-.59-2.475-.314c-4.231-.497-7.66-.683-11.838.377l-5-1-1.844.531c-3.395.738-6.302-.335-9.621-1.156-2.787-.412-4.823-.074-7.535.625v-2l-2-1-1-2z" fill="#fcda12"/><path d="M223 159v2l1.785-.016 8.153-.047 2.807-.025c20.594-.072 20.594-.072 27.932 6.615C267 171.357 267 171.357 267 174c-2.14-.959-3.772-1.759-5.397-3.473-6.032-5.745-16.484-5.221-24.228-5.652l-7.102-.445-3.31-.208A109.66 109.66 0 0 1 217 163v2h-2c1.462-4.63 1.462-4.63 4-6.375 2-.625 2-.625 4 .375z" fill="#5e0000"/><path d="M405 119c8.196-.218 16.276-.054 24.438.75l2.218.187c5.309.579 9.864 2.09 14.344 5.063l1 2-11-3v2l-5 1v-2l-2.195.559c-2.957.465-4.795.209-7.68-.496-4.183-.933-7.852-1.248-12.125-1.062v-2l-5 1 1-4z" fill="#f9d411"/><path d="M748 159l2 3 2-2c1.494 2.988 1.144 6.04 1.125 9.313l.008 3.988c-.11 3.071-.508 5.713-1.133 8.699l1 7v9l-2 1-1-3-1 32h-1v-69z" fill="#f3b70b"/><path d="M447 127c2.018 1.654 2.921 2.524 3.356 5.141l-.028 2.464-.016 2.732-.062 2.85-.016 2.791L450 151l-.097 2.284c-.38 4.813-1.603 7.301-4.965 10.716l-2.223 2.313L441 168c-.648-1.75-.648-1.75-1-4 .961-2 .961-2 2.375-4 1.869-2.673 3.007-4.782 3.625-8h2l-1-3-1 2h-4l.75-6.25.422-3.516c.932-3.641 2.172-4.709 4.828-7.234-.146-3.694-.146-3.694-1-7z" fill="#fed811"/><path d="M246 202c2.875 1.063 2.875 1.063 5 3 .406 3.786.203 6.391-1 10-3.062 1.188-3.062 1.188-6 2l-1.625-2.375c-2.677-2.959-4.559-3.671-8.375-4.625l2-1 .438-1.875c1.389-5.248 4.527-5.729 9.563-5.125z" fill="#fb2b2d"/><path d="M299 231l12.633 2.559c3.591.67 7.044 1.103 10.367-.559 5.762-.358 11.304.106 17 1 1.666.035 3.334.05 5 0v2h7v2c-38.66.354-38.66.354-49-4l-3-1v-2z" fill="#fedf13"/><path d="M375 139h1v5l2.195-.035c5.082-.047 9.796.103 14.805 1.035a141.8 141.8 0 0 0 6 0l1 3h-7v2l-6.312-.437-3.551-.246C380 149 380 149 377 148v2h-2l.359 1.977c.696 4.721 1.047 7.225-1.172 11.586C372 166 372 166 370 167l3-11-2-1 1.438-3.5c1.585-4.186 2.165-8.052 2.563-12.5z" fill="#6d1101"/><path d="M257 207c3.366 1.442 5.75 3.083 8 6 .096 3.652-1.159 5.229-3.25 8.25-2.75 2.75-2.75 2.75-5.125 3.938-3.979-.284-6.804-2.431-9.625-5.187v-2h6c1.962-3.668 3.393-6.872 4-11z" fill="#9b0901"/><path d="M306 148l12.313-.062 3.479-.025c7.13-.02 14.122.291 21.209 1.088l-2 4c-11.751.399-23.322-.818-35-2v-3z" fill="#1f0600"/><path d="M431 173l2 2c-6.143 5.571-6.143 5.571-11 6l-.312 2.313c-.75 2.931-1.522 3.703-3.687 5.688l-1 3c-2.652 2.043-2.652 2.043-5.937 4.188l-3.277 2.168C405 200 405 200 403 200v6h-12l1-2 3.375-.312c3.746-.277 3.746-.277 5.313-3.062L402 198l4-3 .809-1.906c1.976-3.473 5.425-4.631 8.879-6.434 2.761-1.982 3.255-3.493 4.313-6.66 2-2 2-2 5.5-2.937 3.737-.73 3.737-.73 5.5-4.062z" fill="#3a0000"/><path d="M695 136c-2.606 2.654-5.233 5.242-8.008 7.719l-1.551 1.387-3.156 2.789c-3.102 2.787-5.336 5.423-7.285 9.105-.972 1.683-1.966 3.354-3 5h-1c.039-8.529 3.027-13.059 8.965-18.949 9.659-8.843 9.659-8.843 15.035-7.051z" fill="#fbdf0f"/><path d="M236 155l-2 3-7-1v2l30 1 1 3 3.938.375c2.215.211 2.215.211 4.063.625 1.354 2.709 1.065 5.009 1 8l-1.937-2.25c-8.562-8.49-20.898-7.836-32.125-8.312l-2.912-.131L223 161l-1-3c4.93-2.04 8.58-3.407 14-3z" fill="#2d0000"/><path d="M518 135c-.583 3.489-1.782 5.078-4.25 7.563-8.869 9.959-10.125 21.686-11.75 34.438-2-2-2-2-2.082-5.562l.27-4.437.155-2.327c.956-12.239 4.513-20.211 13.853-28.352C516 135 516 135 518 135z" fill="#fcdf0e"/><path d="M303 143l1 2 1.625-.625c3.208-.506 5.388.471 8.375 1.625l1-2 2.625.625c3.336.62 3.336.62 6.188-.625 4.278-1.342 7.824-.717 12.188 0v2l4 2v1l-32.125-1.5-3.695-.219c-2.799-.248-5.442-.661-8.18-1.281 2.36-2.36 3.779-2.491 7-3z" fill="#f5dc13"/><path d="M245.688 189.688c6.132.141 10.373 1.637 15.063 5.688 2.131 2.486 3.877 4.651 5.25 7.625-.43 2.152-.43 2.152-1 4l-1.363-1.539C256.944 198.298 249.085 192.448 239 192c2.47-2.47 3.282-2.297 6.688-2.312z" fill="#fa2316"/><path d="M796.441 130.77l2.518.006 2.604.037 2.615.002c6.4.045 6.4.045 9.822 1.186l-1 3c-6.644.214-12.532-.488-19-2l-1.625 2.313c-2.61 2.954-4.824 4.06-8.375 5.688-1.359.965-2.703 1.953-4 3-.234-2.301-.234-2.301 0-5 1.609-1.73 1.609-1.73 3.75-3.187l2.109-1.48c3.648-2.27 6.224-3.586 10.582-3.562z" fill="#fcdf0f"/><path d="M232 210h2l2.625 4.063c2.766 4.334 5.855 7.404 9.836 10.625L248 226v1c-5.315.569-8.087.367-12.437-2.875-2.071-1.678-3.369-2.738-4.562-5.125-.187-2.69-.086-5.297 0-8l1-1z" fill="#821703"/><path d="M161 132h1l1 8.125.289 2.305c.509 4.219.82 8.31.711 12.57l-5 2-1-1-1 7h-1c-.238-6.537.65-12.476 1.938-18.875l.553-2.875c1.362-6.955 1.362-6.955 2.51-9.25z" fill="#6b130e"/><path d="M774 176h1v61h-1l-.184-2.082-.254-2.73-.246-2.707c-.251-2.608-.251-2.608-1.316-5.48l-.187-9-.002-2.737c.09-12.121 1.156-24.193 2.189-36.263z" fill="#fde70f"/><path d="M370 231l1 2 2 1-2.437 1.25c-2.959 2.021-2.864 2.456-3.562 5.75-1.496 2.109-1.496 2.109-4 4a55.37 55.37 0 0 1-8.5.313l-2.414-.047c-6.382-.154-12.74-.569-19.086-1.266v-2l2.615.048 9.611.117 4.158.062 5.98.067 3.634.048c2.975-.097 2.975-.097 4.917-1.671 1.358-1.757 1.358-1.757 1.085-4.669 2.5-2.687 2.5-2.687 5-5z" fill="#2e0000"/><path d="M205 157l.75 1.938c1.066 2.25 1.066 2.25 3.375 2.813L211 162v2h3l1-3 1 2-1 2h2v-2c7.429-.286 7.429-.286 11 2-1.991.381-3.993.713-6 1l-1-1-1.062 1.375c-2.782 2.333-5.409 2.895-8.937 3.625-2.937-.375-2.937-.375-5-1-.982-4.053-1.082-7.839-1-12z" fill="#7e0301"/><path d="M207 223l2 2.125c6.84 6.745 14.023 10.494 23 13.875l-1 2c-7.548-.304-13.344-1.141-18.691-6.785-1.041-1.221-2.059-2.462-3.047-3.727-1.212-1.627-1.212-1.627-3.262-2.488l1-5z" fill="#320c01"/><path d="M664 214h2c.757 5.931-.744 9.044-4.215 13.852-3.527 4.245-7.584 8.103-12.785 10.148l-3-1 3.371-3.359 3.602-3.719 2.09-2.172 1.973-2.078c2.045-1.74 3.342-2.275 5.965-2.672l-.062-3.937A59.19 59.19 0 0 1 663 215l1-1z" fill="#fbe010"/><path d="M438 230l2 1c-1.312 2.5-1.312 2.5-3 5h-3v2h-14l1-3-5-1v-1l3.797-.148 4.953-.227 2.5-.094 2.422-.117 2.222-.095c2.186-.218 2.186-.218 4.252-1.407L438 230z" fill="#120100"/><path d="M160 200l2.813.563c3.201.679 3.201.679 6.188-.562.188 3.375.188 3.375 0 7l-3 2c-.25 3.584-.25 3.584 0 7l-3 1-2.062-6.812-.604-1.947c-1.447-4.9-1.447-4.9-.334-8.24z" fill="#681007"/><path d="M732 154l1 2 2 1-1.992-.437c-6.49-1.266-12.788-1.78-19.383-1.812l-2.304-.027c-4.49.024-8.092.586-12.321 2.277v-3h2v-2l1.863-.184 2.449-.254 2.426-.246c8.624-1.206 16.029-1.236 24.262 2.684z" fill="#fce210"/><path d="M293 147c2.313.25 2.313.25 5 1l3 4c3.705 1.358 7.705 1.32 11.609 1.535l2.202.13 6.938.397 4.715.275L338 155l-1 2c-10.164-.441-20.304-1.03-30.437-1.937l-2.706-.226-2.54-.239-2.236-.203c-2.3-.436-4.043-1.261-6.08-2.395v-5z" fill="#5a0100"/><path d="M133 255l8 2 1 4c5.284 1.031 10.511 1.316 15.875 1.563l2.664.131L167 263l-1 2-8.937.188-2.518.076c-6.762.079-12.486-1.234-18.545-4.264v-2l-3-1v-3z" fill="#c7c6c6"/><path d="M749 193c5.011 7.517 4.939 14.838 3.582 23.742A127.58 127.58 0 0 1 751 223l-1 5h-1v-35z" fill="#fde710"/><path d="M181 252v3h-2v2h-4v2c-4.672 1.827-8.56 2.243-13.562 2.188l-3.879-.02c-2.988-.141-5.659-.472-8.559-1.168v-1l1.753-.212c15.514-1.814 15.514-1.814 30.247-6.788z" fill="#8d8a84"/><path d="M198 242l1 3-5.187 5.563-1.463 1.615c-1.455 1.514-1.455 1.514-4.35 3.822-2.863-.16-2.863-.16-5-1v-4c2.266-1.852 2.266-1.852 5.25-3.625l2.953-1.789L198 242z" fill="#3b0000"/><path d="M373 148c1 3 1 3 .207 5.242-4.758 8.983-11.656 18.057-20.207 23.758l-1-3c1.375-1.5 1.375-1.5 3-3h2l.688-1.687c2.269-3.997 4.931-6.852 9.313-8.312l.313-2.125c1.015-4.246 2.586-7.774 5.688-10.875z" fill="#f1db14"/><path d="M369 167l1 2c-1.951 4.227-4.11 5.666-8 8-1.645 2.463-1.645 2.463-3 5-1.95 2.507-2.923 2.978-6.062 3.875L350 187l-.937 2.375c-1.608 3.973-4.293 4.74-8.062 6.625v-2l2.375-1.312c3.109-1.999 3.435-3.286 4.625-6.687 1.623-2.01 3.059-3.034 5.32-4.309 2.832-1.787 4.915-3.729 7.242-6.129l2.254-2.309L365 171l4-4z" fill="#5b0000"/><path d="M742 218l2 1c-.806 5.87-3.719 9.079-8 13-2.657 1.759-4.999 2.83-8 4l-2-1 2.75-3 1.547-1.687C732 229 732 229 736 229l.188-2.687c.994-4.053 2.714-5.611 5.813-8.312z" fill="#fbe010"/><path d="M773 117h3v23h-2c-1.818-7.337-2.536-14.439-2-22l1-1z" fill="#fddf0e"/><path d="M252 202l6 4c-1.145 5.11-2.455 9.372-5 14l-1-2-6 1-1-3 2.375-.375c2.766-.416 2.766-.416 4.625-2.625.243-2.669.243-2.669.125-5.625l-.055-3.039L252 202z" fill="#d10504"/><path d="M753 119c1.249 3.608.618 6.293 0 10l.496 1.883c.598 2.512.389 4.436.066 6.992-.431 3.737-.662 7.357-.562 11.125h-2c-1.103-5.39-1.218-10.647-1.25-16.125l-.062-2.707c-.039-6.561-.039-6.561 1.828-9.785L753 119z" fill="#fdd80b"/><path d="M291 234l8 1-3 4 1.934-.035 2.504-.027 2.496-.035C305 239 305 239 306 240l6.004.316 3.682.127 3.877.119 3.889.131L333 241v1l-14.307.11-4.865.041-7 .044-2.191.031c-3.715.001-6.483-.164-9.637-2.227v-2h-3l-1-4z" fill="#310000"/><path d="M439 161v9h-2v-2c-2.829 2.065-4.77 3.57-6.437 6.688C429 177 429 177 425.813 177.813L423 178l6-4v-3l-2-1 4.875-4.5 2.742-2.531C437 161 437 161 439 161z" fill="#280000"/><path d="M449 142h1v9 4c-.707 5.567-5.174 9.235-9 13-.648-1.75-.648-1.75-1-4 .961-2 .961-2 2.375-4 1.869-2.673 3.007-4.782 3.625-8h2l-.625-2.187c-.435-3.259.208-4.896 1.625-7.812z" fill="#95928e"/><path d="M620 236l1 2h6v2l4.75-.937 2.672-.527 4.766-1.16c2.486-.514 3.697.341 5.813 1.625-7.122 4.109-17.174 4.087-25 2-.562-1.937-.562-1.937-1-4l1-1z" fill="#f7cf0e"/><path d="M375 139h1v5l2.195-.035c5.082-.047 9.796.103 14.805 1.035a141.8 141.8 0 0 0 6 0v3h-14v-2l-10 2v-9z" fill="#4f0500"/><path d="M477 160h2l.5 4.688.281 2.637c.506 6.184-.456 9.959-2.781 15.676h-1l-.062-10.375-.025-2.984-.01-2.852-.016-2.634C476 162 476 162 477 160z" class="Q"/><path d="M443 142c1.184 3.552.695 4.698-.437 8.188l-.871 2.73L441 155h-2v3l-1.937.813c-2.394 1.074-2.394 1.074-3.062 4.188l-6 2 3-6h2l1-3h2l.875-1.875C438 152 438 152 440 150c.888-1.965.888-1.965 1.625-4.125l.789-2.195L443 142z" fill="#fdd110"/><path d="M283 227h2c-.559 3.243-1.413 4.931-4 7h-2l-1 3-5 5h-2v-2l-4 1v-2l4.25-2.375 2.391-1.336 4.582-2.324c2.301-1.249 2.784-2.595 3.777-4.965l1-1z" fill="#280e01"/><path d="M447 148l1 4h-2l-.25 2.063C445 157 445 157 443 159.813c-3.588 5.798-2.841 13.584-3 20.188h-1c-2.098-17.508-2.098-17.508.422-23.227 1.738-2.147 3.514-3.947 5.578-5.773l2-3z" fill="#5a554e"/><path d="M371 236l2 1c-.986 3.315-1.654 4.749-4.5 6.813C366 245 366 245 364 245v2h-17l-1-2 3.648-.113 4.727-.199 2.406-.068c2.081-.097 4.153-.349 6.219-.619l2-3h4l2-5z" fill="#510000"/><path d="M406 191l2 1c-2.625 4.875-2.625 4.875-6 6l-.937 2.438C400 203 400 203 398.125 204.313 396 205 396 205 392 205c.563-2.312.563-2.312 2-5l5.18-2.109c3.16-1.546 4.767-4.091 6.82-6.891z" fill="#250400"/><path d="M392 237c6.163-.207 11.737-.04 17.719 1.488 4.041.907 8.159 1.185 12.281 1.512l-3 3-1-1c-1.396-.021-2.793.009-4.187.063-4.063.051-6.955-.751-10.812-2.062-3.658-.462-7.322-.751-11-1v-2z" fill="#4d0000"/><path d="M376 116l6.188-.062 3.48-.035A39.4 39.4 0 0 1 394 117v2c-3.782 1.837-5.946 2.158-10 1v-2l-7 3-1-5z" fill="#f7d913"/><path d="M440 228h2c-.611 6.476-.611 6.476-2.437 8.938C438 238 438 238 436 238v2h-14l1-2h11v-2h3l.938-3.437C439 229 439 229 440 228z" fill="#757170"/><path d="M397 226c5.778-.12 11.28.168 17 1v2l5 1v2l-4.312.125-2.426.07C410 232 410 232 407 230c-2.165-1.222-2.165-1.222-5.562-1.437L398 228l-1-2z" fill="#fedc12"/><path d="M209 197h1c1.067 5.239 1.183 10.304 1.188 15.625l.037 2.563.006 2.477.012 2.233c-.277 2.395-1.056 4.021-2.243 6.103-1.933-3.979-1.857-5.761-1-10 .269-3.267.414-6.538.563-9.812l.131-2.678L209 197z" fill="#ddb40d"/><path d="M621 193c-2 2-2 2-5.437 3.313-3.934 1.863-4.943 2.728-6.562 6.688l-1 7-3 1c.191-11.056.191-11.056 3.25-14.625 4.489-2.244 7.651-3.666 12.75-3.375z" fill="#fcdf0e"/><path d="M242 191.875l2.125-.008C246 192 246 192 248 193l1 7-2.562-1.437c-3.563-1.62-6.563-2.175-10.437-2.562v-3c2.245-1.123 3.515-1.134 6-1.125z" fill="#660603"/><path d="M320 214l1.938.563L324 215l1-1 7.063-.062 3.91.027L339 214l-1 3c-6.42 1.014-11.725 1.092-18-1v-2z" fill="#fed711"/><path d="M247.188 125.375L249 126l2 7h-9c-.187-2.875-.187-2.875 0-6 3-2 3-2 5.188-1.625z" fill="#af0100"/><path d="M228 242l6.313.438 3.551.246C241 243 241 243 244 244v2h7l-1 2c-8.036.804-14.634-2.103-22-5v-1z" fill="#380000"/><path d="M720 211l1 2-2 5-2.703.184-3.547.254-3.516.246c-3.101.201-3.101.201-5.469.977C702 220 702 220 699 218c2.415-2.415 8.209-1.928 11.484-2.305 3.806-.753 6.739-1.919 9.516-4.695z" fill="#fad60e"/><path d="M370 131c3.192 2.416 5.747 4.68 8 8h-3l.25 3.813c.016 2.207.016 2.207-.25 4.188-2 2-2 2-4 3-.212-5.192.409-9.127 2-14h-2l-1-5z" fill="#fbe615"/><use xlink:href="#B" fill="#a42223"/><use xlink:href="#B" x="122" y="-39" fill="#b00001"/><path d="M390 302c2.625.375 2.625.375 5 1 .625 1.813.625 1.813 1 4l-2 3-5-1c-.625-2.375-.625-2.375-1-5l2-2z" fill="#a42323"/><path d="M722.563 232.938L725 233v3c-3.402 3.402-7.772 3.054-12.375 3.063L709 239v-2l2.152-.621 2.785-.816 2.777-.809c5.478-1.807 5.478-1.807 5.848-1.816z" class="Q"/><path d="M267 169h1v8h-13l4-3c.796-2.094.796-2.094 1-4a56.54 56.54 0 0 1 7 4v-5z" fill="#a41b02"/><path d="M448 166c2.625.375 2.625.375 5 1l1 5c-3 2-3 2-5.187 1.625L447 173c-.625-2.375-.625-2.375-1-5l2-2z" fill="#f12122"/><path d="M371 156h2c-.464 4.729-1.08 8.181-4 12l-3 1v-3l-2-1 3.375-4.5 1.898-2.531L371 156z" fill="#390d01"/><path d="M457.188 263.375L459 264c.625 2.375.625 2.375 1 5l-2 2c-2.625-.375-2.625-.375-5-1l-1-5c3-2 3-2 5.188-1.625zM152 213c2.625.375 2.625.375 5 1 .625 1.813.625 1.813 1 4l-2 3-5-1c-.625-2.375-.625-2.375-1-5l2-2z" fill="#a21e1f"/><use xlink:href="#B" x="291" y="74" fill="#f12021"/><path d="M166 179h1v8l-7 1c-.625-2.375-.625-2.375-1-5l2-2h4l1-2z" fill="#ad0a01"/><path d="M427 121c7.539-.499 12.542-.066 19 4l1 2-2.16-.402c-5.27-.972-10.528-1.889-15.84-2.598v-2l-2-1z" fill="#feed29"/><path d="M331 97c2.935.367 3.864.864 6 3-.536 3.536-.536 3.536-2 5h-5l-1-6 2-2zm-36.812-7.625L296 90c.625 2.375.625 2.375 1 5l-2 2c-2.625-.375-2.625-.375-5-1l-1-5c3-2 3-2 5.188-1.625z" class="R"/><path d="M403 185l1 2-3-1 2-1zm-4 3c0 3.585-.714 4.186-2.937 6.875-2.416 3.073-3.585 5.184-4.062 9.125l-2 1 .313-4.312.176-2.426c.6-2.652 1.369-3.627 3.512-5.262h2l.938-1.937C398 189 398 189 399 188z" fill="#fbcb0e"/><path d="M137.188 192.375L139 193c.625 2.375.625 2.375 1 5l-2 2c-2.625-.375-2.625-.375-5-1l-1-5c3-2 3-2 5.188-1.625z" fill="#a01a1b"/><path d="M302 101l5 1c.688 1.813.688 1.813 1 4-1.437 1.75-1.437 1.75-3 3l-5-2c.875-4.875.875-4.875 2-6z" class="R"/><path d="M292.063 256.938L295 257c.625 2.375.625 2.375 1 5l-2 2c-2.625-.375-2.625-.375-5-1l-1-5c1-1 1-1 4.063-1.062z" fill="#b20001"/><path d="M278.438 254.813C281 255 281 255 283 257c-.536 3.536-.536 3.536-2 5h-5c-1-1-1-1-1.125-3.5.167-3.33.247-3.432 3.563-3.687zM335 251c.125 2.375.125 2.375 0 5l-2 2c-2.625-.375-2.625-.375-5-1v-6c2.667-1.333 4.167-.671 7 0z" class="R"/><path d="M257 207l3 1v7h-2l-1 5-4 1 2.563-9.25.816-2.703L257 207z" fill="#b10102"/><path d="M149.188 159.375L151 160c.625 2.375.625 2.375 1 5l-2 2c-2.625-.375-2.625-.375-5-1l-1-5c3-2 3-2 5.188-1.625z" fill="#f1191a"/><path d="M212 152h1l-1 11 2 1h-3v-2l-5-1v-5l5-1 1-3z" fill="#b10b01"/><path d="M339.438 115.813C342 116 342 116 344 118c-.536 3.536-.536 3.536-2 5h-5c-1-1-1-1-1.125-3.5.167-3.33.247-3.432 3.563-3.687z" class="G"/><path d="M401 293c2.188.313 2.188.313 4 1 .625 2.375.625 2.375 1 5l-2 2c-2-.125-2-.125-4-1-1.25-2.062-1.25-2.062-2-4 1.25-1.562 1.25-1.562 3-3z" fill="#f11819"/><path d="M293 268l5 1c.625 2.375.625 2.375 1 5l-2 2c-2.625-.375-2.625-.375-5-1v-6l1-1z" fill="#b10001"/><path d="M288.438 244.813C291 245 291 245 293 247c-.536 3.536-.536 3.536-2 5h-5l-1-6c1-1 1-1 3.438-1.187z" class="H"/><path d="M403 200h5c1 1 1 1 1.125 3.5C409 206 409 206 408 207l-4.562.063-2.504-.027L399 207l3-2c.73-2.563.73-2.563 1-5z" fill="#d81002"/><path d="M346 187l1 4c-3.75 3-3.75 3-6 3l-.215 2.23c-1.003 3.539-2.543 4.751-5.348 7.082l-2.504 2.113L331 207c0-3.822 1.001-4.442 3.563-7.187l2.191-2.383L339 195l4-4.562 1.75-2.004L346 187z" fill="#400"/><path d="M669 182h1l.063 7.313.025 2.092c.015 3.144-.086 5.59-1.088 8.596h-3l.375-7.875.094-2.262c.305-5.637.305-5.637 2.531-7.863z" fill="#fde30f"/><path d="M343 185c-1.392 3.13-3.026 5.323-5.437 7.75l-1.809 1.859C334 196 334 196 331 196c.474-4.263 2.922-6.215 6-9 3-2 3-2 6-2z" fill="#ecd413"/><path d="M146 173c2.625.375 2.625.375 5 1l1 5c-1 1-1 1-4.062 1.063L145 180c-.625-2.375-.625-2.375-1-5l2-2z" fill="#f11718"/><path d="M204 126c2.125.375 2.125.375 4 1l1 5c-1 1-1 1-3.562 1.063L203 133v5h-1l-.125-4.875-.07-2.742C202 128 202 128 204 126z" fill="#b41002"/><path d="M279 124l7 1-1 5c-2.375.625-2.375.625-5 1l-2-2c.375-2.625.375-2.625 1-5z" fill="#e00001"/><path d="M253 116l5 1 1 5-5 2-3-4 2-4z" class="G"/><path d="M396 287c.625 1.875.625 1.875 1 4-2 2-2 2-4.625 2.125L390 293l-1-6c2.667-1.333 4.167-.671 7 0z" fill="#f01314"/><path d="M401 276c3.692.692 3.692.692 5 2v5c-2.375.625-2.375.625-5 1l-2-2c.556-4.556.556-4.556 2-6z" fill="#9f1717"/><path d="M421.625 272.875L424 273c.625 2.375.625 2.375 1 5l-2 2c-2.625-.375-2.625-.375-5-1-.625-1.875-.625-1.875-1-4 2-2 2-2 4.625-2.125z" fill="#f11415"/><path d="M428 262l5 1 1 5c-1 1-1 1-3.437 1.188C428 269 428 269 426 267c.536-3.536.536-3.536 2-5z" fill="#f11616"/><path d="M317 254c3.536.536 3.536.536 5 2v5l-6 1-1-6 2-2z" class="G"/><path d="M355 249l5 1 1 5c-1 1-1 1-3.437 1.188C355 256 355 256 353 254c.536-3.536.536-3.536 2-5z" fill="#b20001"/><path d="M305 246c.625 2.375.625 2.375 1 5l-2 2c-2.625-.375-2.625-.375-5-1v-6c2.491-1.245 3.411-.777 6 0z" class="H"/><use xlink:href="#C" fill="#9e1516"/><path d="M438 230l2 1c-1.312 2.5-1.312 2.5-3 5h-3v2h-11l1-2c2.241-.603 4.486-.956 6.773-1.34 2.54-.753 3.488-1.713 5.227-3.66l2-1z" fill="#413c3a"/><path d="M408 208c6.769-.102 13.303-.03 20 1-1.687 1.563-1.687 1.563-4 3-2.75-.312-2.75-.312-5-1v-2l-2 1v3h-2v-2l-2.375-.375C410 210 410 210 408 208z" fill="#fee414"/><path d="M359 187h5l2 6-3 2-5-3 1-5z" fill="#b60501"/><use xlink:href="#C" x="-278" y="-57" fill="#f01313"/><use xlink:href="#D" fill="#9e1415"/><path d="M266.563 108.938L269 109c1.125 4.75 1.125 4.75 0 7-2.375.125-2.375.125-5 0l-2-2c.753-4.97.753-4.97 4.563-5.062zM316 103l5 3-2 5-5-1-1-5 3-2z" class="H"/><path d="M356 98l1 5-6 1-2-2v-4c2.667-1.333 4.167-.671 7 0z" class="G"/><path d="M278 91c3.692.692 3.692.692 5 2v5c-2.375.625-2.375.625-5 1l-2-2c.556-4.556.556-4.556 2-6z" class="H"/><path d="M263 84c2.125.375 2.125.375 4 1 .625 2.375.625 2.375 1 5l-2 2c-2.625-.375-2.625-.375-5-1-.125-2.375-.125-2.375 0-5l2-2z" fill="#e00001"/><path d="M382.5 294.875C385 295 385 295 386 296c.125 2.5.125 2.5 0 5-1 1-1 1-3.5 1.125C380 302 380 302 379 301c-.125-2.5-.125-2.5 0-5 1-1 1-1 3.5-1.125z" fill="#9b0f0f"/><path d="M412.5 282.875C415 283 415 283 416 284c.125 2.5.125 2.5 0 5-1 1-1 1-3.5 1.125C410 290 410 290 409 289c-.125-2.5-.125-2.5 0-5 1-1 1-1 3.5-1.125z" fill="#9c1010"/><path d="M452 276c.625 2.375.625 2.375 1 5l-2 2c-3.536-.536-3.536-.536-5-2v-5c2.491-1.245 3.411-.777 6 0z" class="S"/><path d="M344 256l5 1c.625 1.875.625 1.875 1 4l-2 2-6-1c.875-4.875.875-4.875 2-6z" fill="#df0001"/><use xlink:href="#D" x="-40" y="70" class="S"/><path d="M205 227l2 2-1 2 3 1h-4c-2.084 3.847-3.497 7.901-5 12l-4-2 1.207-1.758c2.92-4.306 5.612-8.516 7.793-13.242z" fill="#460c01"/><path d="M453.5 213.875C456 214 456 214 457 215c.125 2.5.125 2.5 0 5-1 1-1 1-3.5 1.125C451 221 451 221 450 220c-.125-2.5-.125-2.5 0-5 1-1 1-1 3.5-1.125z" fill="#9d1313"/><path d="M241 205l5 1v5l-1 1c-2.691-.176-5.329-.618-8-1l2-1 1-4 1-1z" fill="#f96b6d"/><path d="M242.875 203.813C246 204 246 204 249 206c-.875 6.75-.875 6.75-2 9l-6-2 4-2v-5c-2.437.27-2.437.27-5 1l-2 3c1.066-5.939 1.066-5.939 4.875-6.187z" fill="#fa4045"/><path d="M448.5 179.875C451 180 451 180 452 181c.125 2.5.125 2.5 0 5-1 1-1 1-3.5 1.125C446 187 446 187 445 186c-.125-2.5-.125-2.5 0-5 1-1 1-1 3.5-1.125z" fill="#9d1213"/><path d="M149.5 145.875C152 146 152 146 153 147c.125 2.5.125 2.5 0 5-1 1-1 1-3.5 1.125C147 153 147 153 146 152c-.125-2.5-.125-2.5 0-5 1-1 1-1 3.5-1.125z" fill="#9c1011"/><path d="M623 132l7.25-.062 2.066-.025c3.377-.016 6.457.032 9.684 1.088v2l-4 1v-2c-5.873-.14-11.27.82-17 2l2-4z" fill="#fce310"/><path d="M233 121c2.625.375 2.625.375 5 1 .625 1.875.625 1.875 1 4-2 2-2 2-4.625 2.125L232 128c-.625-2.375-.625-2.375-1-5l2-2z" class="D"/><path d="M296.5 116.875C299 117 299 117 300 118c.125 2.5.125 2.5 0 5-1 1-1 1-3.5 1.125C294 124 294 124 293 123c-.125-2.5-.125-2.5 0-5 1-1 1-1 3.5-1.125z" fill="#e40000"/><path d="M321.5 115.875C324 116 324 116 325 117c.125 2.5.125 2.5 0 5-1 1-1 1-3.5 1.125C319 123 319 123 318 122c-.125-2.5-.125-2.5 0-5 1-1 1-1 3.5-1.125z" class="B"/><path d="M354.5 113.875C357 114 357 114 358 115c.125 2.5.125 2.5 0 5-1 1-1 1-3.5 1.125C352 121 352 121 351 120c-.125-2.5-.125-2.5 0-5 1-1 1-1 3.5-1.125z" class="I"/><path d="M305 110c2.125.375 2.125.375 4 1 1.125 4.75 1.125 4.75 0 7l-5-1c-.625-2.375-.625-2.375-1-5l2-2z" class="T"/><path d="M244.625 110.875L247 111c.625 2.375.625 2.375 1 5l-2 2c-2.625-.375-2.625-.375-5-1-.625-1.875-.625-1.875-1-4 2-2 2-2 4.625-2.125z" class="D"/><use xlink:href="#C" x="-98" y="-135" fill="#e20001"/><path d="M344.5 104.875C347 105 347 105 348 106c.125 2.5.125 2.5 0 5-1 1-1 1-3.5 1.125C342 112 342 112 341 111c-.125-2.5-.125-2.5 0-5 1-1 1-1 3.5-1.125zm-78-9C269 96 269 96 270 97c.125 2.5.125 2.5 0 5-1 1-1 1-3.5 1.125C264 103 264 103 263 102c-.125-2.5-.125-2.5 0-5 1-1 1-1 3.5-1.125z" class="D"/><path d="M318 93l6 1-1 5c-2.375.625-2.375.625-5 1l-2-2c.536-3.536.536-3.536 2-5z" fill="#e40001"/><use xlink:href="#E" fill="#b30000"/><use xlink:href="#E" x="132" y="-5" fill="#9c1010"/><use xlink:href="#F" fill="#9b0d0e"/><use xlink:href="#E" x="25" y="-29" class="T"/><use xlink:href="#E" x="-43" y="-40" class="U"/><use xlink:href="#F" x="25" y="-16" class="S"/><path d="M440 239h6v6c-2.375.625-2.375.625-5 1l-2-2c.375-2.625.375-2.625 1-5z" fill="#9c1111"/><use xlink:href="#F" x="47" y="-33" fill="#9b0e0f"/><path d="M467 222v5c-1 1-1 1-3.5 1.125C461 228 461 228 460 227v-5c2.667-1.333 4.167-.671 7 0z" fill="#f01011"/><use xlink:href="#E" x="148" y="-92" fill="#f00f10"/><path d="M477 183c2.665 2.434 3.852 4.264 4.168 7.973L481 197l-2 2c-2.271-5.395-2.204-10.262-2-16z" fill="#fcdd0e"/><use xlink:href="#E" x="-65" y="-126" class="J"/><use xlink:href="#F" x="-195" y="-137" class="U"/><path d="M268.5 119.875C271 120 271 120 272 121c.125 2.5.125 2.5 0 5-1 1-1 1-3.562 1.063L266 127l-1-6c1-1 1-1 3.5-1.125z" class="J"/><use xlink:href="#F" x="-200" y="-152" class="G"/><path d="M394 111l4 1 .25 1.875c.662 2.66.662 2.66 4.75 4.125l-14-1 3-1c.662-1.98.662-1.98 1-4l1-1z" fill="#b30f01"/><path d="M306.5 89.875C309 90 309 90 310 91c.125 2.5.125 2.5 0 5-1 1-1 1-3.562 1.063L304 97l-1-6c1-1 1-1 3.5-1.125z" class="J"/><use xlink:href="#F" x="-159" y="-176" class="T"/><path d="M329.5 83.875C332 84 332 84 333 85c.125 2.5.125 2.5 0 5-1 1-1 1-3.562 1.063L327 91l-1-6c1-1 1-1 3.5-1.125z" class="D"/><use xlink:href="#F" x="-61" y="-185" class="G"/><use xlink:href="#E" x="8" y="-211" class="H"/><use xlink:href="#E" x="43" y="-235" fill="#ed7105"/><path d="M308.563 267.938L311 268c.625 2.375.625 2.375 1 5l-2 2c-2.625-.375-2.625-.375-5-1v-5c1-1 1-1 3.563-1.062zm13-2L324 266c.625 2.375.625 2.375 1 5l-2 2c-2.625-.375-2.625-.375-5-1v-5c1-1 1-1 3.563-1.062z" class="H"/><path d="M243 253c2.625.375 2.625.375 5 1v6h-6c-.625-2.375-.625-2.375-1-5l2-2z" fill="#e10001"/><path d="M460 252h5c1 1 1 1 1.063 3.563L466 258c-2.375.625-2.375.625-5 1l-2-2c.375-2.625.375-2.625 1-5z" fill="#9c0e0f"/><path d="M394 250c.688 1.813.688 1.813 1 4-1.187 1.813-1.187 1.813-3 3-2.187-.312-2.187-.312-4-1v-6c2.491-1.245 3.411-.777 6 0z" fill="#ec7005"/><path d="M377 245h5c1 1 1 1 1.063 3.563L383 251c-2.375.625-2.375.625-5 1l-2-2c.375-2.625.375-2.625 1-5z" class="M"/><path d="M446 227h5c1 1 1 1 1.063 3.563L452 233c-2.375.625-2.375.625-5 1l-2-2c.375-2.625.375-2.625 1-5z" fill="#990c0d"/><path d="M149 200c2.625.375 2.625.375 5 1v5c-1 1-1 1-3.562 1.063L148 207c-.625-2.375-.625-2.375-1-5l2-2zm-16-21l5 1 1 5c-1 1-1 1-3.5 1.125C133 186 133 186 132 185c-.125-2.5-.125-2.5 0-5l1-1z" fill="#9b0e0f"/><path d="M461.563 171.938L464 172c.625 2.375.625 2.375 1 5l-2 2c-2.625-.375-2.625-.375-5-1v-5c1-1 1-1 3.563-1.062z" fill="#9a0a0b"/><path d="M149 133h5c1 1 1 1 1.063 3.563L155 139c-2.375.625-2.375.625-5 1l-2-2c.375-2.625.375-2.625 1-5z" fill="#9c0f10"/><path d="M234 107l1 6c-1 1-1 1-3.5 1.125C229 114 229 114 228 113v-5c2-1 2-1 6-1z" class="I"/><path d="M253 102c2.625.375 2.625.375 5 1v5c-1 1-1 1-3.562 1.063L252 109c-.625-2.375-.625-2.375-1-5l2-2z" class="J"/><path d="M289 101c2.625.375 2.625.375 5 1v5c-1 1-1 1-3.562 1.063L288 108c-.625-2.375-.625-2.375-1-5l2-2z" fill="#e40001"/><path d="M226 94l5 1 1 5c-1 1-1 1-3.5 1.125C226 101 226 101 225 100c-.125-2.5-.125-2.5 0-5l1-1z" class="H"/><path d="M288 78l5 1 1 5c-1 1-1 1-3.5 1.125C288 85 288 85 287 84c-.125-2.5-.125-2.5 0-5l1-1z" class="D"/><path d="M311 68h5c1 1 1 1 1.063 3.563L317 74c-2.375.625-2.375.625-5 1l-2-2c.375-2.625.375-2.625 1-5z" class="U"/><path d="M300.625 43.875L303 44c.625 1.813.625 1.813 1 4l-2 3-5-1c-.625-1.875-.625-1.875-1-4 2-2 2-2 4.625-2.125z" fill="#ec7005"/><path d="M335 273h4l1 6c-1 1-1 1-3.562 1.063L334 280c-.625-2.375-.625-2.375-1-5l2-2z" class="F"/><path d="M358 261c2.625.375 2.625.375 5 1v5c-1 1-1 1-3.562 1.063L357 268c-.625-2.375-.625-2.375-1-5l2-2z" class="N"/><path d="M380 259c2.625.375 2.625.375 5 1v5c-1 1-1 1-3.562 1.063L379 266c-.625-2.375-.625-2.375-1-5l2-2z" fill="#f07305"/><path d="M256.563 259.938L259 260c1.125 4.75 1.125 4.75 0 7l-5-1-1-5c1-1 1-1 3.563-1.062z" class="D"/><path d="M305.563 256.938L308 257c.625 2.375.625 2.375 1 5l-2 2h-4l-1-6c1-1 1-1 3.563-1.062z" class="O"/><path d="M466 241h5c1 1 1 1 1.063 3.563L472 247c-2.375.625-2.375.625-5 1l-2-2c.375-2.625.375-2.625 1-5z" fill="#9a0b0b"/><path d="M371 223l1 2 1.563-.625c3.47-.534 6.144.548 9.438 1.625v2h-12l-1 4c-1.255-3.766-.371-5.372 1-9z" fill="#f8e214"/><path d="M232 220c5.614 1.564 10.868 3.164 16 6v1c-5.368.575-8.113.345-12.5-2.937-2.031-1.652-2.031-1.652-3.5-3.062v-1z" fill="#bd2107"/><path d="M392 206l15 1v3c-5.439.218-9.871.104-15-2v-2z" fill="#fcdc12"/><path d="M690 189l7.563 1.875 2.135.527A344.58 344.58 0 0 1 713 195v1c-8.382-.386-16.013-2.526-24-5l1-2z" fill="#fbe110"/><use xlink:href="#E" x="-97" y="-149" fill="#e90301"/><path d="M223.563 117.938L226 118c.625 2.375.625 2.375 1 5l-2 2c-2.625-.375-2.625-.375-5-1v-5c1-1 1-1 3.563-1.062z" class="O"/><path d="M281.563 112.938L284 113c.625 2.375.625 2.375 1 5l-2 2h-4l-1-6c1-1 1-1 3.563-1.062z" class="J"/><path d="M361 106l5 1v5c-4.75 1.125-4.75 1.125-7 0 .875-4.875.875-4.875 2-6z" class="D"/><path d="M276 104l6 1-1 5-5 1c-1-1-1-1-1.125-3.5C275 105 275 105 276 104zm63-14h5c1 1 1 1 1.063 3.563L345 96c-2.375.625-2.375.625-5 1l-2-2c.375-2.625.375-2.625 1-5z" class="J"/><path d="M337 75l5 1c.625 1.875.625 1.875 1 4-2 2-2 2-4.625 2.125L336 82v-6l1-1z" class="G"/><path d="M396 72l1 5c-1 1-1 1-3.5 1.125C391 78 391 78 390 77v-5c2.491-1.245 3.411-.777 6 0z" fill="#ee7305"/><path d="M324 71h5c1 1 1 1 1.063 3.563L330 77c-2.375.625-2.375.625-5 1l-2-2c.375-2.625.375-2.625 1-5z" class="I"/><path d="M277 70l1 5c-1 1-1 1-3.5 1.125C272 76 272 76 271 75v-5c2.491-1.245 3.411-.777 6 0z" class="D"/><path d="M234 60c2.625.375 2.625.375 5 1v5c-1 1-1 1-3.562 1.063L233 67c-.625-2.375-.625-2.375-1-5l2-2z" class="V"/><path d="M220 55c2.625.375 2.625.375 5 1v5c-1 1-1 1-3.562 1.063L219 62c-.625-2.375-.625-2.375-1-5l2-2z" fill="#ee7305"/><path d="M284 302c2.125.375 2.125.375 4 1l1 5c-1 1-1 1-3.562 1.063L283 309c-.625-2.375-.625-2.375-1-5l2-2z" class="P"/><path d="M349 292c2.125.375 2.125.375 4 1l1 5c-1 1-1 1-3.562 1.063L348 299c-.625-2.375-.625-2.375-1-5l2-2z" fill="#f17506"/><path d="M294 291c2.125.375 2.125.375 4 1l1 5c-1 1-1 1-3.562 1.063L293 298c-.625-2.375-.625-2.375-1-5l2-2z" class="W"/><path d="M281 290c2.125.375 2.125.375 4 1l1 5c-1 1-1 1-3.562 1.063L280 297c-.625-2.375-.625-2.375-1-5l2-2z" class="N"/><use xlink:href="#G" fill="#f47605"/><g class="F"><use xlink:href="#H"/><path d="M362.563 286.938L365 287c.625 2.375.625 2.375 1 5l-2 2c-2.125-.375-2.125-.375-4-1l-1-5c1-1 1-1 3.563-1.062z"/></g><path d="M335.563 285.938L338 286c.625 2.375.625 2.375 1 5l-2 2c-2.125-.375-2.125-.375-4-1l-1-5c1-1 1-1 3.563-1.062z" class="K"/><use xlink:href="#G" x="-66" y="-5" fill="#f27405"/><use xlink:href="#H" x="79" y="-7" class="K"/><g class="F"><use xlink:href="#G" x="-11" y="-10"/><use xlink:href="#H" x="16" y="-9"/></g><use xlink:href="#G" x="2" y="-12" class="C"/><path d="M258 273c2.125.375 2.125.375 4 1l1 5c-1 1-1 1-3.562 1.063L257 280c-.625-2.375-.625-2.375-1-5l2-2z" fill="#f37505"/><path d="M384.563 271.938L387 272c.625 2.375.625 2.375 1 5l-2 2c-2.125-.375-2.125-.375-4-1l-1-5c1-1 1-1 3.563-1.062z" class="C"/><use xlink:href="#H" x="13" y="-21" class="D"/><g class="F"><path d="M245 268l6 1-1 5-5 1c-1.125-4.75-1.125-4.75 0-7z"/><use xlink:href="#H" x="-48" y="-23"/></g><path d="M202.563 263.938L205 264c.625 2.375.625 2.375 1 5l-2 2c-2.125-.375-2.125-.375-4-1l-1-5c1-1 1-1 3.563-1.062z" class="L"/><use xlink:href="#H" x="-58" y="-32" class="C"/><path d="M370.563 253.938L373 254c.625 2.375.625 2.375 1 5l-2 2c-2.125-.375-2.125-.375-4-1l-1-5c1-1 1-1 3.563-1.062z" class="L"/><path d="M225.563 253.938L228 254c.625 2.375.625 2.375 1 5l-2 2c-2.125-.375-2.125-.375-4-1l-1-5c1-1 1-1 3.563-1.062z" class="C"/><use xlink:href="#G" x="81" y="-36" fill="#f07405"/><use xlink:href="#G" x="-88" y="-43" fill="#da0000"/><use xlink:href="#H" x="-53" y="-43" fill="#e30000"/><path d="M388.563 234.938L391 235c.625 2.375.625 2.375 1 5l-2 2c-2.125-.375-2.125-.375-4-1l-1-5c1-1 1-1 3.563-1.062z" class="E"/><path d="M207.563 234.938L210 235c.625 2.375.625 2.375 1 5l-2 2c-2.125-.375-2.125-.375-4-1l-1-5c1-1 1-1 3.563-1.062z" fill="#d60000"/><path d="M167 216v3c-2.836 2.655-5.944 3.931-9.562 5.25l-2.879 1.078C152 226 152 226 149 225l18-9z" fill="#feee2d"/><path d="M336.563 205.938L339 206c.625 2.375.625 2.375 1 5l-2 2c-2.125-.375-2.125-.375-4-1l-1-5c1-1 1-1 3.563-1.062z" class="X"/><use xlink:href="#H" x="151" y="-98" fill="#f37506"/><path d="M412 180h3c-1.429 3.36-3.161 5.277-5.937 7.625l-2.09 1.789C405 191 405 191 402 193l-1-3h2l.688-1.812c1.669-2.781 3.441-3.752 6.313-5.187h2v-3z" fill="#eed913"/><use xlink:href="#H" x="164" y="-108" class="F"/><use xlink:href="#H" x="-49" y="-116" class="Y"/><path d="M256.563 168.938L259 169c.625 2.375.625 2.375 1 5l-2 2c-2.125-.375-2.125-.375-4-1l-1-5c1-1 1-1 3.563-1.062z" class="W"/><path d="M385 153c2.125.375 2.125.375 4 1l1 5c-1 1-1 1-3.562 1.063L384 160c-.625-2.375-.625-2.375-1-5l2-2z" class="X"/><path d="M371 145c1.112 3.336.953 3.791-.312 6.875l-.871 2.137L369 156l-.875 2.688c-1.509 3.102-3.544 5.055-6.125 7.313h-2c1.499-3.113 3.212-6.045 5-9l1-2h2l.375-2.75c.546-2.84 1.198-4.776 2.625-7.25z" fill="#fed711"/><path d="M285.563 136.938L288 137v9l-1-2h-4l-1-6c1-1 1-1 3.563-1.062z" fill="#e30301"/><path d="M378 108c2.125.375 2.125.375 4 1l1 5c-1 1-1 1-3.562 1.063L377 115c-.625-2.375-.625-2.375-1-5l2-2z" class="J"/><use xlink:href="#G" x="-103" y="-185" class="I"/><use xlink:href="#H" x="133" y="-188" class="B"/><use xlink:href="#G" x="49" y="-191" class="O"/><use xlink:href="#G" x="-81" y="-191" fill="#e80001"/><path d="M378 90c2.125.375 2.125.375 4 1l1 5c-1 1-1 1-3.562 1.063L377 97c-.625-2.375-.625-2.375-1-5l2-2z" class="K"/><path d="M360 89c2.125.375 2.125.375 4 1l1 5c-1 1-1 1-3.562 1.063L359 96c-.625-2.375-.625-2.375-1-5l2-2z" class="O"/><path d="M238.563 85.938L241 86c.625 2.375.625 2.375 1 5l-2 2c-2.125-.375-2.125-.375-4-1l-1-5c1-1 1-1 3.563-1.062z" class="I"/><use xlink:href="#G" x="80" y="-208" fill="#f07405"/><use xlink:href="#H" x="116" y="-209" class="V"/><path d="M302 78c2.125.375 2.125.375 4 1l1 5c-1 1-1 1-3.562 1.063L301 85c-.625-2.375-.625-2.375-1-5l2-2z" class="X"/><path d="M249.563 78.938L252 79c.625 2.375.625 2.375 1 5l-2 2c-2.125-.375-2.125-.375-4-1l-1-5c1-1 1-1 3.563-1.062z" class="I"/><path d="M235.563 73.938L238 74c.625 2.375.625 2.375 1 5l-2 2c-2.125-.375-2.125-.375-4-1l-1-5c1-1 1-1 3.563-1.062z" class="C"/><path d="M373 70c2.125.375 2.125.375 4 1l1 5c-1 1-1 1-3.562 1.063L372 77c-.625-2.375-.625-2.375-1-5l2-2z" class="F"/><use xlink:href="#G" x="26" y="-222" fill="#f37506"/><use xlink:href="#G" x="-35" y="-222" fill="#e80001"/><path d="M300.563 66.938L303 67c.625 2.375.625 2.375 1 5l-2 2c-2.125-.375-2.125-.375-4-1l-1-5c1-1 1-1 3.563-1.062z" class="I"/><use xlink:href="#G" x="14" y="-227" class="C"/><use xlink:href="#G" x="-63" y="-227" class="L"/><path d="M339.563 50.938L342 51c.625 2.375.625 2.375 1 5l-2 2c-2.125-.375-2.125-.375-4-1l-1-5c1-1 1-1 3.563-1.062z" class="V"/><path d="M259 49c2.125.375 2.125.375 4 1l1 5c-1 1-1 1-3.562 1.063L258 56c-.625-2.375-.625-2.375-1-5l2-2z" class="P"/><use xlink:href="#G" x="-49" y="-243" class="C"/><path d="M313.563 44.938L316 45c.625 2.375.625 2.375 1 5l-2 2c-2.125-.375-2.125-.375-4-1l-1-5c1-1 1-1 3.563-1.062z" class="B"/><path d="M336.563 37.938L339 38c.625 2.375.625 2.375 1 5l-2 2c-2.125-.375-2.125-.375-4-1l-1-5c1-1 1-1 3.563-1.062zm-13-3L326 35c.625 2.375.625 2.375 1 5l-2 2c-2.125-.375-2.125-.375-4-1l-1-5c1-1 1-1 3.563-1.062z" class="L"/><path d="M281 33h5c1 1 1 1 1.063 3.563L287 39c-2.375.625-2.375.625-5 1l-2-2c.375-2.625.375-2.625 1-5z" fill="#f17505"/><g class="F"><use xlink:href="#H" x="43" y="14"/><use xlink:href="#I"/></g><path d="M233 287c2.125.375 2.125.375 4 1l1 5c-1 1-1 1-3.562 1.063L232 294c-.625-2.375-.625-2.375-1-5l2-2z" class="B"/><use xlink:href="#H" x="105" y="-8" class="K"/><g class="B"><use xlink:href="#H" x="-25" y="-9"/><use xlink:href="#H" x="91" y="-13"/></g><path d="M231 272l4 2-1 5h-5l-1-5 3-2z" class="F"/><path d="M212.563 272.938L215 273c.625 2.375.625 2.375 1 5l-2 2c-2.125-.375-2.125-.375-4-1l-1-5c1-1 1-1 3.563-1.062z" fill="#f17506"/><path d="M346 268l6 1-1 5c-1.875.625-1.875.625-4 1l-2-2c.375-2.625.375-2.625 1-5z" class="K"/><use xlink:href="#H" y="-24" fill="#f27306"/><use xlink:href="#H" x="-67" y="-42" class="M"/><path d="M316.063 244.938L319 245c.625 1.875.625 1.875 1 4l-2 2c-2.625-.375-2.625-.375-5-1l-1-4c1-1 1-1 4.063-1.062z" fill="#af0000"/><use xlink:href="#I" x="140" y="-58" class="C"/><path d="M253 239l1 1 7 1v1l-8.375.125-2.406.051c-2.074.018-4.148-.072-6.219-.176l-2-2c3.768-2.562 6.679-1.897 11-1z" fill="#edda14"/><path d="M299 231l12.656 2.563c2.496.466 4.811.51 7.344.438-2.46 2.46-3.236 2.297-6.625 2.313-5.057-.081-8.777-1.269-13.375-3.312v-2z" class="Z"/><path d="M443 223l3 1v2l4 1-4 1 .313 2.188c-.437 3.933-2.413 5.276-5.312 7.813l.5-2c.42-2.522.537-4.652.5-7.187 0-3.812 0-3.812 1-5.812z" fill="#ccc3bf"/><path d="M167 207h2c1.322 2.177 2.013 3.552 1.938 6.125C170 215 170 215 167.438 216.25L165 217v-8l2-2z" fill="#fadb13"/><path d="M358 211l1 4c-3.361 2.241-5.124 2.113-9.059 2.004-2.118-.004-3.933.327-5.941.996v-2l-4 1v-2h16v-3l2-1z" fill="#fde815"/><use xlink:href="#G" x="109" y="-96" fill="#ef7305"/><path d="M362 165l1 3-9 9-2-1 1-4 1.875-.25c2.292-.543 2.292-.543 3.188-2.687L359 167l3-2z" fill="#e4ce12"/><path d="M160 168l5 1 1 5-6 1c-1-1-1-1-1.125-3.5C159 169 159 169 160 168z" fill="#b70200"/><path d="M385 146v2l14-1v1h-6v2l-6.312-.437-3.551-.246C380 149 380 149 377 148v2h-2l1-3c3.153-.701 5.727-1 9-1z" class="a"/><path d="M423 120h7l-1 4 7 1c-3 2-3 2-5 2v-2l-2.312.563C426 126 426 126 423 125v-5z" fill="#f7ca0f"/><use xlink:href="#G" x="88" y="-197" class="C"/><g class="B"><path d="M214 90c2.125.375 2.125.375 4 1l1 5c-1 1-1 1-3.562 1.063L213 97c-.625-2.375-.625-2.375-1-5l2-2z"/><use xlink:href="#H" x="125" y="-199"/></g><use xlink:href="#G" x="48" y="-208" class="P"/><use xlink:href="#I" x="-48" y="-234" fill="#f17505"/><path d="M363.563 62.938L366 63c.625 2.375.625 2.375 1 5l-2 2c-2.125-.375-2.125-.375-4-1l-1-5c1-1 1-1 3.563-1.062z" class="C"/><path d="M322 58c2.125.375 2.125.375 4 1l1 5c-1 1-1 1-3.562 1.063L321 65c-.625-2.375-.625-2.375-1-5l2-2z" class="B"/><path d="M284.563 55.938L287 56c.625 2.375.625 2.375 1 5l-2 2c-2.125-.375-2.125-.375-4-1l-1-5c1-1 1-1 3.563-1.062z" class="W"/><use xlink:href="#H" x="-21" y="-234" class="E"/><use xlink:href="#H" x="58" y="-241" class="Y"/><use xlink:href="#H" x="18" y="-244" class="E"/><use xlink:href="#G" x="-25" y="-257" class="L"/><use xlink:href="#J" class="B"/><path d="M369 268h5c.688 1.813.688 1.813 1 4-1.437 1.75-1.437 1.75-3 3l-4-2 1-5z" class="C"/><use xlink:href="#K" class="B"/><path d="M184 257l3 3c-2.709 1.354-5.009 1.065-8 1v2c-2.525 1.262-4.312 1.099-7.125 1.063l-2.758-.027L167 264c4.001-2.2 8.132-3.132 12.539-4.219 2.606-.62 2.606-.62 4.461-2.781z" fill="#d9d7d8"/><use xlink:href="#K" x="-201" y="-9" class="M"/><path d="M194 245c-1.56 4.212-4.552 6.271-8 9l-2 2-2-4 4.875-3.5 2.742-1.969C192 245 192 245 194 245z" fill="#370d03"/><path d="M162 195h5l1 5-4 2-3-2 1-5z" class="N"/><path d="M306 148l7.313-.187 2.092-.076c2.021-.029 2.021-.029 5.596.264l3 3-17-1-1-2z" fill="#100"/><path d="M224 81l5 2-1 5h-5c-.625-2.375-.625-2.375-1-5l2-2z" class="K"/><g class="E"><use xlink:href="#L"/><use xlink:href="#J" x="64" y="-237"/></g><use xlink:href="#L" x="26" y="-3" fill="#f47605"/><g class="B"><use xlink:href="#L" x="-14" y="-20"/><use xlink:href="#J" x="24" y="-258"/><use xlink:href="#K" x="-84" y="-230"/></g><path d="M336 297l5 1v5l-5 1c-1-1-1-1-1.125-3.5C335 298 335 298 336 297z" class="E"/><path d="M222 280c2.125.375 2.125.375 4 1 1.125 3.75 1.125 3.75 0 6h-5c-.625-2.375-.625-2.375-1-5l2-2z" class="K"/><path d="M296 280l5 1v5l-5 1c-1-1-1-1-1.125-3.5C295 281 295 281 296 280zm-26-3l5 1v5l-5 1c-1-1-1-1-1.125-3.5C269 278 269 278 270 277z" fill="#f57706"/><path d="M279 243c.125 2.375.125 2.375 0 5l-2 2c-2.125-.375-2.125-.375-4-1l-1-4c3-2 3-2 7-2z" fill="#ae0000"/><use xlink:href="#I" x="152" y="-55" class="B"/><path d="M260 195c2.632 2.456 4.815 4.554 6 8l-1 4-7-7 2-1v-4z" fill="#f22706"/><path d="M336 193l3 1-2.875 3-1.617 1.688C333 200 333 200 331 200v2l-3 2-3-1c8.184-8.391 8.184-8.391 11-10z" fill="#271401"/><path d="M374 163l5 1v5l-5 1c-1-1-1-1-1.125-3.5C373 164 373 164 374 163z" fill="#b90001"/><path d="M406 136l1 2c2.118.687 2.118.687 4.563 1.125l2.504.508L416 140v2h-15v-1l5-1v-4z" fill="#ebca10"/><path d="M270 133h5c.625 2.375.625 2.375 1 5l-2 2-7-3 2-1 1-3z" fill="#e50801"/><path d="M408.563 111.938L411 112l1 5c-1 1-1 1-3.562 1.063L406 118l-1-5c1-1 1-1 3.563-1.062z" fill="#ea0000"/><use xlink:href="#I" x="129" y="-197" class="B"/><path d="M204.563 85.938L207 86l1 5c-1 1-1 1-3.562 1.063L202 92l-1-5c1-1 1-1 3.563-1.062zM212 76l5 1v5l-5 1c-1-1-1-1-1.125-3.5C211 77 211 77 212 76zm147.563-2.062L362 74l1 5c-1 1-1 1-3.562 1.063L357 80l-1-5c1-1 1-1 3.563-1.062z" class="E"/><path d="M200 72l4 1c.625 1.875.625 1.875 1 4l-2 2c-2.625-.375-2.625-.375-5-1 .875-4.875.875-4.875 2-6z" fill="#930000"/><path d="M224.563 67.938L227 68l1 5c-1 1-1 1-3.562 1.063L222 74l-1-5c1-1 1-1 3.563-1.062z" class="b"/><path d="M245 67l5 1v5l-5 1c-1-1-1-1-1.125-3.5C244 68 244 68 245 67z" class="E"/><path d="M372.563 54.938L375 55l1 5c-1 1-1 1-3.562 1.063L370 61l-1-5c1-1 1-1 3.563-1.062z" class="B"/><path d="M347 42l5 1v5l-5 1c-1-1-1-1-1.125-3.5C346 43 346 43 347 42z" fill="#f47706"/><use xlink:href="#M" class="c"/><path d="M271 300l4 1c.625 1.875.625 1.875 1 4l-2 2c-2.625-.375-2.625-.375-5-1 .875-4.875.875-4.875 2-6zm-34.437-38.062L239 262c1.125 3.75 1.125 3.75 0 6h-5l-1-5c1-1 1-1 3.563-1.062z" class="B"/><path d="M354 199h5l1 2-3 7c-2.062-1.687-2.062-1.687-4-4 .25-2.75.25-2.75 1-5z" fill="#b80901"/><path d="M207.563 100.938L210 101c1.125 3.75 1.125 3.75 0 6h-5l-1-5c1-1 1-1 3.563-1.062z" fill="#ea0000"/><use xlink:href="#M" x="-106" y="-221" class="c"/><path d="M359 48l5 1v5l-5 1c-1-1-1-1-1.125-3.5C358 49 358 49 359 48zm-116-5l5 1 1 3-3 3-4-2 1-5z" class="E"/><path d="M328 301v5l-5 1c-1-1-1-1-1.062-3.562L322 301c2.491-1.245 3.411-.777 6 0z" class="b"/><path d="M181 252v3h-2v2c-4.266 1.138-7.565 2-12 2v-2l14-5z" fill="#7b7870"/><path d="M285 229c5.785 3.323 5.785 3.323 6.875 6.75L292 238l-2-1v-2c-4.401.503-6.712 2.088-10 5 .313-1.875.313-1.875 1-4l3-2c.73-2.563.73-2.563 1-5z" fill="#630601"/><path d="M637 220c-4.485 3.364-7.577 3.525-13 3-1.742-1.523-1.742-1.523-3-3l5.75-.562 3.234-.316c2.657-.107 4.515.06 7.016.879z" fill="#fde40f"/><path d="M252 202l2 1 .125 5.25.07 2.953c-.2 2.861-.551 4.46-2.195 6.797-3.125.75-3.125.75-6 1l-1-3 2.375-.375c2.766-.416 2.766-.416 4.625-2.625.243-2.669.243-2.669.125-5.625l-.055-3.039L252 202z" fill="#df0a07"/><path d="M215 183l2 2-2.875 1.875c-4.241 3.451-4.54 7.935-5.125 13.125h-1c-.861-9.681-.861-9.681 2.375-13.562C213 184 213 184 215 183z" fill="#f1d714"/><path d="M169 182h1l.625 4.75.352 2.672c.026 2.807-.528 4.212-1.977 6.578h-1l-.625-5.875-.352-3.305L167 184l2-2z" fill="#f8e415"/><path d="M420 104v5l-5 1c-1-1-1-1-1.062-3.562L414 104c2.491-1.245 3.411-.777 6 0z" class="c"/><path d="M383.563 62.938L386 63c1.125 3.75 1.125 3.75 0 6h-5l-1-5c1-1 1-1 3.563-1.062z" class="b"/><path d="M233.563 48.938L236 49c1.125 3.75 1.125 3.75 0 6h-5l-1-5c1-1 1-1 3.563-1.062z" class="E"/><path d="M347 210h5l1 4h2l1-3v4l-10-1 1-4z" fill="#b60a01"/><path d="M752 200h1l.125 6.813.07 3.832C753 214 753 214 751 217c-.82-2.887-1.162-5.5-1.187-8.5l-.043-2.281c.256-2.467 1.002-4.082 2.23-6.219z" fill="#fdd80b"/><path d="M257 129h5l1 5c-3.133 1.044-3.99.934-7 0l1-5z" fill="#e90501"/><path d="M292 187h2l.188 5.813.105 3.27C294 199 294 199 292.488 200.887L291 202c-.09-5.152.153-9.919 1-15z" fill="#7d1702"/><path d="M207 168l4 1c.625 1.875.625 1.875 1 4l-2 2h-4v-6l1-1z" fill="#e10601"/><path d="M332 243v2h9v1l-8.187.063-2.33.025c-3.968.017-7.608-.102-11.482-1.088v-1c4.394-.857 8.526-1.089 13-1z" fill="#5f0000"/><path d="M232 210h2c1.381 2.275 2.057 3.502 1.75 6.188C235 218 235 218 233 219l-2-1v-7l1-1z" fill="#570402"/><path d="M348 197l-1 4-5 1-1-5c3.01-.934 3.867-1.044 7 0z" class="P"/><path d="M374 183l2 1v3h-3v2l-2 1-1 3-4-2 8-8z" fill="#f3cf12"/><path d="M373 177h5v4l-2 2c-2.125-.375-2.125-.375-4-1l1-5z" fill="#bc0801"/><path d="M267 166h3c.693 3.724 1.111 7.211 1 11l-3 1-1-12z" fill="#fcde12"/><path d="M161 132h1c1.129 5.361 1.097 10.553 1 16l-2-1 1-6-3 1 2-10z" fill="#89210f"/><path d="M127 252c4.704 1.485 4.704 1.485 6.188 4.063L134 258l2 1v2c-3.693-.903-5.554-1.405-7.875-4.5C127 254 127 254 127 252z" fill="#e1e0da"/><path d="M645 238l-1 2c-3.422 1.141-6.087 1.098-9.687 1.063l-3.574-.027L628 241c3.212-2.141 5.248-2.441 9-3 2.862-1.431 4.934-.6 8 0z" fill="#fce611"/><path d="M324 204h1v7c-2.647 1.461-3.894 2-7 2 1.527-3.436 3.55-6.155 6-9z" fill="#331401"/><path d="M293 180l4 1c.625 1.875.625 1.875 1 4l-2 2h-4l1-7z" fill="#b50b01"/><path d="M247 218c2.25-.312 2.25-.312 5 0 4 4.108 4 4.108 4 7-3.439-1.242-6.252-2.557-9-5v-2z" fill="#7e110a"/><path d="M249 201l3 1c1.475 3.487 1.275 7.283 1 11l-3 2 .035-2.047.027-2.703.035-2.672c-.089-2.36-.429-4.323-1.098-6.578zm-1 14h2l-1 2-1-2z" fill="#f60706"/><path d="M441 206l5 1 1 5-2 1-1-2c-2.527-.656-2.527-.656-5-1l2-4z" fill="#a32422"/><path d="M415 203l5 1v4h-7c.875-3.875.875-3.875 2-5z" fill="#e90801"/><path d="M340 247h7l-1 4-5 1-1-5z" fill="#e20000"/><path d="M284 230l1 4c-3.75 3-3.75 3-6 3v2l-4 1c1.389-3.356 2.917-5.073 6-7h2l1-3z" fill="#3e0000"/><path d="M407 207h6l-3 2 3 3h-12v-3l6 1v-3z" fill="#f5ca10"/><path d="M349 176l4 1-9 9c0-4.362 1.966-6.966 5-10z" fill="#fbe615"/><path d="M387.563 166.938L390 167v3l-5 4-1-6c1-1 1-1 3.563-1.062z" fill="#ea0b01"/><path d="M645 161c2.194 3.291 2.694 5.093 3 9-.937 3.375-.937 3.375-2 6h-1l-.562-5.25-.316-2.953c-.111-2.56.102-4.378.879-6.797z" fill="#fcdb0d"/><path d="M442 156l1 2-2 3c-.364 2.123-.364 2.123-.414 4.449l-.117 2.568-.094 2.67-.117 2.705L440 180h-1l-.75-9.75-.246-2.789c-.448-6.87-.448-6.87 1.98-10.102L442 156z" fill="#54302d"/><path d="M351 127c9.973-.391 9.973-.391 14 2l1 3-8-2v-2h-7v-1z" fill="#fee314"/><path d="M421 115l5 1v4h-6c0-4 0-4 1-5z" fill="#e60801"/><path d="M332 208l1.188 1.938c2.197 2.5 3.57 2.712 6.813 3.063v1c-4.516.077-8.591.102-13-1l5-5z" fill="#990c01"/><path d="M236 198l2 1-2.437 2.125c-2.797 3.138-3.276 4.763-3.562 8.875l-2-2c.063-3.437.063-3.437 1-7 2.438-2 2.438-2 5-3z" fill="#d60303"/><path d="M336 201l2 1c-7.114 8.631-7.114 8.631-12 11 1.561-3.832 4.029-6.174 7-9l1.813-1.812L336 201z" class="a"/><path d="M207 182h5l1 3-5 5-1-8z" fill="#e01202"/><path d="M161 155h3v7l-4-1c-.625-1.875-.625-1.875-1-4l2-2z" class="Y"/><path d="M447 127c1.488 1.113 1.488 1.113 3 3 .293 2.918.293 2.918.188 6.188l-.082 3.293L450 142l-2 1c-1.067-4.031-.679-6.929 0-11-.369-2.769-.369-2.769-1-5z" fill="#fcec2a"/><path d="M525.25 130.313L528 131c-2.53 3.092-5.225 3.909-9 5l-1-3c2.637-2.536 3.509-3.047 7.25-2.687z" fill="#fce00f"/><path d="M487 212h3l.805 1.645 1.07 2.168 1.055 2.145c1.136 2.255 1.136 2.255 3.07 5.043-4.299-1.592-6.35-4.393-9-8v-3z" fill="#fadc10"/><path d="M401 200h2v6h-12l1-2 3.438-.437L399 203l2-3z" fill="#540f01"/><path d="M414 190h3v2l-5.5 3.625-3.094 1.914L406 199l1-3 2-1v-3l3-1 1 1 1-2z" fill="#500"/><path d="M325 162l5 1-5 6-2-2c.536-3.536.536-3.536 2-5z" fill="#a50701"/><path d="M376 139l4 1h-2v2l3.375-.125C385 142 385 142 387 144h-11v-5z" fill="#280300"/><path d="M250 248h7v4h-6l-1-4z" fill="#c20000"/><path d="M338 234h6v2h7v2h-12l-1-4z" fill="#fde614"/><path d="M286 234c2.755.38 3.82.807 5.75 2.875C293 239 293 239 293 242c-2.862-1.283-5.025-2.531-7-5v-3z" fill="#890000"/><path d="M202 229h2c-1.199 4.397-2.429 7.098-6 10h-2c.813-1.937.813-1.937 2-4l3-1 1-5z" fill="#f5e716"/><path d="M250 205h1c.125 6.625.125 6.625-1 10-3.062 1.188-3.062 1.188-6 2l-2-4 5 2 1-4h2v-6z" fill="#fb1c16"/><path d="M251 177l5.75-.125 3.234-.07c2.94.19 4.539.669 7.016 2.195-6.068 1.084-10.101.791-16-1v-1z" fill="#fce214"/><path d="M365 175h3l-1 5-5 1c.573-2.867.861-3.861 3-6z" class="M"/><path d="M166 169c2.631 3.946 3.408 7.726 2.563 12.438L168 183c-1.906-3.212-2.223-5.539-2.125-9.25l.055-2.703L166 169z" fill="#f9e816"/><path d="M314 173l5 1-4 5-3-1c.875-3.875.875-3.875 2-5z" fill="#aa1302"/><path d="M364 166h2c.438 2.125.438 2.125 0 5-2.127 2.276-4.502 4.146-7 6 1.219-4.033 2.56-7.543 5-11z" fill="#300000"/><path d="M671 164h2l1 3-1 2v5h-2c-1.491-2.982-1.119-5.716-1-9l1-1z" fill="#fde811"/><path d="M400 148h11l1 2-11 1-1-3z" fill="#600000"/><path d="M226 132l5 1-1 3-6 2c.875-4.875.875-4.875 2-6z" fill="#dd0601"/><path d="M542.16 106.902l3.902.035 3.91.027L553 107l-1 2-3.312-.125c-3.776-.196-3.776-.196-6.687 2.125l-4-3c1-1 1-1 4.16-1.098z" fill="#fde910"/><path d="M371 236l2 1c-.986 3.315-1.654 4.749-4.5 6.813C366 245 366 245 364 245l1-4h4l2-5z" fill="#630000"/><path d="M437 161l2 1-8 9-4-1 10-9z" fill="#261401"/><path d="M258 166c5.5 1.467 5.5 1.467 7.875 4 1.125 2 1.125 2 1.125 4-4.274-1.583-6.265-4.506-9-8z" fill="#630000"/><path d="M228 164h7l-1 4h-5l-1-4z" class="N"/><path d="M397 157c2.125.375 2.125.375 4 1-1.37 3.161-1.989 3.993-5 6-.625-2.375-.625-2.375-1-5l2-2z" fill="#bb0701"/><path d="M300 147h17v1l-2.047.184-2.703.254-2.672.246c-2.542.224-2.542.224-4.719 1.039L303 150l-3-3z" fill="#332203"/><path d="M394 136l13 3-1 2h-7v-2l-5-2v-1z" class="Z"/><path d="M549 126v2l2 1h-13c1-2 1-2 2.688-2.625 2.797-.454 5.484-.439 8.313-.375z" fill="#fde910"/><path d="M380 234v1l-1.898.297-2.477.453-2.461.422c-2.341.646-2.341.646-3.453 2.906L369 241h-2c.48-4.564.48-4.564 2.563-6.312 3.544-1 6.76-.81 10.438-.687z" fill="#480000"/><path d="M325 235l-1 2h-13v-1c9.41-2.481 9.41-2.481 14-1z" fill="#d9c411"/><path d="M209 211h1v15l-3-3c.145-2.918.145-2.918.813-6.187l.645-3.293L209 211z" fill="#c0a70e"/><path d="M786 134c0 4.032-1.641 5.809-4 9l-2 1c-.375-2.187-.375-2.187 0-5 1.84-1.99 3.792-3.39 6-5z" fill="#f9d40e"/><path d="M395 118h7l-2 5-5-1v-4z" fill="#fedf13"/><path d="M291 234l8 1-1.062 1.875L297 239l1 2-3-1v-2h-3l-1-4z" fill="#3f0a00"/><path d="M330 235l3.813-.125 2.145-.07C338 235 338 235 341 237c-2.525 1.262-4.312 1.099-7.125 1.063l-2.758-.027L329 238l1-3z" fill="#e5d213"/><path d="M330 195l2 2-8 8-1-3h2l.813-1.812c1.172-2.16 2.381-3.545 4.188-5.187z" fill="#fbe614"/><path d="M350 179l1 4c-1.687 2.313-1.687 2.313-4 4l-4-1 7-7z" fill="#331602"/><path d="M715 176l8 1v3l-7-1-1-3z" fill="#fce510"/><path d="M437 168v5l-5 1c0-3 0-3 1.375-4.687C435 168 435 168 437 168z" class="a"/><path d="M448 155c.746 1.703.746 1.703 1 4-1.652 2.359-1.652 2.359-3.937 4.75l-2.277 2.422L441 168c0-3.838 1.265-5.115 3.5-8.187l1.969-2.73L448 155z" fill="#bbbaba"/><path d="M371 156h2c-.468 4.776-1.243 8.045-4 12l-1-2c.934-2.031 1.932-4.035 3-6l-2-1 2-3z" fill="#420400"/><path d="M288 150l4 2v5h-3l-2-6 1-1z" fill="#b90901"/><path d="M239 241v2c-7.429.286-7.429.286-11-2 4.05-1.35 6.792-.621 11 0z" fill="#1c0500"/><path d="M425 233h9l-1 2c-2.066.414-2.066.414-4.562.625l-2.504.227L424 236l1-3z" fill="#252019"/><path d="M248 192h6l3 6-9-4v-2z" fill="#fb3e33"/><path d="M346 185v3c-1.531 1.387-1.531 1.387-3.5 2.688l-1.969 1.324L339 193l-2-1c2.808-2.964 5.183-5.445 9-7z" fill="#180300"/><path d="M735 184c4.677 1.477 4.677 1.477 6.313 4.125L742 190c-3 0-3 0-6-1l-1-5z" fill="#fadc0f"/><path d="M446 152h1c.488 3.253.4 5.347-1.336 8.18L441 166c0-3.534 1.262-5.311 3.043-8.281 1.041-1.87 1.619-3.604 1.957-5.719z" fill="#7f7c7d"/><path d="M203 155c2 2 2 2 2.195 4.164l-.07 2.461-.055 2.477L205 166c-1.484-1.273-1.484-1.273-3-3-.25-3.625-.25-3.625 0-7l1-1z" fill="#f9e716"/><path d="M236 155l-2 3-7-1-1 2-3-2c4.537-1.452 8.181-2.235 13-2z" fill="#2c1902"/><path d="M301 124h11l-1 3c-2.062.688-2.062.688-4 1v-2l-6-1v-1z" fill="#feea15"/><path d="M312 124h11v1l-2.25.375c-2.561.582-4.438 1.429-6.75 2.625h-2v-4z" fill="#f1ca12"/><path d="M427 121l10 1-1 3-7-1v-2l-2-1z" fill="#fee114"/><path d="M405 119h8c-1.974 2.523-2.967 2.993-6.187 3.688L404 123l1-4z" class="Z"/><path d="M376 116h8v2l-7 3-1-5z" fill="#fce615"/><path d="M141 258l13 2v1h-12l-1-3z" fill="#9e9c9c"/><path d="M133 255l3.938.813 2.215.457L141 257l1 3-8-1-1-4z" fill="#bebcaf"/><path d="M323.188 236.938l3.293.027L329 237v1l-1.758.184c-4.443.477-8.841 1.026-13.242 1.816v-2c3.285-1.095 5.737-1.1 9.188-1.062z" fill="#221401"/><path d="M307 237h10l-3 1v2h-6l-1-3z" fill="#100"/><path d="M407 232h8l-1 4-5-1v-2l-2-1z" fill="#0e0000"/><path d="M395 231h9l-1 3-8-1v-2z" fill="#0b0000"/><path d="M205 227l2 2-1 2 3 1h-4l-2 4-2-1 4-8z" fill="#591d02"/><path d="M283 227h2c-.564 3.27-1.5 4.826-4 7l-3-2h2l.938-1.937C282 228 282 228 283 227z" fill="#381802"/><path d="M702.723 216.902l3.34.035 3.348.027L712 217c-2.233 2.233-2.919 2.368-5.937 2.75l-2.09.297C702 220 702 220 699 218c1-1 1-1 3.723-1.098z" fill="#fdea10"/><path d="M358 172l2 1-8 8-1-3 7-6zm-8 9l1 2-2-1 1-1z" fill="#1d0b00"/><path d="M341 152c.688 1.688.688 1.688 1 4-1.845 4.1-4.405 6.376-8 9a56.54 56.54 0 0 1 4-7h2l1-6z" fill="#fdd00f"/><path d="M808 157l5 1v2h2v4c-4-1.333-4.838-3.496-7-7z" fill="#fbd80d"/><path d="M184 258c-2.737 2.737-5.26 3.162-9 4l-4-1 4.813-2.062 2.707-1.16C181 257 181 257 184 258z" fill="#b8b6b7"/><path d="M370 231l1 2 2 1-2.375 1.25c-2.684 1.789-3.506 2.8-4.625 5.75v-3l-2-1 2.438-1.875c2.601-1.867 2.601-1.867 3.563-4.125z" fill="#381001"/><path d="M431 207v2h-11v-1c4.122-1.63 6.707-2.263 11-1z" fill="#d72303"/><path d="M326 145l10 2v1h-12l2-3z" fill="#fde714"/><path d="M403.848 117.902L410 118c-2.938 2.503-5.179 3.469-9 4 0-3.947 0-3.947 2.848-4.098z" fill="#f7ca11"/><path d="M532 218l10 1c-2.923 1.461-4.925 2.341-8 3l-2-4z" fill="#fde710"/><path d="M321 148h11c-3 3-3 3-5.5 3.375C324 151 324 151 321 148z" fill="#332403"/><path d="M447 141c1.188 1.625 1.188 1.625 2 4-1.375 3.25-1.375 3.25-3 6h-1c-.179-3.947-.094-6.598 2-10z" fill="#f3df1c"/><path d="M181 254l4 2c-3.402 2.094-6.053 2.179-10 2l4-1v-2l2-1z" fill="#918c8d"/><path d="M421 241h13v1h-6v2h-3v-2l-4-1z" fill="#d5cccc"/><path d="M232 220l10 3-4 2c-2.856-1.328-4.573-2.146-6-5z" fill="#d52510"/><path d="M236 215l3 4-5 2-3-3 1.938-.375L235 217l1-2z" fill="#7d0901"/><path d="M248 193l1 7-6-3c3.875-4 3.875-4 5-4z" fill="#891007"/><path d="M422 171l2 1c-1.75 3.875-1.75 3.875-4 5l-2-2 3-1 1-3z" fill="#ead413"/><path d="M265 164c2 2 2 2 2.125 5.125L267 172l-5-5 3-3z" fill="#350d01"/><path d="M375 156c.75 1.625.75 1.625 1 4-3.178 5.589-3.178 5.589-6 7l2-6h2l1-5z" fill="#6e0000"/><path d="M371 243l-1 4-5 1v-2c3.462-3 3.462-3 6-3z" fill="#b10001"/><path d="M249 239l2.063.438c3.3.632 6.609 1.106 9.938 1.563v1h-10v-2l-2-1z" fill="#e0ce13"/><path d="M383 226l8 1v1c-4.409 1.102-8.484 1.077-13 1v-1h5v-2z" fill="#dec711"/><path d="M326 214h13l-1 3-12-2v-1z" fill="#fde715"/><path d="M315 179v3c-1.812 1.75-1.812 1.75-4 3l-3-1c4.75-5 4.75-5 7-5z" fill="#f3d013"/><path d="M327 149h9l-1 3-8-2v-1z" fill="#0d0000"/><path d="M414 147l-1 2-13-1v-1l5.313-.562 2.988-.316C411 146 411 146 414 147z" fill="#310300"/><path d="M388 138l-1 2h-7l-2-2c3.695-.95 6.305-.95 10 0z" fill="#d8ca13"/><path d="M197 248c.625 1.875.625 1.875 1 4l-2 2h-3c1.152-2.468 2.048-4.048 4-6z" fill="#570000"/><path d="M414 229l5 1v2h-9l4-1v-2z" fill="#e3d013"/><path d="M167 216v3c-2 1.688-2 1.688-4 3v-4l4-2z" fill="#fae21f"/><path d="M167 207l2 1-2 7-2-2c.556-4.556.556-4.556 2-6z" fill="#f27c07"/><path d="M388 137l9 2v1h-10l1-3z" fill="#fae815"/><path d="M195 96l4 1 1 4h-3l-2-5z" fill="#f57906"/><defs ><path id="B" d="M153 119c2.625.375 2.625.375 5 1 .625 2.375.625 2.375 1 5l-2 2c-2.625-.375-2.625-.375-5-1-.625-2.375-.625-2.375-1-5l2-2z"/><path id="C" d="M424 244c2.375-.125 2.375-.125 5 0l2 2c-.375 2.125-.375 2.125-1 4-2.375.625-2.375.625-5 1l-2-2c.375-2.625.375-2.625 1-5z"/><path id="D" d="M458 185c2.625.375 2.625.375 5 1 .125 2.375.125 2.375 0 5l-2 2c-2.125-.375-2.125-.375-4-1-.625-2.375-.625-2.375-1-5l2-2z"/><path id="E" d="M307 291c2.625.375 2.625.375 5 1 .625 1.875.625 1.875 1 4l-2 2c-2.625-.375-2.625-.375-5-1-.625-1.875-.625-1.875-1-4l2-2z"/><path id="F" d="M410 266c2.125.375 2.125.375 4 1 .625 2.375.625 2.375 1 5l-2 2c-2.125-.375-2.125-.375-4-1-.625-2.375-.625-2.375-1-5l2-2z"/><path id="G" d="M320 289l5 1c.625 1.875.625 1.875 1 4l-2 2c-2.625-.375-2.625-.375-5-1v-5l1-1z"/><path id="H" d="M267 288l5 1v5c-2.375.625-2.375.625-5 1l-2-2c.536-3.536.536-3.536 2-5z"/><path id="I" d="M262 298c.625 1.875.625 1.875 1 4l-2 2c-2.625-.375-2.625-.375-5-1v-5c2.491-1.245 3.411-.777 6 0z"/><path id="J" d="M245 293l5 1-1 5c-1.875.625-1.875.625-4 1l-2-2c.536-3.536.536-3.536 2-5z"/><path id="K" d="M392 263l5 1c.625 1.875.625 1.875 1 4l-2 2c-2.125-.375-2.125-.375-4-1l-1-5 1-1z"/><path id="L" d="M270 58l4 1 1 5c-2.375.625-2.375.625-5 1l-2-2c.536-3.536.536-3.536 2-5z"/><path id="M" d="M297 303c2.125.375 2.125.375 4 1 .625 1.875.625 1.875 1 4l-2 2c-2.125-.375-2.125-.375-4-1-.625-1.875-.625-1.875-1-4l2-2z"/></defs></svg>