<?xml version="1.0" encoding="UTF-8"?>
<svg version="1.1" xmlns="http://www.w3.org/2000/svg" width="356" height="113">
<path d="M0 0 C1.52791929 11.78195543 1.52791929 11.78195543 -1.98046875 16.875 C-4.5637562 19.37621629 -7.24531382 21.69027047 -10 24 C-11.24020051 25.3250432 -12.45219606 26.67744848 -13.625 28.0625 C-16.20057216 31.06835868 -18.80446027 34.04417081 -21.4375 37 C-22.62500921 38.33332513 -23.81251077 39.66665707 -25 41 C-22.39707953 47.99121081 -19.66617137 54.89681868 -16.66796875 61.7265625 C-16.24174728 62.6978006 -16.24174728 62.6978006 -15.80691528 63.68865967 C-14.63541316 66.35115324 -13.45972132 69.01175175 -12.27954102 71.67041016 C-11.40426455 73.6454051 -10.53571668 75.62325073 -9.66796875 77.6015625 C-9.15516357 78.75994629 -8.6423584 79.91833008 -8.11401367 81.11181641 C-7 84 -7 84 -7 87 C-10.41602015 87.17446934 -13.83089637 87.28089623 -17.25 87.375 C-18.21808594 87.42527344 -19.18617187 87.47554688 -20.18359375 87.52734375 C-22.89830948 87.58351028 -25.3361816 87.52899937 -28 87 C-30.37890625 84.65234375 -30.37890625 84.65234375 -32 81 C-32.36818848 80.19272461 -32.73637695 79.38544922 -33.11572266 78.55371094 C-34.35633955 75.78375175 -35.52845708 72.99249843 -36.6875 70.1875 C-37.48102804 68.28430236 -38.27649472 66.38191146 -39.07421875 64.48046875 C-39.42057373 63.64410889 -39.76692871 62.80774902 -40.1237793 61.94604492 C-40.84525075 60.03659782 -40.84525075 60.03659782 -42 59 C-42.36609375 59.42667969 -42.7321875 59.85335937 -43.109375 60.29296875 C-47.51574202 65.38127353 -52.05292331 70.3366562 -56.64746094 75.25463867 C-57.13762695 75.78162354 -57.62779297 76.3086084 -58.1328125 76.8515625 C-58.85452637 77.6254834 -58.85452637 77.6254834 -59.59082031 78.41503906 C-61.01837615 80.02066839 -62.30926553 81.69484166 -63.6171875 83.3984375 C-64.40351562 84.25695312 -65.18984375 85.11546875 -66 86 C-67.32 86 -68.64 86 -70 86 C-70 61.58 -70 37.16 -70 12 C-64.39 12 -58.78 12 -53 12 C-52.67 21.24 -52.34 30.48 -52 40 C-47.9053808 35.61303452 -47.9053808 35.61303452 -43.8112793 31.22558594 C-40.63344384 27.81968442 -37.45377605 24.41553578 -34.26953125 21.015625 C-33.67422607 20.37834473 -33.0789209 19.74106445 -32.46557617 19.08447266 C-31.28190885 17.82165581 -30.09326532 16.56348461 -28.8996582 15.31005859 C-26.30149425 12.56533904 -23.90775981 9.87588945 -21.6484375 6.8359375 C-15.50186582 -1.33647054 -9.6293523 -1.14182043 0 0 Z " fill="#00BCB4" transform="translate(70,0)"/>
<path d="M0 0 C1.41092226 0.80752307 2.81331101 1.63143811 4.1875 2.5 C4.1875 1.18 4.1875 -0.14 4.1875 -1.5 C9.7975 -1.5 15.4075 -1.5 21.1875 -1.5 C21.1875 17.64 21.1875 36.78 21.1875 56.5 C15.5775 56.5 9.9675 56.5 4.1875 56.5 C3.6925 54.52 3.6925 54.52 3.1875 52.5 C2.27871094 52.933125 2.27871094 52.933125 1.3515625 53.375 C-6.91861444 57.03932455 -13.54240715 57.954168 -22.125 54.75 C-30.10872148 51.13801992 -33.89049135 46.24472593 -37.8125 38.5 C-40.6689812 30.32396399 -39.74174957 19.34796003 -36.0625 11.64453125 C-28.41815151 -1.47030413 -14.11932223 -6.98976348 0 0 Z M-19.75 18.125 C-21.95446419 23.05262584 -22.42590886 27.6938517 -20.6875 32.8125 C-18.07161775 36.56193123 -16.16601273 39.07888652 -11.4765625 39.91796875 C-7.00183097 40.16656495 -3.80327372 40.01739914 -0.25 37.125 C3.71353166 32.85658129 3.4794057 29.85898858 3.390625 24.19921875 C3.12894972 20.72195688 2.6772605 18.9897605 0.1875 16.5 C-6.98655362 12.90563776 -13.32471658 12.73605262 -19.75 18.125 Z " fill="#00BCB4" transform="translate(98.8125,29.5)"/>
<path d="M0 0 C5.94 0 11.88 0 18 0 C18.33 6.27 18.66 12.54 19 19 C21.31 17.68 23.62 16.36 26 15 C32.69271938 13.9046813 39.44589369 14.1959574 45.3515625 17.734375 C50.00609571 21.30799765 52.53646146 25.29293106 54 31 C54.25912931 34.33398202 54.23324229 37.64988812 54.1953125 40.9921875 C54.1924826 41.93812775 54.18965271 42.88406799 54.18673706 43.8586731 C54.17558932 46.86424694 54.15049465 49.86951702 54.125 52.875 C54.11496321 54.91926651 54.10583859 56.96353772 54.09765625 59.0078125 C54.07566767 64.00532444 54.04117509 69.0026108 54 74 C48.39 74 42.78 74 37 74 C36.95101562 71.53144531 36.90203125 69.06289062 36.8515625 66.51953125 C36.79750114 64.11997592 36.74021398 61.72051769 36.68261719 59.32104492 C36.64441304 57.65770752 36.60954537 55.99428992 36.578125 54.33081055 C36.53228766 51.9350932 36.47432533 49.53992391 36.4140625 47.14453125 C36.40251129 46.4047554 36.39096008 45.66497955 36.37905884 44.90278625 C36.26473955 40.87336435 35.95591905 37.56283111 34 34 C30.30594568 31.53729712 28.36722928 31.77014583 24 32 C21.68963085 32.42854995 21.68963085 32.42854995 20 33 C18.85192189 37.1461273 18.77423761 41.20677118 18.68359375 45.484375 C18.66281265 46.29996887 18.64203156 47.11556274 18.62062073 47.95587158 C18.55538703 50.55383105 18.49636232 53.15188913 18.4375 55.75 C18.39428986 57.514333 18.35067478 59.27865613 18.30664062 61.04296875 C18.19897257 65.36187968 18.0997049 69.68086854 18 74 C12.06 74 6.12 74 0 74 C0 49.58 0 25.16 0 0 Z " fill="#00BCB4" transform="translate(176,12)"/>
<path d="M0 0 C6.64976143 3.95179425 11.56653894 9.82259735 14.4375 17 C15.38747218 20.82609486 15.54324666 24.37705408 15.5 28.3125 C15.49097656 29.38113281 15.48195313 30.44976562 15.47265625 31.55078125 C15.46105469 32.35902344 15.44945312 33.16726562 15.4375 34 C12.27288385 35.58230808 8.84670633 35.24157813 5.3671875 35.31640625 C4.57095978 35.33718735 3.77473206 35.35796844 2.95437622 35.37937927 C0.40717315 35.44484149 -2.14013425 35.50374415 -4.6875 35.5625 C-6.41277127 35.6056884 -8.13803193 35.64930279 -9.86328125 35.69335938 C-14.09624685 35.80051945 -18.32931753 35.90179623 -22.5625 36 C-22.5625 36.66 -22.5625 37.32 -22.5625 38 C-17.98908364 40.36047296 -13.59862992 40.62848255 -8.5625 40 C-7.11305858 39.38143187 -5.67521282 38.73501422 -4.25 38.0625 C-0.82887864 36.72802004 0.200464 36.90037617 3.671875 38.359375 C6.68864483 40.12977983 9.58464984 41.97742095 12.4375 44 C10.50207518 50.03156199 6.79404258 52.04497401 1.4375 55 C-7.08181965 58.67500063 -17.43880181 58.20710333 -26 54.9375 C-34.0003203 51.13441831 -38.60106688 46.28597609 -41.8515625 38.0625 C-44.74829687 29.65878711 -43.6948051 22.16297692 -40.5625 14 C-32.82881269 -0.60807603 -15.2256513 -6.91225887 0 0 Z M-21.5625 16 C-23.0475 18.475 -23.0475 18.475 -24.5625 21 C-17.3025 21 -10.0425 21 -2.5625 21 C-5.11785135 16.28295823 -5.11785135 16.28295823 -7.5625 14 C-13.26572552 12.76430114 -16.57464743 12.52010286 -21.5625 16 Z " fill="#00BCB4" transform="translate(301.5625,29)"/>
<path d="M0 0 C3.07246897 2.63354483 5.89381823 5.25870568 8.625 8.25 C8.625 8.91 8.625 9.57 8.625 10.25 C3.675 12.56 -1.275 14.87 -6.375 17.25 C-8.025 15.93 -9.675 14.61 -11.375 13.25 C-14.58480136 12.91486406 -14.58480136 12.91486406 -17.375 13.25 C-17.045 14.24 -16.715 15.23 -16.375 16.25 C-13.66622722 17.30802175 -11.02256972 18.21102188 -8.25 19.0625 C-0.85501192 21.50194938 4.82726696 23.62765845 9.0625 30.625 C10.45312128 37.11456595 10.04644354 41.74505174 6.81640625 47.49609375 C3.4479732 52.45486896 -1.6261154 54.97657131 -7.375 56.25 C-16.51525335 57.10509323 -25.33470296 56.68672064 -32.75 50.8125 C-37.01620782 46.64786856 -37.01620782 46.64786856 -38.375 44.25 C-37.02640392 40.20421176 -35.15502983 39.6529667 -31.5 37.5625 C-30.43007812 36.93988281 -29.36015625 36.31726563 -28.2578125 35.67578125 C-25.375 34.25 -25.375 34.25 -22.375 34.25 C-21.941875 35.2090625 -21.941875 35.2090625 -21.5 36.1875 C-20.54676549 38.40206079 -20.54676549 38.40206079 -18.375 39.25 C-17.00157169 39.3189472 -15.62497898 39.33467708 -14.25 39.3125 C-12.331875 39.2815625 -12.331875 39.2815625 -10.375 39.25 C-10.375 38.26 -10.375 37.27 -10.375 36.25 C-11.4371875 35.89808594 -12.499375 35.54617187 -13.59375 35.18359375 C-30.05422429 29.52688621 -30.05422429 29.52688621 -34.375 23.25 C-36.41678293 18.47019397 -36.95006242 14.00677306 -35.4375 9 C-33.05504035 3.76917747 -28.83684656 0.5109458 -23.8125 -2.0625 C-15.62107712 -4.37290133 -7.62822787 -3.95537741 0 0 Z " fill="#00BCB4" transform="translate(161.375,29.75)"/>
<path d="M0 0 C0 6.6 0 13.2 0 20 C-2.76692708 20.42317708 -5.53385417 20.84635417 -8.30078125 21.26953125 C-11.17630632 22.04771242 -12.23803669 22.64501344 -14 25 C-15.16402727 28.49208181 -15.21118508 31.39147772 -15.31640625 35.07421875 C-15.33718735 35.7580513 -15.35796844 36.44188385 -15.37937927 37.1464386 C-15.44466154 39.3266921 -15.50366017 41.50706405 -15.5625 43.6875 C-15.60570553 45.16732986 -15.64932047 46.64714783 -15.69335938 48.12695312 C-15.80109025 51.75118254 -15.90032107 55.37550438 -16 59 C-21.94 59 -27.88 59 -34 59 C-34.02255577 51.58539637 -34.04091784 44.17081135 -34.05181217 36.75618076 C-34.05703982 33.31359652 -34.06413531 29.87103688 -34.07543945 26.4284668 C-34.08834235 22.47444957 -34.09322918 18.52044244 -34.09765625 14.56640625 C-34.10281754 13.32476212 -34.10797882 12.08311798 -34.11329651 10.80384827 C-34.11337204 9.66274094 -34.11344757 8.52163361 -34.11352539 7.34594727 C-34.115746 6.335569 -34.11796661 5.32519073 -34.12025452 4.28419495 C-34 2 -34 2 -33 1 C-30.13732433 0.92674832 -27.299281 0.90761795 -24.4375 0.9375 C-23.63119141 0.94201172 -22.82488281 0.94652344 -21.99414062 0.95117188 C-19.99606244 0.96299482 -17.99802217 0.98093086 -16 1 C-15.67 2.98 -15.34 4.96 -15 7 C-14.29875 6.21625 -13.5975 5.4325 -12.875 4.625 C-8.72837789 0.83895373 -5.55685189 0 0 0 Z " fill="#00BCB4" transform="translate(356,27)"/>
<path d="M0 0 C5.61 0 11.22 0 17 0 C17 19.14 17 38.28 17 58 C11.39 58 5.78 58 0 58 C0 38.86 0 19.72 0 0 Z " fill="#00BCB4" transform="translate(236,28)"/>
<path d="M0 0 C1.0725 -0.01675781 2.145 -0.03351563 3.25 -0.05078125 C4.1575 0.06910156 5.065 0.18898438 6 0.3125 C6.66 1.3025 7.32 2.2925 8 3.3125 C8.33 2.3225 8.66 1.3325 9 0.3125 C11.79192205 0.25869422 14.5828141 0.21892331 17.375 0.1875 C18.1690625 0.17074219 18.963125 0.15398437 19.78125 0.13671875 C21.85492015 0.11914527 23.92883241 0.20914832 26 0.3125 C28 2.3125 28 2.3125 28.1953125 4.2578125 C28.13020833 6.27604167 28.06510417 8.29427083 28 10.3125 C26.68 10.3125 25.36 10.3125 24 10.3125 C24 8.3325 24 6.3525 24 4.3125 C22.70366379 5.37895115 22.70366379 5.37895115 22.9375 7.875 C22.958125 8.679375 22.97875 9.48375 23 10.3125 C21.68 10.3125 20.36 10.3125 19 10.3125 C19 8.0025 19 5.6925 19 3.3125 C18.34 3.3125 17.68 3.3125 17 3.3125 C17 5.6225 17 7.9325 17 10.3125 C15.68 10.3125 14.36 10.3125 13 10.3125 C12.67 8.3325 12.34 6.3525 12 4.3125 C10.68 7.6125 9.36 10.9125 8 14.3125 C6.68 14.3125 5.36 14.3125 4 14.3125 C4.20625 13.590625 4.4125 12.86875 4.625 12.125 C5.05952211 8.86608415 4.41680669 7.22945496 3 4.3125 C2.67 6.2925 2.34 8.2725 2 10.3125 C-5.37042925 10.67498013 -5.37042925 10.67498013 -8.0625 9.125 C-9 7.3125 -9 7.3125 -8.8125 4.75 C-7.16982627 -0.17802118 -4.75498853 0.01714539 0 0 Z M-4 3.3125 C-4.33 4.6325 -4.66 5.9525 -5 7.3125 C-4.01 7.3125 -3.02 7.3125 -2 7.3125 C-2 5.9925 -2 4.6725 -2 3.3125 C-2.66 3.3125 -3.32 3.3125 -4 3.3125 Z " fill="#FF9D6C" transform="translate(198,98.6875)"/>
<path d="M0 0 C0 0.99 0 1.98 0 3 C-1.65 3 -3.3 3 -5 3 C-3.02 3.99 -1.04 4.98 1 6 C1.391875 5.505 1.78375 5.01 2.1875 4.5 C4 3 4 3 6.5 2.625 C9 3 9 3 10.875 4.125 C12.55290631 6.92151052 11.74875648 8.93690532 11 12 C4.375 13.25 4.375 13.25 1 11 C0.34 11.66 -0.32 12.32 -1 13 C-7.26440678 13.56949153 -7.26440678 13.56949153 -9.9375 11.5 C-10.288125 11.005 -10.63875 10.51 -11 10 C-10.01 9.34 -9.02 8.68 -8 8 C-5.3125 8.875 -5.3125 8.875 -3 10 C-3 9.34 -3 8.68 -3 8 C-3.969375 7.855625 -4.93875 7.71125 -5.9375 7.5625 C-9 7 -9 7 -10 6 C-10.25 3.5625 -10.25 3.5625 -10 1 C-6.1496895 -1.56687367 -4.41430237 -0.83288724 0 0 Z M6 6 C5.67 7.32 5.34 8.64 5 10 C5.99 10 6.98 10 8 10 C7.67 8.68 7.34 7.36 7 6 C6.67 6 6.34 6 6 6 Z " fill="#FF9D6C" transform="translate(270,96)"/>
<path d="M0 0 C0.66 0.66 1.32 1.32 2 2 C2.33 1.34 2.66 0.68 3 0 C9.0546875 -0.1953125 9.0546875 -0.1953125 11 0 C13 2 13 2 13.1953125 3.9453125 C13.13020833 5.96354167 13.06510417 7.98177083 13 10 C12.01 10 11.02 10 10 10 C9.67 8.02 9.34 6.04 9 4 C8.67 4 8.34 4 8 4 C7.67 5.98 7.34 7.96 7 10 C5.68 10 4.36 10 3 10 C2.67 9.34 2.34 8.68 2 8 C1.34 8.66 0.68 9.32 0 10 C-3.625 9.625 -3.625 9.625 -7 9 C-8.33157895 3.55263158 -8.33157895 3.55263158 -6.875 1.125 C-4.40522151 -0.3568671 -2.83386167 -0.3633156 0 0 Z M-4 3 C-4 4.32 -4 5.64 -4 7 C-3.01 6.67 -2.02 6.34 -1 6 C-1.33 5.01 -1.66 4.02 -2 3 C-2.66 3 -3.32 3 -4 3 Z " fill="#FF9D6C" transform="translate(318,99)"/>
<path d="M0 0 C7.875 0 7.875 0 11 2 C11.125 4.875 11.125 4.875 11 8 C8.64046906 10.35953094 7.22104383 10.49141413 4 11 C4 11.99 4 12.98 4 14 C2.68 14 1.36 14 0 14 C0 9.38 0 4.76 0 0 Z M3 4 C3 4.99 3 5.98 3 7 C4.65 6.67 6.3 6.34 8 6 C7.67 5.34 7.34 4.68 7 4 C5.68 4 4.36 4 3 4 Z " fill="#FF9D6C" transform="translate(178,95)"/>
<path d="M0 0 C3.625 0.375 3.625 0.375 7 1 C7.80967438 3.91482778 8.21845993 5.46113217 7.0625 8.3125 C6.711875 8.869375 6.36125 9.42625 6 10 C3.125 10.125 3.125 10.125 0 10 C-2 8 -2 8 -2.25 5 C-2 2 -2 2 0 0 Z " fill="#FF9D6C" transform="translate(229,99)"/>
<path d="M0 0 C1.32 0 2.64 0 4 0 C4 2.31 4 4.62 4 7 C4.66 6.67 5.32 6.34 6 6 C6.65772428 2.97065509 6.65772428 2.97065509 7 0 C7.99 0 8.98 0 10 0 C10 3.3 10 6.6 10 10 C3.9453125 10.1953125 3.9453125 10.1953125 2 10 C0 8 0 8 -0.1953125 6.0546875 C-0.13020833 4.03645833 -0.06510417 2.01822917 0 0 Z " fill="#FF9D6C" transform="translate(287,99)"/>
<path d="M0 0 C6.0546875 -0.1953125 6.0546875 -0.1953125 8 0 C10 2 10 2 10.1953125 3.9453125 C10.13020833 5.96354167 10.06510417 7.98177083 10 10 C9.01 10 8.02 10 7 10 C6.67 8.02 6.34 6.04 6 4 C5.67 4 5.34 4 5 4 C4.67 5.98 4.34 7.96 4 10 C2.68 10 1.36 10 0 10 C0 6.7 0 3.4 0 0 Z " fill="#FF9D6C" transform="translate(237,99)"/>
<path d="M0 0 C2.08207071 4.40909091 2.08207071 4.40909091 1.6875 7.25 C1 9 1 9 0 10 C-1.99958364 10.04080783 -4.00045254 10.04254356 -6 10 C-6.70074844 6.846632 -7 4.27275026 -7 1 C-4.53721199 -0.231394 -2.7204945 -0.07159196 0 0 Z " fill="#FF9D6C" transform="translate(339,99)"/>
<path d="M0 0 C1.32 0 2.64 0 4 0 C4 0.66 4 1.32 4 2 C4.66 2 5.32 2 6 2 C6 2.99 6 3.98 6 5 C5.34 5 4.68 5 4 5 C4 6.32 4 7.64 4 9 C4.66 9 5.32 9 6 9 C6 9.99 6 10.98 6 12 C4.35 11.67 2.7 11.34 1 11 C-0.62950412 6.87831311 -1.26264601 4.29299643 0 0 Z " fill="#FF9D6C" transform="translate(299,97)"/>
<path d="M0 0 C1.32 0 2.64 0 4 0 C4 0.66 4 1.32 4 2 C4.66 2 5.32 2 6 2 C6 2.99 6 3.98 6 5 C5.34 5 4.68 5 4 5 C4 6.32 4 7.64 4 9 C4.66 9 5.32 9 6 9 C6 9.99 6 10.98 6 12 C4.35 11.67 2.7 11.34 1 11 C-0.62950412 6.87831311 -1.26264601 4.29299643 0 0 Z " fill="#FF9D6C" transform="translate(249,97)"/>
<path d="M0 0 C0.99 0 1.98 0 3 0 C3 4.62 3 9.24 3 14 C2.01 14 1.02 14 0 14 C-0.19456705 12.04235617 -0.38044247 10.08384679 -0.5625 8.125 C-0.66691406 7.03445312 -0.77132813 5.94390625 -0.87890625 4.8203125 C-1 2 -1 2 0 0 Z " fill="#FF9D6C" transform="translate(283,95)"/>
<path d="M0 0 C1.51953125 1.14453125 1.51953125 1.14453125 3 3 C3.07421875 5.69921875 3.07421875 5.69921875 2.6875 8.6875 C2.50767578 10.17830078 2.50767578 10.17830078 2.32421875 11.69921875 C2.21722656 12.45847656 2.11023438 13.21773437 2 14 C1.01 14 0.02 14 -1 14 C-1.02685938 11.85423363 -1.04633088 9.70837355 -1.0625 7.5625 C-1.07410156 6.36753906 -1.08570313 5.17257813 -1.09765625 3.94140625 C-1 1 -1 1 0 0 Z " fill="#FF9D6C" transform="translate(307,95)"/>
</svg>
