<svg xmlns="http://www.w3.org/2000/svg" width="981" height="222" xmlns:v="https://vecta.io/nano"><path d="M0 0h981v222H0V0z" fill="#fefeff"/><path d="M200 30h45c3.008 7.218 5.911 14.281 8.426 21.652l.924 2.674 1.953 5.67 5.268 15.25 1.098 3.172 12.019 34.082 1.01 2.837L282 133l1.565 4.383L287 147c1.63-2.445 2.521-4.145 3.47-6.842l.838-2.36.903-2.587.971-2.749 3.193-9.087 2.245-6.365 12.129-34.6 2.047-5.857.678-1.938 1.347-3.851 4.577-13.135 2.434-6.968 1.1-3.176 1.048-2.992.894-2.569c1.555-4.037 3.369-7.97 5.126-11.923h45v166h-34l-.098-23.627-.053-14.549c-.102-18.252.113-36.385 1.446-54.595.657-9.1.812-18.113.705-27.229l-.766 2.134-30.362 84.363-1.969 5.444c-3.417 9.459-6.939 18.814-10.904 28.06h-24l-1.625-4.797-21.089-59.191L239.5 96.75l-2.268-6.273L232 76l.372 12.738.125 4.308.186 6.294.111 3.793c.127 3.56.348 7.11.58 10.665.607 9.476.757 18.902.723 28.394l-.004 4.703-.025 12.186-.022 14.724L234 196h-34V30z" fill="#0d55ff"/><path d="M85.977 70.595l4.265-.103c9.167-.3 15.746.136 22.759 6.508l1.771 1.49c1.645 1.418 3.223 2.884 4.792 4.385l1.689 1.594 3.287 3.132 3.684 3.461C139.118 101.443 147.459 114.072 155 127l1.746 2.941c8.736 15.952 13.56 35.648 9.191 53.621C162.444 192.959 155.914 198.83 147 203c-11.46 4.458-22.372 4.606-34.492 4.566l-5.878.019c-4.086.01-8.172.006-12.259-.009-5.193-.017-10.385.006-15.578.041l-12.123.012c-1.913-.001-3.825.006-5.738.021-13.904.092-29.238-.439-40.33-10.065L19 196l-1.664-1.586c-7.06-7.407-8.933-15.65-8.809-25.675C9.845 136.002 31.245 106.98 54 85c3.519-3.189 7.225-6.121 11-9l2.621-2.176c5.313-4.074 11.955-3.157 18.355-3.229z" fill="#0d56ff"/><path d="M486.375 78.938C495.636 86.501 500.792 94.194 503 106c.42 5.312.441 10.605.441 15.93l.04 4.568.072 11.95.122 19.095.023 6.595c-.063 14.88-.063 14.88 4.302 28.863v3h-34l-3-9-2.195 1.426c-13.92 8.965-27.085 12.268-43.586 8.773-10.976-3.803-19.951-11.734-25.18-22.105-3.513-8.637-3.331-19.08-.602-27.906 4.147-9.778 12.057-16.774 21.563-21.187 8.484-3.336 16.225-5.135 25.367-5.098l2.059.004 6.448.031 4.398.014L470 121l-.75-7.625-.187-2.16c-.55-4.999-1.687-8.3-5.062-12.215-6.24-4.099-12.783-3.779-20-3-4.017 1.432-6.93 4.296-9 8l-1 6h-33c0-11.106 3.151-17.95 10.816-25.879 18.466-17.273 53.78-20.349 74.559-5.184zm389.719 1.433c8.525 6.6 12.141 16.31 13.906 26.629.338 4.657.401 9.293.38 13.959l.017 6.833.039 19.401.049 11.946-.014 6.644c.024 8.571 1.178 16.013 3.671 24.225C895 193 895 193 895 196h-33c-3-7-3-7-4-10l-2.875 2.688c-11.357 9.76-23.799 10.391-38.125 9.312-10.846-2.152-20.799-8.851-27-18-5.044-10.18-7.081-20.725-3.375-31.75 4.57-11.144 12.246-18.126 23.043-23.074 10.798-3.81 20.756-4.566 32.082-4.363l4.461.041L857 121l-.312-6.625-.176-3.727c-.717-5.109-2.222-8.456-6.012-11.961-5.817-3.926-12.739-3.247-19.5-2.687-3.664 1.226-5.513 3.344-7.812 6.438-1.453 2.872-1.453 2.872-2.187 7.563h-33c1.048-11.528 2.735-18.247 11-26.25 21.951-17.967 53.614-18.755 77.094-3.379z" fill="#0e56ff"/><path d="M619.121 76.496C628.146 83.72 632.074 92.853 634 104c.25 3.161.255 6.298.227 9.467l.001 2.723-.033 8.814-.009 6.149-.049 16.112-.04 16.471L634 196h-33l-.044-7.891-.192-25.828-.111-15.658-.117-15.114-.034-5.763-.07-8.079.004-2.4c-.094-5.552-1.303-9.552-4.812-14.018-5.953-4.579-13.519-3.901-20.625-3.25-5.486 1.576-9.384 4.598-13 9-.73 2.913-.691 5.746-.659 8.738l-.032 2.633-.016 8.587-.046 5.965-.054 15.679-.082 16.007L561 196h-34V72h32v14h2l.785-1.816C565.631 77.271 574.896 73.569 582 71c12.75-2.747 26.151-1.928 37.121 5.496z" fill="#1057ff"/><path d="M658 72h34l.044 7.983.192 26.128.111 15.839.117 15.289.034 5.83.07 8.172-.004 2.428c.101 6.008 1.421 10.18 5.636 14.679 3.569 2.106 6.586 2.22 10.613 2.09l2.157-.042c7.031-.247 11.625-1.246 16.968-6.02L730 162l1-1a211.32 211.32 0 0 0 .205-8.192l.03-2.601.081-8.555.063-5.915.153-15.6.161-15.905L732 73h33v123h-31l-2-11-3.937 3.75c-10.964 9.74-23.604 10.106-37.663 9.472-10.326-.956-17.735-7.105-24.45-14.472-2.292-3.233-3.483-6.504-4.637-10.25l-.643-1.973c-2.104-6.571-2.814-12.377-2.783-19.265v-2.633l.016-8.587.004-5.965.025-15.679.02-16.007L658 72z" fill="#0f57ff"/><path d="M917 21h33v175h-33V21z" fill="#0c55ff"/><path d="M77.051 15.797l2.456-.017 5.157-.02 7.881-.072 5.006-.016 2.38-.037c4.295.017 6.97.25 10.069 3.366-.618 2.836-1.493 5.187-2.848 7.75l-1.084 2.094-2.273 4.313-1.08 2.094-.996 1.891C100.76 39.29 100.76 39.29 101 43c1.898.042 1.898.042 4-1 1.436-2.362 2.613-4.565 3.75-7.062l.957-2.01L112 28c3.407.572 6.185 1.409 9.25 3l2.078 1.063C125 33 125 33 126 34c.535 3.491.105 4.837-1.836 7.84l-2.539 3.098-2.461 3.027-1.471 1.75c-1.409 1.902-2.514 3.714-3.652 5.776-5.954 10.28-5.954 10.28-11.994 11.943-4.602.809-9.141.786-13.797.629l-2.446-.022c-7.868-.13-15.067-.341-21.027-6.009-3.122-3.867-5.386-8.022-7.463-12.523-1.875-3.58-4.402-6.48-7.063-9.503C49 38 49 38 49.197 35.845 50.309 33.29 51.62 32.424 54 31c3.289-1.211 6.616-2.065 10-3l8 14h4c-.605-5.831-3.991-10.346-7.025-15.205l-1.236-2.08-1.155-1.871C66 21 66 21 66.829 18.83c2.541-3.971 5.858-3.01 10.222-3.033z" fill="#0f57ff"/><path d="M88 98l4 2v4l3.125.25c5.369 1.039 8.51 2.885 11.75 7.313 1.583 4.836 1.367 9.394 1.125 14.438l-5-1-2-12-9-3 1 30 9 4c3.832 3.343 6.804 6.083 7.336 11.293.144 14.326.144 14.326-4.336 19.707-4.155 3.601-7.561 4.565-13 5l-1 5-4-1-1-4-2.5.313c-5.353-.478-9.327-2.867-12.898-6.887-3.04-4.625-3.042-9.03-2.602-14.426l4-2c2.403 2.403 2.233 3.096 2.375 6.375.298 3.096.491 4.424 2.25 7.063 2.933 2.099 2.933 2.099 9.375 3.563v-30l-10-3c-2.473-1.719-2.473-1.719-4.062-3.5l-1.66-1.781c-2.818-3.792-2.528-8.015-2.59-12.531l-.088-2.119c-.063-5.151 1.056-7.962 4.4-12.068 4.956-4.366 7.395-5.122 14-5l.438-2.437C87 99 87 99 88 98z" fill="#f1f5ff"/><path d="M458.875 139.875l3.242.027L470 140l.313 10.688.127 3.053c.124 7.518.124 7.518-2.771 11.33L465 167l-3 2.188c-6.753 4.08-13.371 5.135-21.129 3.313-4.141-1.574-6.487-3.833-8.871-7.5-1.607-4.822-1.386-8.705.063-13.562 2.817-4.998 6.223-8.172 11.426-10.598 5.135-1.228 10.128-1.049 15.387-.965z" fill="#fbfcff"/><path d="M841.082 139.902l2.822.01 2.908.025 2.967.014L857 140l.25 10.688.102 3.053c.098 7.452.098 7.452-2.023 11.26-6.919 5.944-14.488 8.963-23.625 8.461-4.956-.845-8.162-2.766-11.578-6.523-2.393-4.122-2.839-8.286-2.125-12.937 2.482-6.31 6.851-10.287 13-13 3.419-.815 6.572-1.119 10.082-1.098z" fill="#fcfcff"/><path d="M86 110v27c-6.132-1.022-7.945-1.542-12-6-.627-3.002-.849-5.028-.75-8l-.07-2.117c.032-2.831.302-5.173 1.998-7.496C79.018 109.822 80.513 110 86 110z" fill="#145bff"/><path d="M92 147c5.501 1.834 8.428 2.855 11 8 .558 5.971.481 10.903-3 16-2.977 2.881-3.668 3-8 3v-27z" fill="#165dff"/><path d="M62 78l2 1-24 24-2-1 1.285-1.25c3.153-3.105 6.174-6.242 9.027-9.625C52.459 86.297 57.204 82.169 62 78z" fill="#2d6dff"/></svg>