<svg xmlns="http://www.w3.org/2000/svg" width="1081" height="304" xmlns:v="https://vecta.io/nano"><path vector-effect="non-scaling-stroke" d="M-490.5-152h981v304h-981z" fill="#fff" visibility="hidden" transform="translate(490.5 152)"/><g transform="matrix(.84 0 0 .84 481.58 152)"><path vector-effect="non-scaling-stroke" d="M-540-540H540V540H-540z" fill="#fff" visibility="hidden"/><path vector-effect="non-scaling-stroke" transform="matrix(12.71 0 0 12.71 -540.1704 -254.1856)" d="M65.34 11.904l-2.891 1.669c-1.525-1.174-3.086-1.725-5.139-1.725a8.52 8.52 0 0 0-8.349 6.824 8.51 8.51 0 0 0 8.84 10.188c1.301-.075 2.567-.448 3.701-1.09v.883c.002.122.102.221.224.22h3.74c.122 0 .221-.098.223-.22v-16.56c-.001-.082-.046-.157-.119-.196s-.161-.033-.229.013v-.006zm-8.03 12.953a4.5 4.5 0 0 1-4.413-5.374 4.5 4.5 0 0 1 8.9 1.169 4.5 4.5 0 0 1-4.487 4.205z" fill="#210f60"/><path vector-effect="non-scaling-stroke" transform="matrix(12.71 0 0 12.71 -540.2085 -254.1627)" d="M14.137 6c-2.444-.009-4.827.763-6.802 2.203a11.38 11.38 0 0 0-4.156 5.792.21.21 0 0 0 .107.252c.03.015.063.023.096.023h4.399c.08.001.153-.043.19-.114.608-1.135 1.519-2.08 2.632-2.727s2.39-.976 3.68-.946c3.72.067 6.6 3.112 6.735 6.62a6.87 6.87 0 0 1-1.347 4.352 6.93 6.93 0 0 1-3.78 2.566 6.96 6.96 0 0 1-4.564-.338c-1.437-.622-2.62-1.714-3.356-3.096a.21.21 0 0 0-.188-.114h-4.4c-.068 0-.131.032-.171.086s-.052.124-.033.189a11.37 11.37 0 0 0 3.391 5.186c1.593 1.385 3.537 2.302 5.618 2.652a11.49 11.49 0 0 0 6.182-.665c1.957-.784 3.659-2.095 4.917-3.787 2.561-3.442 2.957-8.035 1.023-11.864-.95-1.881-2.403-3.461-4.197-4.566S16.248 6.007 14.137 6" fill="#1dcf9f"/><g fill="#210f60"><path vector-effect="non-scaling-stroke" transform="matrix(12.71 0 0 12.71 -540.2303 -254.2424)" d="M7.62 19.517H2.229c-.094 0-.177-.058-.211-.145-.011-.028-.017-.059-.017-.089v-3.692c0-.093.055-.178.14-.216.028-.012.058-.018.088-.018h5.393c.094 0 .177.058.211.145.011.028.017.059.017.089v3.692c0 .093-.055.178-.14.216-.028.012-.058.018-.088.018" fill-rule="evenodd"/><path vector-effect="non-scaling-stroke" transform="matrix(12.71 0 0 12.71 -540.175 -254.233)" d="M46.842 15.592c0-4.44-3.564-8.21-7.99-8.291h-8.308a.21.21 0 0 0-.209.209v21.028c0 .056.022.109.061.148s.093.061.148.061h3.748a.21.21 0 0 0 .209-.209V24.05h4.292c4.454-.048 8.049-3.394 8.049-8.453v-.005zm-8.141 4.299H34.5v-8.427h4.2c2.196 0 3.975 1.944 3.975 4.132 0 2.722-1.779 4.294-3.974 4.294m45.758-8.042h-3.824c-.214 0-.407.128-.491.325l-4.069 9.418-4.01-9.418c-.085-.197-.279-.325-.493-.325l-3.86.02c-.107.001-.195.084-.203.19-.003.034.003.068.016.1l6.302 14.799-2.612 6.048c-.042.099-.002.213.092.264a.2.2 0 0 0 .099.025h3.822c.215 0 .408-.129.492-.326l8.928-20.831c.028-.064.022-.138-.016-.196s-.104-.094-.174-.094z"/></g></g></svg>