<svg xmlns="http://www.w3.org/2000/svg" width="709" height="130" xmlns:v="https://vecta.io/nano"><path d="M231.121 20.678l2.379.01 2.379-.049c2.277-.002 2.277-.002 6.121.361l2 3 2.188-1.5c5.184-2.58 11.2-2.18 16.813-1.5 2.223.973 2.223.973 4 2.125L270 25c2.69-.626 4.417-1.646 6.75-3.062 5.182-2.159 12.16-1.89 17.48-.25 5.317 2.817 9.554 7.741 11.77 13.312.254 2.935.254 2.935.259 6.389l.019 3.923-.012 4.227.006 4.34-.011 9.083.007 11.655v8.956l.005 4.299-.014 5.997-.005 3.449C306 100 306 100 304 102a98.49 98.49 0 0 1-8 .188l-2.234-.002c-5.485-.045-5.485-.045-7.766-1.186l-.018-2.106-.218-19.643-.111-10.099-.142-11.609-.019-3.665-.06-3.397-.034-2.994c-.234-2.488-.234-2.488-1.551-4.329-2.634-1.65-4.809-1.36-7.848-1.157l-.025 2.188-.263 20.395-.134 10.486-.164 12.048-.035 3.813-.06 3.518-.04 3.109C275 100 275 100 273 102a106.37 106.37 0 0 1-8.5.25l-2.379.023c-5.868-.02-5.868-.02-8.121-2.273-.278-2.442-.278-2.442-.319-5.551l-.06-3.518-.035-3.813-.059-3.893-.128-10.249-.141-10.457L253 42c-4.141-.21-4.141-.21-8 1-1.015 3.046-1.154 5.198-1.205 8.389l-.06 3.336-.051 3.599-.063 3.686-.183 11.677-.131 7.908L243 101c-3.16 1.58-6.535 1.184-10 1.188l-2.234.037c-1.923.005-3.846-.103-5.766-.225-2.445-2.445-2.242-3.776-2.271-7.113l.012-2.151-.011-2.267.004-7.438-.006-5.156.011-10.814-.007-13.882V42.53l-.005-5.119.014-7.147-.012-2.151c.058-6.688 1.876-7.374 8.392-7.435z" fill="#00b4e7"/><path d="M544 23l35.1-.104 16.297-.047 15.717-.039 6.007-.022 8.39-.016 2.528-.022c5.732.021 5.732.021 7.96 2.249.498 7.735-1.437 14.61-3.516 22.001l-1.758 6.575-1.172 4.217-1.047 3.829C626.765 65.527 624.635 67.84 621 70c-3.493.601-3.493.601-7.382.568l-2.16.002-7.012-.082-4.884-.021-12.813-.124-13.092-.099L548 70l-.831 3.33-1.09 4.368-.546 2.19L540 101h-17c1.575-8.85 3.948-17.433 6.368-26.08l2.087-7.523 1.33-4.775.628-2.276c1.472-5.23 1.472-5.23 2.587-6.346a160.71 160.71 0 0 1 7.182-.114h2.276l7.483.016 5.175.004 13.647.025 13.915.02L613 54l.621-2.773.816-3.602.809-3.586C616 41 616 41 617 39h-77l4-16zm-103 0h17l-3.406 12.988-1.146 4.373C449.542 55.316 445.248 70.13 441 85l60-1 17-61h17c-3.208 14.26-6.994 28.337-10.918 42.416l-2.702 9.841-2.63 9.482-.96 3.554-.931 3.291-.798 2.886c-1.305 3.112-2.284 4.577-5.062 6.531a55.78 55.78 0 0 1-8.393.518l-2.559.021c-2.789.018-5.576.006-8.365-.008l-5.813.012c-4.059.006-8.119-.003-12.178-.021a1740.29 1740.29 0 0 0-15.623.014 1920.33 1920.33 0 0 1-12.001-.001c-1.921-.003-3.841.001-5.762.01a664.7 664.7 0 0 1-8.044-.028l-2.413.025c-3.303-.051-5.325-.1-7.902-2.271-1.172-2.809-1.028-4.162-.378-7.124l.64-2.951c1.453-5.878 3.025-11.716 4.669-17.544l1.128-4.041 2.353-8.393 3.013-10.763 2.324-8.31 1.111-3.972 1.551-5.52.89-3.17C440 25 440 25 441 23z"/><path d="M66 22l12.915-.165 4.388-.062 6.33-.067 3.84-.048c5.439.525 9.369 2.578 12.839 6.778l1.488 1.746c2.431 3.682 2.336 7.491 2.376 11.807l.039 3.661.022 3.943.012 2.013.045 10.537.085 10.874.038 8.375.06 5.956-.009 3.661.018 3.22c-.614 3.487-1.689 4.657-4.488 6.77-2.795.411-5.19.585-7.984.566l-2.347.019c-1.637.007-3.275.004-4.912-.009-2.485-.014-4.967.02-7.452.058-14.767.078-14.767.078-19.901-4.131-6.409-6.868-6.017-13.349-5.903-22.441l-.047-3.748c.033-7.708.385-14.15 6.117-19.886C69.974 46.059 80.058 46.569 88 46v-4l-1.912-.076-8.526-.362-3.01-.119-2.861-.127-2.65-.111C67 41 67 41 66 40c-.086-1.343-.107-2.69-.098-4.035l.01-2.451.025-2.576.014-2.588L66 22zm13 45l-.062 7.438-.025 2.143c-.009 1.807.036 3.614.088 5.42 1.891 1.891 4.571 1.237 7.09 1.328L88 83c2.223-3.334 2.297-4.595 2.313-8.5l.051-2.906c-.159-2.614-.159-2.614-1.691-4.422C85.665 65.064 82.193 65.404 79 67z" fill="#142971"/><path d="M126.5 20.75l2.051-.023c3.698.015 5.295.171 8.449 2.273.432 3.073.432 3.073.512 6.977l.054 2.077.121 6.572.104 4.453L138 54l9 1 1-33c3.16-1.58 6.535-1.184 10-1.187l2.234-.037c1.923-.005 3.846.103 5.766.225 2.715 2.715 2.264 4.175 2.291 7.975l.039 3.804.007 4.135.02 4.239.014 8.902.062 11.358.025 8.766.027 4.184c.086 8.49.145 15.565-5.861 22.146-5.139 4.687-10.497 5.744-17.264 5.757l-3.742.008-3.867-.023-3.914.023-3.727-.008-3.407-.007C124 102 124 102 122 100a106.37 106.37 0 0 1-.25-8.5l-.023-2.379c.02-5.868.02-5.868 2.273-8.121 2.338-.319 2.338-.319 5.227-.414l3.125-.117 3.273-.094 3.297-.117L147 80v-4l-3 .105c-16.056.405-16.056.405-21.738-4.652-5.583-6.022-6.572-12.101-6.562-20.062l-.013-2.449-.002-5.093-.046-7.814-.002-4.957-.028-2.364c.019-2.186.019-2.186.391-5.714 3.623-2.416 6.316-2.298 10.5-2.25zm-107.614-.066l6.827-.046c8.716-.038 15.504.385 23.1 5.111 6.199 6.376 5.658 13.824 5.579 22.266l.019 6.135-.012 3.947-.01 3.578c-.625 5.35-2.726 9.25-6.888 12.636l-1.781 1.488c-2.933 2.046-5.486 2.321-8.949 2.297l-2.432-.01-2.525-.025-2.561-.014L23 78l.032 1.988.093 8.887.051 3.129.02 2.988.032 2.761C23 100 23 100 21 102a106.37 106.37 0 0 1-8.5.25l-2.379.023c-5.868-.02-5.868-.02-8.121-2.273a83.15 83.15 0 0 1-.275-7.264l-.015-2.267-.011-7.438-.013-5.156-.002-10.814-.034-13.882-.012-10.649-.016-5.119.006-7.147-.023-2.151C1.626 26.15 1.626 26.15 2 23c4.993-3.329 11.035-2.333 16.886-2.316zM23 42v16c7.18.596 7.18.596 10-1l.063-6.937.035-3.902c.268-3.023.268-3.023-1.098-4.16-3.003-.142-5.992-.042-9 0z" fill="#13286f"/><path d="M206 7v14l5.957-.195C214 21 214 21 217 23c.276 2.917.372 5.589.313 8.5l.01 2.379c-.055 5.854-.055 5.854-2.322 8.121-2.164.195-2.164.195-4.625.125l-2.477-.055L206 42l.007 2.233.045 20.793.024 10.691.022 12.279.016 3.895v3.579l.007 3.169C206 101 206 101 205 102l-4 .133-2.437.004-2.562-.012-2.562.012-2.437-.004-2.25-.003C187 102 187 102 186 101l-.114-5.53v-3.579l.016-3.895.004-3.964.025-10.451.02-10.657L186 42l-2.152.035-2.785.027-2.777.035C176 42 176 42 175 41l-.187-8.937-.037-2.537-.006-2.428-.012-2.234C175 23 175 23 177 21l4.688-.75C189.895 18.736 193.96 13.191 199 7c2-1 2-1 7 0z" fill="#00b4e7"/><path d="M676 23c4.069 1.356 4.865 3.954 6.688 7.563L686 37l4-14h2l7.263 14.087 2.474 4.783 3.544 6.911 1.127 2.129c2.473 4.941 3.257 8.558 2.592 14.09-1.449 2.266-1.449 2.266-3.473 4.035l-2.229 2.014-2.361 2.014-4.535 4.035-2.247 1.968c-2.654 2.382-5.156 4.891-7.657 7.432-1.778 1.783-3.64 3.438-5.561 5.065-2.559 2.196-4.971 4.448-7.312 6.875C671 101 671 101 669 101l2-13-2.992 2.844-3.883 3.656-1.973 1.879-1.895 1.777-1.746 1.65C657 101 657 101 655 101l8.109-31.125 1.126-4.102 2.92-10.613 2.997-10.903L676 23z" fill="#e7731e"/><path d="M382 4c2.318 1.868 3.636 3.913 4.98 6.539l1.092 2.008 2.172 4.18c2.101 3.893 2.101 3.893 5.84 5.956 2.456.351 2.456.351 5.916.317l-2 9h-6l-.699 3.453c-1.828 8.914-3.784 17.781-5.988 26.609l-.649 2.612C385.13 70.74 385.13 70.74 384 73h-11c.551-5.876 1.448-11.308 3-17l-5.187-1.062-2.918-.598c-2.931-.344-5.058-.081-7.895.66l1.566 2.52 1.996 3.293 2.004 3.27C367 67 367 67 366 70c-1.488 1.203-1.488 1.203-3.312 2.25l-1.801 1.078c-2.487.886-3.45.691-5.887-.328-1.647-2.285-1.647-2.285-3.234-5.277l-1.738-3.244-1.777-3.416-1.824-3.404C342 49.313 342 49.313 342 47c2.188-1.508 2.188-1.508 5-3.125l2.813-1.633L352 41l2 3 5-1 3-11h-16l1-9 33-1-7-9c-1.937-3.562-1.937-3.562-3-6l5.813-1.687 3.27-.949L382 4zm-8 28l-1.437 4.25-.809 2.391c-.673 2.108-1.245 4.207-1.754 6.359l3.875.063 2.18.035c2.027.029 2.027.029 3.945-1.098 1.268-4.296 2-7.509 2-12h-8zm274-10h17c-3.325 14.906-7.394 29.588-11.51 44.29l-2.966 10.649-2.298 8.246-1.094 3.933-1.521 5.44-.872 3.122C644 100 644 100 643 101c-2.697.073-5.367.092-8.062.063l-2.299-.014L627 101c1.416-9.186 3.823-18.025 6.352-26.949l1.269-4.527 3.324-11.802 3.399-12.088L648 22z"/><path d="M330 84h72c-2 11-2 11-4 17h-72c1-9 1-9 4-17z" fill="#162f78"/><path d="M690 23h2l7.263 14.087 2.474 4.783 3.544 6.911 1.127 2.129c2.473 4.941 3.257 8.558 2.592 14.09-1.449 2.266-1.449 2.266-3.473 4.035l-2.229 2.014-2.361 2.014-4.535 4.035-2.247 1.968c-2.654 2.382-5.156 4.891-7.657 7.432-1.778 1.783-3.64 3.438-5.561 5.065-2.559 2.196-4.971 4.448-7.312 6.875C671 101 671 101 669 101l.875-4.562.492-2.566L671 91l.621-3.402c1.849-4.825 4.719-7.267 8.566-10.598l3.918-3.5 1.951-1.723c2.612-2.389 5.057-4.924 7.492-7.492C695 63 695 63 697 63l-1.181-1.949c-11.698-19.775-11.698-19.775-10.503-27.207 1.082-3.882 2.69-7.35 4.684-10.844z" fill="#01823f"/><path d="M332.854 83.88l3.869.007h2.128l6.996.016 4.838.004 12.759.025 13.01.02L402 84c-.875 6.875-.875 6.875-2 8l-6.723.114h-2.128l-6.996-.016-4.838-.004-12.759-.025-13.01-.02L328 92c1.013-7.958 1.013-7.958 4.854-8.12z" fill="#00baef"/><path d="M66 50l2 1-7 7c0-3 0-3 2.5-5.687L66 50z" fill="#0d1b4a"/></svg>