<svg xmlns="http://www.w3.org/2000/svg" width="698" height="180" xmlns:v="https://vecta.io/nano"><path d="M475.844 20.637l2.777.002 2.879.049 2.879-.01c8.426.065 8.426.065 11.621 2.322 1.295 2.295 1.295 2.295 2.414 5.191l1.278 3.278L501 35l1.315 3.55 4.06 11.387 1.458 4.126 7.917 23.187 7 20.375.854 2.427.817 2.237.706 1.959c2.02 4.057 4.931 5.387 8.872 7.751l1-38-6-1c-2.763-2.383-2.986-3.887-3.434-7.531l-.004-3.969-.059-3.969C526 54 526 54 527.84 51.594c6.81-5.024 17.817-3.702 25.973-3.781l2.135-.039c3.502-.006 6.275.298 9.626 1.364 4.211 1.061 6.344.191 10.426-1.137 10.952-.912 20.7-.397 29.75 6.188 8.877 7.515 13.318 16.454 15 28 .918 14-.639 28.486-9.75 39.813-5.916 6.336-11.673 9.679-20 12l-1.898.537c-2.145.472-4.018.577-6.211.561l-2.285-.01-2.355-.025-2.402-.014L570 135v3l2.25.25c3.316.904 4.585 2.121 6.75 4.75 1.709 5.128 1.617 9.412-.312 14.375C577 160 577 160 574 162c-1.922.267-1.922.267-4.117.291l-2.499.039-2.689.007-2.776.02-5.815.014-8.881.079-5.652.012-2.677.044c-4.117-.03-6.339-.169-9.929-2.346-3.503-3.85-3.238-7.762-3.187-12.713.288-3.162 1.181-5.026 3.223-7.445 3-2 3-2 6-2l-1-6-1.724.983c-2.448 1.094-4.027 1.276-6.69 1.292l-2.62.029-2.806-.003-2.906.013-6.08.002c-3.097-.003-6.193.02-9.289.046l-5.912.002-2.8.028c-4.861-.035-8.254-.171-12.172-3.391-2.628-4.254-2.565-9.148-2-14 1.44-3.486 2.39-4.66 5.688-6.5L487 109v-5l-20 1-2 4 2.813.688C471 111 471 111 472.875 112.938c2.056 5.598 2.171 11.623-.187 17.125-2.607 2.994-4.182 3.899-8.166 4.205l-4.402.023-2.43.02-7.963.025-5.534.02-11.606.014c-4.956 0-9.911.027-14.866.062l-11.432.025-5.48.027-7.669.002-2.283.034c-3.625-.043-5.702-.423-8.802-2.363-3.646-3.829-3.268-7.709-3.21-12.712.183-2.869.684-4.965 2.156-7.445 3-2 3-2 6-2V74l-5-1c-2.82-2.666-3.884-4.313-4.531-8.156l.031-3.344-.031-3.344c.647-3.843 1.711-5.491 4.531-8.156 2.643-.635 2.643-.635 5-1l-.063-1.864-.187-8.386-.102-2.934c-.099-7.173-.099-7.173 2.18-10.426 5.017-3.213 10.295-2.611 16.047-2.641l3.012-.062c9.501-.051 9.501-.051 13.113 3.313 2.874 4.54 2.258 9.936 2.188 15.125l-.002 2.746c-.045 6.706-.045 6.706-1.186 10.129-.06 1.795-.059 3.593-.022 5.389l.061 3.336.082 3.599.072 3.686.245 11.677.158 7.908L423 109c4.172-.305 4.172-.305 7.541-2.507 2.925-5.244 5.276-10.564 7.396-16.18 2.542-6.661 5.337-13.134 8.356-19.594 1.971-4.258 3.831-8.562 5.687-12.871l1.04-2.413 4.247-9.888 3.151-7.324.957-2.235L464 30l1.474-3.326c2.635-4.617 5.101-6.056 10.37-6.037zM570 81c-.584 2.668-.584 2.668-.461 5.691l.012 3.361.074 3.51.004 3.521c-.365 6.033-.365 6.033 2.371 10.916 5.273.591 5.273.591 9.938-1.312 2.676-4.25 2.282-8.667 2.313-13.5l.063-2.408c.033-5.038-.612-8.366-3.312-12.779-6.168-.384-6.168-.384-11 3z" fill="#fafcfd"/><path d="M101.563 2.688l2.379-.113c8.63 1.201 16.327 6.058 23.746 10.363l6.047 3.469 3.115 1.793 9.479 5.332 3.103 1.731 5.855 3.248c17.053 9.55 17.053 9.55 19.288 16.197.566 3.045.57 5.965.587 9.062l.015 2.037.027 6.652.017 4.641.02 9.727.058 12.427.025 9.587.024 4.58.009 6.425.011 3.685c-.716 6.765-3.709 11.64-8.367 16.472-2.996 2.098-2.996 2.098-6.437 4.063l-4.004 2.32-2.2 1.259-10.413 6.123-8.458 4.997-10.57 6.258-4.605 2.73-2.123 1.267c-7.141 4.225-13.935 5.561-22.19 3.983-5.214-1.829-9.925-4.767-14.646-7.597-2.459-1.466-4.942-2.881-7.436-4.286l-13.253-7.585-8.048-4.567-5.117-2.902-2.373-1.322C38.527 130.972 34.03 127.158 31 120c-.381-3.37-.381-3.37-.388-7.088l-.016-2.067.006-6.716-.009-4.699.016-9.832-.011-12.562v-9.7l-.007-4.63.021-6.489.007-3.72C31.279 46.44 33.692 41.364 38 37c2.959-2.08 6.054-3.885 9.188-5.687l2.701-1.586 5.491-3.204 7.05-4.14L75 15l2.534-1.484 7.841-4.578 2.471-1.448 2.302-1.338 2.037-1.188c3.142-1.67 5.873-2.17 9.377-2.277z" fill="#03457a"/><path d="M197.988 21.797l2.713-.017 5.692-.02 8.691-.072 5.529-.016 2.62-.037c4.745.017 7.923.26 11.766 3.366 2.654 4.296 2.418 9.109 2 14-.863 3.609-1.482 4.624-4.5 6.813C230 47 230 47 228 47l.372 23.334.125 7.941.186 11.401.051 3.599.06 3.336.047 2.941c.063 2.587.063 2.587 1.158 5.449 2.711 1.356 4.913 1.169 7.938 1.188l3.215.043c3.05-.015 3.05-.015 5.848-2.23 1.403-6.089 1.218-12.399 1.316-18.621l.063-3.333.183-10.483.131-7.131L249 47l-2.883-.879C243 45 243 45 241.125 43.063c-2.056-5.598-2.171-11.623.188-17.125 2.782-3.194 4.346-3.911 8.605-4.244l4.915-.065 2.634-.027 5.52-.027 8.414-.112 5.369-.021 2.529-.059c4.213.032 6.887.336 10.224 3.036 3.292 3.431 3.292 3.431 3.478 6.582l.25 3.375c-.281 4.081-.986 6.228-3.25 9.625l-3.085 1.551c-3.029 2.06-3.029 2.06-3.43 4.492-.148 2.671-.106 5.281 0 7.953l.04 2.983.226 9.458.234 12.371.049 2.996c.146 14.776-1.869 27.891-12.405 38.93-10.046 8.657-21.65 10.618-34.441 10.578l-3.08.049c-11.483.007-23.187-2.533-31.795-10.549-10.48-11.174-11.439-24.845-11.453-39.426l-.059-6.717-.051-10.521-.078-10.2.021-3.191c-.045-2.68-.118-5.14-.693-7.758-2.286-2.102-2.286-2.102-5-3-2.347-3.52-2.327-5.201-2.375-9.375l-.086-3.398c.552-3.862 1.762-5.468 4.461-8.227 3.393-1.697 7.254-1.185 10.988-1.203z" fill="#fafcfe"/><path d="M314.875 47.813l2.124-.04c3.485-.006 6.237.302 9.572 1.364 4.213 1.06 6.346.191 10.43-1.137 10.952-.912 20.7-.397 29.75 6.188 9.356 7.937 12.616 16.642 15 28.563L382 86l.156 1.891c.566 12.736-2.759 24.996-10.844 34.797-3.976 4.27-7.967 7.018-13.312 9.313l-2.195.965c-8.006 2.944-16.411 2.298-24.805 2.035v3l2.25.25c3.429.935 4.567 1.954 6.75 4.75.566 3.277.566 3.277.563 6.938l.066 3.652c-.822 4.455-2.035 5.673-5.629 8.41-3.172.717-6.259.678-9.5.629l-2.768.007-5.779-.039-8.828-.001-5.625-.029-2.658.015c-4.088-.079-6.314-.26-9.873-2.429-3.513-3.84-3.242-7.758-3.191-12.707.288-3.162 1.181-5.026 3.223-7.445 3-2 3-2 6-2V74l-6-1c-3.932-4.067-4.289-8.301-4.219-13.711.317-3.312 1.353-5.558 3.219-8.289 7.054-4.509 17.739-3.1 25.875-3.187zM331 81c-.552 2.802-.552 2.802-.391 5.98l.039 3.525.102 3.682.055 3.717L331 107c3.144 1.572 6.652 2.004 10 1 4.341-4.797 4.594-8.862 4.438-15l.021-2.367c-.054-4.944-.843-8.303-3.459-12.633-6.175-.394-6.175-.394-11 3z" fill="#2397f3"/><path d="M597.559 59.613C604.598 63.611 608.57 70.455 611 78c.562 3.768.62 7.445.563 11.25l-.031 3.064c-.276 9.753-2.02 18.137-8.656 25.686-1.844 1.566-1.844 1.566-3.875 3l-2.156 1.527c-8.837 5.048-19.958 4.534-29.844 3.473-3.637-1.027-3.637-1.027-6-2l.375 9.375.094 2.695.117 2.578.095 2.38c.159 2.201.159 2.201 2.319 3.971 1.984.714 3.983 1.386 6 2v6h-34v-7l7-3 .155-28.842.071-13.391.058-12.916.033-4.935.023-6.896.02-3.97L543 69c-2.918-1.945-4.625-2.453-8-3v-8h26l1 7 1.793-1.242 2.395-1.633 2.355-1.617c8.926-5.477 19.52-4.834 29.016-.895zM570 81c-.584 2.668-.584 2.668-.461 5.691l.012 3.361.074 3.51.004 3.521c-.365 6.033-.365 6.033 2.371 10.916 5.273.591 5.273.591 9.938-1.312 2.676-4.25 2.282-8.667 2.313-13.5l.063-2.408c.033-5.038-.612-8.366-3.312-12.779-6.168-.384-6.168-.384-11 3z" fill="#044377"/><path d="M638.16 22.734l2.904-.008 2.998.023 3.01-.023 2.9.008 2.633.007c2.604.282 4.191.857 6.394 2.259 3.476 5.065 3.396 9.659 3.25 15.563l-.016 2.537c-.078 6.189-.078 6.189-.738 9.197-.513 2.797-.612 5.339-.597 8.181l.012 3.246.166 14.561.063 7.693.117 11.093-.002 3.485.069 3.227.029 2.841c.439 2.616.439 2.616 3.063 4.078L667 112c2.917 2.917 2.406 5.97 2.438 9.875l.1 2.184c.036 3.533-.119 5.473-2.506 8.147-4.121 2.44-7.388 2.371-12.094 2.326l-2.633.012c-1.832.003-3.665-.005-5.497-.021-2.799-.021-5.595 0-8.394.025l-5.352-.016-2.526.025c-4.033-.065-6.056-.25-9.541-2.464-3.968-4.158-3.382-8.402-3.352-13.936.345-3.065.567-4.298 2.668-6.469C623 110 623 110 626 110V74l-5-1c-2.281-1.629-2.281-1.629-4-4-.531-3.277-.531-3.277-.5-6.937l-.031-3.652c.622-3.996 1.672-5.597 4.531-8.41 2.25-1.312 2.25-1.312 4-2l-.105-3.254-.082-4.309-.076-2.135c-.072-5.175.641-8.791 3.264-13.303 3.446-1.771 6.314-2.256 10.16-2.266z" fill="#fafbfc"/><path d="M101.563 2.688l2.379-.113c8.63 1.201 16.327 6.058 23.746 10.363l6.047 3.469 3.115 1.793 9.479 5.332 3.103 1.731 5.855 3.248c17.053 9.55 17.053 9.55 19.288 16.197.566 3.045.57 5.965.587 9.062l.015 2.037.027 6.652.017 4.641.02 9.727.058 12.427.025 9.587.024 4.58.009 6.425.011 3.685c-.716 6.765-3.709 11.64-8.367 16.472-2.996 2.098-2.996 2.098-6.437 4.063l-4.004 2.32-2.2 1.259-10.413 6.123-8.458 4.997-10.57 6.258-4.605 2.73-2.123 1.267c-7.141 4.225-13.935 5.561-22.19 3.983-5.214-1.829-9.925-4.767-14.646-7.597-2.459-1.466-4.942-2.881-7.436-4.286l-13.253-7.585-8.048-4.567-5.117-2.902-2.373-1.322C38.527 130.972 34.03 127.158 31 120c-.381-3.37-.381-3.37-.388-7.088l-.016-2.067.006-6.716-.009-4.699.016-9.832-.011-12.562v-9.7l-.007-4.63.021-6.489.007-3.72C31.279 46.44 33.692 41.364 38 37c2.959-2.08 6.054-3.885 9.188-5.687l2.701-1.586 5.491-3.204 7.05-4.14L75 15l2.534-1.484 7.841-4.578 2.471-1.448 2.302-1.338 2.037-1.188c3.142-1.67 5.873-2.17 9.377-2.277zM90.25 16l-2.108 1.251L82 21l-3.043 1.852-5.98 3.711c-3.362 2.089-6.779 4.076-10.203 6.063l-3.399 1.99-6.794 3.931-3.178 1.869-2.86 1.655c-3.994 3.033-6.277 6.195-7.044 11.201l-.001 3.575-.016 1.988.022 6.453-.004 4.512.034 9.433.013 12.071.013 9.309.001 4.451.035 6.224.016 3.572c.429 3.479 1.309 5.347 3.388 8.142 2.449 1.806 2.449 1.806 5.355 3.277l3.292 1.786 3.54 1.874 7.34 3.98 1.883 1.019c7.38 4.006 14.596 8.285 21.809 12.583L94 152l1.939 1.088c4.565 2.28 8.271 2.298 13.061.912 2.51-1.23 4.683-2.427 7-3.937l1.925-1.202L124 145l8.25-5.187 2.038-1.284c4.609-2.889 9.308-5.532 14.107-8.095 11.012-5.604 11.012-5.604 17.605-15.434a149.9 149.9 0 0 0 .177-6.412l.02-1.957.041-6.405.012-2.213.045-11.591.085-11.96.038-9.209.035-4.409.016-6.175.018-3.546c-.68-4.359-2.737-6.846-6.261-9.42l-1.817-.959-2.094-1.131-2.253-1.177-4.863-2.625-2.573-1.383c-4.458-2.426-8.851-4.964-13.251-7.492l-2.669-1.519-12.277-7.18-2.15-1.279-3.868-2.37C104.415 9.881 97.717 11.334 90.25 16z" fill="#fbfcfd"/><path d="M474 30h15c2.839 6.513 5.38 12.974 7.566 19.73 4.161 12.658 8.73 25.172 13.246 37.707l3.914 10.886 2.417 6.718 1.094 3.039.961 2.668L520 116c3.512 1.23 3.512 1.23 7 2v7h-38v-7l8-3c.59-7.822-1.012-10.783-4-19l-33-1-1 5-1.062 2.188c-1.41 4.229-1.092 8.393-.937 12.813l8 3v7h-36v-7l2.625-.937c9.942-6.076 13.584-20.359 17.875-30.625l3.574-8.444 2.405-5.688L467.063 45.5l1.785-4.076L474 30z" fill="#054477"/><path d="M192 31h36v7l-2.875.938c-2.986.936-2.986.936-5.125 2.063l-.155 23.394-.071 10.865-.058 10.504-.055 5.917c-.001 6.782.11 13.197 3.34 19.32 3.871 3.694 7.117 4.493 12.277 4.498l2.223-.061 2.223.021c4.789-.056 8.129-.851 12.277-3.459 3.763-5.106 5.253-9.956 5.227-16.259v-3.76l-.031-4.031-.009-4.149-.049-10.885-.04-11.121L257 40l-8-2v-7h34v7l-3.437 1.438c-3.32 1.199-3.32 1.199-4.562 2.563-.102 1.777-.136 3.559-.142 5.339l-.021 3.462-.013 3.781-.053 5.868-.097 14.492-.057 8.105-.037 7.623c-.132 9.448-1.235 19.076-7.83 26.329-9.135 7.989-19.936 9.359-31.687 9.375l-2.803.074c-9.668.041-17.511-2.875-24.568-9.52-5.398-6.158-6.807-12.934-6.833-20.958l-.021-3.61-.013-3.87-.053-6.038-.097-14.867-.057-8.357-.037-7.869-.05-3.591-.018-3.164c-.278-2.728-.278-2.728-2.405-4.423-2.06-1.156-3.791-1.769-6.107-2.182v-7z" fill="#2296f3"/><path d="M314.875 47.813l2.124-.04c3.485-.006 6.237.302 9.572 1.364 4.213 1.06 6.346.191 10.43-1.137 10.952-.912 20.7-.397 29.75 6.188 9.356 7.937 12.616 16.642 15 28.563L382 86l.156 1.891c.566 12.736-2.759 24.996-10.844 34.797-3.976 4.27-7.967 7.018-13.312 9.313l-2.195.965c-8.006 2.944-16.411 2.298-24.805 2.035v3l2.25.25c3.429.935 4.567 1.954 6.75 4.75.566 3.277.566 3.277.563 6.938l.066 3.652c-.822 4.455-2.035 5.673-5.629 8.41-3.172.717-6.259.678-9.5.629l-2.768.007-5.779-.039-8.828-.001-5.625-.029-2.658.015c-4.088-.079-6.314-.26-9.873-2.429-3.513-3.84-3.242-7.758-3.191-12.707.288-3.162 1.181-5.026 3.223-7.445 3-2 3-2 6-2V74l-6-1c-3.932-4.067-4.289-8.301-4.219-13.711.317-3.312 1.353-5.558 3.219-8.289 7.054-4.509 17.739-3.1 25.875-3.187zM327 62l-1.941 1.223A113.71 113.71 0 0 0 321 66v-8h-25v8l3.438.938C303 68 303 68 304 69c.1 2.187.128 4.378.129 6.568l.005 2.079-.002 6.841.003 4.742-.005 9.959.004 12.761v9.803l.002 4.704-.007 6.585-.002 3.786c-.198 4.935-.198 4.935-1.127 7.17-3.062 1.25-3.062 1.25-6 2v7h34v-6l-3.437-1.375C324 144 324 144 323 142c-.15-1.373-.248-2.753-.316-4.133l-.127-2.441-.119-2.551-.131-2.574L322 124l2.496.977c10.667 3.116 23.541 1.707 33.504-2.977 6.642-4.169 11.746-10.588 13.538-18.32 1.989-11.531 2.544-25.242-3.764-35.43-4.119-5.226-9.072-9.843-15.773-11.25-9.598-.985-16.887-.333-25 5z" fill="#fafdfe"/><path d="M40 80h25l-.062 16.005c-.039 5.856-.039 5.856 2.673 10.776 2.076 1.307 4.128 2.276 6.39 3.22l3.422 1.992 3.328 1.883 16.824 9.777c2.448 1.457 2.448 1.457 5.426 2.348v28l2 1c-4.966-.499-8.521-1.493-12.852-3.957l-3.3-1.856-3.474-1.999-3.599-2.036-9.053-5.164-7.919-4.511-12.705-7.283a113.63 113.63 0 0 0-4.121-2.235c-4.077-2.133-6.082-3.767-7.979-7.958-.393-2.941-.35-5.838-.293-8.801l.013-2.534.093-7.977.041-5.424L40 80z" fill="#2296f2"/><path d="M103 12c4.42.539 7.597 1.608 11.457 3.809l3.097 1.75 3.259 1.879 3.37 1.916 23.126 13.463 7.289 4.211 3.277 1.848 2.805 1.555c2.611 1.767 3.772 2.813 5.32 5.57a80.71 80.71 0 0 1 .293 8.703l-.013 2.539-.093 8.008-.041 5.438L166 86h-25l-1-26-5-2-6.219-3.371-1.759-.979-3.661-2.045-5.569-3.107L108 43l-2.858-1.318C103 40 103 40 102.432 37.089l.079-3.507.049-3.799.127-3.971.068-4.006L103 12z" fill="#2196f2"/><path d="M105.563 54.5c2.082 1.031 2.082 1.031 4.438 2.5l3.262 1.906c3.295 1.957 6.514 4.022 9.738 6.094l2.828 1.688C128 68 128 68 129 69c.338 4.409.325 8.83.375 13.25l.113 3.762c.088 9.112.088 9.112-2.457 12.98L124 101l-1.986 1.406c-2.255 1.566-4.557 3.021-6.889 4.469l-2.355 1.547c-3.532 2.196-5.959 3.53-10.156 3.777-5.262-1.747-9.806-4.424-14.551-7.262l-2.939-1.721L78 99l-.494-12.915-.185-4.388c-.631-12.115-.631-12.115 2.476-15.868C82.13 64.271 84.436 63.13 87 62c1.224-.79 2.434-1.602 3.625-2.441 10.238-6.435 10.238-6.435 14.938-5.059z" fill="#e3e5e7"/><path d="M141 87h25l.188 13.625.076 3.895.029 3.77.048 3.459c-.487 4.654-1.971 8.025-5.469 11.158l-2.434 1.594-2.695 1.777L153 128l-2.492 1.566c-4.061 2.485-8.186 4.813-12.383 7.059-9.916 5.344-19.751 11.126-29.125 17.375h-6v-28l7-3a185.2 185.2 0 0 0 5.758-3.215l3.145-1.83 3.223-1.893 3.246-1.881 3.137-1.834 2.833-1.656c5.096-3.103 5.096-3.103 8.66-7.692.232-2.714.419-5.406.563-8.125L141 87z" fill="#024277"/><path d="M102 13v27l-11 6-10.375 6.125-2.613 1.551L71 58l-3.051 1.789c-3.05 3.46-2.729 6.998-2.762 11.461L65 80H40l-.275-12.433-.103-4.222c-.397-13.185-.397-13.185 2.526-17.584 2.842-2.753 5.289-4.561 8.789-6.387l3.719-2.012 2.074-1.115c4.464-2.456 8.827-5.085 13.207-7.686l2.859-1.685 12.739-7.714 2.053-1.28 3.669-2.345C95.402 12.956 96.683 13 102 13z" fill="#024376"/><path d="M387 58h26l.184 11.926.189 11.408.125 7.941.186 11.401.051 3.599.06 3.336.047 2.941c.063 2.587.063 2.587 1.158 5.449 3.512 1.23 3.512 1.23 7 2v7h-34v-7l7-3 .055-20.026.021-6.818.022-9.777.016-3.1v-2.851l.007-2.523c.09-1.915.09-1.915-1.12-2.905a235.65 235.65 0 0 0-7-1v-8z" fill="#2397f3"/><path d="M626 58h26l.113 12.145.122 9.585.111 10.119.142 11.609.019 3.665.06 3.397.034 2.994c.462 2.879 1.09 3.765 3.399 5.487 2.103.714 2.103.714 4 1v7h-33v-7l2.938-.875c3.169-.767 3.169-.767 4.063-3.125l.114-4.45v-2.79l-.016-3.018-.004-3.085-.031-9.782-.014-6.621L634 68l-8-2v-8z" fill="#024276"/><path d="M102 64l9 3.063c2.998.937 5.902 1.451 9 1.938l.188 10.625.076 3.027c.055 5.522.002 9.655-3.264 14.348-1.902 1.828-1.902 1.828-3.937 3.25l-2.027 1.453L109 103l-1.879 1.234c-3.061 1.105-5.005.612-8.121-.234-2.703-1.523-2.703-1.523-5.25-3.375l-2.578-1.836C87.288 95.59 86.535 92.842 86 88c-.109-3.293-.095-6.58-.062-9.875l.014-2.664L86 69l2.992-.586 3.883-.789 3.867-.773c3.317-.574 3.317-.574 5.258-2.852z" fill="#2396f2"/><path d="M346.375 70.063c4.214 3.111 5.971 6.975 7.625 11.938.255 3.412.231 6.829.25 10.25l.063 2.816c.046 8.123-1.579 13.853-7.312 19.934-4.893 3.085-10.427 2.59-16 2-3.68-1.172-6.318-2.691-8.161-6.229-1.689-5.577-1.166-11.491-1.152-17.271l-.049-3.996-.002-3.848-.009-3.506c.56-4.739 2.376-7.253 5.872-10.4 5.618-3.932 12.51-3.691 18.875-1.687zM331 81c-.552 2.802-.552 2.802-.391 5.98l.039 3.525.102 3.682.055 3.717L331 107c3.144 1.572 6.652 2.004 10 1 4.341-4.797 4.594-8.862 4.438-15l.021-2.367c-.054-4.944-.843-8.303-3.459-12.633-6.175-.394-6.175-.394-11 3z" fill="#fbfdfe"/><path d="M585.375 70.063c3.506 2.588 4.709 5.034 6.625 8.938l1 2c.268 3.369.232 6.747.25 10.125l.063 2.805c.046 8.203-1.386 14.964-7.312 21.07-3.314 2.099-6.051 2.298-9.937 2.313l-3.09.051c-4.52-.552-6.947-2.31-10.085-5.532-2.358-3.538-2.417-5.697-2.454-9.925l-.019-2.028.009-4.226c.014-2.148-.02-4.291-.058-6.438l.006-4.121-.002-3.76c.795-4.199 2.418-5.618 5.631-8.334l1.625-1.75c4.434-4.031 12.518-2.835 17.75-1.187zM570 81c-.584 2.668-.584 2.668-.461 5.691l.012 3.361.074 3.51.004 3.521c-.365 6.033-.365 6.033 2.371 10.916 5.273.591 5.273.591 9.938-1.312 2.676-4.25 2.282-8.667 2.313-13.5l.063-2.408c.033-5.038-.612-8.366-3.312-12.779-6.168-.384-6.168-.384-11 3z" fill="#fafbfc"/><path d="M65 80h12l-.52 3.516C76.053 88.584 75.826 93.297 78 98c5.796 5.666 13.676 8.771 21 12l4 2v14c-3.59-.898-5.884-1.904-9.062-3.687L91 120.676 88 119l-5.562-3c-14.179-7.741-14.179-7.741-17.437-11-.227-2.522-.227-2.522-.195-5.664l.02-3.398.051-3.562.027-3.586L65 80z" fill="#024377"/><path d="M102 41c.597 4.468.836 8.552 0 13-3.558 3.857-8.592 5.571-13.523 7.074C84.318 62.75 81.192 64.021 79 68c-1.986 9.775-1.432 20.091-1 30h-1V80H65c-1.339-15.627-1.339-15.627 1.336-20.367C68.766 57.702 71.225 56.406 74 55l4.652-2.738 12.314-7.096c1.651-.947 3.263-1.961 4.861-2.994C98 41 98 41 102 41z" fill="#2495ef"/><path d="M129 87h12l.313 7.625.127 2.16c.094 4.088-.242 5.902-2.49 9.465-3.037 3.156-6.591 5.125-10.449 7.125l-4.266 2.301-2.146 1.159c-4.26 2.378-8.329 5.071-12.416 7.732C107 126 107 126 103 126v-14l4.688-2.5c4.544-2.482 9.014-5.061 13.438-7.75l3.32-2.016c2.633-1.483 2.633-1.483 3.555-3.734.225-1.537.408-3.08.563-4.625L129 87z" fill="#2195f1"/><path d="M103 65l8.008 2.246c2.985.752 5.951 1.289 8.992 1.754l.188 10.625.076 3.027c.055 5.526-.006 9.646-3.264 14.348-3.995 3.986-8.509 6.627-14 8-2.056-10.575 3.396-17.834 8.969-26.273 1.196-1.861 1.196-1.861 2.031-4.727h-4l-.75 2.063c-1.492 3.506-3.318 6.654-5.25 9.938h-1V65z" fill="#074678"/><path d="M478 51c2.335 2.335 2.837 4.009 3.875 7.129l1.047 3.139L484 64.563l1.078 3.213C487.092 73.867 488.595 79.679 490 86h-26c1.735-5.206 3.421-10.243 5.445-15.312l1.324-3.316L472.125 64l1.379-3.465 1.316-3.285 1.196-2.984C477 52 477 52 478 51z" fill="#f0f4f7"/><path d="M396 32h18v17h-18V32z" fill="#2899f3"/><path d="M635 32h18v17h-18V32z" fill="#0d497b"/><path d="M110 74h4c-.644 3.12-1.722 5.559-3.285 8.328l-1.357 2.422-1.42 2.5-1.432 2.547L103 96c-3.402-1.614-6.103-3.586-9-6l1-4 1.813 1c2.241 1.208 2.241 1.208 5.188 1l8-14z" fill="#e8f1f6"/><path d="M98 12h5v28l2 1h-2v13h-1V41l-3-1h3V13l-4-1z" fill="#156aae"/></svg>