<svg xmlns="http://www.w3.org/2000/svg" width="512" height="512" xmlns:v="https://vecta.io/nano"><path d="M0 24h476l-.423 183.874.029 26.108-.059 17.441-.022 20.131-.032 10.29c-.827 15.597-.827 15.597 5.713 29.029a57.01 57.01 0 0 0 4.843 3.956c4.467 3.284 7.037 7.534 9.952 12.171l1.508 2.211C512.102 351.599 515.389 380.006 511 406c-3.295 13.366-8.749 26.938-17 38l-1.828 2.492C476.789 466.566 456.416 479.818 432 486l-2.859.742c-21.802 4.6-43.937.785-64.141-7.742l-2.734-1.148c-23.718-10.929-42.744-32.625-51.848-56.902-2.11-6.005-3.511-11.603-4.418-17.949H0V24z" fill="#beddf5"/><path d="M0 24h476v281l-9-6c-26.12-16.427-53.83-21.663-84-15-16.217 3.91-30.608 11.978-43 23l-2.531 1.957C319.464 323.856 310.418 347.911 306 370v32h-68V122H0V24z" fill="#93c7ee"/><path d="M0 24h476v98H0V24z" fill="#003778"/><path d="M479 307a94.8 94.8 0 0 1 17 20l1.516 2.219C512.093 351.621 515.391 379.997 511 406c-3.295 13.366-8.749 26.938-17 38l-1.828 2.492C476.789 466.566 456.416 479.818 432 486l-2.859.742c-21.802 4.6-43.937.785-64.141-7.742l-2.734-1.148c-23.763-10.949-42.447-32.518-51.812-56.691-7.668-21.343-8.516-46.555-1.453-68.16l1.098-3.426C314.545 336.987 321.371 326.118 330 316l2.313-3.062c4.132-4.516 8.859-8.193 13.688-11.937l2.34-1.852c40.064-29.997 93.756-22.91 130.66 7.852z" fill="#fec171"/><path d="M0 24h238v98H0V24z" fill="#0052b3"/><path d="M408 281c29.755 0 54.818 10.221 76.313 30.938 4.507 4.665 8.2 9.606 11.688 15.063l1.516 2.219C512.093 351.621 515.391 379.997 511 406c-3.295 13.366-8.749 26.938-17 38l-1.828 2.492c-16.703 21.796-39.524 35.714-66.422 40.82C420 488 420 488 408 488v-61h19v-25h24v-36h-24v-25h-19v-60z" fill="#fe9812"/><path d="M390 342h36v24h25v36h-25v24h-36v-24h-24v-36h24v-24z" fill="#fffefe"/><path d="M262 213h122v37H262v-37z" fill="#fdfefe"/><path d="M91 213h122v37H91v-37z" fill="#fefefe"/><path d="M92 287h121v36H92v-36z" fill="#fff"/><path d="M262 286h111c-2.754 2.754-6.094 4.083-9.562 5.75-6.14 3.02-11.956 6.121-17.437 10.25l-2.668 1.984C336.459 309.331 331.288 315.114 326 322c-1 1-1 1-3.512 1.12l-3.385-.007h-3.822l-4.16-.016-4.233-.004-11.161-.025-13.381-.022L262 323v-37z" fill="#fdfdfe"/><path d="M202.688 56.063C207.229 58.719 210.634 62.267 213 67c.527 6.207.762 11.781-3 17-4.809 4.821-8.356 7.13-15.312 7.313-5.083-.06-7.821-.814-11.687-4.312-5.086-5.433-6.364-8.799-6.277-16.176.544-5.539 3.198-9.063 7.34-12.699 5.815-4.207 11.915-3.996 18.625-2.062z" fill="#8fda5b"/><path d="M141.688 56.063C146.229 58.719 149.634 62.267 152 67c.532 6.257.679 11.672-3 17-3.756 4.349-6.936 6.617-12.684 7.336-5.985.085-9.687-.148-14.316-4.336-4.396-4.48-6.102-8.081-6.312-14.312.082-5.572 1.908-9.264 5.809-13.195 6.169-5.385 12.554-5.63 20.191-3.43z" fill="#fcd845"/><path d="M80.688 56.063C85.229 58.719 88.634 62.267 91 67c.723 7.044.438 13.245-4 19-6.353 5.056-12.086 5.806-20 5-4.885-2.352-7.855-5.687-11-10-1.579-4.949-2.04-10.279-.164-15.187 5.64-9.993 14.102-12.847 24.852-9.75z" fill="#fc5024"/></svg>