<svg xmlns="http://www.w3.org/2000/svg" width="512" height="512" xmlns:v="https://vecta.io/nano"><path d="M436.367 11.707C448.749 21.882 456.21 36.178 458 52c1.443 15.677-3.433 31.096-13.062 43.438-4.71 5.544-9.951 10.385-15.389 15.188L422 117.5l-3 2.75-1.5 1.375-30 27.5-3.002 2.752-7.463 6.838L361.5 173l-17.016 15.641L337 195.5l-3 2.75-1.5 1.375-6 5.5-3.002 2.752-7.463 6.838L300.5 229l-17.016 15.641L276 251.5l-3 2.75-1.5 1.375-6 5.5-3.002 2.752-7.463 6.838L239.5 285l-15.504 14.25-6.273 5.813-1.635 1.521-4.494 4.201C209 313 209 313 206.684 314.016L205 315c-.522 2.147-.522 2.147-.437 4.688-.994 16.198-9.751 32.296-21.562 43.313-14.012 11.623-30.739 15.508-48.13 19.109-19.493 4.054-37.732 8.867-54.557 19.891L77 404l-3-1c-.951-2.126-.951-2.126-1.754-4.926l-.9-3.107-.908-3.279-.92-3.15C61.183 359.247 61.85 327.453 76 300c11.884-20.114 30.539-36.391 53.082-43.25 11.894-3.687 18.432-10.311 26.28-19.777 2.056-2.476 4.214-4.85 6.388-7.222l2.059-2.309 12.639-13.764 7.615-8.24 1.505-1.63 14.074-15.324L206.5 181l2.75-3 5.5-6 1.375-1.5 2.752-3.002 6.838-7.463 15.802-17.177 14.124-15.374L262.5 120l2.75-3 5.5-6 1.375-1.5 2.752-3.002 6.838-7.463 15.802-17.177 14.124-15.374L318.5 59l2.75-3 5.5-6 1.375-1.5 2.752-3.002 8.198-8.948 4.097-4.464 5.906-6.484c23.572-25.969 56.488-36.106 87.289-13.895z" fill="#394072"/><path d="M185 204l67 67c-3.189 6.645-9.001 11.046-14.508 15.793-3.348 2.965-6.605 6.023-9.867 9.082l-15.672 14.355c-1.947 1.718-1.947 1.718-3.594 3.508C207 315 207 315 205 315l-.043 1.879C204.022 334.24 195.738 351.12 183 363c-14.012 11.623-30.739 15.508-48.13 19.109-19.493 4.054-37.732 8.867-54.557 19.891L77 404l-3-1c-.951-2.126-.951-2.126-1.754-4.926l-.9-3.107-.908-3.279-.92-3.15C61.183 359.247 61.85 327.453 76 300c11.884-20.114 30.539-36.391 53.082-43.25 11.894-3.687 18.432-10.311 26.28-19.777 2.056-2.476 4.214-4.85 6.388-7.222l2.039-2.289 8.336-9.086c4.375-4.721 8.683-9.49 12.875-14.375z" fill="#fe608b"/><path d="M440 17c3.898 1.299 5.227 3.674 7.438 6.938l1.213 1.783c8.254 12.448 11.541 27.482 8.627 42.245-4.071 18.437-13.791 30.352-27.729 42.66L422 117.5l-3 2.75-1.5 1.375-30 27.5-3.002 2.752-7.463 6.838L361.5 173l-17.016 15.641L337 195.5l-3 2.75-1.5 1.375-6 5.5-3.002 2.752-7.463 6.838L300.5 229l-17.016 15.641-5.983 5.483-2.988 2.735-7.724 7.136-1.605 1.492-4.395 4.102C258 268 258 268 252 272l-32-32c1.76-4.401 2.514-5.888 5.651-9.02l2.313-2.331 2.553-2.526 2.703-2.711 7.443-7.423 8.02-8.014 13.901-13.877 20.099-20.063 32.607-32.552 31.68-31.618 1.972-1.969 9.792-9.781L440 17z" fill="#252c59"/><path d="M403 403c11.163 8.134 18.702 18.889 23 32l.684 2.027c4.39 15.772.969 32.555-6.668 46.641-8.27 13.671-22.034 23.951-37.566 27.828-11.479 1.677-24.616 2.036-35.449-2.496l-2.934-1.219c-15.094-6.922-25.542-17.89-32.004-33.094-5.506-15.886-5.127-32.034 1.395-47.621 2.604-5.174 5.837-9.631 9.543-14.066l1.801-2.18C332.23 402.644 343.277 396.58 354 394l2.211-.551c16.469-2.653 32.739.463 46.789 9.551z" fill="#fdda45"/><path d="M256 425l1.855 1.512c7.629 6.686 13.289 18.497 14.362 28.517.9 16.172-2.464 29.258-12.873 41.999-8.29 8.936-19.997 14.6-32.133 15.355-13.982.487-24.908-1.77-36.211-10.383l-3.125-2.25c-10.638-10.175-15.751-23.083-16.187-37.625.302-13.885 5.556-25.964 15.055-36.059 19.432-17.785 49.54-19.203 69.258-1.066z" fill="#a074fa"/><path d="M172 285c2.761 1.337 4.896 2.621 7.132 4.73l1.768 1.661 7.846 7.6 4.158 3.974 5.99 5.785 1.9 1.747c2.588 2.614 4.119 4.294 4.388 8.049-1.524 16.58-10.013 33.106-22.182 44.455-14.012 11.623-30.739 15.508-48.13 19.109-19.493 4.054-37.732 8.867-54.557 19.891L77 404l-3-1c-1.203-2.801-1.203-2.801-2.25-6.312l-1.078-3.488c-.672-3.2-.798-4.245.328-7.199 1.7-2.07 1.7-2.07 3.955-4.315l2.579-2.592 2.851-2.818 2.986-2.987 8.126-8.088 8.484-8.46 16.075-16.011 18.297-18.232L172 285z" fill="#ea2a78"/><path d="M185 204l67 67c-3.189 6.645-9.001 11.046-14.508 15.793-3.348 2.965-6.605 6.023-9.867 9.082C212.257 310.27 212.257 310.27 205 316c-4.535-3.797-8.86-7.717-13.027-11.914l-1.688-1.687-5.437-5.454-3.804-3.808-9.947-9.972-10.176-10.196L141 253l6-7 1.589-1.857c4.559-5.31 9.358-10.393 14.142-15.499L177 213l2.324-2.609L185 204z" fill="#fef3f3"/><path d="M121.75 432.688c9.766 7.059 16.808 17.022 18.965 28.98 1.534 12.547-1.17 24.084-8.715 34.332l-1.687 2.563c-8.261 8.707-18.285 13.431-30.202 13.959-12.192.201-22.625-2.469-32.115-10.514-8.937-8.99-13.766-20.035-14.246-32.633.209-12.683 5.036-22.821 13.438-32.187 14.894-13.987 37.613-14.884 54.563-4.5z" fill="#44e5d1"/><path d="M368 393v119c-16.161 0-29.044-4.755-41.395-15.395C314.572 484.572 308.362 468.953 308 452c.604-15.058 5.367-27.47 15-39l1.801-2.18c7.482-8.235 18.45-14.127 29.199-16.82l2.5-.687c3.805-.476 7.665-.312 11.5-.312z" fill="#feed96"/><path d="M222 412v100c-12.624 0-21.029-2.402-31-10l-3.125-2.25c-10.638-10.175-15.751-23.083-16.187-37.625.302-13.885 5.556-25.964 15.055-36.059C196.506 417.13 208.762 412 222 412z" fill="#b28efa"/><path d="M218 239c2.905 1.314 4.967 2.721 7.208 4.981l1.819 1.82 1.926 1.957 2.001 2.009 6.296 6.358 4.281 4.309L252 271c-3.189 6.645-9.001 11.046-14.508 15.793-3.348 2.965-6.605 6.023-9.867 9.082C212.257 310.27 212.257 310.27 205 316c-7.119-5.807-13.474-12.363-19.937-18.875l-3.518-3.531L173 285c4.751-5.717 9.846-10.977 15.117-16.215l2.597-2.593 8.16-8.13 5.555-5.541L218 239z" fill="#e9e2ef"/><path d="M98 426c11.806 0 21.562 3.924 30.156 12.035 9.121 9.649 13.439 20.758 13.16 34-.942 8.824-4.076 16.847-9.316 23.965l-1.687 2.563C124.04 505.174 115.948 510.082 107 512h-9v-86z" fill="#28cccc"/></svg>