<svg xmlns="http://www.w3.org/2000/svg" width="512" height="512" xmlns:v="https://vecta.io/nano"><path d="M374 80c4.654 2.161 7.977 5.242 10 10 .568 3.84.506 7.637.454 11.513l.002 3.49-.065 11.395-.017 7.911-.085 18.678-.087 21.272L384 208l2.848.934c4.602 1.556 8.861 3.675 13.215 5.816l2.682 1.266c6.034 2.97 10.172 5.816 13.256 11.984.296 3.91.278 7.83.313 11.75l.088 3.289c.049 6.112.075 10.366-4.4 14.961-5.315 4.01-11.428 6.868-17.375 9.813l-2.441 1.232-2.332 1.162-2.099 1.046C386 272 386 272 384 272l.011 1.826.196 44.019.095 21.287.078 20.541.043 7.839.031 10.974.044 3.278c-.033 6.087-.438 9.601-4.498 14.235-3.819 3.628-6.883 4.31-12 4.5-5.117-.19-8.181-.872-12-4.5-2.718-3.291-3.933-5.096-4.25-9.375L352 384l-2.156-.795c-2.987-1.265-5.595-2.771-8.352-4.478l-3.209-1.981-3.408-2.121-3.537-2.189-19.963-12.498-2.268-1.432-12.662-8.088c-26.332-16.874-53.199-30.472-83.57-38.293l-3.207-.832c-7.332-1.778-14.658-2.9-22.133-3.887l-3.078-.413L177 306l-.004 1.795-.179 43.268-.087 20.924-.097 20.191-.024 7.705-.062 10.788.015 3.222c-.108 7.633-1.46 11.048-6.936 16.452-5.74 2.623-11.394 2.233-17.625 2.156l-3.812.047c-11.63-.049-11.63-.049-16.187-4.547-5.149-5.694-4.57-11.53-4.539-18.93l-.036-3.828-.047-10.072c-.054-33.202-.385-58.97-24.996-83.719C101 310 101 310 98.816 307.152c-4.307-3.291-8.479-2.781-13.754-2.715-12.113.104-12.113.104-17.062-4.437-4.95-5.327-4.48-10.508-4.25-17.375l.055-3.098L64 272l-1.924.063-8.701.187-3.027.102c-5.959.079-9.779-.106-14.348-4.352-4.432-5.26-4.59-9.425-4.531-16l-.012-2.891.021-6.031-.025-9.203.016-5.875-.025-2.766c.082-5.58.83-8.812 4.556-13.234 5.327-4.95 10.508-4.48 17.375-4.25l3.098.055L64 208l-.063-1.924-.187-8.701-.102-3.027c-.079-5.959.106-9.779 4.352-14.348 4.584-3.668 8.103-4.58 13.84-4.514l2.315-.022 7.568-.003 5.348-.036 14.126-.047 25.025-.105 2.727-.017c11.489-.081 22.925-.356 34.39-1.139l3.348-.227c44.896-3.495 85.271-21.691 122.524-46.081l14.663-9.247 17.198-10.765 5.052-3.187 6.386-4.041 2.887-1.817 2.552-1.615C350 96 350 96 352 96l-.25-2.625c.397-5.36 2.946-8.136 6.75-11.75 5.165-2.398 9.9-2.379 15.5-1.625z" fill="#feb52b"/><path d="M128 176v128h45l3 1 .207 45.454.095 21.106.078 20.366.043 7.772.031 10.881.044 3.25c-.034 6.069-.465 9.544-4.498 14.171-4.805 4.741-9.781 4.52-16.187 4.547L152 432.5l-3.812.047c-11.63-.049-11.63-.049-16.187-4.547-5.149-5.694-4.57-11.53-4.539-18.93l-.036-3.828-.047-10.072c-.054-33.202-.385-58.97-24.996-83.719C101 310 101 310 98.816 307.152c-4.307-3.291-8.479-2.781-13.754-2.715-12.113.104-12.113.104-17.062-4.437-4.95-5.327-4.48-10.508-4.25-17.375l.055-3.098L64 272l-1.924.063-8.701.187-3.027.102c-5.959.079-9.779-.106-14.348-4.352-4.432-5.26-4.59-9.425-4.531-16l-.012-2.891.021-6.031-.025-9.203.016-5.875-.025-2.766c.082-5.58.83-8.812 4.556-13.234 5.327-4.95 10.508-4.48 17.375-4.25l3.098.055L64 208l-.063-1.924-.187-8.701-.102-3.027c-.079-5.959.106-9.779 4.352-14.348 16.678-11.119 39.956-4 60-4z" fill="#fe3d64"/><path d="M374 80c4.654 2.161 7.977 5.242 10 10 .568 3.84.506 7.637.454 11.513l.002 3.49-.065 11.395-.017 7.911-.085 18.678-.087 21.272L384 208l2.848.934c4.602 1.556 8.861 3.675 13.215 5.816l2.682 1.266c6.034 2.97 10.172 5.816 13.256 11.984.296 3.91.278 7.83.313 11.75l.088 3.289c.049 6.112.075 10.366-4.4 14.961-5.315 4.01-11.428 6.868-17.375 9.813l-2.441 1.232-2.332 1.162-2.099 1.046C386 272 386 272 384 272l.011 1.826.196 44.019.095 21.287.078 20.541.043 7.839.031 10.974.044 3.278c-.033 6.087-.438 9.601-4.498 14.235-3.819 3.628-6.883 4.31-12 4.5-5.117-.19-8.181-.872-12-4.5-4.944-5.571-4.564-10.853-4.508-18.07l-.019-3.715.004-10.186-.016-10.994-.002-21.528.006-17.497-.002-2.515-.004-5.059.023-47.436-.004-40.703-.018-47.266.004-5.04.002-2.505-.012-17.476.013-21.297.001-10.866.023-11.777-.027-3.472c.061-6.19.368-9.903 4.535-14.598 5.271-5.008 11.108-4.928 18-4z" fill="#ff3c65"/><path d="M96 304l29.963-.052 13.913-.024 13.422-.019 5.125-.011 7.168-.008 2.149-.011c3.038.006 5.352.155 8.26 1.124l.207 45.454.095 21.106.078 20.366.043 7.772.031 10.881.044 3.25c-.034 6.069-.465 9.544-4.498 14.171-4.805 4.741-9.781 4.52-16.187 4.547L152 432.5l-3.812.047c-11.63-.049-11.63-.049-16.187-4.547-5.149-5.694-4.57-11.53-4.539-18.93l-.036-3.828-.047-10.072c-.055-33.305-.483-58.503-24.82-83.471-2.281-2.489-4.402-5.103-6.558-7.7z" fill="#5b6e86"/><path d="M64 208v64c-22 0-22 0-28-4-4.543-5.092-4.589-9.5-4.531-16l-.012-2.891.021-6.031-.025-9.203.016-5.875-.025-2.766c.081-5.555.714-8.928 4.556-13.234 6-4 6-4 28-4zm320 0c5.659 1.886 10.732 4.13 16.063 6.75l2.682 1.266c6.034 2.97 10.172 5.816 13.256 11.984.296 3.91.278 7.83.313 11.75l.088 3.289c.049 6.112.075 10.366-4.4 14.961-5.315 4.01-11.428 6.868-17.375 9.813l-2.441 1.232-2.332 1.162-2.099 1.046C386 272 386 272 384 272v-64z" fill="#feb62b"/><g fill="#ff3c64"><path d="M409.996 286.427c5.101 1.459 8.136 7.604 10.637 11.948l2.492 4.625 2.508 4.625 1.198 2.239c1.101 2.011 2.263 3.972 3.442 5.937 2.358 4.37 2.365 6.33 1.727 11.199-1.5 2.5-1.5 2.5-4 4-5.418.774-5.418.774-8 0-3.681-3.311-6.151-6.589-8.516-10.922l-1.852-3.355-1.883-3.473-3.766-6.859-1.665-3.062c-1.12-2.219-1.12-2.219-2.319-3.329-.525-4.241-.688-7.825 1.5-11.562 2.847-1.637 5.2-2.188 8.496-2.01zM436 264c4.303 1.869 8.212 4.271 12.188 6.75l3.193 1.922L460 278l2.038 1.275c3.831 2.462 3.831 2.462 4.962 4.725.569 7.052.569 7.052-1.5 10.5-3.54 2.124-6.531 2.212-10.5 1.5-4.039-1.701-7.741-3.882-11.5-6.125l-3.012-1.727C427.737 280.737 427.737 280.737 423 276c-.574-7.002-.574-7.002 1.438-10.5 3.839-2.247 7.291-2.254 11.563-1.5zm-11.937-115.562C428 149 428 149 430.5 150.5c2.124 3.54 2.212 6.531 1.5 10.5-1.701 4.039-3.882 7.741-6.125 11.5l-1.727 3.012C415.206 190.897 415.206 190.897 411 193c-6.219.576-6.219.576-9.375-1.75-1.666-2.306-2.459-3.428-2.625-6.25 1.943-6.719 5.407-12.496 8.813-18.562l1.869-3.404 1.838-3.287 1.659-2.979c5.599-8.508 5.599-8.508 10.884-8.33z"/><path d="M463 184c2.5 1.5 2.5 1.5 4 4 .774 5.418.774 5.418 0 8-3.817 4.687-8.507 7.213-13.75 10l-2.305 1.25-4.613 2.483-4.765 2.671-2.376 1.37-2.127 1.248c-3.652 1.732-6.078 1.655-10.065.979-3.201-2.641-3.877-4.384-4.687-8.437.951-4.926 3.798-6.745 7.688-9.562 4.063-2.612 8.228-5.007 12.438-7.375l3.314-1.941c6.011-3.394 10.301-5.73 17.248-4.684zm-18 47.469l2.645-.012 5.527.021 8.453-.025 5.375.016 2.551-.025c5.836.093 5.836.093 8.979 2.464 1.592 2.265 2.014 3.353 1.971 6.092l.031 2c-.811 3.054-2.001 4.091-4.531 6-2.997.601-5.951.561-9 .531l-2.645.012a535.94 535.94 0 0 1-5.527-.021 506.8 506.8 0 0 0-8.453.025l-5.375-.016-2.551.025c-5.836-.093-5.836-.093-8.979-2.464-1.592-2.265-2.014-3.353-1.971-6.092l-.031-2c1.841-6.929 7.581-6.588 13.531-6.531z"/></g><path d="M72 177l2 1-8 8-1-2c4.75-5.875 4.75-5.875 7-7z" fill="#fe5758"/></svg>