<svg xmlns="http://www.w3.org/2000/svg" width="512" height="512" xmlns:v="https://vecta.io/nano"><path d="M66.018 14.492l3.841-.019 10.465.004 11.321-.016 22.143-.002 18.004.006 2.593-.002 5.216-.004 48.853.023 41.874-.004 48.684-.018 5.196.004 2.582.002 17.972-.012 21.916.013 11.172.001 12.132.023 3.535-.027c11.574.11 20.259 3.712 29.482 10.535l2.625 1.75c7.831 7.419 13.964 18.273 14.466 29.23l.03 7.429.003 2.884-.009 9.572v6.859l-.013 18.631-.008 19.467-.018 32.677-.021 33.655-.001 2.096-.004 10.41L400 286l2.719-.063 3.559-.049 3.532-.063c3.419.189 5.621.802 8.034 3.362 2.572 4.039 4.03 8.481 5.53 13.001l1.074 3.061C427 312.61 427 312.61 427 315l2.313.625c6.355 2.37 12.389 5.716 17.887 9.684 4.763 2.72 9.119 1.161 14.176-.121 13.148-3.192 13.148-3.192 19.625-1.187 4.463 3.386 7.296 8.112 10.25 12.813l1.352 2.041c3.025 4.789 4.467 8.429 4.398 14.146-2.817 6.398-7.523 11.643-12.018 16.951-2.982 3.65-2.982 3.65-4.117 8.093.27 2.022.689 3.967 1.135 5.956.087 2.29.13 4.583.125 6.875l.02 3.68c-.127 3.036-.622 5.516-1.332 8.445-.59 4.558 1.212 6.942 3.856 10.436 2.367 2.925 4.836 5.749 7.331 8.564 3.021 3.535 4.86 5.984 5.219 10.777-.455 4.623-2.845 8.319-5.219 12.223l-1.941 3.199C483.89 457.903 483.89 457.903 479 460c-5.08.54-9.357-.504-14.218-1.78-7.914-2.185-7.914-2.185-15.817-1.173-2.392 1.734-2.392 1.734-4.543 3.871-2.977 2.559-5.862 3.389-9.547 4.707-6.172 2.898-8.039 5.815-10.503 12.119a255.39 255.39 0 0 0-2.723 8.42c-1.243 3.988-2.641 6.829-5.648 9.836-2.706 1.353-4.809 1.128-7.84 1.131l-3.793.012-4.206-.003-4.439.009-12.242.011-13.187.016-28.86.024-18.018.012-49.875.026h-3.227l-3.234.001-6.489.001-3.251.001-52.125.045-53.502.037-30.045.025-25.592.012a3164.96 3164.96 0 0 0-13.055.011c-3.988.013-7.975.012-11.962-.001a581.15 581.15 0 0 0-4.317.01c-16.049.091-27.653-3.882-39.444-14.923-9.297-9.945-12.414-22.13-12.428-35.467l-.006-2.039-.003-6.74-.009-4.891-.011-13.422-.016-14.483-.024-31.662-.012-19.776-.026-54.775v-3.54l-.001-3.548-.001-7.118-.001-3.566-.045-57.201-.037-58.754-.025-32.977-.012-28.082-.011-14.32.001-13.128-.01-4.73c-.09-17.382 2.686-32.067 14.931-44.98 10.358-9.548 22.69-12.871 36.467-12.766z" fill="#e9e6fb"/><path d="M399.938 285.438l3.537-.072c5.018.009 8.572.141 13.068 2.471 3.726 3.914 5.166 9.331 6.832 14.352l1.074 3.061C427 312.61 427 312.61 427 315l2.313.625c6.355 2.37 12.389 5.716 17.887 9.684 4.763 2.72 9.119 1.161 14.176-.121 13.148-3.192 13.148-3.192 19.625-1.187 4.463 3.386 7.296 8.112 10.25 12.813l1.352 2.041c3.025 4.789 4.467 8.429 4.398 14.146-2.817 6.398-7.523 11.643-12.018 16.951-2.982 3.65-2.982 3.65-4.117 8.093.27 2.022.689 3.967 1.135 5.956.087 2.29.13 4.583.125 6.875l.02 3.68c-.127 3.036-.622 5.516-1.332 8.445-.59 4.558 1.212 6.942 3.856 10.436 2.367 2.925 4.836 5.749 7.331 8.564 3.021 3.535 4.86 5.984 5.219 10.777-.455 4.623-2.845 8.319-5.219 12.223l-1.941 3.199C483.89 457.903 483.89 457.903 479 460c-5.08.54-9.357-.504-14.218-1.78-7.914-2.185-7.914-2.185-15.817-1.173-2.392 1.734-2.392 1.734-4.543 3.871-2.977 2.559-5.862 3.389-9.547 4.707-6.172 2.898-8.039 5.815-10.503 12.119a255.39 255.39 0 0 0-2.723 8.42c-1.243 3.988-2.641 6.829-5.648 9.836-4.317 2.159-10.008 1.319-14.75 1.375l-3.578.113c-9.776.099-9.776.099-13.293-2.34-2.717-3.595-3.713-6.651-4.887-10.955-2.661-10.071-2.661-10.071-9.539-17.463-3.519-1.949-7.174-3.434-10.942-4.826-2.158-.97-3.707-2.161-5.53-3.658-2.627-1.982-4.193-2.561-7.488-2.332a97.31 97.31 0 0 0-4.117.711l-2.09.332c-2.848.463-5.674 1.02-8.5 1.605-2.263.433-4.421.706-6.723.813l-2.184.148c-5.467-1.203-8.513-5.457-11.406-9.922l-2.91-4.977-1.533-2.5c-2.205-3.791-3.498-6.348-3.678-10.781 1.455-4.236 3.586-7.084 6.461-10.469l1.475-1.801 1.451-1.77 1.413-1.724c1.191-1.395 2.473-2.711 3.767-4.011 1.912-3.106 1.605-4.889.954-8.402-.636-3.705-.516-7.418-.497-11.168l-.012-2.289c.006-3.754.21-7.04 1.07-10.695.521-3.769-.619-5.56-2.828-8.594a216.79 216.79 0 0 0-3.918-4.672l-3.895-4.703-1.765-2.067c-2.449-3.172-3.541-5.1-3.481-9.155 1.237-4.964 3.49-8.715 6.203-13.012l1.449-2.404c2.617-4.224 4.976-7.759 9.301-10.408 6.488-1.523 13.82.571 20.202 2.02 5.391 1.157 10.135 1.408 15.098-1.254l2.012-1.516c2.283-1.704 4.346-3.122 7.022-4.127 4.148-1.644 6.928-2.935 9.33-6.802 1.376-3.259 2.549-6.522 3.649-9.883l2.363-6.754.997-3.014c4.113-8.276 11.159-7.308 19.264-7.232z" fill="#f24b58"/><path d="M82.566 354.504l4.568-.004 9.544.034 12.202.013 9.422.013 4.498.001 6.295.035 3.61.016c5.002.589 8.242 2.223 11.606 5.95 2.728 3.941 2.83 6.16 2.88 10.963l.025 2.031.056 6.67.016 2.304.061 12.088.082 9.98.081 12.067.046 4.585c.212 14.33.212 14.33-3.898 20.269-4.449 3.963-8.743 4.857-14.565 4.884l-2.008.021-6.522.009-4.565.016a1610.51 1610.51 0 0 1-9.55-.003c-4.066-.011-8.132.009-12.198.038l-9.422.012c-1.499 0-2.997.006-4.496.018-15.002.107-15.002.107-20.335-4.515-5.573-6.442-4.582-14.455-4.531-22.531l-.012-4.561.021-9.532-.014-12.175.001-9.41-.01-4.487C55.382 364.339 55.382 364.339 60 359c6.449-5.589 14.48-4.563 22.566-4.496z" fill="#fed06e"/><path d="M82.496 125.434l4.553-.019 9.519.009 12.148-.041 9.397-.012 4.477-.021c13.961-.117 13.961-.117 19.917 4.091 4.036 4.216 4.873 7.658 4.913 13.426l.026 2.032.023 6.621.023 4.629.009 9.696.065 12.376.025 9.562.029 4.56c.149 14.215.149 14.215-3.962 20.173-4.478 4.004-8.806 4.861-14.671 4.887l-2.042.021-6.633.009-4.639.016a1662.87 1662.87 0 0 1-9.703-.003c-4.136-.011-8.271.009-12.407.038l-9.574.012c-1.525 0-3.049.006-4.574.018a426.22 426.22 0 0 1-6.403-.013l-3.673-.001c-5.253-.789-8.316-3.287-11.68-7.281-3.051-5.97-2.23-13.21-2.189-19.752l-.012-4.561.021-9.532-.014-12.175.001-9.41-.01-4.487C55.382 135.339 55.382 135.339 60 130c6.435-5.557 14.43-4.6 22.496-4.566z" fill="#b38bfc"/><path d="M73.028 240.514l2.047-.012 6.648.036 4.647.003 9.716.047 12.434.04 9.587.026 4.585.012 6.411.043 3.68.023c3.863.321 6.888 1.031 9.765 3.705 3.691 4.794 4.58 6.879 4.63 12.905l.02 1.972.041 6.475.012 2.238.045 11.738.085 12.084.038 9.322.035 4.451c.19 16.123.19 16.123-5.901 23.016-3.352 2.94-7.155 2.517-11.391 2.57l-2.095.03-6.863.07-2.372.02-12.434.077-10.271.103-12.421.101-4.722.057c-13.847.245-13.847.245-18.378-3.454-4.12-4.341-4.858-8.067-4.895-13.996l-.02-2.042-.025-6.666-.02-4.648-.014-9.739-.062-12.454-.025-9.6-.027-4.59-.002-6.432-.009-3.691c.795-5.386 3.188-8.262 7.305-11.697 3.707-1.924 6.057-2.151 10.217-2.141z" fill="#58b3fd"/><path d="M413.063 359.625L417 362l2.102 1.285C427.017 368.606 432.109 376.67 434 386c1.142 9.901-1.429 18.819-7.203 26.895-6.193 7.256-13.22 11.552-22.656 12.488-10.738.593-18.625-1.301-27.289-8.059-6.634-6.088-10.335-14.365-11.109-23.301-.362-10.296 1.707-17.296 8.258-25.273 10.217-10.515 25.033-14.853 39.063-9.125z" fill="#fcfdfd"/><path d="M427 354.625c8.76 7.021 13.929 15.671 17 26.375l.582 1.973c2.436 11.816-.562 23.916-7.059 33.852-7.356 10.506-17.033 16.7-29.398 19.926-14.943 1.195-27.247-1.758-39.09-11.34-8.023-7.461-13.773-17.962-14.504-28.988a155.51 155.51 0 0 1-.031-4.672l.017-2.5c.382-13.217 6.185-23.483 15.67-32.438 16.93-13.689 38.914-14.269 56.813-2.187zM373.465 369c-6.463 8.824-8.272 17.228-7.465 28 1.913 10.494 7.131 17.684 15.656 23.953 8.905 5.235 19.198 5.838 29.148 3.344 2.252-.919 4.163-1.965 6.195-3.297l2.102-1.285c7.636-5.134 12.144-12.33 14.426-21.184 1.778-9.521.052-17.816-5.105-26.051-5.171-7.023-11.637-12.75-20.422-14.48-13.471-1.361-24.932.481-34.535 11z" fill="#222b44"/><path d="M126.098 70.739l2.204-.012 7.331-.002 5.248-.015 14.268-.011 11.899-.009 28.063-.005 28.982-.028 24.859-.02 14.858-.015 13.966.002 5.134-.009 6.992.01 3.957-.001C297 71 297 71 298.92 72.305c1.83 2.873 1.433 5.403 1.08 8.695-1.08 1.695-1.08 1.695-3 3-3.138.38-3.138.38-7.091.388l-2.202.016h-7.324l-5.243.021-14.256.011c-3.964-.003-7.928.003-11.892.009l-28.049.001c-9.653-.011-19.305.003-28.958.029l-24.843.023c-4.949-.003-9.897-.001-14.846.016-4.653.015-9.306.012-13.959-.007-1.709-.004-3.419-.001-5.128.01-2.331.013-4.66.002-6.991-.016h-3.955C119 84 119 84 116.545 82.195 115 80 115 80 115.063 76.375c1.707-6.145 5.385-5.627 11.036-5.636z" fill="#f24b58"/><path d="M183.908 185.739l3.815-.021 4.21.008 4.415-.015 12.012-.011 10.02-.009 23.638-.005 24.399-.028 20.933-.02 12.509-.015 11.765.002 4.32-.009 5.894.01 3.333-.001c3.191.423 4.578 1.099 6.829 3.375.5 3 .5 3 0 6-2.245 2.265-3.633 2.951-6.811 3.378l-3.307.003-3.803.026-4.164-.018-4.391.016c-3.973.014-7.946.008-11.919-.001-4.156-.008-8.312-.001-12.468.004a7399.2 7399.2 0 0 1-20.935-.016 6107.95 6107.95 0 0 0-24.215.005l-20.782.008c-4.139-.005-8.278-.005-12.416.005a1744.84 1744.84 0 0 1-11.669-.015 579.22 579.22 0 0 0-4.287.004 541.74 541.74 0 0 1-5.842-.017l-3.306-.003C179 198 179 198 177.145 196.699c-1.899-2.817-1.443-5.42-1.145-8.699 2.709-2.709 4.117-2.254 7.908-2.261zm.665 114.994l3.514-.026 3.859.003 4.061-.02 11.033-.024 9.207-.016 21.72-.02 22.414-.051 19.238-.036 11.493-.026 10.807-.005 5.859-.031 3.522.025 3.061-.003c3.362.634 4.552 1.838 6.639 4.498.438 2.563.438 2.563 0 5-1.176 1.629-1.176 1.629-3 3-2.532.375-2.532.375-5.618.374l-3.544.021-3.892-.023-4.095.011a1815.6 1815.6 0 0 1-11.126-.013l-11.635-.005a6598.01 6598.01 0 0 1-19.54-.029l-22.602-.018a9257.84 9257.84 0 0 1-21.729-.011l-9.253-.003a2230.94 2230.94 0 0 1-10.893-.022 1156.4 1156.4 0 0 0-5.913.001l-3.544-.021-3.086-.006C179 313 179 313 176 311c-.398-1.875-.398-1.875-.375-4l-.023-2.125c.963-4.531 5.221-4.13 8.971-4.142zm-1.557-156.121l2.468-.03 2.697.014 2.849-.021 9.341-.009 6.483-.016 13.596.003 17.436-.038 13.39-.012 6.429-.018 8.984.013 2.691-.029c3.882.047 5.965.076 9.214 2.332C280 149 280 149 279.813 152.687 279 156 279 156 278 157l-9.261.145-2.946.01-9.695.013-6.707.01-14.08.007a6292.36 6292.36 0 0 0-18.082.031l-13.859.013-6.669.013-9.31.001-2.807.017-2.554-.013-2.225.002C178 157 178 157 176 155c-.567-6.24-.567-6.24 1.269-8.698 2.098-1.577 3.144-1.68 5.748-1.689zm1.419 271.106l2.741.008 2.883-.015 9.469-.011 6.561-.013 13.767-.002 17.668-.034 13.555-.012 6.515-.016 9.1.006 2.735-.023 2.502.021 2.174-.001c2.484.491 3.37 1.383 4.894 3.375.438 3 .438 3 0 6-1.761 2.019-3.229 2.888-5.892 3.274l-7.327.115-2.825.016c-3.081.013-6.161.004-9.242-.006l-6.418.009a3349.56 3349.56 0 0 1-13.449-.016c-5.753-.017-11.505-.007-17.258.011h-13.251a1504 1504 0 0 0-6.365.007 1081.2 1081.2 0 0 1-8.884-.021l-2.668.018c-5.964-.063-5.964-.063-8.15-1.708-2.08-2.78-1.574-5.36-1.271-8.699 2.692-2.692 4.776-2.251 8.435-2.282zm3.563-42.009l2.79-.02 9.146-.025 6.348-.02 13.313-.014 17.073-.062 13.112-.025 6.295-.027 8.798-.002 2.634-.034c5.87.062 5.87.062 9.036 2.39 1.813 2.651 2.022 3.981 1.457 7.13-1.522 1.939-2.415 2.882-4.86 3.375l-2.125-.001-2.447.021-2.673-.023-2.824.011c-3.086.008-6.172-.006-9.258-.02a4583.88 4583.88 0 0 0-6.423.002l-13.467-.029-17.281-.016a4511.13 4511.13 0 0 1-13.264-.013l-6.373-.003a1650.19 1650.19 0 0 1-8.899-.028l-2.673.008c-6.089-.053-6.089-.053-9.432-2.282-.398-1.875-.398-1.875-.375-4l-.023-2.125c1.169-5.5 8.038-4.17 12.396-4.166zm81.183-114.002l2.627.003 2.765-.02 9.079-.025 6.292-.02 13.202-.014 16.942-.062 12.999-.025 6.247-.027 8.727-.002 2.621-.034c5.8.061 5.8.061 8.383 2.355 1.33 3.084.898 4.996-.066 8.165-3.908 2.605-7.205 2.288-11.738 2.275l-2.706.015-8.868.011-6.154.013-12.902.002c-5.518-.006-11.037.011-16.555.034l-12.708.012-6.105.016a1009.39 1009.39 0 0 1-8.525-.006l-2.56.023c-5.724-.052-5.724-.052-7.898-1.696-2.092-2.778-1.584-5.355-1.28-8.699 2.642-2.642 4.584-2.254 8.181-2.293z" fill="#cccff2"/><path d="M132 373c2 2 2 2 2.353 4.844-.428 3.824-1.34 4.921-3.997 7.652l-2.495 2.605-1.388 1.405-4.65 4.811-8.708 8.918-3.621 3.703-5.318 5.409-1.61 1.679c-2.44 2.427-4.401 3.916-7.667 5.053-3.76-.104-4.808-1.088-7.458-3.709l-2.416-2.389-2.463-2.545-2.545-2.463-2.389-2.416-2.185-2.209C74 401 74 401 74.148 397.84 75 395 75 395 77 393c2.789-.437 2.789-.437 6 0 2.773 2.188 2.773 2.188 5.375 5l2.648 2.813L93 403c4.398-1.654 7.116-4.989 10.27-8.32l3.693-3.809 5.766-6.018 5.603-5.798 1.708-1.837c3.847-3.896 6.252-5.113 11.96-4.218z" fill="#fffdfa"/><path d="M129.299 259.989C132 261 132 261 134 263c.618 2.583.618 2.583 0 6-2.297 3.217-5.072 5.912-7.883 8.68l-2.446 2.463-5.15 5.118-7.842 7.88-5 4.977-2.359 2.395c-5.439 5.3-5.439 5.3-9.61 6.186-3.123-.804-4.489-1.717-6.761-3.987l-2.115-2.105-2.146-2.23-2.205-2.16c-3.105-3.155-5.214-5.342-6.529-9.621C74 284 74 284 75.062 282.125c2.847-1.653 4.682-1.513 7.938-1.125 2.773 2.188 2.773 2.188 5.375 5l2.648 2.813L93 291c2.863-1.294 4.861-2.631 7.021-4.905l1.7-1.769 1.803-1.9 3.844-3.959 6.01-6.262 5.834-6.029 1.79-1.919c4.203-4.254 4.203-4.254 8.298-4.268z" fill="#fdfefe"/><path d="M132 148c2 2 2 2 2.618 4.583-.984 5.444-4.65 8.306-8.5 12.097l-2.446 2.463-5.15 5.118-7.842 7.88-5 4.977-2.359 2.395c-5.433 5.294-5.433 5.294-9.592 6.199-5.112-1.334-8.068-5.151-11.666-8.837l-2.4-2.305c-5.628-5.662-5.628-5.662-5.791-10C75 170 75 170 77 168c2.789-.437 2.789-.437 6 0 2.773 2.188 2.773 2.188 5.375 5l2.648 2.813L93 178c4.398-1.654 7.116-4.989 10.27-8.32l3.693-3.809 5.766-6.018 5.603-5.798 1.708-1.837c3.847-3.896 6.252-5.113 11.96-4.218z" fill="#fefdfe"/><path d="M183.412 259.709l3.428-.039 3.718-.007 3.804-.02 7.977-.014 10.222-.062 9.747-.029 3.712-.044 3.438.019 3.03-.009c2.511.494 2.511.494 4.365 2.33 1.628 3.076 1.141 4.896.146 8.165-3.342 2.228-4.439 2.256-8.342 2.275l-3.307.029-3.57-.003-3.665.013-7.676.002c-3.924-.003-7.848.02-11.772.046l-7.449.002-3.57.028-3.307-.019-2.913.002C179 272 179 272 177.186 270.699c-1.957-2.805-1.485-5.402-1.186-8.699 2.617-2.617 3.763-2.263 7.412-2.291zm128.363-115.113l2.933-.038 3.163.009 3.254-.016 6.816.003 10.435-.052 6.619.002 3.157-.034c7.192.069 7.192.069 10.507 2.401 1.671 2.656 1.893 4.046 1.34 7.129-1.65 2.212-2.532 2.923-5.283 3.374l-2.707-.002-3.074.019-3.315-.028-3.403.002-7.124-.029-10.936-.014-6.912-.021-3.321.003-3.064-.029-2.705-.014C306 157 306 157 304 155c-.565-6.215-.565-6.215 1.221-8.697 2.311-1.692 3.704-1.689 6.554-1.707z" fill="#cccff2"/><path d="M403 331c15.624-.832 25.977 2.731 37.965 12.621 4.955 4.521 8.572 10.141 11.035 16.379l-1 3-1-3h-2v-2l-1.73-.777c-2.504-1.349-4.421-2.938-6.582-4.785C428.142 343.137 416.097 337.4 402 333l1-2z" fill="#fef6f7"/><path d="M296.938 373.625l3.152-.023c3.233.443 4.628 1.094 6.91 3.398.449 3.08.654 5.029-1.121 7.664-2.77 1.97-5.019 1.734-8.379 1.711l-3.469.023C291 386 291 386 289.117 384.664c-1.749-2.605-1.498-4.617-1.117-7.664 2.427-3.505 4.858-3.405 8.938-3.375z" fill="#cccff2"/></svg>