<svg xmlns="http://www.w3.org/2000/svg" width="512" height="512" xmlns:v="https://vecta.io/nano"><path d="M374.063 63.625C382.528 70.468 388.646 78.249 391 89c.087 1.339.128 2.682.13 4.023l.011 2.411-.003 2.631.009 2.809.011 9.339.015 6.687.026 14.41.053 22.777.086 31.926.005 2.046.062 32.842.085 33.721.039 18.932.044 17.8.006 6.539.03 8.914-.017 2.624c.052 4.67.349 7.796 3.409 11.568 3.293 2.195 4.36 2.258 8.191 2.309l3.115.076 6.43.094c10.286.262 19.83 1.865 27.264 9.521 5.684 7.839 7.911 14.348 7 24-1.91 9.534-7.344 15.241-14 22l-3.562 4.063-7.812 8.75c-3.072 3.398-6.009 6.863-8.875 10.438-4.657 5.759-9.678 11.129-14.742 16.527a266.16 266.16 0 0 0-6.758 7.473l-1.586 1.82-3.766 4.422c-7.241 8.385-15.416 15.643-26.875 16.688-12.344.762-23.064-.295-32.993-8.352-6.159-5.543-11.876-11.484-17.262-17.777-2.007-2.326-4.074-4.593-6.145-6.863-3.054-3.377-5.969-6.82-8.812-10.375-3.745-4.637-7.721-8.985-11.812-13.312-4.936-5.22-9.626-10.517-14.102-16.141-1.695-2.106-3.458-4.108-5.273-6.109-5.719-6.8-6.244-12.736-6.027-21.523.973-9.014 5.407-14.364 12.121-20.133 5.854-4.09 11.968-4.612 18.941-4.734l3.154-.059 6.508-.055c4.542-.107 7.822-.3 11.885-2.418 2.96-5.495 2.455-11.191 2.418-17.328l.039-7.562-.017-3.379c.502-4.346 2.142-6.961 5.353-9.871 2-1.187 2-1.187 5-1.187v-19l-6-2c-1.812-1.125-1.812-1.125-3-3-1.525-6.756-1.525-6.756.188-10.812 1.811-2.186 3.372-3.739 5.813-5.187h3v-19l-6-2c-2.496-1.98-2.964-2.892-4-6a90.57 90.57 0 0 1-.14-4.956l-.017-3.101-.003-3.4-.015-3.583-.024-9.739-.012-6.095-.027-19.102-.051-21.99-.033-17.03-.025-10.154-.009-11.358-.028-3.351c.066-12.323 3.091-23.023 11.353-32.368 13.424-12.987 35.427-16.109 51.094-5.148z" fill="#fde470"/><path d="M229 5l2.996 1.281C246.769 13.49 259.104 27.767 265 43c5.936 17.867 5.931 36.141-1.543 53.605C254.064 114.94 239.574 127.507 220 134c-7.052 1.774-13.791 2.297-21.042 2.291l-3.197.02-10.378.025-7.27.02-15.206.014a3627.85 3627.85 0 0 0-19.414.062l-15.005.025-7.155.027C104.067 136.586 90.402 136.24 77 124c-9.34-10.469-11.978-21.703-11.445-35.395.793-10.844 6.426-20.103 14.355-27.352 8.266-6.59 16.692-9.336 27.137-9.57l2.337-.063 7.366-.183 5.004-.131L134 51l.979-2.86 1.317-3.78 1.292-3.735c6.598-16.945 20.275-28.745 36.388-36.335C191.132-3.025 211.966-2.353 229 5z" fill="#010000"/><path d="M124.672 375.469l7.232-.012 15.119.021 19.258-.014 14.928.001 7.094-.01c22.854-.071 43.245 2.823 60.543 19.051 13.297 13.344 20.322 31.141 20.591 49.869-.133 17.795-6.659 33.339-18.437 46.625l-1.609 1.895c-9.904 10.86-25.415 18.099-40.045 19.329-11.991.489-23.109.36-34.345-4.223l-3.055-1.215C154.906 499.151 143.149 485.03 136 468l-2-7-3.038-.028-11.311-.179-4.867-.063c-14.587-.135-26.574-2.281-37.721-12.506-9.463-9.973-11.551-21.234-11.332-34.41.419-10.66 5.216-18.965 12.27-26.812 13.66-12.395 29.327-11.6 46.672-11.531z" fill="#000100"/><path d="M374.063 63.625C382.528 70.468 388.646 78.249 391 89c.087 1.339.128 2.682.13 4.023l.011 2.411-.003 2.631.009 2.809.011 9.339.015 6.687.026 14.41.053 22.777.086 31.926.005 2.046.062 32.842.085 33.721.039 18.932.044 17.8.006 6.539.03 8.914-.017 2.624c.052 4.67.349 7.796 3.409 11.568 3.293 2.195 4.36 2.258 8.191 2.309l3.115.076 6.43.094c10.286.262 19.83 1.865 27.264 9.521 5.684 7.839 7.911 14.348 7 24-1.91 9.534-7.344 15.241-14 22l-3.562 4.063-7.812 8.75c-3.072 3.398-6.009 6.863-8.875 10.438-4.657 5.759-9.678 11.129-14.742 16.527a266.16 266.16 0 0 0-6.758 7.473l-1.586 1.82-3.766 4.422c-7.241 8.385-15.416 15.643-26.875 16.688-12.344.762-23.064-.295-32.993-8.352-6.159-5.543-11.876-11.484-17.262-17.777-2.007-2.326-4.074-4.593-6.145-6.863-3.054-3.377-5.969-6.82-8.812-10.375-3.745-4.637-7.721-8.985-11.812-13.312-4.936-5.22-9.626-10.517-14.102-16.141-1.695-2.106-3.458-4.108-5.273-6.109-5.719-6.8-6.244-12.736-6.027-21.523.973-9.014 5.407-14.364 12.121-20.133 5.854-4.09 11.968-4.612 18.941-4.734l3.154-.059 6.508-.055c4.542-.107 7.822-.3 11.885-2.418 2.96-5.495 2.455-11.191 2.418-17.328l.039-7.562-.017-3.379c.493-4.272 2.161-6.867 5.166-9.871 3.008-1.633 4.8-1.662 8.188-1.187 3.968 2.136 6.417 3.765 8 8 .399 4.185.372 8.367.371 12.57l.079 6.083c.035 11.696-2.117 19.803-10.227 28.367-6.476 5.77-12.86 8.054-21.414 8.191l-3.611.086-7.531.133-3.607.094-3.303.06c-2.758.2-2.758.2-4.608 1.767-1.828 2.629-1.564 4.534-1.147 7.65 1.478 2.605 1.478 2.605 3.688 5l2.48 2.875 11.034 11.934c3.225 3.44 6.292 6.94 9.235 10.629 4.206 5.259 8.771 10.114 13.397 15 3.508 3.725 6.84 7.508 10.041 11.5 8.349 10.898 8.349 10.898 20.367 16.406 6.887.429 12.18-1.319 17.758-5.344 3.601-3.455 6.807-7.17 10-11l3.375-3.812 6.336-7.371c5.822-6.836 11.737-13.552 17.832-20.145 2.617-2.846 5.168-5.741 7.699-8.664l8.742-9.711c3.965-4.324 3.965-4.324 5.391-9.859-.087-3.301-.087-3.301-1.531-5.129-2.612-1.853-4.544-1.677-7.727-1.679l-3.539-.053-7.336-.016c-7.328-.117-12.871-.843-19.242-4.561l-2.453-1.422C376.906 334.67 373.196 328.962 371 321c-.28-3.122-.264-6.228-.245-9.361l-.007-2.832.012-9.382-.006-6.732.002-14.492-.017-22.918-.042-32.135-.002-2.059.001-33.03-.038-33.942.004-22.779-.027-14.177.011-6.569-.021-8.976.036-2.617C370.57 92.891 368.931 88.71 365 84c-5.313-4.144-9.659-5.478-16.293-5.41-4.706.713-8.361 3.085-11.707 6.41-3.845 5.711-3.421 11.355-3.385 17.985l-.016 3.643-.006 9.855-.032 10.331-.064 28.48-.068 26.119-.019 10.277-.026 11.454.019 3.431-.025 3.156-.002 2.733c-.464 3.128-1.529 4.986-3.376 7.535-3.542 2.361-5.769 2.781-10 3-4.256-1.741-5.942-3.971-8-8-.378-2.505-.378-2.505-.381-5.197l-.026-3.109.018-3.378-.016-3.584.001-9.714-.004-10.198.016-17.144-.005-19.749-.008-17.004-.005-10.133.021-11.329-.018-3.342c.1-12.311 3.12-23.009 11.375-32.345 13.424-12.987 35.427-16.109 51.094-5.148z" fill="#010100"/><path d="M110.599 267.596l3.054-.021 9.905-.009 6.94-.016 14.512.003 18.533-.038 14.323-.012 6.83-.018 9.574.013 2.808-.029c11.541.128 21.662 4.736 30.081 12.531 9.331 9.767 12.189 20.223 12.051 33.434-.668 11.286-6.133 21.378-14.371 29.039-9.147 7.593-18.792 9.988-30.531 9.931l-3.084.021-10.002.009-7.008.016a3791.93 3791.93 0 0 1-14.653-.003c-6.238-.011-12.476.009-18.714.038l-14.462.012a1258.88 1258.88 0 0 0-6.897.018 971.43 971.43 0 0 1-9.668-.013l-2.836.029C95.907 352.409 86.333 348.21 78 341c-9.983-10.462-12.494-21.382-12.285-35.426.335-8.2 3.31-15.091 8.285-21.574l2.063-2.937c8.793-10.25 21.605-13.529 34.537-13.467zm-7.175-107.743l2.667-.022 2.903-.008 3.076-.02 10.086-.041 3.487-.012 18.287-.045 18.829-.085 14.526-.038 6.937-.035c17.77-.134 30.321.529 43.711 13.297 8.922 9.363 11.408 20.013 11.277 32.59-.649 10.977-5.964 21.344-13.949 28.898-7.011 5.17-15.818 9.765-24.648 9.815l-2.641.022-2.875.008-3.047.02-9.988.041-3.454.012-18.112.045-18.647.085-14.387.038-6.87.035c-17.006.13-30.397-.403-43.592-12.453-9.16-10.267-11.905-21.249-11.383-34.684.729-10.544 5.818-20.282 13.508-27.504 6.841-5.479 15.432-9.91 24.299-9.96z"/><path d="M230 406l3.188 2.25c10.051 9.827 15.268 21.2 15.438 35.188-.099 8.782-1.392 15.757-5.625 23.563l-1.352 2.504c-6.758 11.156-17.049 17.766-29.398 21.309-12.301 2.744-24.063 2.02-35.043-4.461-11.53-7.8-20.916-18.252-23.789-32.172-2.017-15.341.495-27.5 9.582-40.18 17.093-21.155 45.333-23.316 67-8z" fill="#76fca7"/><path d="M228 28c7.16 5.274 12.028 11.08 16 19l1.25 2.117c4.873 9.509 4.138 22.555 1.902 32.746-4.66 13.19-13.301 23.384-25.937 29.48-11.395 4.699-26.197 6.142-37.957 1.758C168.74 106.019 159.531 96.141 154 81c-2.886-14.703-1.108-28.08 7-40.75 15.897-22.288 44.352-26.203 67-12.25z" fill="#fc8bb0"/><path d="M107.059 179.846l2.497-.026 2.73-.013 2.884-.025 9.464-.056 3.267-.016 17.129-.061 14.159-.082 17.108-.081 6.509-.046 9.132-.024 2.693-.05c7.059.07 12.785 2.228 17.962 7.147 5.173 5.961 5.858 10.474 5.719 18.221-.592 6.187-2.788 9.741-7.125 14.078-6.732 4.62-11.852 5.633-19.851 5.592l-2.861.021-9.315.009-6.504.016c-4.538.009-9.077.007-13.615-.003-5.805-.011-11.609.009-17.414.038l-13.427.012a1092.65 1092.65 0 0 0-6.419.018c-2.996.015-5.992.004-8.988-.013l-2.656.029c-6.909-.082-12.114-1.93-17.379-6.461-5.163-6.151-7.391-11.284-7.195-19.41.95-5.776 4.006-10.663 8.512-14.363 4.202-2.703 7.927-4.411 12.984-4.451z" fill="#99d9fc"/><path d="M112.405 287.694l2.85-.025 9.319-.039 6.498-.027 13.626-.027 17.407-.089 13.427-.038 6.414-.038c22.88-.206 22.88-.206 30.666 7.103 5.224 5.831 5.837 10.588 5.7 18.221-.59 6.162-2.795 9.713-7.062 14.078-6.872 4.625-12.858 5.634-20.936 5.592l-2.832.021-9.202.009-6.432.016a3197.68 3197.68 0 0 1-13.456-.003c-5.737-.011-11.472.009-17.209.038l-13.275.012c-2.115 0-4.229.006-6.344.018a819.87 819.87 0 0 1-8.88-.013l-2.623.029c-7.205-.087-12.254-2.234-17.812-6.781-4.923-6.017-7.022-11.197-6.695-19.074 1.126-6.767 5.527-11.164 10.602-15.449 5.269-3.505 10.121-3.528 16.249-3.533z" fill="#68b4fc"/><path d="M118.125 71.625l4.344.082L133 72l.577 2.827.782 3.755.765 3.702c2.544 10.792 7.071 21.993 15.091 29.899C152 114 152 114 152 116l-20.496.22-6.966.082-10.039.089-3.123.063c-7.52.002-12.871-1.436-18.619-6.383-5.159-6.147-7.408-11.288-7.187-19.414.956-5.908 3.81-10.415 8.321-14.274 7.682-5.465 15.251-5.085 24.234-4.757z" fill="#68b2fa"/><path d="M108.066 395.773h2.972l3.17.031 3.274.009 10.331.062 7.014.027L152 396c-1.463 3.039-3.06 5.367-5.25 7.938-8.377 10.563-11.762 22.991-13.75 36.063l-12.695.33-4.306.123c-9.196.327-16.754-.005-23.999-6.453-5.22-6.577-6.857-12.653-6-21 1.859-6.63 6.431-11.163 12-15 3.496-1.626 6.22-2.247 10.066-2.227z" fill="#98d8fa"/><path d="M201.5 409.625l2.281-.023c2.831.508 4.081 1.482 6.219 3.398 1.057 2.187 1.057 2.187 1.847 4.759l.919 2.923.941 3.153.999 3.247 2.059 6.804 3.186 10.402 2.006 6.609.972 3.141.871 2.942.778 2.577c.487 2.818.264 4.717-.578 7.441-2.187 1.875-2.187 1.875-5 3l-6-1-3-12h-17l-3 12c-4.06.955-6.207 1.396-10-.5-2-2.5-2-2.5-1.814-5.491.888-4.983 2.379-9.809 3.833-14.649l.909-3.042 1.909-6.334 2.884-9.71 1.861-6.164.856-2.936.839-2.722.718-2.392c2.026-4.15 5.045-5.481 9.506-5.435z" fill="#020403"/><path d="M189.512 33.722l2.27.012 2.331-.006 4.882.011 7.486-.013 4.738.008 2.27-.012c5.282.048 5.282.048 7.512 2.278-.084 6.037-3.443 10.724-6.437 15.75l-3.262 5.59-1.666 2.843-7.385 13.129-1.302 2.353L198 81l1.988.06 8.887.315 3.129.094 2.988.117 2.761.095C220 82 220 82 222 84c.339 6.323.339 6.323-1 9h-40c-1.143-5.713-.021-7.74 2.688-12.5l1.208-2.198L189 71l1.56-2.764L204 45l-1.804.032-8.071.093-2.84.051-2.715.02-2.507.032C184 45 184 45 182 43c-.25-3.5-.25-3.5 0-7 2.517-2.517 4.077-2.247 7.512-2.278z" fill="#020102"/><path d="M325 242c3.041 1.638 5.286 3.1 7.438 5.813.876 3.406.454 5.8-.437 9.188-2.619 3.543-4.253 4.787-8.5 6-3.981 0-5.465-.471-8.5-3-2.54-2.963-3.257-5.178-3.062-9 .544-3.125 1.421-4.842 3.75-7 3.668-2.215 5.131-2.784 9.313-2z" fill="#040301"/><path d="M201 427c2.215 3.322 3.046 6.164 4.125 10l1.07 3.75C207 444 207 444 207 447h-11c1.268-6.83 2.888-13.383 5-20z" fill="#73f4a2"/></svg>