<svg xmlns="http://www.w3.org/2000/svg" width="512" height="512" xmlns:v="https://vecta.io/nano"><path d="M223.336-.238l2.633-.03c62.032-.555 123.252 16.573 168.613 60.85L398 64l1.595 1.587c41.018 41.225 60.725 102.838 60.586 160.119-.385 32.591-7.924 64.181-20.181 94.294l1.896-.027 19.564-.193 7.298-.082 10.5-.089 3.287-.063c6.156-.002 9.78.318 14.456 4.453 3.857 4.389 4.127 8.052 4.14 13.774l.009 2.099.012 6.978.015 4.997.024 13.587.012 8.487.027 26.552.051 30.656.033 23.692.025 14.152.01 13.314.013 4.883-.004 6.673.004 3.77c-.579 5.273-2.39 8.266-5.86 12.221-4.393 3.358-9.404 2.852-14.709 2.792l-3.43.021c-3.796.018-7.59-.001-11.386-.019l-8.161.022c-6.623.018-13.245.01-19.868-.008l-16.148-.015-2.322.001-4.67.003c-13.763.009-27.526-.008-41.288-.038l-40.06-.021-43.628.003-4.653-.006-2.312-.003a7099.26 7099.26 0 0 0-16.128.004c-6.552.008-13.104.001-19.655-.024l-10.027-.007a1274.71 1274.71 0 0 1-10.87-.029l-3.201.025c-5.98-.068-9.447-.545-13.996-4.54-4.177-5.548-3.476-12.189-3.512-18.836l-.054-3.741-.121-11.798-.104-8.012L205 446l-2.074-.391c-25.132-4.772-25.132-4.772-36.864-8.922l-3.402-1.174C134.114 425.483 108.553 410.173 86 390l-1.704-1.517C77.785 382.66 71.535 376.775 66 370l-2.887-3.379C25.222 321.793 7.204 263.59 11.465 205.258 15.403 159.803 32.53 115.949 62 81l1.396-1.665C74.937 65.593 74.937 65.593 81 60l1.707-1.582C120.787 24.186 171.531.247 223.336-.238z" fill="#003241"/><path d="M236 0v320l-21 2c-5.704 4.074-5.704 4.074-7 7l-.158 4.644-.03 2.966-.017 3.265-.03 3.429-.081 11.265-.063 7.794-.138 18.444-.16 20.996L207 445c-8.555 4.278-28.869-4.41-37.498-7.166C138.306 427.435 110.562 411.97 86 390l-1.704-1.517C77.785 382.66 71.535 376.775 66 370l-2.887-3.379C25.222 321.793 7.204 263.59 11.465 205.258 15.403 159.803 32.53 115.949 62 81l1.396-1.665C74.937 65.593 74.937 65.593 81 60l1.707-1.582C125.634 19.829 178.37 0 236 0z" fill="#006281"/><path d="M319 292h64v28h30v-19h1v19l6.973-.063 22.835-.144 13.842-.095 13.363-.078 5.093-.043 7.145-.031 2.116-.044c4.991.042 7.77 1.411 11.633 4.498 3.857 4.389 4.127 8.052 4.14 13.774l.009 2.099.012 6.978.015 4.997.024 13.587.012 8.487.027 26.552.051 30.656.033 23.692.025 14.152.01 13.314.013 4.883-.004 6.673.004 3.77c-.579 5.273-2.39 8.266-5.86 12.221-4.393 3.358-9.404 2.852-14.709 2.792l-3.43.021c-3.796.018-7.59-.001-11.386-.019l-8.161.022c-6.623.018-13.245.01-19.868-.008l-16.148-.015-2.322.001-4.67.003c-13.763.009-27.526-.008-41.288-.038l-40.06-.021-43.628.003-4.653-.006-2.312-.003a7099.26 7099.26 0 0 0-16.128.004c-6.552.008-13.104.001-19.655-.024l-10.027-.007a1274.71 1274.71 0 0 1-10.87-.029l-3.201.025c-5.977-.068-9.453-.538-13.996-4.54-3.812-5.274-3.39-10.662-3.297-16.906l.012-3.302.09-10.847.042-7.674.088-14.068.074-25.645.072-34.244.04-19.356.058-19.26.002-7.217.047-9.942-.037-2.939c.104-5.632.945-9.226 5.009-13.279 5.671-4.155 12.978-3.602 19.706-3.547l2.9-.001 9.414.033 6.557.009 17.202.049 17.576.04L319 320v-28z" fill="#854737"/><path d="M319 292h64v28h30v-19h1v19l6.973-.063 22.835-.144 13.842-.095 13.363-.078 5.093-.043 7.145-.031 2.116-.044c5.985.05 9.494 2.358 13.633 6.498-1.171 19.29-16.257 36.727-30 49-30.569 25.047-72.508 32.268-110.937 32.125l-2.055-.007C311.784 406.95 265.196 401.208 232 369l-2.074-1.852c-10.463-9.661-19.178-24.226-21.426-38.273.595-3.419 1.946-4.724 4.602-6.895 5.294-2.734 11.771-2.117 17.576-2.094h2.899l9.447.016 6.566.004 17.252.025 17.616.02L319 320v-28z" fill="#734535"/><path d="M208 327h1l.629 2.605c3.435 13.181 9.226 24.197 18.371 34.395l2.426 2.711c16.952 17.931 40.199 27.849 63.887 33.414l3.107.762c18.453 4.397 36.539 4.923 55.58 6.113v105l-48.762.195-29.826.106-21.722.075-11.5.047-10.829.03-5.858.045c-11.046-.052-11.046-.052-15.504-4.498-3.807-5.271-3.394-10.655-3.308-16.895l.009-3.299.084-10.841.039-7.671.127-18.182.139-21.635.283-38.228.125-15.669.156-19.357.056-7.271.086-9.981.017-2.994.03-2.716.02-2.362C207 329 207 329 208 327z" fill="#9d5e49"/><path d="M251 239h83c.787 3.147 1.12 5.194 1.098 8.328l-.008 2.185-.028 2.737L335 261h30v-22h63c-1.496 19.447-5.312 37.884-12.312 56.125-2.8 7.97-2.449 16.527-2.687 24.875h-30v-28h-64v28h-68v-81z" fill="#fbca04"/><path d="M231.43 319.871l3.147-.005 10.299.002 7.215-.003 15.151.005 19.236-.004h14.929l7.079-.002 10.014.007 2.849-.006c10.584.032 21.044.653 31.651 1.136v86c-43.861-1.371-88.146-6.124-121-38l-2.074-1.852c-10.463-9.661-19.178-24.226-21.426-38.273.595-3.419 1.946-4.724 4.602-6.895 5.49-2.835 12.313-2.122 18.328-2.11z" fill="#854737"/><path d="M294 39c39.319 8.657 74.334 34.006 98 66l1.286 1.725C414.544 135.66 425.638 172.572 428 208h-66l-2.5-15.5c-9.215-54.619-27.008-107.874-63.734-150.375C294 40 294 40 294 39z" fill="#5dcaf0"/><path d="M43 239h69l4 34c1.528 7.417 3.06 14.702 5 22l.879 3.426L124 306l.635 2.24c9.51 32.814 26.465 63.165 48.428 89.217 3.14 3.729 6.049 7.617 8.938 11.543-7.693-1.893-14.878-4.371-22.125-7.562l-3.026-1.331C126.626 386.538 99.677 364.594 80 338l-1.211-1.633c-16.228-22.109-26.866-46.985-33.102-73.617l-.483-1.998C43.6 253.436 43.514 246.706 43 239zM181 39l-2.133 2.176C164.813 55.792 153.583 72.17 144 90l-1.116 2.064C134.422 107.89 127.791 124.712 123 142l-.71 2.463c-5.922 20.87-7.874 42.01-10.29 63.537H43c1.169-19.876 1.169-19.876 3.563-29.25l.802-3.208C53.256 152.847 63.112 130.958 77 112l2.293-3.152C93.428 89.777 154.359 25.679 181 39z" fill="#44f5fe"/><path d="M251 42c21.777 13.066 37.364 36.69 48.838 58.766l2.272 4.297C315.443 129.944 322.971 158.395 328 186l1.02 5.328c1.052 5.616 1.98 10.935 1.98 16.672h-80V42z" fill="#5dcaf0"/><path d="M220 44v164h-77c0-19.734 2.536-39.027 8-58l.815-2.833c10.766-36.434 29.879-66.811 56.497-93.604l1.815-1.83C217.89 44 217.89 44 220 44z" fill="#44f5fe"/><path d="M143 239h77v81l-8 4c-2.775 2.661-3.846 4.134-4.519 7.917l-.027 3.25-.06 3.7-.004 3.965-.05 4.081-.079 10.707-.102 10.94L207 390l-3.358-2.846-1.889-1.601c-4.14-3.669-7.391-8.183-10.753-12.553l-1.33-1.725c-24.541-32.072-39.121-69.023-45.482-108.775l-.376-2.278C142.749 252.986 143 246.547 143 239z" fill="#45f5fe"/><path d="M251 239h83c.787 3.147 1.12 5.194 1.098 8.328l-.01 2.422-.025 2.5-.014 2.547L335 261l-3.086.012-11.428.14-4.929.043c-11.654-.243-11.654-.243-22.147 4.153-4.883 5.718-4.876 11.357-4.922 18.518l-.054 3.136-.121 9.872-.104 6.711L288 320h-37v-81z" fill="#5dcaf0"/><path d="M303.616 261.659l3.336.001 3.567.047 3.678.013 11.615.093 7.881.041L353 262v29c-11.372.664-22.612 1.113-34 1v28h-31l-.275-19.641-.103-6.675-.111-9.622-.078-2.99c-.003-6.44 1.034-11.281 5.566-16.072 3.638-2.658 6.139-3.371 10.616-3.341z" fill="#fce608"/><path d="M365 239h63c-1.587 20.631-6.34 39.471-13 59h-1l-.028-2.076-.222-9.424-.043-3.266c-.197-6.47-.544-12.051-4.707-17.234-5.249-3.714-10.361-4.599-16.656-4.609l-2.387-.05-7.457-.091-5.094-.09L365 261v-22z" fill="#5dcaef"/><path d="M272 394l1.814.562c6.228 1.902 12.487 3.575 18.811 5.126l2.754.682L302 402l.25 13.063.102 3.725c.075 6.944.047 11.682-4.352 17.213-3.642 3.182-7.769 4.338-12.562 4.125-4.872-.834-8.46-3.19-11.437-7.125-1.903-4.65-2.269-8.843-2.195-13.805l.009-2.194.062-6.876.027-4.687L272 394z" fill="#fde505"/><path d="M437 393l.165 14.624.062 4.97.067 7.164.047 2.226c.002 6.363-1.66 10.216-5.965 14.829-3.777 2.887-7.684 3.588-12.375 3.188-4.87-1.461-7.748-4.155-10.204-8.655-1.768-5.208-1.194-10.853-1.046-16.283l.055-3.807L408 402c3.614-1.218 7.233-2.392 10.891-3.473l2.648-.787 5.469-1.617 2.633-.783 2.392-.707c1.662-.534 3.239-1.633 4.968-1.633z" fill="#fcc801"/><path d="M334 292h31l-.937 12.313-.289 3.872-.239 3.053-.238 3.126C363 317 363 317 362 320h-30c0-6.729.186-13.008 1-19.625l1-8.375z" fill="#003241"/><path d="M365 292h18v28h-21l.938-11.75.264-3.367.264-3.242.238-2.983C364 296 364 296 365 292z" fill="#5dcaf0"/><path d="M319 292h15c.216 9.602-.534 18.539-2 28h-13v-28z" fill="#5cc8ee"/></svg>