<svg xmlns="http://www.w3.org/2000/svg" width="512" height="512" xmlns:v="https://vecta.io/nano"><path d="M310 0c5.644 2.693 9.065 7.278 13 12 9.454 8.244 19.628 12.541 32.207 12.246 10.36-.913 18.951-5.876 26.668-12.621 4.146-3.172 7.893-3.339 13-3.422 8.331 2.124 14.748 10.133 20.615 16.028l2.767 2.757 7.437 7.438 7.811 7.808L446.6 55.339l15.129 15.126 13.025 13.02 7.765 7.762 8.639 8.652 2.593 2.581 2.374 2.391 2.061 2.063c4.586 5.222 5.47 9.254 5.295 16.078-.64 3.978-2.151 6.021-4.758 9.004-7.381 8.503-11.437 18.79-11.07 30.055 1.001 8.435 3.502 15.878 9.078 22.344C498 186 498 186 499 189l4 2c2.105 2.094 2.105 2.094 4.188 4.5l2.105 2.406c2.698 3.309 2.968 5.488 3.145 9.719l.184 3.039c-1.755 9.428-11.657 16.653-18.205 23.173l-3.556 3.566-9.747 9.745-10.522 10.53-20.601 20.602-16.741 16.738-2.407 2.408-4.841 4.843-45.386 45.374-38.948 38.95-45.228 45.237-4.822 4.82-2.396 2.396-16.724 16.73-20.377 20.37-10.398 10.397-9.517 9.509-3.444 3.448-4.681 4.671-2.626 2.625c-5.377 4.828-9.329 5.868-16.447 5.684-6.765-1.081-10.424-5.699-14.496-10.84-7.605-8.254-17.385-12.694-28.43-13.98-12.445-.439-22.735 4.655-31.957 12.715-4.146 3.172-7.893 3.339-13 3.422-8.331-2.124-14.748-10.133-20.615-16.028l-2.767-2.757-7.437-7.438-7.811-7.808L65.4 456.661l-15.129-15.126-13.025-13.02-7.765-7.762-8.639-8.652-2.593-2.581-2.374-2.391-2.061-2.063c-4.586-5.222-5.47-9.254-5.295-16.078.639-3.972 2.138-6.015 4.754-8.984 1.953-2.266 3.442-4.625 4.977-7.191l1.453-2.418c5.188-9.579 5.567-19.652 2.672-30.02C19.636 332.149 15.118 326.972 9 321c-9.159-9.96-9.159-9.96-9.437-16.625l-.184-3.039c1.755-9.428 11.657-16.653 18.205-23.173l3.556-3.566 9.747-9.745 10.522-10.53 20.601-20.602 16.741-16.738 2.407-2.408 4.841-4.843 45.386-45.374 38.948-38.95 45.228-45.237 4.822-4.82 2.396-2.396 16.724-16.73 20.377-20.37 10.398-10.397 9.517-9.509 3.444-3.448 4.681-4.671 2.626-2.625C296.653-.28 301.952-1.286 310 0z" fill="#fe5591"/><path d="M450 61c3.582 1.522 5.886 3.633 8.629 6.37l2.761 2.741 2.958 2.97 3.055 3.049 6.387 6.398 8.178 8.17 6.303 6.303 3.015 3.01 4.214 4.228 2.42 2.424c4.753 5.334 5.741 9.315 5.561 16.346-.64 3.978-2.151 6.021-4.758 9.004-7.381 8.503-11.437 18.79-11.07 30.055 1.001 8.435 3.502 15.878 9.078 22.344C498 186 498 186 499 189l4 2c2.105 2.094 2.105 2.094 4.188 4.5l2.105 2.406c2.698 3.309 2.968 5.488 3.145 9.719l.184 3.039c-1.755 9.428-11.657 16.653-18.205 23.173l-3.556 3.566-9.747 9.745-10.522 10.53-20.601 20.602-16.741 16.738-2.407 2.408-4.841 4.843-45.386 45.374-38.948 38.95-45.228 45.237-4.822 4.82-2.396 2.396-16.724 16.73-20.377 20.37-10.398 10.397-9.517 9.509-3.444 3.448-4.681 4.671-2.626 2.625c-5.377 4.828-9.329 5.868-16.447 5.684-6.765-1.081-10.424-5.699-14.496-10.84-7.605-8.254-17.385-12.694-28.43-13.98-12.445-.439-22.735 4.655-31.957 12.715-4.146 3.172-7.893 3.339-13 3.422-8.812-2.247-15.554-10.93-21.75-17.156l-2.992-2.987-6.212-6.223-7.983-7.976-6.151-6.151-2.947-2.942-4.085-4.099-2.349-2.354C61 452 61 452 61 450c1.472-1.453 1.472-1.453 3.506-3.138 4.342-3.696 8.382-7.612 12.404-11.651l2.285-2.283 7.512-7.522 5.412-5.412 11.617-11.626 16.796-16.808 27.257-27.275 26.464-26.484 1.65-1.651 8.196-8.2L252 260c-1.416-2.96-2.749-4.959-5.152-7.207l-1.854-1.779-3.852-3.617c-4.994-4.816-7.698-8.84-8.58-15.896.62-4.959 2.145-8.527 5.98-11.828 3.612-2.347 7.047-3.368 11.435-3.118 7.155 1.579 12.642 7.675 17.522 12.759l1.914 1.955L274 236c3.922-1.591 6.563-4.287 9.487-7.244l1.622-1.617 5.277-5.295 3.675-3.676 7.684-7.707 9.866-9.886 7.579-7.592 3.64-3.646 5.07-5.092 1.529-1.527c2.612-2.613 2.612-2.613 4.57-5.717 1.835-.774 1.835-.774 4.234-1.516l2.662-.845 2.854-.889c7.502-2.394 14.486-5.004 21.461-8.684 3.464-1.325 6.108-1.396 9.789-1.066 3.126 1.547 5.317 4.068 7.375 6.875 1.251 4.254 1.047 7.887-.375 12.063-4.673 7.155-9.763 11.759-18 14.063-6.182 1.835-9.249 3.658-13 9-1.536 3.072-1.227 5.602-1 9 1.416 3.251 1.416 3.251 3 6v2c5.734 3.072 11.685 4.099 18.087 2.468 2.084-.721 4.122-1.509 6.163-2.343l2.102-.816c2.737-1.075 5.378-2.153 7.93-3.621L389 218l5.078 3.023c3.315 1.685 6.316 1.664 9.922.977 4.44-1.498 6.556-3.241 8.938-7.312 1.28-4.443 2.197-8.214.195-12.578-.997-1.731-2.062-3.423-3.133-5.109-1.203-3.608-.644-4.791.438-8.375 3.493-13.405 1.412-23.92-5.187-35.875-5.72-9.024-14.411-15.217-24.875-17.562L378 135c3.973-4.763 8.12-9.257 12.524-13.622l1.885-1.88 4.017-3.999 6.354-6.33 13.47-13.419 15.654-15.598 6.265-6.234 3.824-3.814 1.763-1.747c2.36-2.36 4.386-4.57 6.244-7.357z" fill="#fe415a"/><path d="M308 97c2.185 1.133 4.163 2.42 6.191 3.813 2.318 1.522 4.031 2.114 6.809 2.188l6-2c5.262-.47 8.558.103 13 3 3.267 2.841 4.719 4.357 5.449 8.625.181 4.602-.119 7.691-2.137 11.875-4.447 4.808-9.818 6.49-15.887 8.535-2.556.831-2.556.831-4.426 2.965-.51 5.883-.51 5.883 2 11 5.699-.532 10.503-1.65 15.813-3.75l2.091-.803c5.045-1.964 9.981-4.124 14.862-6.466 7.687-3.373 18.272-3.274 26.25-.785 13.504 5.476 21.11 13.594 26.891 26.922 3.891 10.255 2.346 20.454-.641 30.789-.605 3.214-.605 3.214 1.594 5.813L414 201c1.683 5.048 1.562 9.321-.562 14.188-2.291 4.139-4.938 6.346-9.437 7.813-5.125.651-7.552.428-11.875-2.312-1.948-1.198-1.948-1.198-4.125-1.687-2.761.85-4.994 2.095-7.488 3.547-6.996 4.047-14.25 5.799-22.199 3.766-3.826-2.171-6.497-4.836-8.625-8.687-1.279-4.883-1.391-8.296 1-12.812 3.989-4.852 7.134-6.839 13.125-8.625 7.61-2.371 12.707-6.643 17.188-13.187 1.206-3.619 1.323-6.192 1-10-2.027-3.704-3.48-5.654-7-8-6.576-.841-11.313 1.559-17.125 4.25l-5.637 2.48-2.736 1.197c-11.126 4.77-22.879 7.668-34.752 3.635-10.507-4.925-17.513-13.782-21.891-24.305-1.091-4.137-1.152-7.938-1.109-12.195l-.023-2.342c.013-3.875.293-6.785 1.438-10.541 1.146-3.05 1.146-3.05-.062-5.332l-1.477-1.785c-3.075-4.364-3.384-6.752-2.625-12.062 1.698-4.904 4.419-8.049 9.082-10.336 3.402-1.178 6.446-1.459 9.918-.664z" fill="#fdda79"/><path d="M190.184 265.914c4.527 2.575 7.212 4.973 8.816 10.086.899 6.968-.919 10.452-5 16-2.477 2.868-5.126 5.537-7.816 8.204l-2.338 2.353-7.624 7.618-5.316 5.325-11.134 11.118-12.834 12.839-12.39 12.395-5.252 5.259-7.352 7.331-2.178 2.196c-4.795 4.735-8.752 7.972-15.643 8.861-4.892-.207-8.485-2.329-12.125-5.5-2.698-3.793-3.615-7.255-3.409-11.946 1.472-7.396 8.099-13.176 13.225-18.259l2.338-2.353 7.624-7.618 5.316-5.325 11.134-11.118 12.834-12.839 12.39-12.395 5.252-5.259 7.352-7.331 2.178-2.196c6.195-6.118 13.021-11.185 21.951-7.447z" fill="#f4f0fd"/><path d="M308 97c2.185 1.133 4.163 2.42 6.191 3.813 2.318 1.522 4.031 2.114 6.809 2.188l6-2c5.262-.47 8.558.103 13 3 3.267 2.841 4.719 4.357 5.449 8.625.181 4.602-.119 7.691-2.137 11.875-4.447 4.808-9.818 6.49-15.887 8.535-2.556.831-2.556.831-4.426 2.965-.51 5.883-.51 5.883 2 11 5.699-.532 10.503-1.65 15.813-3.75l2.091-.803c5.045-1.964 9.981-4.124 14.862-6.466 4.426-1.942 8.147-2.091 12.984-2.043l3.547.027L377 134c-1.416 3.219-3.113 5.353-5.608 7.819l-2.235 2.224-2.412 2.371-2.473 2.457-7.836 7.754-7.846 7.775-4.888 4.835-2.225 2.205-1.967 1.942c-1.601 1.561-1.601 1.561-2.511 3.618-7.776 2.592-17.225 1.918-24.625-1.551-9.984-6.092-17.373-15.07-20.375-26.449-.273-2.985-.28-5.942-.25-8.937l-.023-2.342c.013-3.875.293-6.785 1.438-10.541 1.146-3.05 1.146-3.05-.062-5.332l-1.477-1.785c-3.075-4.364-3.384-6.752-2.625-12.062 1.698-4.904 4.419-8.049 9.082-10.336 3.402-1.178 6.446-1.459 9.918-.664z" fill="#fdeab9"/><path d="M198.184 353.914c4.527 2.575 7.212 4.973 8.816 10.086.899 6.965-.885 10.473-5 16-2.876 3.279-5.933 6.354-9.027 9.426l-2.626 2.635-5.484 5.468-8.361 8.38-5.342 5.33-2.51 2.528c-5.118 5.056-9.158 8.783-16.525 9.733-4.892-.207-8.485-2.329-12.125-5.5-2.698-3.794-3.621-7.259-3.404-11.95 1.563-7.923 8.974-14.058 14.432-19.475l2.626-2.635 5.484-5.468 8.361-8.38 5.342-5.33 2.51-2.528c6.467-6.389 13.362-12.284 22.834-8.319z" fill="#e2dcf1"/><path d="M166 130c3.404 1.474 5.639 3.381 8.262 5.987l2.518 2.489 2.693 2.696 2.786 2.773 5.822 5.82 7.451 7.417 7.128 7.114 2.699 2.671 2.508 2.527 2.204 2.202c3.607 4.307 5.583 8.504 5.342 14.213-1.039 5.246-3.939 9.041-8.227 12.09-4.539 1.424-8.57 2.165-12.99.198-6.205-3.806-11.084-8.702-16.166-13.873l-2.791-2.804-7.26-7.334-7.442-7.502L146 152c1.618-3.425 3.423-5.657 6.133-8.328l2.441-2.422 2.551-2.5 2.574-2.547L166 130z" fill="#ff415b"/><path d="M334.59 298.415c5.81 3.022 10.063 7.744 14.598 12.382l2.858 2.875 7.437 7.536 7.623 7.702L382 344c-1.618 3.425-3.423 5.657-6.133 8.328l-2.441 2.422-2.551 2.5-2.574 2.547L362 366c-3.397-1.473-5.638-3.375-8.262-5.971l-2.518-2.479-2.693-2.686-2.786-2.766-5.822-5.808-7.451-7.39-7.128-7.099-2.699-2.655c-5.514-5.555-8.991-9.679-10.141-17.583.666-4.748 2.395-7.935 5.5-11.562 5.541-3.855 10.368-4.037 16.59-1.585z" fill="#ea2445"/><path d="M454 465c4.608 2.183 6.758 4.485 9 9 .618 4.794.464 9.608.438 14.438l.061 3.971-.002 3.838.006 3.49c-.754 4.903-2.994 8.093-6.881 11.112-4.749 2.088-9.544 1.772-14.621 1.152-4.608-2.183-6.758-4.485-9-9-.618-4.794-.464-9.608-.437-14.437l-.061-3.971.002-3.838-.006-3.49c.754-4.903 2.994-8.093 6.881-11.112 4.749-2.088 9.544-1.772 14.621-1.152zm34.438-32.437l3.971-.061 3.838.002 3.49-.006c4.903.754 8.093 2.994 11.112 6.881 2.088 4.749 1.772 9.544 1.152 14.621-2.183 4.608-4.485 6.758-9 9-4.794.618-9.608.464-14.437.438l-3.971.061-3.838-.002-3.49.006c-4.903-.754-8.093-2.994-11.112-6.881-2.088-4.749-1.772-9.544-1.152-14.621 4.909-10.363 13.29-9.492 23.438-9.437z" fill="#fddc79"/><path d="M23.438 48.563l3.971-.061 3.838.002 3.49-.006c4.903.754 8.093 2.994 11.112 6.881C47.936 60.128 47.619 64.922 47 70c-2.183 4.608-4.485 6.758-9 9-4.794.618-9.608.464-14.437.438l-3.971.061-3.838-.002-3.49.006c-4.903-.754-8.093-2.994-11.112-6.881C-.936 67.872-.619 63.078 0 58c4.909-10.363 13.29-9.492 23.438-9.437zM70 0c4.608 2.183 6.758 4.485 9 9 .618 4.794.464 9.608.438 14.438l.061 3.971-.002 3.838.006 3.49c-.754 4.903-2.994 8.093-6.881 11.112C67.872 47.936 63.078 47.619 58 47c-4.608-2.183-6.758-4.485-9-9-.618-4.794-.464-9.608-.437-14.437l-.061-3.971.002-3.838-.006-3.49c.754-4.903 2.994-8.093 6.881-11.112C60.128-.936 64.922-.619 70 0z" fill="#fdecb9"/><path d="M407.938 432.563l3.826-.061c11.698.006 11.698.006 16.236 4.498 4.056 5.223 3.774 10.653 3 17-2.184 4.61-4.488 6.749-9 9-4.628.615-9.273.464-13.937.438l-3.826.061c-11.698-.006-11.698-.006-16.236-4.498-4.056-5.223-3.774-10.653-3-17 4.83-10.197 12.931-9.494 22.938-9.437zM454 385c4.61 2.184 6.749 4.488 9 9 .615 4.628.464 9.273.438 13.938l.061 3.826c-.006 11.698-.006 11.698-4.498 16.236-5.223 4.056-10.653 3.774-17 3-4.61-2.184-6.749-4.488-9-9-.615-4.628-.464-9.273-.437-13.937l-.061-3.826c.006-11.698.006-11.698 4.498-16.236 5.223-4.056 10.653-3.774 17-3z" fill="#fddc79"/><path d="M70 81c4.61 2.184 6.749 4.488 9 9 .615 4.628.464 9.273.438 13.938l.061 3.826C79.492 119.462 79.492 119.462 75 124c-5.223 4.056-10.653 3.774-17 3-4.61-2.184-6.749-4.488-9-9-.615-4.628-.464-9.273-.437-13.937l-.061-3.826C48.508 88.538 48.508 88.538 53 84c5.223-4.056 10.653-3.774 17-3zm33.938-32.437l3.826-.061c11.698.006 11.698.006 16.236 4.498 4.056 5.223 3.774 10.653 3 17-2.184 4.61-4.488 6.749-9 9-4.628.615-9.273.464-13.937.438l-3.826.061C88.538 79.492 88.538 79.492 84 75c-4.056-5.223-3.774-10.653-3-17 4.83-10.197 12.931-9.494 22.938-9.437z" fill="#fdecb9"/><path d="M275.045 238.071c2.283 1.085 3.728 2.314 5.521 4.097l1.971 1.959 2.025 2.061 2.037 2.002c4.552 4.579 7.981 8.572 8.838 15.186-.55 4.555-1.611 7.975-4.437 11.625-3.583 2.774-7.06 3.849-11.5 4.563-7.855-1.262-13.625-7.164-19.062-12.625l-1.939-1.854-1.814-1.807-1.639-1.617C254 260 254 260 254.089 258.068c2.019-4.582 6.227-7.895 9.724-11.38l2.486-2.572 2.408-2.416 2.202-2.224C273 238 273 238 275.045 238.071z" fill="#ea2445"/></svg>