<svg xmlns="http://www.w3.org/2000/svg" xmlns:xlink="http://www.w3.org/1999/xlink" width="512" height="512" xmlns:v="https://vecta.io/nano"><path d="M32.808 7.743l2.374-.011h7.905l5.713-.014 15.722-.01 16.947-.02 33.212-.023 26.99-.011 64.037-.026h2.069 10.382 2.083 4.17l64.873-.041 72.874-.046 38.589-.026 32.854-.009 16.766-.011 15.346.005 5.554-.012 7.548.013 2.178-.03c6.406.09 11.483 2.315 16.25 6.493l1.633 1.973 1.68 1.965c3.01 4.369 3.696 8.13 3.703 13.389l.02 3.867-.009 4.242.014 4.512.01 12.403.02 13.377.023 26.221.011 21.334.025 60.534v3.297 3.301l.047 52.871.041 54.336.026 30.485.009 25.981.011 13.235C504.654 401.884 496.9 435.814 468 466l-2.07 2.262C459.667 474.882 452.557 479.98 445 485l-2.828 1.906c-27.57 17.33-63.967 22.052-95.549 14.933C323.427 495.982 303.234 484.5 286 468l-2.262-2.07C277.118 459.667 272.02 452.557 267 445l-1.906-2.828c-7.682-12.222-12.641-26.402-15.594-40.484l-.485-2.236c-.987-5.28-1.089-10.425-1.052-15.776l.008-2.241L248 376l-3.46.011-83.352.196-8.024.012-2.015.003-32.274.086-33.128.068-18.603.047-17.512.03-6.424.024-8.78.004-2.559.035c-6.785-.068-11.983-1.987-17.111-6.481l-1.633-1.973-1.68-1.965c-2.891-4.196-3.696-7.852-3.703-12.907l-.02-3.541.009-3.877-.014-4.129-.01-11.344-.02-12.235-.023-23.971-.011-19.485-.025-55.238v-3.008-3.012l-.047-48.327-.041-49.617-.026-27.858-.009-23.719-.011-12.1.005-11.083-.026-5.896c.064-8.138.976-13.7 6.49-19.993l1.973-1.633 1.965-1.68C22.703 8.137 27.1 7.71 32.808 7.743z" fill="#e5e8ec"/><path d="M32.808 7.743l2.374-.011h7.905l5.713-.014 15.722-.01 16.947-.02 33.212-.023 26.99-.011 64.037-.026h2.069 10.382 2.083 4.17l64.873-.041 72.874-.046 38.589-.026 32.854-.009 16.766-.011 15.346.005 5.554-.012 7.548.013 2.178-.03c6.406.09 11.483 2.315 16.25 6.493l1.633 1.973 1.68 1.965c3.01 4.369 3.696 8.13 3.703 13.389l.02 3.867-.009 4.242.014 4.512.01 12.403.02 13.377.023 26.221.011 21.334.025 60.534v3.297 3.301l.047 52.871.041 54.336.026 30.485.009 25.981.011 13.235C504.654 401.884 496.9 435.814 468 466l-2.07 2.262C459.667 474.882 452.557 479.98 445 485l-2.828 1.906c-27.57 17.33-63.967 22.052-95.549 14.933C323.427 495.982 303.234 484.5 286 468l-2.262-2.07C277.118 459.667 272.02 452.557 267 445l-1.906-2.828c-7.682-12.222-12.641-26.402-15.594-40.484l-.485-2.236c-.987-5.28-1.089-10.425-1.052-15.776l.008-2.241L248 376l-3.46.011-83.352.196-8.024.012-2.015.003-32.274.086-33.128.068-18.603.047-17.512.03-6.424.024-8.78.004-2.559.035c-6.785-.068-11.983-1.987-17.111-6.481l-1.633-1.973-1.68-1.965c-2.891-4.196-3.696-7.852-3.703-12.907l-.02-3.541.009-3.877-.014-4.129-.01-11.344-.02-12.235-.023-23.971-.011-19.485-.025-55.238v-3.008-3.012l-.047-48.327-.041-49.617-.026-27.858-.009-23.719-.011-12.1.005-11.083-.026-5.896c.064-8.138.976-13.7 6.49-19.993l1.973-1.633 1.965-1.68C22.703 8.137 27.1 7.71 32.808 7.743zM24 88l-.187 132.688-.083 41.944-.016 24.748-.03 16.574-.024 19.106-.017 9.777-.003 10.462-.026 3.091c.027 6.802.027 6.802 3.387 12.608 3.298 1.649 6.968 1.133 10.593 1.12l2.728.003 9.102-.009h6.503l17.702-.013 18.482-.008 35.019-.021 39.859-.022L249 360l.414-1.795 1.91-8.182.651-2.823c7.444-31.646 26.495-60.413 54.115-78.036 6.122-3.733 12.465-7.029 18.91-10.165l2.598-1.273C352.62 246.694 382.92 245.842 409 253l2.326.633c29.733 8.387 54.738 27.193 71.467 53.066 2.132 3.421 2.132 3.421 5.207 6.301V88H24z"/><path d="M34.518 23.339l2.158.037 2.331-.02 7.759.022 5.608-.019 15.432.017 16.634-.008 32.595.019 37.936.02 69.721.054 63.664.038 4.088-.001 2.041-.001 10.173-.003 2.027-.001 53.177.02 3.817.003 7.591.006 26.461.006 32.235.032 16.455.013 15.052.023 5.457-.001 7.396.02 2.158-.02c4.33.053 7.07.752 10.518 3.403 6.71 13.42 1 29.996 1 45H24c0-48.469 0-48.469 10.518-48.661z" fill="#5bd5b2"/><use xlink:href="#B" fill="#fe816d"/><use xlink:href="#B" y="-128" fill="#fbd66f"/><path d="M362.755 264.958l2.982.018L368 265c2.332 16.367 3.874 32.74 4.75 49.25l.197 3.69c1.447 30.667-.862 55.531-21.869 79.154-6.656 7.294-13.733 14.063-21.078 20.656l-2.754 2.474C315.897 430.337 304.17 439.895 292 449c-13.717-13.594-21.146-30.546-26-49l-.746-2.824c-1.484-7.01-1.453-14.102-1.504-21.238l-.029-3.047c.03-6.834.84-13.216 2.279-19.891l.754-3.687c6.927-28.376 24.946-53.075 49.691-68.5 13.832-8.32 29.857-15.984 46.31-15.854z" fill="#fad56f"/><path d="M384 265l4.282-.023 2.408-.013c21.068.334 42.786 12.734 58.31 26.037l2.492 2.051C462.609 302.523 470.275 314.184 477 327l1.43 2.695c12.406 25.197 12.742 55.241 4.215 81.648-4.546 13.184-11.08 26.369-20.645 36.656-4.39 0-6.878-2.592-10.225-5.171l-2.217-1.698c-9.755-7.567-19.085-15.609-28.245-23.881l-2.687-2.419c-22.52-20.521-37.792-39.602-39.595-70.858-.447-9.913-.237-19.755.281-29.66l.194-3.719c.858-15.279 2.367-30.441 4.494-45.594z" fill="#fd816d"/><path d="M375 388c2.864 1.3 4.922 2.674 7.138 4.898l1.801 1.793 1.94 1.962 2.071 2.07 6.753 6.785 4.691 4.7 12.33 12.379 12.589 12.628L449 460c-12.673 12.787-28.592 20.695-46 25l-3.551.902c-29.045 6.438-58.236.463-83.449-14.902-4.199-2.715-8.387-5.533-12-9 0-3 0-3 1.109-4.478l1.587-1.578 1.81-1.823 2.012-1.979 2.098-2.1 6.915-6.866 4.776-4.763 12.606-12.532 12.849-12.789L375 388z" fill="#4ec0e8"/><use xlink:href="#C"/><use xlink:href="#C" y="-128"/><path d="M232 136h240v16H232v-16zm32-32h208v16H264v-16zM72 264h16v32h16v-16h16v16h16v-32h16v32h16v16H72v-48zm224-96h176v16H296v-16zm-64 32h144v16H232v-16z"/><path d="M163.079 131.244c2.42.952 3.786 2.222 5.609 4.069l1.824 1.801c1.678 2.127 2.286 3.186 2.488 5.887-1.55 2.151-1.55 2.151-3.926 4.493l-2.67 2.669-2.932 2.854-2.964 2.942-7.837 7.713-7.982 7.883L129 187c-3.621-1.699-5.943-3.711-8.766-6.57l-2.695-2.715-2.789-2.84-2.836-2.863L105 165c-3.871 1.574-6.201 4.043-9.062 7.043l-2.914 3.002-4.542 4.741-4.419 4.57-2.652 2.77C79 189 79 189 76.786 188.89c-2.244-1.118-3.369-2.421-4.911-4.39-2.074-2.688-2.074-2.688-4.875-4.5.582-3.527 1.806-5.173 4.326-7.667l2.123-2.122 2.304-2.257 2.35-2.337 7.459-7.366 5.045-5.004L103 141c3.621 1.699 5.943 3.711 8.766 6.57l2.695 2.715 2.789 2.84 2.836 2.863L127 163c2.911-1.312 4.933-2.701 7.145-4.997l1.78-1.829 1.888-1.967 4.008-4.096 6.28-6.479 6.087-6.238 1.888-1.985 1.78-1.801 1.552-1.603C161 131 161 131 163.079 131.244z" fill="#050402"/><path d="M350 284l2 5.813 1.125 3.27C354 296 354 296 354 299l-3.551 1.469C341.121 304.414 332.873 308.51 325 315l-1.902 1.414c-15.601 12.098-24.032 32.998-26.555 52.035-.241 2.512-.403 5.031-.543 7.551h-16c-.853-25.582 9.805-47.982 26.402-66.711C316.172 298.997 334.909 284 350 284z" fill="#030301"/><path d="M232 168h48v16h-48v-16z"/><path d="M298 391l1.563 5.25.879 2.953c.865 4.332.865 4.332-.441 6.797-2.652 1.484-2.652 1.484-5.937 2.75l-3.277 1.297C288 411 288 411 286 411l-2-6.187-1.125-3.48c-.781-2.975-1.059-5.285-.875-8.332 5.455-1.385 10.367-2.24 16-2z" fill="#090704"/><path d="M453 396l16 4c-1.603 5.65-3.146 10.836-6 16-5.015-1.541-9.615-3.029-14-6 .784-4.86 2.406-9.356 4-14zm8.188-63.051c2.847 1.65 3.392 3.914 4.563 6.926l1.297 3.242C468 346 468 346 468 349l-6.312 2-3.551 1.125C455 353 455 353 452 353l-2-5.312-1.125-2.988C448 342 448 342 448 339l5.25-3.062 2.953-1.723C459 333 459 333 461.188 332.949z" fill="#080403"/><path d="M456 200h16v16h-16v-16zm-32 0h16v16h-16v-16zm-32 0h16v16h-16v-16zm-160-96h16v16h-16v-16zM104 40h16v16h-16V40zm-32 0h16v16H72V40zm-32 0h16v16H40V40z"/><path d="M472 366v17l-16-1v-15l4.063-.5 2.285-.281c3.207-.265 6.434-.219 9.652-.219z" fill="#040201"/><defs ><path id="B" d="M63.179 231.739l3.096-.021 3.364.008 3.569-.015 9.67-.011 8.088-.009 19.095-.005 19.657-.028 16.91-.02 10.084-.015 11.259.006 3.346-.023c7.978.054 14.732 1.099 20.932 6.583l1.891 1.605c6.965 8.267 6.465 16.815 6.426 27.043l.019 4.938-.009 10.323.041 13.159.012 10.192.021 4.848c.078 10.014-.278 18.801-7.377 26.599-7.242 7.036-15.659 7.547-25.254 7.508l-3.57.021-11.637.009-6.062.011-19.039.001a3342.44 3342.44 0 0 0-19.59.029l-16.872.023c-3.352-.003-6.703.001-10.054.016a1308.2 1308.2 0 0 1-11.215-.013l-3.332.029c-7.785-.075-13.2-1.52-19.11-6.679l-1.914-2.227-1.961-2.211c-3.457-5.015-3.919-9.872-3.955-15.853l-.02-2.18-.025-7.092-.02-4.961-.014-10.384-.062-13.261-.025-10.243-.027-4.887c-.15-17.33-.15-17.33 6.668-25.013l2.254-1.914 2.246-1.961c4.027-2.893 7.565-3.913 12.495-3.925z"/><path id="C" d="M63.179 231.739l3.096-.021 3.364.008 3.569-.015 9.67-.011 8.088-.009 19.095-.005 19.657-.028 16.91-.02 10.084-.015 11.259.006 3.346-.023c7.978.054 14.732 1.099 20.932 6.583l1.891 1.605c6.965 8.267 6.465 16.815 6.426 27.043l.019 4.938-.009 10.323.041 13.159.012 10.192.021 4.848c.078 10.014-.278 18.801-7.377 26.599-7.242 7.036-15.659 7.547-25.254 7.508l-3.57.021-11.637.009-6.062.011-19.039.001a3342.44 3342.44 0 0 0-19.59.029l-16.872.023c-3.352-.003-6.703.001-10.054.016a1308.2 1308.2 0 0 1-11.215-.013l-3.332.029c-7.785-.075-13.2-1.52-19.11-6.679l-1.914-2.227-1.961-2.211c-3.457-5.015-3.919-9.872-3.955-15.853l-.02-2.18-.025-7.092-.02-4.961-.014-10.384-.062-13.261-.025-10.243-.027-4.887c-.15-17.33-.15-17.33 6.668-25.013l2.254-1.914 2.246-1.961c4.027-2.893 7.565-3.913 12.495-3.925zm-5.344 18.371c-2.235 3.52-2.457 5.556-2.45 9.712l-.017 2.017.038 6.567v4.584l.052 9.593.037 12.276.026 9.461.009 4.526.05 6.332.026 3.635c.432 3.489 1.301 5.39 3.394 8.187 2.417 1.209 3.948 1.131 6.649 1.14l2.97.017 3.27.003 3.435.015 11.291.027 7.825.017 14.324.018 21.078.051 18.257.034 7.766.024 10.859.009 3.251.028c7.055.064 7.055.064 13.025-3.384 1.134-3.401 1.141-6.024 1.161-9.611l.015-2.021.027-6.614.017-4.599.02-9.641.058-12.351.025-9.499.024-4.554.009-6.369.011-3.66c-.401-3.359-.979-4.726-3.367-7.08-2.896-.965-4.756-1.134-7.769-1.154l-2.974-.026-3.259-.013-3.435-.025-11.274-.056-3.884-.016-16.157-.052-23.142-.106-18.243-.066-7.758-.046-10.845-.024-3.247-.05c-4.661.039-7.234.114-11.179 2.743z"/></defs></svg>