<svg xmlns="http://www.w3.org/2000/svg" width="512" height="512" xmlns:v="https://vecta.io/nano"><path d="M480.438 19L484 22l2.156 1.691C500.054 35.09 509.763 53.23 512 71c1.779 22.681-1.244 44.056-16.277 61.996L494 135l-1.504 1.973c-12.425 15.664-32.434 23.722-51.734 26.492A123.35 123.35 0 0 1 434 164l.5 3.188c.498 3.887.551 7.696.531 11.613l-.014 3.525L435 185l2.135-.027 20.034-.18 10.297-.095 11.871-.089 3.688-.063c8.376-.002 15.729 1.03 22.413 6.418l1.563 1.973 1.625 1.965c4.272 6.517 4.438 13.546 3.375 21.098-1.666 7.493-4.293 14.739-6.75 22l-2.143 6.507-4.633 14.007-7.638 23.502-1.314 4.093-2.616 8.15-9.686 29.973-3.147 9.829-2.609 8.1-1.783 5.632c-5.017 15.375-12.755 27.931-27.158 35.93-13.305 6.735-26.6 7.575-41.32 7.596l-4.617.03-12.406.055-13.012.068-24.584.117-28.012.138L261 392l-13 30 11.946-.079 39.036-.18 23.672-.118 20.633-.093 10.924-.058 12.196-.039 3.657-.054c9.085.056 9.085.056 12.223 2.97C384 427 384 427 384 430l9.313-.187 2.67-.018c2.438-.083 4.649-.209 7.018-.795 2.007-2.316 2.007-2.316 3-5 3.578-2.385 6.168-2.306 10.301-2.301l2.164-.013 4.531-.002 6.893-.046 4.412-.002 2.065-.028c6.063.058 9.885 1.928 14.474 5.766 3.67 4.765 2.84 10.908 2.723 16.625l.033 3.523c-.055 6.415-.212 10.642-4.596 15.477-4.96 4.64-11.376 4.233-17.812 4.563l-2.389.131L423 468l1.063 3.813c1.707 7.811 1.119 15.432-2.922 22.418L420 496l-2 3.125c-4.798 5.308-11.59 8.384-18.578 9.391-10.639.322-17.923-2.383-25.695-9.582-4.945-5.538-6.862-11.935-6.914-19.246l-.043-2.738C367 474 367 474 369 467l-73 1 2 9c.277 7.108-1.154 13.034-5 19l-2 3.125c-4.798 5.308-11.59 8.384-18.578 9.391-10.643.323-17.915-2.387-25.695-9.578-4.942-5.546-6.872-11.934-6.914-19.25l-.043-3.363c.237-3.42 1.009-6.134 2.23-9.324l-2.422-.043c-12.157-.528-21.513-3.838-30.379-12.348-8.092-9.601-10.223-20.165-9.478-32.394.806-6.416 3.636-12.372 6.278-18.215l1.477-3.309 2.543-5.457c.911-2.075 1.509-4.023 1.98-6.234l-3.016-.289C196.623 386.916 185.56 378.512 178 369c-7.144-10.589-10.482-23.285-14.422-35.316l-1.263-3.845-3.367-10.269-2.114-6.449-19.048-58.894-16.483-50.859-11.347-35.176-.974-3.097-4.518-14.48-1.609-5.133-.702-2.306c-1.815-5.743-3.723-11.608-8.966-14.987C89.811 126.93 86.486 125.906 83 125l-.187 2.625c-.986 4.094-2.635 6.693-5.812 9.375-6.846 3.324-13.005 3.439-20.531 3.398l-3.608.009c-2.508.002-5.016-.003-7.524-.016-3.825-.016-7.649 0-11.474.019l-7.332-.012-3.444.018c-13.561-.119-13.561-.119-18.639-4.869-5.05-5.872-4.692-10.351-4.76-17.798l-.088-3.145c-.052-6.208.187-9.921 4.4-14.605 5.214-4.019 8.912-5.114 15.376-5.161l3.258-.029 3.507-.013 3.625-.017 7.596-.02 11.581-.072 7.387-.016 3.482-.037c13.439.037 13.439.037 18.706 4.711 2.045 2.302 3.389 4.326 4.241 7.291L84 109c2.76.826 2.76.826 6 .938 8.229.982 14.341 4.12 20.25 9.938 8.024 10.657 11.119 27.028 15.184 39.594l2.882 8.852 1.832 5.641.871 2.667.791 2.452.699 2.155C133 183 133 183 133 185h84l1-17 1-3-1.875-.312C215 164 215 164 213 161c-1.558-15.935 10.788-35.709 20.25-47.687 1.557-1.794 3.142-3.564 4.75-5.312l1.421-1.565c17.945-19.571 42.951-33.253 69.704-35.247L315 71l-.176-3.578-.137-4.672-.127-2.355c-.123-5.769-.123-5.769 2.732-8.945 3.681-1.971 5.74-1.551 9.707-.449 2.815 1.97 3.383 3.702 4 7 .068 2.249.085 4.5.063 6.75l-.027 3.547L331 71l2.527.148c6.694.445 12.97 1.198 19.473 2.852l.445-2.535c4.261-22.115 14.667-41.165 33.707-54.176C393.743 12.994 400.537 9.517 408 7l2.828-.965C434.547-.702 460.645 4.655 480.438 19z" fill="#020101"/><path d="M138 200l134.222-.204 15.839-.015 3.185-.003 51.086-.086 52.403-.068 32.346-.055 22.169-.022 12.798-.023 11.714-.007 4.24-.016c13.196-.11 13.196-.11 17.997 4.5 2.684 5.368-.534 13.308-2.298 18.7l-.941 2.785-.976 2.962-3.098 9.304-3.06 9.239-1.972 5.949-5.879 18.516c-1.029 3.372-2.143 6.708-3.277 10.046l-4.5 14c-1.624 5.343-3.368 10.64-5.151 15.932-1.288 3.838-2.503 7.689-3.661 11.568l-6.062 18.75-.956 2.941c-3.935 11.543-10.248 20.843-21.231 26.621-6.462 3.125-12.485 3.984-19.557 3.962l-2.554.016-8.433.016-6.063.025-16.445.036-10.285.017-35.91.041-33.422.075-28.735.051-17.144.038-16.136.012c-1.967-.002-3.934.005-5.901.021-14.408.11-26.263-1.478-37.353-11.623-6.619-6.527-9.99-14.327-12.84-23.059l-.754-2.265-1.56-4.727-2.336-7.049a668.37 668.37 0 0 1-7.639-24.553c-2.133-7.331-4.486-14.586-6.862-21.841l-3.15-9.659-1.595-4.895-8.02-24.853-5.148-15.951-2.544-7.825-1.81-5.532-1.089-3.359-.969-2.967C138 203 138 203 138 200z" fill="#908190"/><path d="M354 91c.934 2.73.934 2.73 1.438 6.188C358.595 114.402 366.743 128.522 379 141l1.637 1.676c8.76 8.186 21.651 14.804 33.363 17.137l3 1.188c2 7 2 7 2 24H217c1-17 1-17 2-20l3.348-.645c3.614-.928 3.614-.928 4.753-3.048.901-2.307 1.637-4.619 2.336-6.995l1.754-5.199.895-2.619C236.024 135.743 242.293 126.416 250 118l2.336-2.582C274.144 92.446 323.614 72.314 354 91z" fill="#fdcdc7"/><path d="M474.313 33.813c11.994 10.15 20.843 24.967 22.527 40.766 1.287 19.469-2.602 37.278-15.73 52.289-12.848 12.991-30.314 21.425-48.734 21.57-17.248-.309-33.545-7.122-45.687-19.461-12.026-12.982-17.848-27.476-17.937-45.039l-.062-2.99c-.084-16.006 6.197-30.484 17.2-41.959 24.858-24.93 60.745-26.03 88.425-5.175z" fill="#fb636d"/><path d="M138 200l134.222-.204 15.839-.015 3.185-.003 51.086-.086 52.403-.068 32.346-.055 22.169-.022 12.798-.023 11.714-.007 4.24-.016c13.196-.11 13.196-.11 17.997 4.5 2.684 5.368-.534 13.308-2.298 18.7l-.941 2.785-.976 2.962-3.098 9.304-3.06 9.239-1.972 5.949-5.879 18.516c-1.029 3.372-2.143 6.708-3.277 10.046l-4.5 14c-1.624 5.343-3.368 10.64-5.151 15.932-1.288 3.838-2.503 7.689-3.661 11.568l-6.062 18.75-.956 2.941c-3.935 11.543-10.248 20.843-21.231 26.621-7.718 3.732-14.767 3.96-23.215 3.883l-3.535-.009-11.125-.062-7.564-.027L369 375c2.105-2.148 4.132-4.101 6.527-5.93 2.636-2.207 4.211-4.292 6.035-7.195l1.691-2.633c3.913-7.266 6.464-15.125 8.934-22.977l.895-2.811 1.916-6.038 5.276-16.593 1.135-3.568 8.88-27.674.673-2.086 5.95-18.416 1.26-3.898.619-1.916 4.098-12.72 4.012-12.328 1.657-5.09.747-2.228c1.915-5.933 2.623-11.714 1.694-17.901-1.627-1.627-3.435-1.132-5.683-1.139l-3.088-.017-3.434-.003-3.616-.015-9.981-.027-10.746-.035-18.634-.056-26.942-.08-43.707-.131-42.468-.125-2.642-.008-13.122-.041L138 201v-1z" fill="#796f79"/><path d="M229 390h15c-2.662 8.64-6.387 16.68-10.236 24.85-3.823 8.273-3.823 8.273-3.764 17.15 1.651 2.62 2.349 3.578 5 5 4.531.766 9.03.682 13.615.647l4.204.027 11.399-.002 11.936.007 20.044-.027 23.164.009 19.898.013 11.88.008 11.169-.024 6.048.021c7.05.192 7.05.192 12.93-3.093 1.686-2.433 1.686-2.433 2.712-4.585h20l3 6c2.845 1.423 5.362 1.22 8.539 1.316l3.945.127 4.141.119 4.164.131L438 438v13l-80.111.259-37.197.118-32.424.093-17.166.058-16.165.037-5.924.03c-19.615.181-19.615.181-27.531-6.968-5.186-5.51-6.821-11.916-6.71-19.269.371-3.815 1.721-6.992 3.292-10.457l.942-2.181 2.996-6.784 2.023-4.646L229 390z" fill="#fcccc6"/><path d="M425 19c19.704-1.019 36.392 3.878 51.727 16.855 12.403 11.7 19.723 27.33 20.402 44.379.285 17.394-4.369 33.312-16.02 46.633-12.366 12.504-29.356 21.192-47.143 21.399-3.327-.023-6.642-.121-9.966-.266v-1l1.836-.191c11.952-1.747 20.521-9.865 28.164-18.809 12.113-16.695 17.412-35.635 14.728-56.075-3.448-19.294-14.324-35.796-30.028-47.148-4.672-3.077-8.088-4.13-13.699-4.777v-1z" fill="#fa4654"/><path d="M310 86c34.381-.915 34.381-.915 44 5 .934 2.73.934 2.73 1.438 6.188C358.595 114.402 366.743 128.522 379 141l1.637 1.676c8.76 8.186 21.651 14.804 33.363 17.137l3 1.188c2 7 2 7 2 24h-38l-1.305-19.832c-.614-5.214-1.335-10.205-5.552-13.711-3.925-2.423-8.072-4.256-12.28-6.125-6.93-3.118-11.683-7.845-16.863-13.332l-1.812-1.828c-8.474-9.092-14.337-21.329-15.937-33.609-.503-2.781-.766-4.121-2.867-6.039C319.79 88.039 315.156 87.368 310 87v-1z" fill="#fcb8b1"/><path d="M414 54c2.178 1.69 2.178 1.69 4.164 3.852l2.211 2.328 2.25 2.445 4.477 4.789 1.979 2.155c1.79 1.642 1.79 1.642 3.933 1.378 2.435-1.161 3.831-2.531 5.666-4.509l2.066-2.164 4.234-4.547c5.23-5.457 5.23-5.457 9.313-6.852C457 53 457 53 460.438 55c2.563 3 2.563 3 2.762 6.145-1.036 5.555-5.837 8.915-9.824 12.543l-4.789 4.449-2.155 1.96c-1.638 1.773-1.638 1.773-1.396 3.904 1.225 2.539 2.728 3.97 4.816 5.863l2.328 2.189 4.914 4.484c2.184 2.072 4.156 4.013 5.906 6.463.086 3.762-.281 5.689-2.062 8.938-3.33 1.826-6.341 1.996-9.937 1.063-3.594-2.598-6.501-5.747-9.5-9l-2.492-2.602L433 95c-3.531 2.906-6.939 5.831-10.027 9.211l-1.463 1.582-2.883 3.234c-2.023 2.15-3.765 3.805-6.717 4.378-3.246.071-5.34.057-7.91-2.031-1.378-3.274-1.681-4.832-1-8.375 1.994-2.994 4.469-5.456 7-8l1.411-1.432L421 84c-4.156-5.054-8.622-9.702-13.304-14.267-3.205-3.147-4.567-4.574-5.071-9.108C403 57 403 57 405.125 54.5c3.601-1.879 5.005-1.548 8.875-.5z" fill="#030101"/><path d="M445.75 231.688c4.074.392 5.566 1.234 8.25 4.313.499 5.449-.673 9.898-2.5 14.965l-.81 2.335-2.69 7.638-3.84 11.012-1.016 2.911-7.461 22.347-2.146 6.584-3.119 9.655-2.922 9.007-.848 2.709c-1.683 5.073-3.338 8.403-7.648 11.838-2.5.625-2.5.625-5 0-2.875-2-2.875-2-5-5 .312-6.104 1.938-11.471 3.922-17.219l.898-2.666 2.93-8.615 4.098-12.129 1.05-3.106 6.848-20.917.89-2.782 3.362-10.585 2.295-7.227.655-2.125c3.965-12.278 3.965-12.278 9.802-12.942zM192 232c4.042 3.125 5.365 6.968 6.891 11.672l.794 2.348 2.566 7.731 1.813 5.421 3.87 11.626 5.413 16.036 4.446 13.097 2.169 6.364 3.032 8.964.926 2.678c1.6 4.815 2.625 8.922 2.082 14.064-2.312 3.105-3.743 4.724-7.562 5.563-3.258-.752-4.286-2.017-6.437-4.562-1.27-2.902-1.27-2.902-2.383-6.367l-.642-1.961-2.1-6.547-2.315-7.129-1.693-5.221-7.656-22.927-3.724-11.011-2.478-7.281-3.493-10.326-1.078-3.124c-1.741-5.219-3.038-9.595-2.438-15.106 2.734-4.1 5.196-4.801 10-4z" fill="#020202"/><path d="M346 232c2.668 1.616 2.668 1.616 5 4 .524 3.053.524 3.053.376 6.651l-.063 1.988L351 251l-.2 4.182-.824 13.408-.322 4.923-.681 10.223-.854 13.048-.669 10.128-.313 4.812-.451 6.722-.256 3.847c-1.201 10.352-1.201 10.352-4.243 13.708-2.764 1.264-4.182 1.586-7.187 1-2.65-2.025-2.65-2.025-5-5-.342-2.936-.388-5.198-.156-8.094l.131-2.435.525-7.971.332-5.578.961-14.84.797-12.445 1.726-26.391.164-2.438.957-11.726.203-2.188c.36-1.894.36-1.894 2.047-4.456 3.079-1.914 4.741-2.021 8.313-1.437z" fill="#040304"/><path d="M398 232c2.375 1.5 2.375 1.5 4 4 .257 5.311-.206 10.047-1.238 15.28l-.399 2.059-1.32 6.666-.92 4.701-2.438 12.347-2.445 12.427-4.029 20.41-2.008 10.359-.394 2.07-1.051 5.606c-1.083 4.397-2.084 6.404-5.758 9.077-3.567.061-5.825-.086-8.685-2.311-2.659-3.415-1.735-7.584-1.315-11.689.877-5.111 1.949-10.164 3.077-15.225l2.755-12.67.559-2.581 4.921-24.4.742-3.848 2.875-15.574.401-2.278.931-5.527c.792-3.108 1.881-5.293 3.738-7.898 2.841-1.42 4.855-1.315 8-1z" fill="#020202"/><path d="M291.938 231.438c3.168.582 4.784 1.355 6.986 3.707 2.473 4.259 2.037 9.56 2.202 14.355l.298 5.955.211 4.344c.29 6.159.704 12.305 1.147 18.455l.421 5.914.63 8.725c.746 10.232 1.342 20.47 1.565 30.729l.111 2.677c.066 6.065.066 6.065-2.843 9.284C300 337 300 337 296.938 337.063c-3.777-1.366-4.796-2.671-6.937-6.062-.688-2.86-.835-5.696-.977-8.629l-.168-2.576-.48-8.357-.357-5.806-.857-14.786-.638-10.665-.711-11.868-.13-2.173L285 252l-.098-2.192-.203-6.578-.118-3.913C285 236 285 236 286.835 233.583 289 232 289 232 291.938 231.438zM243 232c3.383 2.098 4.783 3.374 6.103 7.173l.663 3.718.375 2.01 1.109 6.349.773 4.223L254 267l.448 2.664c.536 3.555.727 5.008-1.01 8.273-2.987 2.528-4.517 3.223-8.437 3.063-4.227-3.448-5.724-6.131-6.766-11.437l-.758-3.711-.727-3.852-.773-3.852L234 248l-.558-2.68c-.839-4.399-1.373-7.925 1.183-11.758 3.11-2.046 4.712-2.161 8.375-1.562z" fill="#030303"/><path d="M15 111h53v13H15v-13z" fill="#908190"/><path d="M402.75 467.688c3.316 2.359 4.797 3.551 6.25 7.313.721 6.382-.156 9.841-4 15-4.317 2.974-7.811 3.649-13 3-3.92-2.111-6.659-4.219-9-8-.786-4.337-1.013-8.962.984-12.98 4.999-6.249 11.473-8.14 18.766-4.332zm-127 0c3.316 2.359 4.797 3.551 6.25 7.313.529 5.553.309 9.303-3 14-3.333 2.773-6.271 3.898-10.562 4.5-4.842-.704-7.809-2.709-11.078-6.305-2.521-4.071-2.08-8.586-1.359-13.195 1.618-3.256 3.948-5.228 6.875-7.375 4.658-1.37 8.59-1.175 12.875 1.063z" fill="#786e78"/><path d="M257 300c3.796 2.986 4.707 5.583 5.625 10.25l.715 3.492L264 317l1.188 4.375c.852 3.801 1.324 6.755.813 10.625-2.062 3-2.062 3-5 5-3.593.062-5.895.047-8.574-2.492-2.108-3.708-2.786-7.538-3.613-11.695l-.537-2.463c-2.855-13.858-2.855-13.858.35-18.912 3.1-1.877 4.808-2.032 8.375-1.437z" fill="#040304"/><path d="M229 390h15c-2.686 8.67-6.384 16.778-10.148 25.025l-1.453 3.236-1.323 2.905c-1.12 2.95-1.662 5.712-2.076 8.833h-10c.536-5.354 1.934-9.775 4.16-14.684l.937-2.122 2.965-6.632 2.01-4.529L234 391h-5v-1z" fill="#fab7b0"/><path d="M415 438h23v13h-23v-13z" fill="#fdb8b1"/><path d="M392.016 467.211c1.984.789 1.984.789 3.031 2.391 2.482 7.142 2.482 12.655 0 19.797C394 491 394 491 392.09 491.871c-2.09.129-2.09.129-5.277-2.184-3.646-3.484-4.013-5.035-4.187-9.937.021-3.916.22-6.325 2.75-9.375 3.823-3.459 3.823-3.459 6.641-3.164zm-127 0c1.984.789 1.984.789 3.031 2.391 2.731 7.858 2.438 13.167-1.172 20.676L266 492c-3.606-.206-5.014-1.012-7.812-3.375-2.836-3.727-2.886-7.432-2.687-11.992.783-4.123 2.415-5.842 5.5-8.633 2-1 2-1 4.016-.789z" fill="#8e7f8e"/><path d="M48 111h20v13H48v-13z" fill="#7a707a"/></svg>