<svg xmlns="http://www.w3.org/2000/svg" width="512" height="512" xmlns:v="https://vecta.io/nano"><path d="M255.625-.312l3.085.007C273.319-.256 287.651-.005 302 3l2.954.602C353.336 13.723 397.324 35.639 433 70l1.998 1.916C444.486 81.06 453.226 90.357 461 101l2.574 3.453c6.038 8.191 11.397 16.705 16.426 25.547l1.104 1.915c21.606 37.748 31.372 80.515 31.208 123.71l-.007 3.085c-.05 14.609-.301 28.941-3.306 43.29l-.602 2.954C498.277 353.336 476.361 397.324 442 433l-1.916 1.998C430.94 444.486 421.643 453.226 411 461l-3.453 2.574c-8.19 6.038-16.692 11.42-25.547 16.426l-2.143 1.219c-23.135 13.025-48.307 21.774-74.294 27.094l-2.178.447c-14.676 2.789-29.201 3.59-44.111 3.557-2.94-.003-5.878.02-8.818.046-13.373.045-26.269-1.161-39.455-3.361l-3.446-.57C164.287 500.658 123.237 480.671 90 452l-2.258-1.922C74.237 438.267 61.566 425.516 51 411l-2.57-3.449C42.39 399.361 37.006 390.856 32 382l-1.219-2.143C17.756 356.722 9.007 331.55 3.688 305.563l-.447-2.178c-2.974-15.646-3.614-31.12-3.553-47.009l.007-3.085C-.256 238.681-.005 224.349 3 210l.602-2.954C13.723 158.664 35.639 114.676 70 79l1.916-1.998C81.06 67.514 90.357 58.774 101 51l3.453-2.574C112.643 42.388 121.145 37.005 130 32l2.143-1.219c23.135-13.025 48.307-21.774 74.294-27.094l2.178-.447c15.646-2.974 31.12-3.614 47.009-3.553z" fill="#e04f5f"/><path d="M164 103.839l2.172-.015 7.226-.033 5.174-.03 17.017-.07 2.927-.01 27.342-.074 34.934-.133 24.581-.079 14.669-.06 13.821-.032 5.05-.032c12.459-.151 21.956 1.91 31.523 10.479 5.796 6.267 9.664 14.088 9.724 22.652l.029 3.348.013 3.617.017 3.718.02 7.792.072 11.923.016 7.566.037 3.605-.009 3.367.011 2.954c-.539 3.97-2.355 6.578-4.992 9.52-3.733 1.866-7.291 1.844-11.375 1.188-4.126-2.37-5.53-4.572-7-9-.265-2.504-.265-2.504-.287-5.17l-.041-3.044-.016-3.255-.044-3.373-.144-14.266-.125-10.423-.016-3.255-.041-3.044-.022-2.666c-.313-2.954-.748-4.931-2.265-7.504-4.093-1.705-7.589-2.248-11.999-2.241l-3.569-.008-3.873.022c-1.37.001-2.741 0-4.111-.001-3.708-.001-7.416.011-11.125.025l-11.639.016-22.025.043-25.081.043L189 128l10.689 6.167 3.627 2.092 22.352 12.884 9.363 5.41 11.063 6.328c12.871 7.314 22.73 14.019 27.467 28.876.583 2.975.562 5.802.559 8.834l.003 2.003-.009 6.638v4.76l-.013 12.922-.008 13.505-.021 25.573-.022 29.115L274 353l23.224-.262 7.9-.084 11.356-.142 3.567-.019 3.336-.06 2.927-.034c3.182-.472 5.085-1.54 7.689-3.399 1.978-2.89 2.247-5.216 2.24-8.673l.011-2.792-.013-2.996.049-6.305.018-9.921.058-9.587-.031-2.983c.064-4.53.166-7.742 3.082-11.351 3.809-3.525 6.214-3.784 11.257-3.751 3.918.605 5.632 2.528 8.328 5.359 1.21 2.421 1.153 4.013 1.193 6.718l.049 2.976.109 13.587.082 7.134.091 10.327.069 3.174c-.028 9.924-3.03 19.351-10.01 26.631-9.71 8.919-20.163 11.069-33.125 10.844l-3.787-.017-9.849-.099-10.097-.079L274 377l.048 1.769.14 8.106.076 2.781c.121 11.411-3.133 20.583-10.822 29.063-8.248 7.753-17.239 9.836-28.254 9.848-9.675-.873-18.116-5.956-26.25-10.879l-6.348-3.77-3.286-1.959L183 402.5l-6.492-3.75-13.203-7.562-6.43-3.687-2.961-1.67c-8.109-4.672-15.381-9.307-19.352-18.08l-1.434-3.078c-2.111-4.997-2.277-9.269-2.276-14.621l-.011-2.808-.019-9.355-.02-6.691-.036-18.212-.018-11.378-.039-31.518-.006-8.178-.001-2.053-.066-32.9-.054-33.799-.036-18.968-.017-17.855-.02-6.542.003-8.955-.033-2.594c.107-10.151 4.104-17.719 11.005-24.975 6.842-6.173 13.314-9.381 22.515-9.43z" fill="#fefefe"/><path d="M380 196c5.282 2.462 9.067 6.797 13.109 10.879l2.326 2.327 4.841 4.864 7.439 7.459 4.707 4.725 2.257 2.26 2.074 2.094 1.832 1.843c2.755 3.015 3.088 5.931 2.971 9.908-.697 3.314-1.911 4.625-4.231 7.078l-2.477 2.633L412 255l-1.567 1.616-10.428 10.564-5.495 5.535-3.529 3.535-1.642 1.663c-4.054 4.03-7.004 6.362-12.776 6.462-3.361-.077-4.509-.343-7.5-2.125-2.845-3.103-3.892-4.94-4.437-9.125.766-6.383 5.69-10.717 10.125-15l1.535-1.508L380 253l-3.294.002a5084 5084 0 0 1-30.765-.083l-15.816-.04c-5.09.007-10.18-.016-15.27-.058l-5.819-.002c-2.722.012-5.442-.013-8.165-.047l-2.417.037c-5.389-.12-8.187-1.584-12.139-5.232-2.066-2.476-2.334-4.727-2.692-7.891.503-4.942 1.855-6.248 5.375-9.687 3.803-2.668 7.981-2.267 12.44-2.227l2.573-.001 8.408.033 5.835.009 15.348.049 15.665.04L380 228l-3.364-3.846-1.892-2.163-3.924-4.451-1.695-1.914-1.742-1.961c-2.663-3.205-2.705-5.554-2.383-9.664 3.031-6.859 7.712-8.781 15-8z" fill="#fefbfb"/></svg>