<svg xmlns="http://www.w3.org/2000/svg" width="512" height="512" xmlns:v="https://vecta.io/nano"><g fill="#fdd1a3"><path d="M332 27l2.793 2.297C356.71 48.216 371.675 77.12 374 106c1.51 31.72-5.477 60.451-25 86l2.309.848c12.488 4.849 21.347 11.579 27.004 23.902 4.115 9.653 4.438 22.416 1.063 32.375C374.101 261.162 364.971 269.068 353 274l3.953.078c14.092.402 26.59 1.404 37.047 11.922 7.334 8.635 10.452 17.118 10.432 28.375l.031 2.694.048 8.716.054 6.082.103 15.935.121 16.29L405 396l2.452-2.479 22.95-23.13 11.797-11.891 11.399-11.476 4.334-4.378 6.102-6.133 1.783-1.827c6.214-6.154 12.614-9.303 21.383-9.776 7.717.248 13.588 2.77 19.105 8.164 5.815 6.605 6.352 12.623 6.066 21.375-1.646 15.746-20.878 29.237-31.398 39.781l-2.612 2.62-13.67 13.699-14.044 14.102-10.874 10.9-5.175 5.199-7.262 7.27-2.115 2.143c-6.32 6.268-13.365 12.411-21.981 15.142l-3.093 1.008-3.276 1.008-3.529 1.13-9.411 2.951-5.767 1.8-26.003 8.032-10.726 3.283-12.764 3.907-23.476 7.248-7.306 2.268-4.314 1.352c-24.721 7.796-48.676 5.633-74.195 3.924l-11.496-.747-34.083-2.228-33.415-2.174-2.322-.149C114.387 496.399 90.732 495.19 67 495l.044 2.082.034 2.73.044 2.707c-.16 3.252-.984 5.037-3.122 7.48-3.141 1.953-5.571 2.256-9.24 2.275l-3.166.029-3.403-.003-3.512.013-7.351.002a1478.17 1478.17 0 0 0-11.245.046l-7.143.002-3.397.028-3.175-.019-2.783.002C6.426 511.917 4.572 510.87 2 509c-2.364-3.546-2.257-5.045-2.274-9.249l-.03-3.968-.002-4.364-.025-4.588-.036-12.471-.017-7.79-.041-27.172-.075-25.335-.051-21.745-.038-12.99-.012-12.218-.021-4.483.008-6.123-.006-3.46C.196 349.041 1.871 347.537 5 345c2.694-.628 2.694-.628 5.629-.631l3.347-.038 3.586.04 3.709-.007 7.757.039 11.87.001 7.539.029 3.586-.015c8.194.117 8.194.117 12.199 2.492 2.755 3.239 2.893 5.038 2.84 9.215l-.027 2.758L67 361l16.125-.317 5.488-.104 7.878-.164 2.488-.035c4.483.064 4.483.064 8.02-2.379.303-2.267.303-2.267.255-4.918l.021-3.107-.003-3.377.063-7.076.045-11.157.08-10.766-.015-3.322c.144-11.447 3.425-21.038 11.554-29.276 11.848-10.235 24.032-10.554 39-11l-2.09-.996C144.005 266.978 137.023 259.397 132 247c-3.412-11.85-1.479-24.798 4.32-35.418 6.405-10.447 15.222-15.763 26.68-19.582l-1.906-2.684c-18.933-27.175-27.682-59.084-21.969-92.191 5.936-30.286 22.674-58.224 48.175-75.984C231.775-8.697 290.533-7.487 332 27zM214 241l-.594 2.238C209.756 255.621 203.404 264.687 192 271c-2.655 1.198-5.215 2.123-8 3v1l1.984.06 9.016.315 3.121.094c4.573.175 8.795.373 13.191 1.695 4.407.999 6.409.165 10.688-1.164 3.973-.392 7.948-.506 11.938-.625l3.229-.117L245 275c-2.547-1.698-4.858-2.869-7.625-4.125C226.077 265.169 220.621 257.512 216 246c-.687-2.926-.687-2.926-1-5h-1zm83 0l-.445 1.836C293.639 253.729 288.456 262.567 279 269c-3.915 1.936-7.882 3.551-12 5v1l1.984.06 9.016.315 3.121.094c4.573.175 8.795.373 13.191 1.695 4.407.999 6.409.165 10.688-1.164 3.973-.392 7.948-.506 11.938-.625l3.229-.117L328 275c-2.571-1.714-4.964-2.952-7.75-4.25-9.889-4.966-16.4-12.188-20.355-22.684-.709-2.345-1.351-4.678-1.895-7.066h-1z"/><path d="M202 336l1.96.813c10.792 4.543 19.465 11.002 28.257 18.667L234 357l2.096 2.064c3.731 2.487 6.815 2.49 11.147 2.434l2.476.017 5.307.001 8.413.016 14.841.031 23.72.056 8.262-.009 5.106.021 2.298-.023c7.361.069 14.004 2.063 19.334 7.392 5.918 8.131 6.831 14.96 6 25-1.712 6.65-6.463 11.185-12 15l-5 2 49 1c-12.202 20.337-32.941 39.108-52 53l-6.187 4.938c-17.774 13.745-38.437 25.888-59.68 33.293-2.087.582-2.087.582-3.133 1.77-2.083-.011-4.165-.099-6.245-.215l-2.023-.109-6.834-.391-4.942-.278-43.48-2.699-3.527-.228-32.616-2.124C125.224 497.035 96.175 495.403 67 495l.044 2.082.034 2.73.044 2.707c-.16 3.252-.984 5.037-3.122 7.48-3.141 1.953-5.571 2.256-9.24 2.275l-3.166.029-3.403-.003-3.512.013-7.351.002a1478.17 1478.17 0 0 0-11.245.046l-7.143.002-3.397.028-3.175-.019-2.783.002C6.426 511.917 4.572 510.87 2 509c-2.364-3.546-2.257-5.045-2.274-9.249l-.03-3.968-.002-4.364-.025-4.588-.036-12.471-.017-7.79-.041-27.172-.075-25.335-.051-21.745-.038-12.99-.012-12.218-.021-4.483.008-6.123-.006-3.46C.196 349.041 1.871 347.537 5 345c2.694-.628 2.694-.628 5.629-.631l3.347-.038 3.586.04 3.709-.007 7.757.039 11.87.001 7.539.029 3.586-.015c8.194.117 8.194.117 12.199 2.492 2.755 3.239 2.893 5.038 2.84 9.215l-.027 2.758L67 361c26.533 2.095 26.533 2.095 49.533-8.279a103.04 103.04 0 0 0 3.101-3.259C139.067 328.654 177.055 325.074 202 336z"/></g><path d="M332 27l2.793 2.297C356.71 48.216 371.675 77.12 374 106c1.285 26.987-3.251 50.693-16.957 74.152-.936 1.658-1.765 3.376-2.579 5.098-1.594 2.993-2.708 4.761-5.465 6.75-4.317.767-8.395.885-12.766.887-10.156.061-19.055 5.402-26.395 12.078-5.489 5.674-8.109 11.72-10.84 19.035l-2 4-.629-2.492C293.075 213.565 287.784 204.533 277 198c-2.648-1.195-5.282-2.238-8.031-3.176C267 194 267 194 266 192l2.813-1.187c5.728-3.257 6.747-8.29 8.438-14.312l1.5-5.547.75-2.656.656-2.427L281 164c4.054-1.351 7.074-.123 11.063.938 9.421 2.679 9.421 2.679 18.938 2.063 4.372-3.63 7.055-7.935 9.813-12.812l1.232-2.041c2.827-4.966 3.718-8.434 2.955-14.146-1.606-2.989-1.606-2.989-4-5.5l-2.465-2.801c-3.431-3.653-6.903-7.245-10.535-10.699 1.414-3.252 3.109-5.272 5.688-7.687 2.889-2.847 5.688-5.718 8.313-8.812l1.75-2.031c1.804-3.562 1.991-6.62 1.25-10.469-1.431-3.497-3.284-6.654-5.25-9.875l-1.488-2.586c-3.068-5.422-3.068-5.422-8.262-8.539-6.583-.447-11.991.843-18.264 2.666-4.03 1.105-6.705 1.309-10.736.334l-.671-2.156-3.079-9.657-1.055-3.393-1.055-3.252-.952-2.999c-1.374-2.942-2.327-4.03-5.188-5.544-4.288-.652-8.605-.509-12.937-.5l-3.576-.086c-6.698-.077-6.698-.077-12.635 2.656-2.095 3.315-3.447 6.567-4.539 10.305l-.604 1.922C233.398 63.509 232.201 67.755 231 72c-3.038.955-5.004.995-8.082.223l-2.326-.557-2.404-.604c-9.545-2.757-9.545-2.757-18.793-.582-3.157 3.321-5.405 6.886-7.707 10.832l-1.377 2.225c-2.719 4.608-4.204 7.98-3.311 13.463 2.721 5.133 6.774 9.189 10.75 13.375l1.824 1.941L204 117c-1.321 2.904-2.77 5.043-4.969 7.348l-1.73 1.834-1.801 1.881-3.531 3.723-1.58 1.653c-2.694 3.031-3.955 5.318-3.834 9.414 1.664 8.03 8.598 19.584 15.445 24.148 6.579.454 11.996-.844 18.264-2.666 4.03-1.105 6.705-1.309 10.736-.334l.563 1.94 2.624 8.747.885 3.053c2.289 7.457 4.397 10.906 10.928 15.26l-2.852 1.355-3.773 1.832-1.871.885c-9.447 4.624-15.625 11.697-19.543 21.537-.484 1.495-.94 3-1.355 4.516C216 225 216 225 214 228l-.629-2.238c-3.35-11.03-8.04-20.896-18.371-26.762-7.164-3.652-12.466-6.316-20.533-5.372-5.444.481-9.096.506-13.424-3.073-2.858-3.559-4.967-7.506-7.043-11.555l-1.206-2.254c-15.599-29.43-19.482-62.431-9.895-94.465 9.349-29.384 29.479-53.853 56.566-68.469C242.625-8.316 294.41-4.263 332 27z" fill="#f6e265"/><path d="M170.703 191.777c10.404-.531 20.069 2.846 28.297 9.223l2.434 1.813c7.594 6.473 11.937 16.499 13.566 26.188.822 13.002-2.281 23.657-10.715 33.668-4.989 5.091-10.603 8.863-17.285 11.332l1.709.06 7.791.315 2.688.094c4.196.185 7.999.483 12.031 1.695 4.438.981 6.469.084 10.781-1.164 3.369-.261 3.369-.261 6.91-.275l1.974-.015 6.393-.011 4.486-.013 9.378-.002 11.966-.034 9.258-.012 4.41-.016c7.618-.046 14.256-.012 21.225 3.378l2.723 1.324c9.924 5.782 15.369 12.872 19.277 23.676.85 3.568 1.122 6.861 1.114 10.525v3.275l-.016 3.501-.004 3.611-.031 11.401-.014 7.736L321 362l-31.401.57-14.584.26-14.103.214-5.352.119c-9.512.306-16.533.141-23.866-6.433l-2.909-2.897c-12.092-12.298-31.478-21.576-48.801-22.231a312.39 312.39 0 0 0-6.234.023l-3.328.035c-22.164.444-38.674 8.206-55.655 22.025-2.162 1.61-4.44 2.957-6.767 4.315l-.22-22.04-.082-7.486-.089-10.806-.063-3.341c-.003-11.489 3.302-21.066 11.453-29.327 11.848-10.235 24.032-10.554 39-11l-2.09-.996C144.005 266.978 137.023 259.397 132 247c-3.412-11.85-1.479-24.798 4.32-35.418 5.979-9.753 14.587-16.253 25.738-19.109 2.87-.436 5.753-.457 8.645-.695z" fill="#fdd1a3"/><path d="M249 43.469l3.438-.016L256 43.5l3.563-.047 3.438.016 3.125.014c3.628.653 5.272 1.944 7.875 4.518 1.087 1.904 1.087 1.904 1.73 3.863l.744 2.189.713 2.26.748 2.225C279.417 62.99 280.74 67.48 282 72c4.587-.533 8.951-1.457 13.438-2.562 11.486-2.677 11.486-2.677 16.918-.488 3.947 3.061 6.003 6.942 8.457 11.238l1.521 2.502c3.118 5.384 4.625 9.083 3.666 15.311-1.687 2.906-1.687 2.906-4 5.5l-2.465 2.801c-3.431 3.653-6.903 7.245-10.535 10.699 1.327 2.977 2.74 4.918 5.125 7.125 2.891 2.842 5.66 5.746 8.313 8.813l2.059 2.34c2.03 3.676 2.326 6.681 1.504 10.723-1.436 3.475-3.287 6.612-5.25 9.813l-1.488 2.561c-2.391 4.013-4.285 7.037-8.262 9.627-9.123 2.071-20.113-1.956-29-4l-.579 1.94-2.671 8.747-.91 3.053c-2.92 9.413-2.92 9.413-6.84 13.26-4.323 2.162-10.064 1.274-14.812 1.313l-3.604.088-3.479.025-3.183.044c-3.652-.587-5.289-1.926-7.923-4.47-1.223-2.34-1.223-2.34-2.062-4.937l-.957-2.891L234 177l-1.137-3.609L230 164c-4.587.533-8.951 1.457-13.437 2.563-9.387 2.164-9.387 2.164-14.562 1.438-5.007-3.521-7.818-7.348-10.812-12.625l-1.193-2.023c-3.079-5.281-4.972-9.193-3.994-15.352 2.669-3.654 5.833-6.779 9-10l4.563-5.125 2.004-2.258L203 119c-1.318-2.902-2.758-5.023-4.969-7.312l-1.73-1.82L194.5 108l-3.531-3.687-1.58-1.637c-2.389-2.882-3.323-5.168-3.803-8.887.543-4.973 2.446-8.209 5.039-12.414l1.293-2.234C194.726 74.463 197.367 70.952 202 68c5.593-.742 10.833.686 16.25 2l4.766 1.125 2.103.508c2.053.463 2.053.463 4.882.367l.655-2.14 3.032-9.61 1.029-3.367 1.045-3.242.936-2.983c2.72-5.55 6.31-7.162 12.302-7.188z" fill="#62a4fa"/><path d="M503 330c4.915 4.602 8.61 9.773 9.434 16.586.022 21.51-17.158 33.31-31.461 47.645l-2.612 2.62-13.67 13.699-14.044 14.102-10.874 10.9-5.175 5.199-7.262 7.27-2.115 2.143c-6.32 6.268-13.365 12.411-21.981 15.142l-3.093 1.008-3.276 1.008-3.529 1.13-9.411 2.951-5.767 1.8-26.003 8.032-10.726 3.283-12.764 3.907-23.476 7.248-7.306 2.268-4.314 1.352c-10.877 3.43-21.369 6.046-32.825 5.834l-3.891-.055L254 505c1.609-3.217 5.037-3.712 8.25-4.937 23.386-9.34 44.807-22.765 64.195-38.784l4.523-3.63c7.522-6.107 14.415-12.822 21.281-19.648l2.797-2.769c6.669-6.699 13.225-13.653 18.493-21.536L375 412c3.371-.187 3.371-.187 5.344-.096 5.339.245 9.864.144 14.133-3.345 2.541-2.428 4.841-5.036 7.057-7.761 6.88-8.434 14.545-16.074 22.212-23.782l1.99-2.002 10.415-10.459 10.695-10.78 8.285-8.323 3.941-3.976 5.532-5.549 1.608-1.647c9.903-9.769 24.948-12.901 36.789-4.28z" fill="#febd86"/><path d="M10.629 344.369l3.347-.038 3.586.04 3.709-.007 7.757.039 11.87.001 7.539.029 3.586-.015c8.194.117 8.194.117 12.199 2.492 2.971 3.493 2.906 5.612 2.918 10.143l.017 3.913.003 4.318.015 4.528.024 12.323.012 7.696.027 24.07.051 27.8.033 21.478.025 12.832.01 12.073.013 4.43-.004 6.051.004 3.42c-.419 3.397-1.365 5.27-3.372 8.015-3.03 2.11-5.601 2.256-9.24 2.275l-3.166.029-3.403-.003-3.512.013-7.351.002a1478.17 1478.17 0 0 0-11.245.046l-7.143.002-3.397.028-3.175-.019-2.783.002C6.426 511.917 4.572 510.87 2 509c-2.364-3.546-2.257-5.045-2.274-9.249l-.03-3.968-.002-4.364-.025-4.588-.036-12.471-.017-7.79-.041-27.172-.075-25.335-.051-21.745-.038-12.99-.012-12.218-.021-4.483.008-6.123-.006-3.46c1.249-6.121 5.271-8.668 11.25-8.674z" fill="#62a4fa"/><path d="M311.846 274.709l1.955-.02 6.336-.025 4.457-.02 9.327-.014 11.857-.062 9.207-.025 4.366-.027c12.143-.118 23.07 1.331 32.613 9.437 8.716 8.767 12.44 18.278 12.582 30.491l.065 2.719.139 8.821.041 3.068.15 16.073.283 16.504.127 12.782.116 6.08c.492 17.261.492 17.261-5.392 24.553-4.98 5.19-9.515 7.693-16.792 8.431-2.818.05-5.612-.071-8.427-.206l-4.518-.056c-3.92-.049-7.834-.176-11.752-.321l-12.048-.258L323 412c2.341-1.561 4.279-2.583 6.813-3.687 5.262-2.597 8.751-6.391 11.332-11.641 2.007-6.269 1.76-13.932-.332-20.172-3.01-5.813-7.198-9.243-12.812-12.5l-7-2-.018-1.983-.245-20.539-.084-7.652-.142-11.037-.019-3.423c-.214-11.684-3.055-22.48-11.227-31.222-3.447-3.088-7.008-5.275-11.266-7.145v-2c4.768-1.524 8.796-2.257 13.846-2.291z" fill="#e175a4"/><path d="M228.569 274.839l1.973-.015 6.442-.027 4.499-.017 9.432-.02 12.037-.058 9.296-.025 4.435-.024c7.649-.063 14.321-.067 21.317 3.348l2.723 1.324c9.924 5.782 15.369 12.872 19.277 23.676.85 3.568 1.122 6.861 1.114 10.525v3.275l-.016 3.501-.004 3.611-.031 11.401-.014 7.736L321 362l-31.401.57-14.584.26-14.103.214-5.352.119c-9.512.306-16.533.141-23.866-6.433l-2.909-2.897C219.825 344.72 208.68 339.664 197 335l-5-2-.187-13.437-.076-3.818c-.089-11.342 1.861-19.941 9.264-28.744 8.071-7.578 16.47-12.097 27.569-12.161z" fill="#62a3fa"/><path d="M154.605 274.637l4.481-.002 9.337.029 11.922.016 9.232.013 4.395.003 6.15.028 3.522.014c3.739.29 6.794 1.12 10.356 2.261v2c-1.574 1.148-1.574 1.148-3.687 2.375l-2.223 1.355L206 284c-6.398 4.113-10.675 11.416-12.614 18.718-.933 5.509-.876 11.146-1.011 16.719l-.117 3.951L192 333l-2.655-.487c-22.728-3.483-45.947.11-64.802 13.573a268.11 268.11 0 0 0-9.776 7.599c-2.162 1.61-4.44 2.957-6.767 4.315l-.22-22.04-.082-7.486-.089-10.806-.063-3.341c-.003-11.489 3.302-21.066 11.453-29.327 10.851-9.374 21.726-10.46 35.605-10.363z" fill="#e175a4"/><path d="M67 361h37v134H67V361z" fill="#d2effc"/><path d="M327 24c22.038 12.441 36.217 38.715 43.25 62.063 8.308 31.397 4.08 64.004-12.059 92.125l-1.148 1.965c-.936 1.658-1.765 3.376-2.579 5.098-1.594 2.993-2.708 4.761-5.465 6.75-4.317.767-8.395.885-12.766.887-10.156.061-19.055 5.402-26.395 12.078-5.489 5.674-8.109 11.72-10.84 19.035l-2 4-.629-2.492c-2.217-8.035-5.166-14.024-10.371-20.508l-2.219-2.781L282 200l2.605-1.398c27.869-15.248 47.974-37.965 58.27-68.227l.868-2.527c8.962-27.722 6.026-59.988-6.798-85.987-2.581-4.896-5.299-9.722-8.679-14.115C327 26 327 26 327 24z" fill="#f3d333"/><path d="M312.387 68.941c3.91 3.08 5.979 6.963 8.426 11.246l1.521 2.502c3.118 5.384 4.625 9.083 3.666 15.311-1.687 2.906-1.687 2.906-4 5.5l-2.465 2.801c-3.431 3.653-6.903 7.245-10.535 10.699 1.327 2.977 2.74 4.918 5.125 7.125 2.891 2.842 5.66 5.746 8.313 8.813l2.059 2.34c2.03 3.676 2.326 6.681 1.504 10.723-1.436 3.475-3.287 6.612-5.25 9.813l-1.488 2.561c-2.391 4.013-4.285 7.037-8.262 9.627-9.123 2.071-20.113-1.956-29-4l-.579 1.94-2.671 8.747-.91 3.053c-2.92 9.413-2.92 9.413-6.84 13.26-4.323 2.162-10.064 1.274-14.812 1.313l-3.604.088-3.479.025-3.183.044c-3.657-.588-5.29-1.915-7.923-4.47-1.293-2.586-1.293-2.586-2.187-5.375l-.965-2.934L234 177l-1.25-3.437C232 171 232 171 232 167l2.719-.594c20.353-4.878 38.198-15.05 49.431-33.269C295.793 113.364 296.857 93 292 71c6.476-2.642 13.605-4.733 20.387-2.059z" fill="#5492f8"/><path d="M44 345c17 0 17 0 22 4 1.377 2.755 1.132 4.969 1.14 8.053l.017 3.913.003 4.318.015 4.528.024 12.323.012 7.696.027 24.07.051 27.8.033 21.478.025 12.832.01 12.073.013 4.43-.004 6.051.004 3.42c-.425 3.448-1.247 5.28-3.372 8.015-4 2-4 2-20 2V345z" fill="#5392f8"/><path d="M312.027 274.805l3.896.02 4.014.051 4.096.027L334 275l3.75 7 1.055 1.906c7.853 15.123 7.745 30.812 7.586 47.406l-.017 6.927-.099 18.07-.079 18.503L346 411h-19c2.655-2.124 5.322-4.237 8.063-6.25 4.497-3.858 6.628-7.972 7.285-13.875.213-8.005-.357-14.319-5.66-20.625-5.08-4.253-9.284-6.532-15.687-8.25l-.018-1.983-.245-20.539-.084-7.652-.142-11.037-.019-3.423c-.214-11.684-3.055-22.48-11.227-31.222-3.447-3.088-7.008-5.275-11.266-7.145v-2c4.852-1.566 8.878-2.241 14.027-2.195z" fill="#de5891"/><path d="M262 275l13.5-.187 3.844-.076c11.995-.094 21.526 2.963 30.672 11.045 8.596 9.119 10.733 18.753 10.473 30.98l-.021 3.854-.124 10.026-.099 10.278L320 361h-27l-.078-12.117-.106-9.641-.087-10.135-.12-11.662-.004-3.622c-.197-11.392-3.431-20.68-11.606-28.824-5.787-4.388-12.03-7.081-19-9v-1z" fill="#5392f8"/><path d="M359 197c7.249 2.039 12.429 7.674 16.313 13.875.927 1.692 1.825 3.4 2.688 5.125l1.035 2.008c3.83 9.086 3.421 21.887.34 31.117-5.249 11.979-14.418 20.201-26.48 24.965-11.231 3.531-23.303 2.696-33.855-2.566-7.33-4.398-13.401-9.673-17.039-17.523 2.678.473 5.095 1.036 7.641 2.012 9.974 2.934 21.547 2.042 30.816-2.535C351.898 246.834 358.135 238.674 362 226l1-3c.691-7.971-.013-14.475-3.125-21.855C359 199 359 199 359 197zm-83 0c10.846 6.58 17.593 14.485 21.313 26.813 2.617 12.455.335 24.109-6.465 34.734-6.86 9.108-15.706 14.837-26.918 17.063-12.781 1.704-24.499-.885-34.93-8.609-4.538-3.801-7.702-7.459-10-13l4.25.938 2.391.527a71.18 71.18 0 0 1 4.242 1.086c11.353 2.409 21.995.069 31.805-5.676 8.838-5.971 14.759-14.478 17.313-24.875 1.11-9.739.932-19.895-3-29z" fill="#febd87"/><path d="M193 198c9.119 2.95 13.706 9.837 18 18 4.949 11.014 5.445 22.929 1.438 34.375-5.028 10.722-13.63 19.055-24.625 23.5-11.677 3.446-23.383 3.03-34.52-2.129-7.446-4.198-14.424-9.47-17.293-17.746a94.28 94.28 0 0 1 7.25 2.063c11.675 2.826 23.149 1.565 33.75-4.062 2.208-1.545 4.037-3.143 6-5h2l.816-1.742c1.206-2.3 2.598-4.282 4.121-6.383 6.36-9.564 7.522-20.118 5.641-31.406-.454-1.842-1.008-3.659-1.578-5.469l-1-4zm37.606 198.88l2.941-.004 3.237.011h3.4l11.168.016 7.726.004 18.285.021 20.815.022L341 397c-1.407 3.738-2.595 5.982-5.625 8.625l-1.914 1.727c-6.349 4.253-12.245 5.079-19.672 4.938l-2.679-.013-5.719-.049-9.07-.042-25.775-.126-15.803-.048-5.998-.056c-10.931-.548-10.931-.548-20.872 3.089-2.412 2.376-2.412 2.376-4.205 4.949C222 422 222 422 219.822 422.702c-2.884.063-5.239-.411-7.822-1.702-1.638-3.276-1.71-6.477-1-10 1.753-2.732 3.969-4.778 6.375-6.937l1.828-1.744c3.879-3.659 5.933-5.445 11.403-5.439z" fill="#febd86"/><path d="M192.625 274.813l3.855-.037c6.201-.01 11.689.01 17.52 2.225v2c-1.574 1.148-1.574 1.148-3.687 2.375l-2.223 1.355L206 284c-6.398 4.113-10.675 11.416-12.614 18.718-.933 5.509-.876 11.146-1.011 16.719l-.117 3.951L192 333l-2.168-.402C182.233 331.251 174.7 330.472 167 330l-.22-11.676-.132-5.873c-.116-11.389 1.977-21.471 8.039-31.201l1.824-2.984c3.539-5.387 10.141-3.45 16.113-3.453z" fill="#dc5892"/><path d="M262 102c5.5 2.4 8.61 6.6 11 12 .941 5.854-.773 10.192-4 15-4.038 3.935-7.75 5.703-13.312 6.438-4.854-.576-7.961-2.327-11.687-5.437-4.096-5.252-5.657-9.323-5-16 4.557-10.529 11.919-13.463 23-12z" fill="#f3e168"/><path d="M38 404c2.105 1.615 2.892 2.511 3.469 5.121.084 6.213.084 6.213-2.594 9.441-3.361 1.681-5.17 2.068-8.875 1.438-3.269-2.651-4.789-4.644-5.437-8.812.438-3.187.438-3.187 3-6.125 3.583-2.641 6.192-2.344 10.438-1.062zm-5-34.562c3.843.72 5.458 1.572 8 4.563.796 5.015.778 6.844-2.062 11.063C36 387 36 387 32.438 387.125c-4.081-1.336-5.363-2.391-7.437-6.125-.562-3-.562-3 0-6 2.46-3.329 3.896-4.793 8-5.562z" fill="#f1e06a"/><path d="M207 209l5.875.375 3.305.211C219 210 219 210 221 212l-1.875 3.5c-2.066 4.103-3.164 8.017-4.125 12.5-1.702-3.285-3.144-6.646-4.562-10.062l-1.316-3.16c-.768-1.902-1.472-3.831-2.121-5.777z" fill="#f3d337"/></svg>