<svg xmlns="http://www.w3.org/2000/svg" xmlns:xlink="http://www.w3.org/1999/xlink" width="512" height="512" xmlns:v="https://vecta.io/nano"><path d="M66.125 54.25l3.409 1.891 6.992 3.912 10.111 5.557L92.813 69l2.889 1.56c6.897 3.85 11.871 7.6 14.298 15.44.276 2.976.253 5.935.227 8.921l.001 2.692-.033 8.782-.009 6.099-.049 16.034-.04 16.369L110 177l3.236-.053 4.295-.041 2.122-.038c6.764-.047 12.841 1.26 19.347 3.132l.848-2.359c1.444-3.309 3.199-4.623 6.152-6.641 3.356-1.119 5.953-1.159 9.491-1.205l1.982-.03 6.477-.081 4.494-.063 11.822-.153 12.065-.161L216 169l-.027-2.99-.18-27.939-.095-14.363-.078-13.869-.043-5.283-.031-7.417-.044-2.191c.042-5.193 1.052-9.074 4.498-12.948 5.556-4.303 11.292-4.547 18.081-4.403l2.96.012 6.328.058 10.043.055 28.543.165 17.495.064 6.635.064c13.863.238 21.702-.346 31.914-10.015 7.773-4.471 16.339-6.864 25-9l2.75-.691c30.479-6.335 62.259 2.442 88.039 18.829 3.589 2.409 6.917 5.069 10.211 7.863l1.6 1.351c25.411 21.702 39.533 52.472 42.4 85.649.382 6.745.391 13.497.375 20.25l-.003 2.807c-.048 15.315-.975 29.956-4.372 44.943l-.715 3.212C500.174 274.157 487.524 302.469 466 326l3.625.688c5.059 1.265 8.714 3.621 11.521 8.169.992 2.49 1.121 4.383 1.145 7.06l.039 2.954.007 3.176.02 3.288.014 6.889.079 10.494.012 6.703.044 3.151c-.036 5.71-.596 9.78-3.603 14.693-1.606 3.089-1.363 6.323-1.339 9.734-.233 8.257-2.131 12.74-8.062 18.375-4.338 2.819-7.849 3.878-13.02 3.82l-3.096-.02-3.197-.051-3.256-.027L439 425l.125 3.133c-.28 8.675-4.684 16.623-10.613 22.824-8.31 6.759-18.173 10.497-28.891 10.316-11.589-1.209-20.637-6.102-27.934-15.086-4.37-6.251-6.442-12.714-7.687-20.187l-167-1v7c-2.665 9.814-7.676 17.769-16.418 23.074-10.765 5.75-20.257 7.592-32.082 4.363-9.42-3.133-16.469-8.86-21.5-17.437-4-8.486-4-8.486-4-12l-2.163.487c-20.323 3.673-41.977-.356-60.591-8.726L58 421l-2.25 1.375c-3.939 2.327-7.28 2.292-11.75 1.625-4.421-1.375-7.123-3.627-9.437-7.625-1.494-3.303-1.558-5.44-1.125-9 .276-6.045-3.215-9.437-6.884-13.791C13.22 377.674 5.924 357.201 2 337l-.537-2.709C-.11 325.415-.34 316.703-.316 307.718l-.046-7.351C-.501 265.554 11.986 234.151 36 209l1.625-1.816C47.507 196.536 60.124 190.438 73 184v-64l-18.457-10.081c-16.02-8.767-16.02-8.767-18.961-12.923-1.489-5.105-1.375-10.345.918-15.121L38 80l-1.812-.75C32.642 77.224 31.273 74.82 30 71c-.49-5.565-.768-10.407 1.688-15.5 11.186-12.093 21.542-8.555 34.438-1.25z" fill="#2829bb"/><path d="M313.649 179.612l3.565-.03 3.915.014 4.12-.021 11.194-.011 9.342-.009 22.037-.001 22.741-.029 19.519-.023 11.66-.016 10.965.007 5.945-.024 3.573.03h3.106c3.466.65 4.625 1.649 6.67 4.501.501 2.67.501 2.67.501 5.776l.03 3.573-.029 3.909.016 4.125-.014 11.194-.004 11.711-.034 19.663-.017 22.743-.01 21.871-.001 9.312-.027 10.96.005 5.949-.03 3.565-.007 3.104C452 324 452 324 450.834 325.83c-2.591 1.653-4.507 1.545-7.573 1.545l-3.624.021-3.981-.023-4.189.011c-3.793.009-7.586 0-11.38-.013l-11.897-.005a6896.06 6896.06 0 0 1-19.976-.029l-23.116-.018c-7.405.006-14.81 0-22.215-.011l-9.465-.003a2329.84 2329.84 0 0 1-11.137-.022c-2.018-.006-4.036-.003-6.053.001l-3.616-.021-3.156-.006C307 327 307 327 305 325c-.254-2.455-.254-2.455-.261-5.611l-.021-3.616.008-3.988-.015-4.183-.011-11.38-.009-9.491-.005-22.386-.028-23.115-.02-19.827-.015-11.85.002-11.142-.02-6.049.021-3.624-.001-3.157C305 183 305 183 306.17 181.166c2.565-1.634 4.445-1.546 7.478-1.553z" fill="#fd7db8"/><path d="M155.656 180.746l3.646-.017 4.021.012 4.218-.011h11.473l11.989-.003 20.136.011 23.302-.004 19.982-.005 11.945-.003 11.228.01 4.129-.003 5.62.011 3.182.002C293 181 293 181 295 183c.254 2.44.254 2.44.261 5.573l.021 3.59-.008 3.959.015 4.154.011 11.299.009 9.424.005 22.228.028 22.951.02 19.687.015 11.766-.002 11.063.02 6.006-.021 3.599.001 3.135C295 324 295 324 293.835 325.832c-2.591 1.649-4.51 1.545-7.573 1.548l-3.624.026-3.981-.018-4.189.016c-3.793.014-7.586.008-11.38-.001-3.966-.008-7.931-.001-11.897.004-6.659.005-13.318-.002-19.976-.016-7.706-.016-15.411-.011-23.116.005l-19.829.008c-3.95-.005-7.901-.005-11.851.005-3.713.009-7.425.003-11.137-.015-2.018-.006-4.036.003-6.053.012l-3.616-.026-3.156-.003L150 327c-2.287-3.431-2.251-4.665-2.254-8.7l-.017-3.599.012-3.953-.011-4.159V295.29l-.003-11.813.011-19.835-.004-22.953L147.73 221l-.003-11.767.01-11.058-.008-6.01.017-3.59.002-3.133c.523-5.069 3.587-4.691 7.908-4.694z" fill="#02feb2"/><path d="M50 58c2.616 1.131 4.97 2.295 7.438 3.688l2.176 1.19L67 67l2.907 1.622C97.51 84.02 97.51 84.02 99 87c.096 2.847.13 5.669.12 8.517l.003 2.703-.009 9.019v6.444l-.013 17.54-.008 18.314-.021 34.7-.022 39.496L99 305l-3.121.157-4.094.233-2.052.1c-5.435.324-9.312 1.389-13.733 4.509l-3.187 2.188c-7.223 7.223-9.179 14.907-9.268 24.883.186 7.653 3.07 13.388 8.307 18.867 2.581 2.284 5.28 4.15 8.148 6.063.369 2.196.369 2.196.371 4.91l.053 3.002.016 6.219c.128 6.87 1.292 11.834 4.561 17.869l1.012 2.18c1.284 2.365 2.54 2.794 4.988 3.82l1.691 1.035c8.038 4.413 17.375 3.783 26.309 3.965l.445 1.836c2.148 8.022 5.984 14.308 10.555 21.164-22.088 7.889-48.85 3.161-69.754-6.238L58 421l-2.25 1.375c-3.939 2.327-7.28 2.292-11.75 1.625-4.421-1.375-7.123-3.627-9.437-7.625-1.494-3.303-1.558-5.44-1.125-9 .276-6.045-3.215-9.437-6.884-13.791C13.22 377.674 5.924 357.201 2 337l-.537-2.709C-.11 325.415-.34 316.703-.316 307.718l-.046-7.351C-.501 265.554 11.986 234.151 36 209l1.625-1.816C47.341 196.715 60.127 189.797 73 184h1l.025 3.859.263 35.935.134 18.476.136 17.818.045 6.811.078 9.511.007 2.868.034 2.609.017 2.274c.109 2.087.109 2.087 2.262 3.839 2.542.25 2.542.25 5 0 1.951-1.951 1.169-5.704 1.181-8.369l.022-2.366.054-7.909.044-5.646.248-51.583.215-38.149.124-26.8.095-16.017.054-15.072.05-5.532c.545-9.553.545-9.553-3.044-17.947C78.731 91.036 76.608 89.988 74 89l-3.297-1.887-3.023-1.586-3.371-1.787-6.891-3.617C41.965 71.93 41.965 71.93 40 68c-.389-3.582-.436-5.363 1.625-8.375C44.75 57.487 46.242 57.624 50 58z" fill="#f6d7ee"/><path d="M465.172 82.602L468 85l1.6 1.351c25.411 21.702 39.533 52.472 42.4 85.649.382 6.745.391 13.497.375 20.25l-.003 2.807c-.048 15.315-.975 29.956-4.372 44.943l-.715 3.212C501.071 270.255 490.619 296.351 473 318l-2.203 2.738c-3.927 4.676-3.927 4.676-5.797 6.262h-4l.011-2.245.196-54.109.095-26.167.075-22.81.047-12.075.03-11.374.024-4.166c.155-10.252.155-10.252-4.477-19.054-6.014-5.757-15.485-4.605-23.219-4.609l-4.405-.05-11.521-.079-11.785-.102L383 170l-.004-3.073-.128-28.691-.063-14.75-.078-14.239-.013-5.428-.054-7.612.026-2.258c-.126-5.756-1.687-8.095-5.686-11.95-2.832-1.883-5.031-2.259-8.401-2.319l-2.608-.06-2.788-.035-2.875-.059-9.078-.152-6.16-.117L330 79c1.287-3.862 3.582-5.179 6.813-7.375l1.778-1.21c37.786-24.983 92.692-14.793 126.581 12.186z" fill="#e6d4f3"/><path d="M123 337l132.082-.153 15.58-.012 3.133-.002 50.278-.064 51.559-.051 31.835-.041 21.807-.017 12.596-.017 11.519-.005 4.179-.012 5.658.006 3.182-.003c2.591.373 2.591.373 4.428 1.771 1.505 2.071 1.549 3.337 1.567 5.886l.038 2.61-.009 2.813.016 2.903-.003 6.085.052 9.283-.002 5.916.034 2.794c-.062 5.766-.824 8.851-4.53 13.311l-1.437 1.75c-4.497 3.598-9.359 3.503-14.875 3.375l-2.244-.027L444 395l-.883-3.184c-2.864-9.785-6.525-17.78-14.117-24.816l-2.125-2c-9.937-6.912-19.946-8.926-31.875-8-10.935 2.143-20.254 7.868-26.937 16.813-4.243 6.594-6.533 13.541-8.062 21.188l-137 1-2 4h-19l-.25-4.312c-1.214-11.492-6.132-21.759-14.812-29.535-10.181-7.318-21.48-10.649-33.937-9.152-10.944 2.175-20.238 7.846-26.937 16.813-4.201 6.529-6.669 13.578-8.062 21.188l-8.125.25-2.305.102c-5.37.093-8.297-.813-12.57-4.352-3.591-3.98-5.136-6.874-5.098-12.23l.01-2.432.025-2.525.014-2.561L90 365l2.309-.262c9.959-1.355 17.559-4.197 24.011-12.18 1.97-2.999 3.141-5.976 4.384-9.339l1.317-3.533L123 337z" fill="#cfdbfe"/><path d="M234.738 88.626l3.624-.021 3.981.023 4.189-.011 11.38.013 11.897.005 19.976.029 23.116.018 22.215.011 9.465.003 11.137.022 6.053-.001 3.616.021 3.156.006C371 89 371 89 373 91l.275 7.248.015 2.262.011 7.424.013 5.149.002 10.801.034 13.855.012 10.637.016 5.109-.006 7.139.023 2.14c-.051 4.743-.051 4.743-1.566 6.918-2.554 1.842-4.343 1.7-7.478 1.708l-3.565.03-3.915-.014-4.12.021-11.194.011c-3.114-.003-6.228.003-9.342.009l-22.037.001a4502.7 4502.7 0 0 0-22.741.029l-19.519.023c-3.887-.003-7.773-.001-11.66.016-3.655.015-7.31.012-10.965-.007a580.21 580.21 0 0 0-5.945.024l-3.573-.03h-3.106c-3.4-.637-4.585-1.785-6.67-4.501-.501-3.308-.501-3.308-.502-7.291l-.016-2.204.022-7.196-.004-5.006.034-10.483.013-13.444.013-10.333.001-4.958.035-6.923.016-3.981C226 92 226 92 227.166 90.325c2.579-1.862 4.407-1.699 7.573-1.699z" fill="#8298fd"/><path d="M173 358h215c-2.019 2.019-3.67 2.95-6.187 4.25-9.099 5.052-14.562 11.092-18.812 20.75l-3 12-137 1-2 4h-19l-.25-4.312c-1.209-11.449-6.107-22.083-15.023-29.605-4.325-2.989-8.825-5.205-13.727-7.082v-1z" fill="#b6c4fe"/><path d="M234.022 88.659l3.137.001 3.29.047 3.029.009 11.209.096L280 89v81h90v1l-54.554.207-25.33.095-22.075.075-11.691.047-11.002.03-5.966.045-3.586-.017-3.117.011c-3.411-.627-4.59-1.769-6.679-4.492-.501-3.308-.501-3.308-.502-7.291l-.016-2.204.022-7.196-.004-5.006.034-10.483.013-13.444.013-10.333.001-4.958.035-6.923.016-3.981C226 92 226 92 227.211 90.074c2.391-1.435 4.027-1.435 6.811-1.414z" fill="#8196fc"/><path d="M109 177l7.688-.187 2.127-.076c7.408-.099 12.431 1.474 20.186 3.264v147h-17l-4.004-8.008c-1.911-2.865-2.839-3.583-5.571-5.374-2.417-2.05-3.319-3.174-4.063-6.285-.225-3.426-.227-6.791-.157-10.224l-.003-3.934.088-10.641.056-11.135.149-21.068.152-23.993L109 177z" fill="#ecd3f0"/><path d="M50 58c2.616 1.131 4.97 2.295 7.438 3.688l2.176 1.19L67 67l2.907 1.622C97.51 84.02 97.51 84.02 99 87c.096 2.847.13 5.669.12 8.517l.003 2.703-.009 9.019v6.444l-.013 17.54-.008 18.314-.021 34.7-.022 39.496L99 305l-3.105.184-4.082.254-2.041.119c-3.714.236-7.1.709-10.771 1.443l-1-18 5-2 .466-74.79.213-34.726.168-30.265.105-16.027.066-15.084.055-5.536c.555-9.559.555-9.559-3.029-17.962C78.731 91.034 76.609 89.987 74 89l-3.297-1.887-3.023-1.586-3.371-1.787-6.891-3.617C41.965 71.93 41.965 71.93 40 68c-.389-3.582-.436-5.363 1.625-8.375C44.75 57.487 46.242 57.624 50 58z" fill="#fd7db8"/><path d="M280 89h40v81h-40V89z" fill="#d1ddff"/><g fill="#6482fd"><use xlink:href="#B"/><use xlink:href="#B" x="-242"/></g><path d="M84 96h1v112h14v97l-15 1-5 1-1-18 5-2 1-191z" fill="#f25aaa"/><path d="M415 358h57c0 27.13 0 27.13-5.437 33.75-4.497 3.598-9.359 3.503-14.875 3.375l-2.244-.027L444 395l-.883-3.184C439.608 379.828 434.431 370.349 424 363c-2.954-1.45-5.955-2.753-9-4v-1z" fill="#b5c2fe"/><path d="M101.477 315.953c5.543 3.28 9.801 7.733 11.523 14.047.825 6.509-.139 11.638-4 17-4.742 5.068-9.297 7.991-16.312 8.375-5.62-.15-10.092-1.97-14.227-5.801-5.022-5.683-6.039-11.116-5.902-18.496.936-6.526 4.587-10.527 9.504-14.641 5.807-2.787 13.469-2.772 19.414-.484z" fill="#8096fc"/><path d="M117 352v3l-2 2 31 1c-2.019 2.019-3.67 2.95-6.187 4.25-10.096 5.605-16.324 12.995-19.918 24.195-.716 2.843-1.358 5.673-1.895 8.555l-8.125.25-2.305.102c-5.37.093-8.297-.813-12.57-4.352-3.591-3.98-5.136-6.874-5.098-12.23l.01-2.432.025-2.525.014-2.561L90 365l2.309-.262c10.615-1.444 17.508-4.818 24.691-12.738z" fill="#b4c2fe"/><path d="M359 181h39l.188 12.813.083 4.031.023 3.177.048 3.253C398 207 398 207 396.945 208.851c-2.986 1.764-5.983 1.557-9.351 1.512l-2.185.002-4.569-.029-6.992-.014-4.441-.021-2.112.003c-3.649-.053-5.172-.222-8.294-2.304-.341-2.706-.341-2.706-.293-6.102l.023-3.307.083-4.216L359 181z" fill="#dcfced"/><path d="M202 181h39l.188 12.813.083 4.031.023 3.177.048 3.253C241 207 241 207 239.945 208.849c-2.983 1.766-5.982 1.579-9.351 1.55l-2.185.009a477.36 477.36 0 0 1-4.569-.016c-2.331-.016-4.661 0-6.992.019l-4.441-.012-2.112.018c-2.76-.04-4.836-.145-7.239-1.568-1.525-2.671-1.393-4.767-1.348-7.829l.023-3.177.083-4.031L202 181z" fill="#dafded"/><path d="M195 375l7.563-.187 2.135-.076c5.883-.081 10.758.799 15.158 5.061l1.332 1.953 1.355 1.922c1.914 3.058 3.673 6.193 5.457 9.328l41.099.622 19.084.284 18.421.233 7.025.13c12.501.947 12.501.947 23.283-3.908 1.784-3.08 2.914-6.014 4.088-9.361 2.295-2.629 4.87-4.435 8-6 1.375-.083 2.755-.107 4.133-.098l2.441.01 2.551.025 2.574.014L367 375l-1.023 2.09-1.352 2.848-1.336 2.777c-1.723 4.141-1.723 4.141-3.289 12.285l-137 1-2 4h-19l-.25-4.312c-.725-7.391-3.347-14.125-6.75-20.687z" fill="#8195fa"/><path d="M165 382c4.777 1.65 7.168 3.853 10 8l1.25 1.813c1.587 4.628 1.225 8.79-.312 13.313-3.045 4.518-6.718 8.135-11.937 9.875-5.981.826-10.323.068-15.27-3.457-3.47-3.094-5.322-6.145-6.105-10.746-.312-5.739 1.021-9.173 4.375-13.797 5.877-5.318 10.25-5.603 18-5zm242 0c4.777 1.65 7.168 3.853 10 8l1.25 1.813c1.587 4.628 1.225 8.79-.312 13.313-3.045 4.518-6.718 8.135-11.937 9.875-5.932.819-10.348.101-15.27-3.387-4.007-3.735-5.893-8.239-6.23-13.676.743-5.847 2.676-9.287 7.125-13.312 4.954-3.389 9.494-3.083 15.375-2.625z" fill="#cfdcfe"/><path d="M85 395l2 1v2l1.777.871 3.914 2.164c8.038 4.413 17.375 3.783 26.309 3.965l.445 1.836c2.148 8.022 5.984 14.308 10.555 21.164l-7 2v-6l-2.108.048-9.517.14-3.316.076c-6.798.062-11.629-.171-16.887-4.912l-1.422-1.727-1.453-1.711c-3.182-4.697-3.527-8.606-3.422-14.227l.055-3.801L85 395z" fill="#e7c6e6"/><path d="M242.791 295.696l2.393.003 2.459-.013 5.152-.002 7.887-.046 5.002-.002 2.387-.028c5.424.046 5.424.046 7.925 1.752 1.474 2.404 1.403 4.343 1.38 7.139l.023 2.906C277 310 277 310 275.995 311.639c-3.177 2.167-6.599 1.767-10.311 1.724l-2.461.002-5.147-.029-7.894-.014-4.998-.021-2.393.003c-5.56-.073-5.56-.073-7.791-2.304-.266-2.969-.266-2.969-.25-6.5l-.016-3.531c.49-5.476 3.187-5.209 8.057-5.272z" fill="#fc7fb7"/><path d="M54 395c3.813 2.032 6.172 4.724 8.5 8.313 1.063 5.713.478 10.76-2.812 15.625-2.38 3.176-4.851 4.771-8.801 5.398-5.505.098-9.725-.519-13.887-4.336-3.105-3.964-4.335-7.657-4-12.687.882-5.127 3.215-7.744 7.063-11.125C44.708 394.31 49.076 394.126 54 395z" fill="#ff7fb9"/><path d="M216.049 257.839l3.924-.029 4.274-.013 4.353-.017 9.137-.02 11.726-.058 8.995-.025 4.324-.024 6.041-.009 3.477-.011L275 258c2 3 2 3 1.813 5.563C276 266 276 266 273 268l-5.984.291-3.731.039-4.034.007-4.136.02-8.665.014a1187.81 1187.81 0 0 0-11.107.062l-8.539.025-4.095.027-5.723.002-3.29.009C211 268 211 268 209.11 266.138 208 264 208 264 208.25 261.312c1.416-4.366 3.475-3.448 7.799-3.474z" fill="#00d991"/><path d="M367.162 222.725l3.923-.029 4.258.003 4.349-.013 9.119-.002 11.703-.034 8.982-.012 4.316-.016 6.026.006 3.467-.002L426 223c2 3 2 3 1.813 5.563C427 231 427 231 424 233c-2.694.261-2.694.261-5.984.275l-3.731.029-4.034-.003-4.136.013-8.665.002c-3.702-.006-7.404.011-11.107.034l-8.539.012-4.095.016c-1.908.012-3.816.004-5.723-.006l-3.29.002C362 233 362 233 360.146 231.637c-1.615-2.308-1.498-3.887-1.146-6.637 2.748-2.748 4.314-2.259 8.162-2.275z" fill="#ffd6ea"/><path d="M216.963 274.839l3.792-.029 4.116-.013 4.207-.017 8.824-.02 11.312-.058 8.691-.025 4.171-.024 5.831-.009 3.353-.011c2.739.367 2.739.367 4.632 1.73 1.108 1.638 1.108 1.638.92 4.2C276 283 276 283 274 285c-2.612.261-2.612.261-5.963.275l-3.792.029-4.116-.003-4.207.013-8.824.002a1470.48 1470.48 0 0 0-11.312.034l-8.691.012-4.171.016c-1.944.012-3.888.004-5.831-.006l-3.353.002C211 285 211 285 209.108 283.672 208 282 208 282 208.188 278.875L209 276c2.729-1.364 4.908-1.142 7.963-1.161z" fill="#00d990"/><path d="M350 435c4.485 2.163 6.948 4.463 9 9 1.743 5.478.527 9.992-2 15-2.629 3.453-5.74 5.213-10 5.938-5.042.327-8.583-.971-12.75-3.812-2.894-2.733-4.071-4.745-4.586-8.711-.084-5.974.087-9.821 4.336-14.414 4.504-4.095 10.25-3.76 16-3zm-9 12c-.041 1.666-.043 3.334 0 5l4 2 3-2c.333-2.542.333-2.542 0-5-1.06-1.283-1.06-1.283-3.5-1.125-2.44-.158-2.44-.158-3.5 1.125z" fill="#00eca2"/><path d="M434.855 110.66c4.689 2.31 7.404 5.408 9.145 10.34.643 5.234-.147 8.573-3 13-4.608 4.262-8.486 5.474-14.645 5.414-4.184-.736-6.689-3.24-9.355-6.414-2.424-4.005-2.712-8.413-2-13 3.74-7.78 11.222-12.412 19.855-9.34z" fill="#fe80b9"/><path d="M85 179h14v29H85v-29z" fill="#ffc4df"/><path d="M156.82 119.051c3.953 1.18 6.253 3.248 9.055 6.137l1.508 1.424c2.525 2.542 3.575 4.038 4.008 7.631C171 137 171 137 169.875 138.938 168 140 168 140 165.125 140c-3.798-1.215-5.533-3.027-8.125-6-2.605 1.116-4.003 2.003-5.875 4.188C149 140 149 140 145.875 139.938 143 139 143 139 141 136c.179-5.083 1.726-7.326 5.375-10.75l2.398-2.297c4.521-3.966 4.521-3.966 8.047-3.902z" fill="#00eca4"/><path d="M176.504 81.359c4.35.797 6.481 2.684 9.371 5.828l1.469 1.463c2.83 2.945 4.493 5.211 4.656 9.35-1.437 2.313-1.437 2.313-3 4-6.147-.369-8.69-1.901-13-6l-2.562 3.063c-1.641 1.664-1.641 1.664-3.437 2.938-6.1-.1-6.1-.1-8-2-.524-4.411-.42-6.4 2.16-10.09a107.49 107.49 0 0 1 2.902-2.848l1.412-1.494c2.614-2.564 4.418-3.549 8.029-4.209z" fill="#6483fe"/><path d="M398.465 242.832l2.268-.01 4.759-.007 7.295-.039 4.615-.006 2.213-.022c5.156.023 5.156.023 7.385 2.252.25 3 .25 3 0 6-2.451 2.451-3.833 2.255-7.181 2.304l-2.128-.003-2.189.013-4.587.002c-2.34-.003-4.679.02-7.018.046l-4.455.002-2.121.028c-2.887-.027-4.866-.087-7.301-1.719C389 250 389 250 389.25 246.875c1.375-5.272 4.435-4.036 9.215-4.043z" fill="#ffd8eb"/><path d="M397.207 259.722l2.137.012 2.197-.006 4.6.011 7.051-.013 4.465.008 2.137-.012c4.977.048 4.977.048 7.207 2.278.25 3 .25 3 0 6-2.451 2.451-3.833 2.255-7.181 2.304l-2.128-.003-2.189.013-4.587.002c-2.34-.003-4.679.02-7.018.046l-4.455.002-2.121.028c-2.908-.028-4.865-.077-7.297-1.754C389 267 389 267 389.187 264.438c1.525-4.574 3.516-4.672 8.019-4.715z" fill="#ffd9eb"/><path d="M96 324c3.539 1.651 4.811 2.716 7 6 .74 4.593.61 8.025-1.875 12-3.506 3.299-6.19 3.415-10.863 3.332C88 345 88 345 85 343.063c-2.597-3.977-3.593-7.311-3-12.062 3.303-6.231 7.256-7.457 14-7z" fill="#6583fe"/><path d="M117 352v3l-2 2 2 2c-3.514 8.548-7.469 12.88-15.437 17.375-3.888.948-7.566.744-11.562.625v-12l5.438-.687c9.262-1.56 15.32-5.43 21.563-12.312z" fill="#9eaffd"/><path d="M68 352l2.063 2.188c2.05 2.117 4.034 3.44 6.594 4.875 2.286 1.609 3.201 2.387 3.91 5.12.123 2.576.046 5.057-.129 7.63l-.096 2.678L80 381c-3.767-2.329-6.586-4.198-8.812-8.062l-1.207-2.035c-2.123-4.12-2.085-7.518-2.043-12.09l.027-3.855L68 352z" fill="#e6c5e6"/><path d="M430.063 120.25C432 121 432 121 434 123c-.556 4.556-.556 4.556-2 6-2.437.188-2.437.188-5 0-2-2-2-2-2.312-4.5L425 122c3-2 3-2 5.063-1.75z" fill="#e1cef1"/><path d="M48.438 404.813C51 405 51 405 53 407c-.556 4.556-.556 4.556-2 6-2.437.188-2.437.188-5 0l-2-2c.72-5.902.72-5.902 4.438-6.187z" fill="#ffd5e9"/><defs ><path id="B" d="M420 371c6.889 5.209 11.745 11.61 14 20 1.254 9.917.032 18.203-5.695 26.438-5.305 6.53-11.405 9.929-19.305 12.563-10.376 1.016-18.272.203-27-6-7.386-6.258-11.275-13.673-12.375-23.273-.267-7.149.652-12.607 4.375-18.727l1.25-2.117c4.426-6.664 10.553-9.876 17.625-13.258 9.901-1.98 18.389-.777 27.125 4.375z"/></defs></svg>