<svg xmlns="http://www.w3.org/2000/svg" width="512" height="512" xmlns:v="https://vecta.io/nano"><path d="M284.961 22.75L292 28l2.492 1.875C303.723 37.697 309.742 49.173 312 61c.128 3.668.044 7.33 0 11l2.044.509c6.682 1.733 12.947 3.917 19.269 6.678l2.767 1.204C363.81 92.67 388.289 112.204 407 136l2.254 2.844c25.85 33.447 39.818 74.956 38.729 117.163l-.194 15.46-.334 19.428c-.707 26.752-.065 46.65 16.52 68.417 2.614 3.47 4.788 7.109 6.946 10.871l3.828 6.254 2.086 3.435 10.121 16.491 3.605 5.887 1.681 2.65c3.215 5.301 4.765 8.876 3.757 15.1-1.577 2.195-1.577 2.195-4 4-2.592.397-4.762.548-7.352.519l-2.25.023-7.467.004-5.351.031-14.534.03-15.187.052-28.761.074-32.742.095L311 425l.489 1.858c3.351 14.042.703 29.892-6.176 42.329-8.681 13.369-20.472 22.584-36.031 26.496-16.511 3.362-31.939.232-46.281-8.684-13.24-9.671-20.457-22.812-23.527-38.734-.724-5.497-.269-10.654.52-16.117l.291-2.091L201 425l-2.816-.004-67.776-.179-32.776-.087-28.562-.084-15.128-.037c-4.744.001-9.488-.017-14.232-.049l-5.229-.005a553.32 553.32 0 0 1-7.129-.035l-2.099.024c-3.292-.059-5.009-.358-7.669-2.361-1.871-2.574-2.359-4.543-2.182-7.722 1.395-5.746 4.957-10.724 8.035-15.709l2.315-3.848 6.05-9.946 5.654-9.312 6.217-10.226 2.909-4.861c2.019-3.477 4.194-6.531 6.786-9.609 14.241-18.237 11.227-40.87 10.813-62.796l-.212-25.903-.128-8.912c-.743-51.039 21.359-96.98 55.538-133.909 16.691-17.139 37.596-30.893 59.496-40.367l2.555-1.108c6.063-2.534 12.199-4.359 18.57-5.955l-.157-2.092C199.038 57.129 204.058 45.772 212 36l1.875-2.492c16.836-19.869 49.073-23.768 71.086-10.758z" fill="#56a3fe"/><path d="M313 125l1.955.981c29.333 15.069 51.898 41.445 62.92 72.457.755 2.519 1.465 5.02 2.125 7.563l.585 2.171c5.199 19.906 5.175 40.839.415 60.829l-.656 2.949C374.982 293.81 363.342 312.752 348 329l-2.383 2.648c-21.153 22.576-53.072 35.503-83.754 36.637-12.009.253-23.192-.417-34.863-3.285l-3.074-.621c-23.9-5.137-45.32-19.921-61.926-37.379l-1.945-1.961c-23.135-24.264-32.965-57.558-32.273-90.437.221-6.666.823-13.072 2.219-19.602l.424-2.084c7.015-33.478 27.325-61.731 55.583-80.643C224.076 107.96 272.427 104.603 313 125z" fill="#fedd54"/><path d="M284.961 22.75L292 28l2.492 1.875C303.723 37.697 309.742 49.173 312 61c.128 3.668.044 7.33 0 11l2.044.509c6.682 1.733 12.947 3.917 19.269 6.678l2.767 1.204C363.81 92.67 388.289 112.204 407 136l2.254 2.844c25.85 33.447 39.818 74.956 38.729 117.163l-.194 15.46-.334 19.428c-.707 26.752-.065 46.65 16.52 68.417 2.614 3.47 4.788 7.109 6.946 10.871l3.828 6.254 2.086 3.435 10.121 16.491 3.605 5.887 1.681 2.65c3.215 5.301 4.765 8.876 3.757 15.1-1.577 2.195-1.577 2.195-4 4-2.592.397-4.762.548-7.352.519l-2.25.023-7.467.004-5.351.031-14.534.03-15.187.052-28.761.074-32.742.095L311 425l.489 1.858c3.351 14.042.703 29.892-6.176 42.329-8.681 13.369-20.472 22.584-36.031 26.496-16.511 3.362-31.939.232-46.281-8.684-13.24-9.671-20.457-22.812-23.527-38.734-.724-5.497-.269-10.654.52-16.117l.291-2.091L201 425l-2.816-.004-67.776-.179-32.776-.087-28.562-.084-15.128-.037c-4.744.001-9.488-.017-14.232-.049l-5.229-.005a553.32 553.32 0 0 1-7.129-.035l-2.099.024c-3.292-.059-5.009-.358-7.669-2.361-1.871-2.574-2.359-4.543-2.182-7.722 1.395-5.746 4.957-10.724 8.035-15.709l2.315-3.848 6.05-9.946 5.654-9.312 6.217-10.226 2.909-4.861c2.019-3.477 4.194-6.531 6.786-9.609 14.241-18.237 11.227-40.87 10.813-62.796l-.212-25.903-.128-8.912c-.743-51.039 21.359-96.98 55.538-133.909 16.691-17.139 37.596-30.893 59.496-40.367l2.555-1.108c6.063-2.534 12.199-4.359 18.57-5.955l-.157-2.092C199.038 57.129 204.058 45.772 212 36l1.875-2.492c16.836-19.869 49.073-23.768 71.086-10.758zM133 130l-2.848 2.688C114.485 147.848 103.069 166.281 94 186l-1.617 3.496c-3.28 7.622-5.569 15.353-7.633 23.379l-.747 2.859c-3.695 15.077-4.279 30.069-4.217 45.506l-.005 9.339-.011 26.51-.026 16.32.015 6.169C79.91 339.583 79.91 339.583 73 349l-2.171 3.774-2.008 3.386-1.122 1.894-3.573 6.008-1.24 2.087-20.16 33.142-1.893 3.049-1.665 2.668c-1.251 1.751-1.251 1.751-1.167 2.992h436l-17.187-29.562-1.24-2.09-17.827-29.242-1.472-2.344-1.268-2.001c-2.484-4.35-2.157-8.716-2.163-13.564l-.015-2.732-.026-5.888-.053-9.382-.149-26.684-.101-16.331-.026-6.167c-.031-17.764-1.103-35.781-6.034-52.951l-.759-2.69c-8.06-27.197-22.699-51.433-42.246-71.872l-2.834-3C368.215 118.264 354.011 108.381 338 100l-3.109-1.676C268.244 63.47 186.425 78.877 133 130z"/><path d="M313 125l1.955.981c29.333 15.069 51.898 41.445 62.92 72.457.755 2.519 1.465 5.02 2.125 7.563l.585 2.171c5.199 19.906 5.175 40.839.415 60.829l-.656 2.949C374.982 293.81 363.342 312.752 348 329l-2.383 2.648c-21.153 22.576-53.072 35.503-83.754 36.637-12.009.253-23.192-.417-34.863-3.285l-3.074-.621c-23.9-5.137-45.32-19.921-61.926-37.379l-1.945-1.961c-23.135-24.264-32.965-57.558-32.273-90.437.221-6.666.823-13.072 2.219-19.602l.424-2.084c7.015-33.478 27.325-61.731 55.583-80.643C224.076 107.96 272.427 104.603 313 125zm-128 28l-2.668 2.25C160.534 174.245 146.364 201.042 144 230c-1.458 29.654 5.819 59.438 26 82l2.113 2.508c17.055 19.811 42.663 33.945 68.762 37.305 1.707.097 3.416.152 5.125.188l2.083.074c32.497 1.08 61.874-8.847 85.917-31.074 19.664-18.94 33.375-46.679 34.176-74.156.184-10.096.022-19.947-2.176-29.844l-.707-3.449C361.463 197.095 353.655 182.056 343 169l-1.288-1.58c-17.658-21.233-43.627-35.776-71.157-39.174C239.818 126.118 208.941 132.57 185 153z" fill="#020202"/><path d="M334 160c15.642 12.46 26.394 32.723 31 52l.633 2.211c4.616 16.447 3.923 36.465-.633 52.789l-.586 2.106c-8.678 30.359-27.535 54.461-55.227 69.894-23.191 12.397-50.427 16.592-76.187 11l-3.457-.707C208.893 344.477 191.279 333.471 176 319l2-1 6 3c2.569.762 5.086 1.451 7.688 2.063l2.158.513 4.257.986 4.613 1.138c28.317 6.471 61.044-1.561 85.389-16.472 29.196-18.89 45.292-46.589 53.771-79.637 4-20.64 1.89-44.026-6.043-63.496-.801-2.016-1.357-3.98-1.832-6.094z" fill="#e9be00"/><path d="M288 83c6.013.598 11.535 1.807 17.313 3.563l2.62.795c44.897 14.047 82.116 45.206 104.263 86.689 2.043 3.935 3.952 7.925 5.805 11.953l1.617 3.496c3.28 7.622 5.569 15.353 7.633 23.379l.747 2.859c3.695 15.077 4.279 30.069 4.217 45.506l.005 9.339.011 26.51.026 16.32-.015 6.169c-.12 15.63-.12 15.63 6.758 29.422l2.171 3.774 2.008 3.386 1.122 1.894 3.573 6.008 1.24 2.087 20.16 33.142 1.893 3.049 1.665 2.668C474 407 474 407 474 408c-7.651 1.846-15.52 2.977-23 0-6.879-6.263-10.734-15.56-14.833-23.785-3.331-6.6-7.218-12.88-11.042-19.202l-3.62-6.086-1.156-1.96-1.107-1.878-1.973-3.348-1.026-1.788c-1.25-2.053-1.25-2.053-3.036-4.133-6.932-9.03-6.161-18.158-6.039-29.028l-.023-5.915.027-15.535-.003-24.735.03-8.523c.054-16.755-.428-33.952-4.825-50.21l-.782-2.994c-2.71-9.971-6.357-19.467-10.593-28.881l-.944-2.122C383.003 162.272 373.328 147.824 362 135l-1.374-1.573C353.963 125.836 347.054 119.143 339 113l-2.828-2.234c-13.373-10.369-27.795-17.751-43.142-24.763C291 85 291 85 288 83z" fill="#006cee"/><path d="M248 160h16v16l6.25-.312c9.645.01 18.211 2.929 25.289 9.645C301.647 192.306 304 198.682 304 208h-16l-1.125-4.187c-1.635-4.945-3.574-6.945-7.875-9.812-2.671-.89-4.266-1.139-7.009-1.177l-2.428-.039-2.614-.022-2.702-.024-5.661-.032-8.631-.105-5.506-.025-2.595-.053c-5.451.02-8.53.853-12.854 4.479-4.133 4.786-4.602 8.453-4.437 14.5l-.021 2.223c.056 4.796.861 8.119 3.459 12.277 5.441 4.91 9.042 5.132 16.18 5.141l5.695.059 8.958.051c13.658.016 26.172.087 36.706 10.082 8.927 10.193 9.351 21.182 8.704 34.166-.528 5.444-2.398 9.89-5.243 14.502l-1.246 2.063c-4.619 6.36-12.487 9.515-19.754 11.938-4.67.136-9.327.043-14 0v16h-16v-16l-6.937.25c-6.555.078-11.484-.736-17.062-4.25l-2.109-1.25c-7.144-4.727-11.993-12.4-13.891-20.75v-6h16l1.125 4.188c1.625 4.937 3.62 6.915 7.875 9.813 3.385 1.692 7.229 1.185 10.953 1.203l2.706.017 5.679.02 8.658.072 5.52.016 2.605.037c5.049-.019 8.506-.562 12.88-3.366 4.794-5.182 5.225-9.474 5.313-16.312l.088-2.264c.06-5.296-.936-8.202-4.4-12.424-3.512-3.086-6.506-4.12-11.145-4.142l-2.52-.021-2.718-.013-5.727-.072-9.005-.078-8.706-.1-2.681.006c-9.359-.181-17.821-3.972-24.499-10.58-6.2-8.441-8.36-15.966-8.375-26.312l-.074-2.725c-.042-9.743 3.733-17.921 10.449-24.963 7.149-5.789 13.618-8.356 22.875-8.125L248 176v-16z" fill="#020200"/><path d="M219 424h29v24h-8v16h32v-16h-8v-24h29c4.721 11.802 3.65 22.36-1 34-5.111 10.011-13.414 17.132-24.047 20.684-11.377 3.01-21.639 1.94-31.953-3.684-10.601-6.507-16.584-15.382-19.621-27.473-.445-2.968-.586-5.838-.629-8.84l-.078-3.238C216 432 216 432 219 424z" fill="#fd7855"/><path d="M278.598 38.609C288.916 46.12 293.917 55.601 296 68l-3.812-.375-2.797-.27-7.406-.867c-19.36-2.404-38.677-2.249-57.984.512l-2.042.29L217 68c.239-10.388 4.019-17.547 10.984-25.148C231.6 39.53 235.647 37.225 240 35l1.891-1.035c11.897-5.561 26.082-1.938 36.707 4.645z" fill="#fd7755"/><path d="M464 56h16v16h16v16h-16v16h-16V88h-16V72h16V56zM32 56h16v16h16v16H48v16H32V88H16V72h16V56zm368-40h16v16h16v16h-16v16h-16V48h-16V32h16V16zM96 16h16v16h16v16h-16v16H96V48H80V32h16V16z"/><path d="M248 32c13.43-.836 24.439 1.139 35.066 10.109C290.716 49.589 294.247 57.563 296 68l-29-3 4-1c-2.914-11.784-8.054-22.562-18-30-2.662-.783-2.662-.783-5-1v-1z" fill="#f84e22"/><path d="M219 424h29v16h-32c0-8 0-8 3-16z" fill="#fd4f22"/><path d="M264 424h29c2 5 2 5 3 16h-32v-16z" fill="#fe4f22"/></svg>