<svg xmlns="http://www.w3.org/2000/svg" width="512" height="512" xmlns:v="https://vecta.io/nano"><path d="M237.188 22.688l2.428.006c13.313.051 26.282.795 39.384 3.307l2.748.52C309.639 31.972 338.216 42.144 362 58c17.234-.51 34.265-11.306 47-22 2.918-2.341 5.224-3.871 9-4.5 5.69.948 9.958 5.231 14.375 8.75 16.461 12.397 35.432 18.444 55.934 19.309 3.212.527 5.097 1.487 7.691 3.441 1.943 3.088 2.256 5.495 2.275 9.11l.029 3.089-.003 3.336.013 3.478.002 7.316.046 11.001c.046 16.534-.389 33.177-6.049 48.92l-.772 2.214c-4.661 12.838-11.891 27.527-22.7 36.287-2.347 1.971-4.162 3.679-5.84 6.25-.317 4.104.73 7.642 1.875 11.563l1.602 6.441.813 3.129c12.058 48.69.068 106.378-23.29 149.867l-1.038 1.971C432.127 387.47 417.888 405.21 402 422l-1.934 2.063c-4.948 5.126-10.492 9.516-16.066 13.938l-3.035 2.445c-48.206 38.391-110.722 54.297-171.612 47.728-4.481-.579-8.916-1.326-13.353-2.173l-2.699-.504C147.958 476.764 107.056 455.099 74 423l-1.471-1.409C65.798 415.133 59.698 408.382 54 401l-1.264-1.623C27.715 367.07 11.915 329.383 6 289l-.389-2.627C-2.054 231.797 10.889 171.182 43 126l2.996-3.918c6.959-8.912 6.959-8.912 9.699-19.777.618-4.677 3.405-7.474 6.742-10.555 3.542-2.419 6.722-3.559 10.898-4.508 4.108-1.393 5.887-2.928 8.914-5.992C95.422 68.537 110.861 58.521 127 50l2.639-1.394c33.551-17.444 69.824-26.099 107.549-25.918z" fill="#4e6afe"/><path d="M237.188 22.688l2.428.006c13.313.051 26.282.795 39.384 3.307l2.748.52C309.639 31.972 338.216 42.144 362 58v2l-3.289.043-4.336.145-2.16.018-2.129.088-1.936.048c-3.587 1.1-6.084 2.553-8.15 5.659-.879 4.19-.769 8.311-.691 12.578l.004 3.758.1 9.903.03 9.894c.07 17.195.718 33.421 7.244 49.555l1.044 2.66c4.02 9.957 9.315 18.722 15.269 27.652H56v-19H24c1.192-5.958 3.569-10.47 6.375-15.812l1.622-3.098c5.591-10.486 11.98-20.255 19.566-29.402 2.914-3.744 3.312-7.522 3.957-12.137.898-4.769 3.445-7.595 6.918-10.801 3.542-2.419 6.722-3.559 10.898-4.508 4.108-1.393 5.887-2.928 8.914-5.992C95.422 68.537 110.861 58.521 127 50l2.639-1.394c33.551-17.444 69.824-26.099 107.549-25.918z" fill="#8ea1fe"/><path d="M23 163h33l.028 16.488.156 53.896.087 32.681.084 28.487.037 15.081.049 14.203.005 5.205C56.224 341.137 56.224 341.137 61 352c4.1 3.807 6.552 5.123 12.072 5.139l3.274.017 3.626.003 3.829.015 10.556.027 11.37.035 19.711.056 28.499.08 46.234.131 44.921.125 2.795.008 13.883.041L377 358l.22 21.35.082 7.257.089 10.456.063 3.255c.002 7.117-.928 12.792-5.83 18.201-6.595 5.968-13.73 5.784-22.122 5.802l-3.529.031-9.672.056-8.303.053-27.343.146-7.123.03-44.272.149-10.245.024-2.572.006-41.237.218-42.376.176-23.777.119-20.251.071c-3.442-.012-6.88-.004-10.321.056-22.813.338-22.813.338-29.404-5.588-2.286-2.459-4.19-5.095-6.075-7.869l-4.562-5.312L54 401l-1.26-1.618C27.717 367.074 11.915 329.385 6 289l-.389-2.627C-.037 246.161 4.672 199.655 23 163z" fill="#3340d4"/><path d="M461 194l2 1c.654 1.987.654 1.987 1.219 4.602l.634 2.902.647 3.121.671 3.178C477.051 261.405 469.465 317.588 444 365l-1.038 1.971C432.127 387.47 417.888 405.21 402 422l-1.934 2.063c-4.948 5.126-10.492 9.516-16.066 13.938l-3.035 2.445c-48.206 38.391-110.722 54.297-171.612 47.728-4.481-.579-8.916-1.326-13.353-2.173l-2.699-.504C149.904 477.139 107.298 456.643 76 425v-1l1.817-.002 106.645-.176 12.808-.03 2.576-.006 41.274-.06 42.359-.081 26.132-.037 17.926-.041 10.338-.014 11.223-.035 3.281.024c7.761-.088 14.414-1.336 20.059-6.98 2.604-4.271 3.807-7.802 3.881-12.812l.06-3.093.035-3.302.059-3.409.152-10.759.117-7.303L377 358l3.393-.044 12.513-.218 5.406-.084 7.79-.142 2.425-.019c4.87-.127 8.238-.843 12.473-3.492 4.434-4.68 6.241-9.045 6.278-15.461l.034-3.285.007-3.572.03-3.785.055-10.251.068-10.722.117-20.293.138-23.108L428 216l1.542-.84 7.024-3.852 2.425-1.32c7.957-4.386 15.711-9.359 22.008-15.989z" fill="#e6eefe"/><path d="M421 32c4.02 2.489 7.682 5.308 11.375 8.25 16.461 12.397 35.432 18.444 55.934 19.309 3.212.527 5.097 1.487 7.691 3.441 1.943 3.088 2.256 5.495 2.275 9.11l.029 3.089-.003 3.336.013 3.478.002 7.316.046 11.001c.046 16.534-.389 33.177-6.049 48.92l-.772 2.214c-10.52 28.974-32.807 50.274-60.321 63.361-12.107 5.519-12.107 5.519-18.199 3.529-2.273-.903-4.488-1.887-6.708-2.916l-2.418-1.104c-27.336-12.736-47.997-35.57-58.707-63.646l-.842-2.148c-5.899-16.281-5.933-33.171-5.956-50.272l-.082-7.968-.096-11.623-.081-3.589c.066-7.955.066-7.955 2.359-11.182 4.097-3.69 7.091-4.546 12.698-4.404C373.875 59.167 393.592 49.306 409 36c3.916-3.153 6.824-4.863 12-4z" fill="#00c99f"/><path d="M237.188 22.688l2.428.006c13.313.051 26.282.795 39.384 3.307l2.748.52C309.639 31.972 338.216 42.144 362 58v2l-3.289.043-4.336.145-2.16.018-2.129.088-1.936.048c-3.106.801-3.106.801-8.15 5.659l-1 22H76c4.118-4.804 7.593-8.592 12.5-12.312l1.834-1.412L96 70l1.769-1.327c40.495-30.168 88.974-46.227 139.418-45.986z" fill="#e6effe"/><path d="M74.816 87.754l2.87-.012 3.128.018 3.342-.005 11.106.019 7.953-.001 17.133.016 24.771.024 40.189.037 39.039.041 2.431.002 12.073.008L339 88l1 38H56c-1.186-26.089-1.186-26.089 3.648-32.023l1.727-1.352 1.711-1.398c3.802-2.436 7.23-3.477 11.73-3.473z" fill="#506cfe"/><path d="M316.516 269.807l1.992-.025 6.527-.056 2.261-.016 11.861-.061 9.773-.082 11.837-.081 4.488-.046c11.082-.168 19.09 1.346 27.619 8.747 6.198 6.814 7.903 14.582 7.563 23.637-1.171 8.502-5.584 13.925-11.863 19.484-8.177 5.373-16.193 5.151-25.695 5.125l-4.407.016a1496.54 1496.54 0 0 1-9.206-.003 1128.37 1128.37 0 0 0-11.734.038l-9.093.012a493.22 493.22 0 0 0-4.323.018c-11.739.087-19.702-1.584-28.389-9.647-6.474-7.001-7.079-14.18-7.012-23.379.38-4.644 1.645-7.713 4.285-11.488l1.625-2.625c6.179-6.179 13.226-9.474 21.891-9.568z" fill="#8ea1ff"/><path d="M457 91c3.468 1.665 5.446 4.043 7.375 7.375 1.469 6.168.728 10.176-2.375 15.625-1.991 2.372-1.991 2.372-4.284 4.673l-2.61 2.639-2.813 2.794-2.903 2.912-6.085 6.069-7.756 7.767-6 5.999-4.237 4.253-2.639 2.61-2.301 2.294c-3.7 3.106-7.672 5.581-12.622 5.241-5.773-.972-9.034-4.429-13.022-8.496l-6.517-6.473L378 136.133l-2.187-2.191c-4.05-4.339-4.349-7.41-4.273-13.137.727-4.422 3.069-7.01 6.461-9.805 4.017-2.009 8.643-1.604 13-1 3.187 1.491 5.488 3.562 8 6l2.492 2.402L408 125c2.832-1.287 4.864-2.622 7.037-4.842l1.71-1.73 1.812-1.862 1.897-1.92 7.996-8.139 5.856-5.94 1.806-1.856c6.442-6.518 11.545-9.176 20.885-7.71z" fill="#fbfefd"/><path d="M112 210l17.242-.275 5.863-.103 8.437-.111 2.639-.078c4.337-.002 6.262.167 9.878 2.766 2.132 3.078 2.536 4.414 2.428 8.102l-.049 2.959-.127 3.053-.068 3.111L158 237l-1.848.028-8.339.222-2.908.043c-4.435.153-7.181.261-11.018 2.629-2.766 3.047-3.034 4.845-3.203 8.867l-.127 2.852-.119 2.984-.131 3.008L130 265l-17.297.22-5.884.082-8.459.089-2.655.063c-6.099.002-6.099.002-9.227-2.353-2.32-3.298-2.598-5.108-2.575-9.108l.01-2.988.025-3.129.014-3.152L84 237l1.956-.044 8.794-.268 3.078-.068 2.969-.107 2.729-.079c2.936-.513 4.328-1.387 6.474-3.432.93-2.79 1.187-4.765 1.316-7.668l.127-2.705.119-2.814.131-2.85L112 210z" fill="#fea001"/><path d="M55 110h1v53H24c1.192-5.958 3.569-10.47 6.375-15.812l1.624-3.1C36.714 135.247 42.013 127.023 48 119l2.207-2.977c3.254-4.281 3.254-4.281 4.793-6.023z" fill="#e5edfe"/><path d="M162.25 292.75l2.027-.062c4.448-.035 7.207.567 10.723 3.313 3.099 4.648 2.329 9.408 2.313 14.875l.049 3.301.002 3.191.009 2.91c-.569 4.164-2.442 6.793-5.372 9.723-2.936.47-5.905.37-8.875.375l-2.473.074c-6.02.029-6.02.029-9.16-2.348-3.579-5.04-2.793-10.406-2.867-16.414l-.113-3.459c-.087-8.253-.087-8.253 1.593-11.101 1.356-1.358 1.356-1.358 3.896-3.127 1.963-1.963 5.578-1.23 8.25-1.25z" fill="#fbfcff"/><path d="M105 293c3.409 1.559 5.306 3.611 7 7 .269 3.765.232 7.539.25 11.313l.063 3.17.016 3.068.028 2.802c-.432 3.208-1.457 5.044-3.356 7.647-3.803 2.536-6.963 2.404-11.375 2.438l-2.289.1c-3.833.037-5.957-.321-9.34-2.252-3.165-5.209-2.68-10.314-2.559-16.285l-.033-3.562c.083-9.713.083-9.713 4.596-14.437 4.86-2.43 11.674-1.522 17-1z" fill="#f9faff"/><path d="M158 217h1l.165 16.76.062 5.697.067 8.207.047 2.558c.001 4.968-.359 8.597-3.34 12.778-4.174 2.505-7.254 3.372-12.097 3.341l-3.578-.001-3.817-.047-3.943-.013-10.327-.074-10.558-.06L91 266v-1h39l-.45-13.282c-.067-4.506-.079-7.743 2.845-11.335 3.435-3.141 4.871-3.508 9.395-3.48l2.852.01 2.984.025 3.008.014L158 237v-20z" fill="#606fe4"/><path d="M96.962 208.773h3.639l3.914.031 4.018.009 10.554.049 10.779.04L151 209v1h-39l.27 12.714c.046 4.89.034 8.382-3.27 12.286-3.303 2.202-4.275 2.24-8.105 2.195l-2.979-.02-3.104-.051-3.139-.027L84 237v20h-1l-.22-16.76-.082-5.697-.089-8.207-.063-2.558c-.002-5.395.762-8.563 4.453-12.778 3.326-2.155 6.046-2.244 9.962-2.227z" fill="#5f6fe5"/><path d="M53.188 5.188C57.226 7.79 59.48 10.441 61 15c.382 4.665.479 7.041-1.625 11.25-3.091 3.579-5.737 6.286-10.551 7.133C43.41 33.656 40.211 32.61 36 29c-2.902-3.303-3.916-5.882-4.25-10.312.361-5.325 1.835-8.379 5.75-12 5.054-3.411 10.013-3.614 15.688-1.5z" fill="#00c99e"/><path d="M477.25 480.125c4.185 2.853 6.186 5.982 7.625 10.813.214 5.251-.842 8.806-4.187 12.875-4.057 3.302-6.854 4.417-12.062 4.188-5.063-.694-8.38-3.117-11.625-7-1.872-5.615-1.912-11.071.625-16.437 5.643-6.089 12.017-7.071 19.625-4.437z" fill="#00c99f"/><path d="M27.438 457.625c3.939 3.651 5.693 7.026 5.938 12.375-.181 3.947-1.12 6.692-3.375 10-3.855 3.17-6.992 4.796-12 5-5.53-.97-8.456-2.646-12-7-2.351-3.847-2.277-7.358-1.68-11.711C5.478 462.39 7.909 459.584 11 457c5.615-1.872 11.071-1.912 16.438.625z" fill="#ffa100"/><path d="M503.875 17.313c3.226 4.079 4.353 6.877 4.125 12.063-.693 5.117-3.21 8.247-7 11.625-3.951 1.976-8.693 1.432-13 1-3.854-1.79-5.498-3.263-7.875-6.75-1.811-5.232-1.811-9.268 0-14.5 2.7-3.961 5.777-5.977 10.25-7.625 5.331-.254 9.328.832 13.5 4.188z" fill="#ff4c68"/><path d="M223.438 292.75l3.496-.078c3.066.328 3.066.328 4.735 1.397 2.052 2.977 1.702 5.577 1.694 9.154l.002 2.125-.029 4.441-.014 6.807c-.043 11.125-.043 11.125-2.322 13.404-3 .313-3 .313-6 0-2.266-3.399-2.237-4.563-2.195-8.543l.02-3.252.051-3.393.027-3.428L223 303l-2.879.07C217 303 217 303 215.063 301.875c-1.062-1.875-1.062-1.875-.875-5L215 294c2.83-1.415 5.284-1.208 8.438-1.25zm-93 0l3.496-.078c3.066.328 3.066.328 4.735 1.413 2.022 2.909 1.703 5.377 1.694 8.884l.002 2.051-.029 4.287-.014 6.557c-.043 10.718-.043 10.718-2.322 14.137-3 .313-3 .313-6 0-2-2-2-2-2.227-4.522l.032-3.142.02-3.398.051-3.562.027-3.586L130 303l-2.879.07C124 303 124 303 122.063 301.875c-1.062-1.875-1.062-1.875-.875-5L122 294c2.83-1.415 5.284-1.208 8.438-1.25z" fill="#f2f4ff"/><path d="M195.438 292.688l3.496-.051c3.066.363 3.066.363 4.735 1.435 2.053 2.975 1.702 5.576 1.694 9.151l.002 2.125-.029 4.441-.014 6.807c-.043 11.125-.043 11.125-2.322 13.404-3 .313-3 .313-6 0-2.266-3.399-2.237-4.563-2.195-8.543l.02-3.252.051-3.393.027-3.428L195 303l-2.879.074C189 303 189 303 187.063 301.813 186 300 186 300 186.188 297.438c1.7-5.1 4.355-4.734 9.25-4.75z" fill="#f3f5ff"/><path d="M102 210l.125 7.875.051 2.262L102 226c-2 2-2 2-5.695 2.195l-4.43-.07-2.285-.027L84 228c-.758-11.511-.758-11.511 1.688-16.312 5.25-2.674 10.536-2.068 16.313-1.687z" fill="#fda001"/><path d="M145.695 246.805l4.43.07 2.285.027L158 247l.125 5.75.07 3.234c-.194 2.997-.523 4.557-2.195 7.016-3.632 2.421-5.383 2.21-9.687 2.125l-3.574-.055L140 265l-.125-7.875-.051-2.262L140 249c2-2 2-2 5.695-2.195z" fill="#fea001"/><path d="M158 302h10v19h-10v-19z" fill="#5e78ff"/><path d="M93 302h9v19h-9v-19z" fill="#546fff"/></svg>