<svg xmlns="http://www.w3.org/2000/svg" width="512" height="512" xmlns:v="https://vecta.io/nano"><path d="M115 12c4.332 3.334 8.193 7.087 12 11l1.828 1.836c13.588 14.661 17.979 34.577 17.308 53.982-.767 12.282-5.043 24.534-12.316 34.463-.964 1.686-.964 1.686-.773 3.609 1.411 3.124 3.607 5.002 6.078 7.359 3.178 3.046 6.199 6.081 9.058 9.427 3.802 4.367 7.83 8.464 11.938 12.542l2.257 2.253 7.06 7.029 4.818 4.805L186 172c3.592-1.379 6.367-2.862 9.438-5.187 17.873-12.699 38.575-18.229 60.313-18.125l3.755.017c8.879.118 16.952.717 25.495 3.295l2.03.602c14.19 4.303 26.592 10.766 37.97 20.398 5.062-4.182 9.696-8.637 14.277-13.34 2.095-2.047 4.202-3.956 6.42-5.86 4.125-3.596 8.012-7.381 11.865-11.265l2.051-2.055 6.387-6.418 4.371-4.385L381 119l-1.649-2.827-2.171-3.755-1.083-1.854c-10.139-17.589-12.996-37.428-8.132-57.158C373.93 33.778 385.913 17.933 404 8c11.258-5.937 22.479-8.578 35.188-8.5l3.286.015c20.205.434 36.194 8.725 50.714 22.571 14.36 15.09 19.6 33.39 19.332 53.811-.758 22.148-10.093 38.56-25.953 53.376-15.02 12.874-34.045 18.194-53.562 16.911-12.297-1.132-24.282-5.037-34.286-12.364-1.691-.971-1.691-.971-3.641-.742-2.929 1.299-4.628 3.228-6.828 5.547-2.867 3.006-5.742 5.832-8.899 8.531-4.454 3.879-8.628 7.994-12.788 12.184l-2.32 2.324-7.243 7.274-4.949 4.963L340 186c1.379 3.592 2.862 6.367 5.188 9.438 16.458 23.165 21.194 52.248 17.125 80.082-3.405 18.964-12.105 35.038-23.312 50.48l1.358 1.342 6.205 6.158 2.135 2.109 2.119 2.109 1.92 1.904c1.918 2.015 3.741 4.068 5.558 6.172 3.562 4.095 7.318 7.947 11.17 11.768l2.055 2.051 6.418 6.387 4.385 4.371L393 381l2.827-1.649 3.755-2.171 1.854-1.083c17.775-10.246 37.514-12.937 57.381-8.005 10.91 3.016 20.743 8.34 29.183 15.909l2.301 2.055c8.617 8.139 14.45 17.925 18.699 28.945l.973 2.516c4.274 13.598 4.044 32.148-.973 45.484l-1.066 3.023c-7.074 18.537-20.994 32.254-38.781 40.621-16.553 7.117-36.449 8.33-53.742 2.734C403.36 504.506 394.064 498.317 385 489l-1.828-1.836c-13.588-14.661-17.979-34.577-17.308-53.982.767-12.282 5.043-24.534 12.316-34.463.971-1.691.971-1.691.742-3.641-1.299-2.929-3.228-4.628-5.547-6.828-3.006-2.867-5.832-5.742-8.531-8.899-3.879-4.454-7.994-8.628-12.184-12.788l-2.324-2.32-7.274-7.243-4.963-4.949L326 340c-3.511 1.348-6.16 2.749-9.125 5.063-23.143 16.486-51.699 21.062-79.555 17.441-3.523-.659-6.889-1.475-10.32-2.504l-3.406-.996C210.448 354.726 197.386 348.202 187 339c-5.062 4.182-9.696 8.637-14.277 13.34-2.095 2.047-4.202 3.956-6.42 5.86-4.125 3.596-8.012 7.381-11.865 11.265l-2.051 2.055-6.387 6.418-4.371 4.385L131 393l1.649 2.827 2.171 3.755 1.083 1.854c10.247 17.777 12.635 37 8.132 56.9-5.24 18.547-16.618 34.207-33.254 44.137-12.2 6.7-24 10.115-37.969 10.027l-3.292-.02c-19.432-.437-36.098-8.054-49.899-21.695-15.44-16.407-20.628-35.801-19.996-57.773C.589 413.649 9.378 398.251 23 385l1.836-1.828c14.661-13.588 34.577-17.979 53.982-17.308 12.282.767 24.534 5.043 34.463 12.316 1.691.971 1.691.971 3.641.742 2.929-1.299 4.628-3.228 6.828-5.547 2.867-3.006 5.742-5.832 8.899-8.531 4.454-3.879 8.628-7.994 12.788-12.184l2.32-2.324 7.243-7.274 4.949-4.963L172 326c-1.362-3.549-2.799-6.242-5.125-9.25-12.642-17.71-18.289-38.956-18.187-60.5l.015-3.749c.313-24.423 8.991-46.55 24.298-65.501-4.182-5.062-8.637-9.696-13.34-14.277-2.047-2.095-3.956-4.202-5.86-6.42-3.596-4.125-7.381-8.012-11.265-11.865l-2.055-2.051-6.418-6.387-4.385-4.371L119 131l-2.827 1.649-3.755 2.171-1.854 1.083c-17.768 10.242-37.523 12.948-57.383 8.003C41.691 140.724 31.835 134.987 23 127l-2.145-1.898C8.347 113.382.382 96.065-.469 78.957L-.5 72.813l.02-3.292c.437-19.432 8.054-36.098 21.695-49.899C46.519-4.192 86.24-7.648 115 12z" fill="#c4d8fe"/><path d="M173 325c4.159 1.841 6.131 4.486 9 8 2.162 1.813 2.162 1.813 4 3-.583 3.396-1.657 5.024-4.098 7.426l-1.932 1.916-2.033 1.971-1.951 1.936a203.64 203.64 0 0 1-9.765 9.024c-4.098 3.571-7.957 7.335-11.783 11.192l-2.051 2.055-6.387 6.418-4.371 4.385L131 393l1.649 2.827 2.171 3.755 1.083 1.854c10.247 17.777 12.635 37 8.132 56.9-5.24 18.547-16.618 34.207-33.254 44.137-12.2 6.7-24 10.115-37.969 10.027l-3.292-.02c-19.432-.437-36.098-8.054-49.899-21.695-15.44-16.407-20.628-35.801-19.996-57.773C.589 413.649 9.378 398.251 23 385l1.836-1.828c14.661-13.588 34.577-17.979 53.982-17.308 12.282.767 24.534 5.043 34.463 12.316 1.691.971 1.691.971 3.641.742 2.929-1.299 4.628-3.228 6.828-5.547 2.863-3.001 5.732-5.823 8.886-8.517 4.536-3.951 8.783-8.15 13.021-12.416l2.387-2.391 7.457-7.488 5.094-5.107L173 325zM115 12c4.332 3.334 8.193 7.087 12 11l1.828 1.836c13.588 14.661 17.979 34.577 17.308 53.982-.767 12.282-5.043 24.534-12.316 34.463-.964 1.686-.964 1.686-.773 3.609 1.411 3.124 3.607 5.002 6.078 7.359 3.173 3.041 6.19 6.071 9.045 9.413 3.874 4.45 7.985 8.619 12.17 12.774l2.324 2.32 7.274 7.243 4.963 4.949L187 173c-1.142 3.426-2.203 4.245-4.937 6.5-2.572 2.129-4.185 3.684-6.062 6.5-3.396-.583-5.024-1.657-7.426-4.098l-1.916-1.932-1.971-2.033-1.936-1.951a203.64 203.64 0 0 1-9.024-9.765c-3.571-4.098-7.335-7.957-11.192-11.783l-2.055-2.051-6.418-6.387-4.385-4.371L119 131l-2.827 1.649-3.755 2.171-1.854 1.083c-17.768 10.242-37.523 12.948-57.383 8.003C41.691 140.724 31.835 134.987 23 127l-2.145-1.898C8.347 113.382.382 96.065-.469 78.957L-.5 72.813l.02-3.292c.437-19.432 8.054-36.098 21.695-49.899C46.519-4.192 86.24-7.648 115 12zM439.188-.5l3.286.015c20.205.434 36.194 8.725 50.714 22.571 14.36 15.09 19.6 33.39 19.332 53.811-.758 22.148-10.093 38.56-25.953 53.376-15.02 12.874-34.045 18.194-53.562 16.911-12.297-1.132-24.282-5.037-34.286-12.364-1.691-.971-1.691-.971-3.641-.742-2.929 1.299-4.628 3.228-6.828 5.547-2.864 3.002-5.734 5.824-8.89 8.517-4.524 3.94-8.738 8.143-12.946 12.416l-4.816 4.854-7.505 7.592-7.303 7.367-2.279 2.32-2.105 2.116-1.851 1.874C339 187 339 187 337 187c-1.586-1.609-1.586-1.609-3.375-3.75-2.441-2.874-4.901-5.635-7.625-8.25 1.313-2.902 2.719-4.967 4.977-7.207l1.785-1.779 1.863-1.826 1.793-1.791c3.027-2.997 6.111-5.883 9.345-8.655 4.103-3.576 7.968-7.343 11.799-11.206l2.051-2.055 6.387-6.418 4.371-4.385L381 119l-1.649-2.827-2.171-3.755-1.083-1.854c-10.139-17.589-12.996-37.428-8.132-57.158C373.93 33.778 385.913 17.933 404 8c11.258-5.937 22.479-8.578 35.188-8.5zM337 326c2.902 1.313 4.967 2.719 7.207 4.977l1.779 1.785 1.826 1.863 1.791 1.793c2.997 3.027 5.883 6.111 8.655 9.345 3.576 4.103 7.343 7.968 11.206 11.799l2.055 2.051 6.418 6.387 4.385 4.371L393 381l2.827-1.649 3.755-2.171 1.854-1.083c17.775-10.246 37.514-12.937 57.381-8.005 10.91 3.016 20.743 8.34 29.183 15.909l2.301 2.055c8.617 8.139 14.45 17.925 18.699 28.945l.973 2.516c4.274 13.598 4.044 32.148-.973 45.484l-1.066 3.023c-7.074 18.537-20.994 32.254-38.781 40.621-16.553 7.117-36.449 8.33-53.742 2.734C403.36 504.506 394.064 498.317 385 489l-1.828-1.836c-13.588-14.661-17.979-34.577-17.308-53.982.767-12.282 5.043-24.534 12.316-34.463.971-1.691.971-1.691.742-3.641-1.299-2.929-3.228-4.628-5.547-6.828-3.002-2.864-5.824-5.734-8.517-8.89-3.94-4.524-8.143-8.738-12.416-12.946l-4.854-4.816-7.592-7.505-7.367-7.303-2.32-2.279-2.116-2.105-1.874-1.851C325 339 325 339 325 337c1.609-1.586 1.609-1.586 3.75-3.375 2.874-2.441 5.635-4.901 8.25-7.625z" fill="#b5f3cb"/><path d="M285 152l2.03.602C306.819 158.603 323.27 169.495 337 185v2l1.727.602c3.163 1.945 4.744 4.68 6.648 7.773l1.19 1.907c15.726 25.546 21.23 55.841 14.269 85.321-4.965 18.94-14.101 34.558-27.834 48.397l-1.961 2.074c-1.297 1.357-2.659 2.652-4.039 3.926h-2l-.621 1.734c-1.876 3.083-4.443 4.649-7.441 6.516l-1.865 1.173c-24.614 15.091-52.771 20.755-81.447 15.39-18.274-4.462-18.274-4.462-21.625-7.812-2.2-15.583 5.113-34.526 14.184-46.75 6.324-7.834 13.627-14.413 23.816-16.25 9.772-.834 17.63-.044 25.594 5.953 9.048 7.794 14.928 16.005 19.406 27.047 5.219-4.824 8.465-10.919 12-17l1.641-2.746C321.724 280.531 323.007 251.696 316 226c-4.549-15.47-12.154-29.035-23-41l-1.327-1.476c-14.473-15.898-32.315-25.527-53.075-30.7L236 152l-1-2c15.847-2.89 34.55-2.663 50 2z" fill="#a4c2fe"/><g fill="#95e9b7"><path d="M173 325c4.159 1.841 6.131 4.486 9 8 2.162 1.813 2.162 1.813 4 3-.583 3.396-1.657 5.024-4.098 7.426l-1.932 1.916-2.033 1.971-1.951 1.936a203.64 203.64 0 0 1-9.765 9.024c-4.098 3.571-7.957 7.335-11.783 11.192l-2.051 2.055-6.387 6.418-4.371 4.385L131 393l1.649 2.827 2.171 3.755 1.083 1.854c10.247 17.777 12.635 37 8.132 56.9-5.24 18.547-16.618 34.207-33.254 44.137-12.204 6.702-23.997 10.106-37.969 10.027l-3.261-.002c-9.469-.175-17.753-2.11-26.551-5.498-.895-12.4 2.393-24.073 10-34 5.589-5.913 11.047-10.071 19.375-10.437 6.826.204 11.25 2.339 16.313 6.813a229 229 0 0 1 5 5.875c2.017 2.767 2.017 2.767 4.313 3.75l2-5 1.438-3.566c7.398-18.726 10.04-39.653 1.828-58.687C99.739 404.179 95.642 397.195 90 391l-2.051-2.293c-8.433-8.942-17.615-13.99-29.176-17.664C56 370 56 370 55 368c17.316-5.037 36.064-1.945 52 6 2.154 1.328 4.24 2.684 6.281 4.18 1.691.971 1.691.971 3.641.742 2.929-1.299 4.628-3.228 6.828-5.547 2.863-3.001 5.732-5.823 8.886-8.517 4.536-3.951 8.783-8.15 13.021-12.416l2.387-2.391 7.457-7.488 5.094-5.107L173 325zM60 0c23.301-.719 43.744 1.145 61.563 17.563a224.86 224.86 0 0 1 5.438 5.438l1.828 1.836c13.588 14.661 17.979 34.577 17.308 53.982-.767 12.282-5.043 24.534-12.316 34.463-.964 1.686-.964 1.686-.773 3.609 1.411 3.124 3.607 5.002 6.078 7.359 3.173 3.041 6.19 6.071 9.045 9.413 3.874 4.45 7.985 8.619 12.17 12.774l2.324 2.32 7.274 7.243 4.963 4.949L187 173c-1.142 3.426-2.203 4.245-4.937 6.5-2.572 2.129-4.185 3.684-6.062 6.5-3.396-.583-5.024-1.657-7.426-4.098l-1.916-1.932-1.971-2.033-1.936-1.951a203.64 203.64 0 0 1-9.024-9.765c-3.571-4.098-7.335-7.957-11.192-11.783l-2.055-2.051-6.418-6.387-4.385-4.371L119 131l-2.827 1.649-3.755 2.171-1.854 1.083c-19.035 10.972-39.08 12.654-60.053 7.167-2.732-.833-5.046-1.663-7.512-3.07-.618-12.364 2.732-24.432 10.375-34.312 5.723-5.86 10.487-8.815 18.813-9 7.377.098 11.769 1.258 17.004 6.512 2 2.221 3.911 4.493 5.809 6.801l2 2c10.663-20.537 13.84-39.227 8-62-7.048-21.969-23.337-35.256-43.07-45.496L59 3l1-3zm423.813 380.375L488 384l2.301 2.055c8.617 8.139 14.45 17.925 18.699 28.945l.973 2.516c4.274 13.598 4.044 32.148-.973 45.484l-1.066 3.023c-7.074 18.537-20.994 32.254-38.781 40.621-17.884 7.69-38.83 8.216-57.152 1.355l-2-1c-.876-13.509 2.412-25.374 11-36 5.279-5.085 10.419-7.642 17.75-8.375 6.58.251 12.028 2.334 16.887 6.797C462 476.335 462 476.335 462 479c8-7.328 11.441-20.267 12.2-30.763.522-13.263.225-25.832-5.262-38.112l-.921-2.067c-7.958-17.112-22.096-29.64-39.579-36.445-2.798-.941-5.594-1.822-8.437-2.613 18.161-10.897 48.535.003 63.813 11.375z"/><path d="M480 11c15.841 11.558 27.711 26.956 31.621 46.439 3.018 20.375.04 40.391-11.621 57.561-12.424 16.439-29.48 27.32-49.813 30.707-13.29 1.781-26.657.099-39.187-4.707-2.447-4.894-1.54-11.719-.316-16.887 3.748-10.901 9.266-20.021 19.145-26.27 5.859-2.276 13.266-1.898 19.102.219 5.777 3.231 9.585 7.356 13.07 12.938 3.044-.682 3.044-.682 4.246-2.793 8.674-17.434 11.302-38.311 5.859-57.297-3.631-9.558-8.26-18.26-15.105-25.91l-1.984-2.266C445.835 12.884 434.578 7.282 422 3V1c19.543-4.359 41.333-1.256 58 10z"/></g><path d="M273 295c14.326 10.787 22.743 25.414 26 43 .416 5.667.247 11.328 0 17-28.098 10.954-57.936 11.575-86 0-1.53-1.53-1.244-2.858-1.312-5 .204-17.84 7.557-35.925 19.75-48.812C242.68 290.523 259.159 286.641 273 295z" fill="#6293ff"/><path d="M63 196.75l2.625-.016C68 197 68 197 71 199c.293 3.039.293 3.039.188 6.625l-.082 3.602L71 212l1.758.078c7.149.519 10.967 2.543 15.992 7.797 3.744 5.2 4.504 9.662 4.375 16l-.055 3.492L93 242c-3.362 1.121-5.963 1.133-9.5 1.125l-3.469.008C77 243 77 243 74 242l-.332-2.117-.48-2.758-.457-2.742c-.561-2.727-.561-2.727-3.73-4.383-3.293-.395-3.293-.395-6.937-.375l-3.715-.086c-3.37.206-3.37.206-5.758 2.137-1.939 2.835-2.127 4.473-2.09 7.887l-.031 2.879c.294 2.638.294 2.638 2.216 4.156 2.719 1.647 4.745 2.007 7.894 2.394l3.27.449 6.758.844c8.23 1.145 13.989 3.13 19.77 9.215 5.609 8.629 5.528 19.723 3.938 29.625-1.452 6.493-4.199 10.3-9.5 14.25-4.344 2.249-8.998 2.431-13.812 2.625l.035 2.809.027 3.629.035 3.621C71 319 71 319 70 320c-2.332.099-4.666.13-7 .125l-3.875.008C56 320 56 320 55 319a153.02 153.02 0 0 1-.062-6.562l.027-3.629L55 306l-3 .188c-5.445-.055-9.901-1.286-13.992-4.992-5.435-5.976-7.286-10.321-7.133-18.508l.055-3.801L31 276l8.938-.062 2.576-.025 2.451-.01 2.269-.016C49 276 49 276 50 277c.491 2.282.899 4.573 1.305 6.871.571 2.493.571 2.493 3.695 4.129a76.24 76.24 0 0 0 7.438.375l3.996.086c3.568-.182 3.568-.182 6.012-2.168 1.827-2.694 2.065-4.126 1.992-7.355l-.004-2.598c-.519-2.8-1.158-3.667-3.434-5.34-5.316-1.482-10.595-2.222-16.062-2.937-7.682-1.068-14.19-2.479-19.937-8.062-6.444-9.368-5.666-22.207-4-33 1.659-6.438 5.265-9.404 10.781-12.871 4.431-2.255 8.274-2.224 13.219-2.129l-.105-2.773-.082-3.602-.105-3.586L55 199c3.239-2.159 4.249-2.272 8-2.25zm385 0l2.625-.016C453 197 453 197 456 199c.293 3.039.293 3.039.188 6.625l-.082 3.602L456 212l1.688.043c6.137.384 10.762 1.683 15.313 5.957 5.735 7.35 5.582 15.021 5 24-3.349 1.116-5.975 1.168-9.5 1.188l-3.469.043C462 243 462 243 459 241c-.684-2.291-1.007-4.546-1.375-6.906-.494-2.468-.494-2.468-3.625-4.094-3.329-.319-3.329-.319-7-.25l-3.75-.016c-3.397.013-3.397.013-6.25 2.266-.906 2.719-1.222 4.613-1.312 7.438l-.113 2.309c.598 3.167 1.969 4.213 4.426 6.254 2.616.808 2.616.808 5.508 1.055l3.242.426 6.68.766c7.539 1.001 13.615 2.851 19.57 7.754 6.096 8.549 5.545 18.952 5 29-1.072 6.13-3.404 10.703-8 15-5.304 3.2-9.841 4.524-16 4l.035 2.809.027 3.629.035 3.621C456 319 456 319 455 320c-2.332.099-4.666.13-7 .125l-3.875.008C441 320 441 320 440 319a153.02 153.02 0 0 1-.062-6.562l.027-3.629L440 306l-3 .188c-5.439-.055-9.874-1.299-13.992-4.957-6.369-6.911-7.233-12.492-7.176-21.719C416 277 416 277 417 276c1.343-.086 2.69-.107 4.035-.098l2.451.01 2.576.025 2.588.014L435 276l.332 2.117.48 2.758.457 2.742c.561 2.727.561 2.727 3.73 4.383a91.71 91.71 0 0 0 8 .313l2.195.049c2.934.003 5.222-.015 7.781-1.537 1.415-2.522 1.422-4.444 1.398-7.324l.023-2.906c-.196-2.604-.196-2.604-1.699-4.375-4.131-2.963-10.072-3.138-15.012-3.832-18.067-2.607-18.067-2.607-23.004-9.125-3.999-6.508-3.923-12.606-3.996-20.012l-.088-2.922c-.065-7.406 1.29-12.65 6.111-18.352 5.913-4.803 10.559-6.286 18.289-5.977l-.105-2.773-.082-3.602-.105-3.586L440 199c3.239-2.159 4.249-2.272 8-2.25z" fill="#ffab1d"/><path d="M273.191 205.25c5.99 4.001 10.108 9.783 12.445 16.609 1.463 8.622 1.454 17.359-3.105 24.996-5.43 7.605-11.426 11.643-20.531 14.145-9.549 1.519-17.095-.489-25-6-6.166-5.49-10.557-11.096-11.309-19.418-.351-10.607 1.22-19.143 8.605-27.051 11.809-10.618 25.427-10.963 38.895-3.281z" fill="#417bff"/><path d="M82.375 464.688C91.819 470.196 97.757 479.804 101 490c.957 3.828 1.106 7.372 1.063 11.313l-.027 3.238L102 507l-5.687 1.938-3.199 1.09C76.975 515.069 58.544 512.987 43 507c-.895-12.4 2.393-24.073 10-34 8.011-8.475 17.917-13.651 29.375-8.312z" fill="#54d48d"/><path d="M453 467c8.544 7.309 14.573 17.746 16 29 .142 3.674.122 7.326 0 11-18.208 7.013-38.575 7.899-57 1l-2-1c-.876-13.509 2.412-25.374 11-36 9.317-8.974 20.801-10.709 32-4z" fill="#54d48c"/><path d="M83.313 98.438c9.333 5.612 14.19 15.139 18 24.938 1.007 5.31 2.179 12.642-.312 17.625-2.695 1.035-2.695 1.035-6.125 2.063l-3.383 1.035C76.62 147.94 56.733 147.837 43 140c-.618-12.364 2.732-24.432 10.375-34.312 8.004-8.195 18.716-12.168 29.938-7.25z" fill="#54d48d"/><path d="M448.93 98.063c5.788 3.237 9.672 7.288 13.07 12.938l1.145 1.902c4.667 8.547 6.422 17.428 5.855 27.098-19.226 7.53-38.483 8.487-58 1-2.447-4.894-1.54-11.719-.316-16.887 3.748-10.901 9.266-20.021 19.145-26.27 5.859-2.276 13.266-1.898 19.102.219z" fill="#54d48c"/><path d="M173 325c4.159 1.841 6.131 4.486 9 8 2.162 1.813 2.162 1.813 4 3-.583 3.396-1.657 5.024-4.098 7.426l-1.932 1.916-2.033 1.971-1.951 1.936a203.64 203.64 0 0 1-9.765 9.024c-4.098 3.571-7.957 7.335-11.783 11.192l-2.051 2.055-6.387 6.418-4.371 4.385L131 393c-3.123-1.484-5.177-2.981-7.562-5.5-2.113-2.221-3.854-3.777-6.437-5.5 1.544-3.69 3.788-6.024 6.625-8.812l2.477-2.457a185.08 185.08 0 0 1 6.539-5.866c4.531-3.956 8.779-8.157 13.016-12.423l2.387-2.391 7.457-7.488 5.094-5.107L173 325zm-43-208c3.912 1.594 6.372 4.139 9.313 7.125l2.738 2.758c2.119 2.198 4.126 4.467 6.112 6.785 3.879 4.445 7.992 8.615 12.177 12.77l2.324 2.32 7.274 7.243 4.963 4.949L187 173c-1.142 3.426-2.203 4.245-4.937 6.5-2.572 2.129-4.185 3.684-6.062 6.5-3.396-.583-5.024-1.657-7.426-4.098l-1.916-1.932-1.971-2.033-1.936-1.951a203.64 203.64 0 0 1-9.024-9.765c-3.571-4.098-7.335-7.957-11.192-11.783l-2.055-2.051-6.418-6.387-4.385-4.371L119 131c1.484-3.123 2.981-5.177 5.5-7.562 2.221-2.113 3.777-3.854 5.5-6.437zm207 209c2.902 1.313 4.967 2.719 7.207 4.977l1.779 1.785 1.826 1.863 1.791 1.793c2.999 3.028 5.884 6.114 8.655 9.352 3.561 4.086 7.331 7.901 11.206 11.687l4.17 4.119 6.505 6.392 6.325 6.239 1.988 1.932 1.812 1.802 1.605 1.576C393 381 393 381 393 384c-1.645 1.684-1.645 1.684-3.812 3.438-2.848 2.319-5.084 4.543-7.187 7.563-3.69-1.544-6.024-3.788-8.812-6.625l-2.457-2.477a184.65 184.65 0 0 1-5.866-6.543c-3.945-4.519-8.15-8.734-12.423-12.941l-4.854-4.816-7.592-7.505-7.367-7.303-2.32-2.279-2.116-2.105-1.874-1.851C325 339 325 339 325 337c1.609-1.586 1.609-1.586 3.75-3.375 2.874-2.441 5.635-4.901 8.25-7.625zm47-207c1.684 1.645 1.684 1.645 3.438 3.813 2.319 2.848 4.543 5.084 7.563 7.188-1.544 3.69-3.788 6.024-6.625 8.813l-2.477 2.457a184.65 184.65 0 0 1-6.543 5.866c-4.519 3.945-8.734 8.15-12.941 12.423l-4.816 4.854-7.505 7.592-7.303 7.367-2.279 2.32-2.105 2.116-1.851 1.874C339 187 339 187 337 187c-1.586-1.609-1.586-1.609-3.375-3.75-2.441-2.874-4.901-5.635-7.625-8.25 1.313-2.902 2.719-4.967 4.977-7.207l1.785-1.779 1.863-1.826 1.793-1.791c3.028-2.999 6.114-5.884 9.352-8.655 4.086-3.561 7.901-7.331 11.687-11.206l4.119-4.17 6.392-6.505 6.239-6.325 1.932-1.988 1.802-1.812 1.576-1.605C381 119 381 119 384 119z" fill="#fee957"/><path d="M446 402c6.231 2.148 9.653 6.524 13 12 1.893 5.68 1.921 11.741-.562 17.25-2.841 4.977-6.904 8.283-11.812 11.125-6.549 1.559-11.942 1.158-17.84-2.172-4.372-2.947-7.436-6.519-9.785-11.203-.782-6.025-.934-11.909 1.563-17.5 8.24-8.451 13.312-10.658 25.438-9.5zm-363.625 1c4.203 3.202 8.241 7.232 10.625 12 .683 7.439 1.158 14.285-3.508 20.453-4.675 4.846-10.126 7.579-16.805 7.922-5.811-.164-10.205-2.052-14.449-6.023-5.033-5.581-6.737-10.269-6.547-17.793.828-6.862 4.408-11.166 9.625-15.43 5.7-3.822 14.768-2.993 21.059-1.129z" fill="#33c977"/><path d="M80.75 36.188C86.508 39.399 90.903 42.591 93 49c.844 7.391.599 13.92-4 20-3.618 3.782-7.53 6.735-12.805 7.301-7.486.029-11.943-.59-17.82-5.488-4.785-5.667-7.167-10.833-6.82-18.359 1.215-6.693 5.736-11.122 10.797-15.324 5.31-3.637 12.584-2.782 18.398-.941zm368.563.937C454.036 40.493 457.727 44.607 460 50c1 6.839-.113 12.309-4 18-4.075 4.956-8.321 7.5-14.613 8.355-6.785.347-11.228-.904-16.387-5.355-5.469-5.757-6.516-11.24-6.383-18.988.742-5.835 3.715-9.387 7.82-13.387 6.926-4.392 15.584-5.787 22.875-1.5z" fill="#33c976"/></svg>