<svg xmlns="http://www.w3.org/2000/svg" data-name="Layer 1" viewBox="0 0 100 100" id="badge"><path fill="none" d="M37.71 64.28l3.77 2A7.28 7.28 0 0037.71 64.28zM58.63 66.19L62 64.34A7.3 7.3 0 0058.63 66.19zM72 38.4a22 22 0 10-22 22A22 22 0 0072 38.4zM61.18 54.45a1.46 1.46 0 01-.87.28 1.44 1.44 0 01-.69-.17L50 49.5l-9.63 5.06A1.47 1.47 0 0138.23 53l1.84-10.72L32.28 34.7a1.48 1.48 0 01.82-2.52l10.76-1.57 4.81-9.75A1.49 1.49 0 0150 20a1.48 1.48 0 011.32.82l4.82 9.75L66.9 32.18a1.48 1.48 0 011.19 1 1.49 1.49 0 01-.37 1.52l-7.79 7.59L61.77 53A1.49 1.49 0 0161.18 54.45z"></path><path fill="#ec6568" d="M31.74,82.32a1.49,1.49,0,0,1,1.78.75l4.25,8.64,7-20.06A7.35,7.35,0,0,1,43.16,69a7.22,7.22,0,0,0-1.28-2.23c-.13-.15-.26-.29-.4-.43l-3.77-2a8,8,0,0,0-1.38-.14,5.17,5.17,0,0,0-.68,0,7.41,7.41,0,0,0-2.44.67,7.49,7.49,0,0,1-2.79.72h-.25L23.36,85Z"></path><path fill="#333" d="M44.8,71.65l-7,20.06-4.25-8.64a1.49,1.49,0,0,0-1.78-.75L23.36,85l6.81-19.44h-.11A6.85,6.85,0,0,1,27.25,65L19.6,86.83a1.47,1.47,0,0,0,1.84,1.89l10-3.2,5.25,10.66A1.47,1.47,0,0,0,38,97h.09a1.48,1.48,0,0,0,1.3-1l8-22.7-.18-.07A7.17,7.17,0,0,1,44.8,71.65Z"></path><path fill="#ec6568" d="M66.25,83.07A1.48,1.48,0,0,1,68,82.32L76.4,85,69.59,65.56h-.26a7.23,7.23,0,0,1-2.54-.7,7.18,7.18,0,0,0-2.63-.69l-.49,0a7,7,0,0,0-1.65.2l-3.39,1.85c-.14.13-.27.26-.4.4A7.63,7.63,0,0,0,56.83,69,7.23,7.23,0,0,1,55,71.81l7,19.91Z"></path><path fill="#333" d="M69.59,65.56,76.4,85,68,82.32a1.48,1.48,0,0,0-1.78.75L62,91.72,55,71.81a7.07,7.07,0,0,1-2.38,1.51l-.2.06L60.37,96a1.48,1.48,0,0,0,1.3,1h.09a1.49,1.49,0,0,0,1.33-.82l5.25-10.66,10,3.2a1.47,1.47,0,0,0,1.84-1.89L72.54,65.06A6.93,6.93,0,0,1,69.59,65.56Z"></path><path fill="#70c8f2" stroke="#333" stroke-linejoin="round" stroke-width="3" d="M80.58,31.56a7.23,7.23,0,0,1-4.13-9.95A7.22,7.22,0,0,0,66.79,12a7.26,7.26,0,0,1-10-4.13,7.26,7.26,0,0,0-13.67,0,7.25,7.25,0,0,1-6.84,4.83,7.37,7.37,0,0,1-3.11-.7,7.22,7.22,0,0,0-9.66,9.66,7.26,7.26,0,0,1-4.13,10,7.26,7.26,0,0,0,0,13.67,7.27,7.27,0,0,1,4.13,10A7.2,7.2,0,0,0,27.25,65a6.85,6.85,0,0,0,2.81.61h.36a7.49,7.49,0,0,0,2.79-.72,7.41,7.41,0,0,1,2.44-.67,5.17,5.17,0,0,1,.68,0,8,8,0,0,1,1.38.14,7.28,7.28,0,0,1,3.77,2c.14.14.27.28.4.43A7.22,7.22,0,0,1,43.16,69a7.35,7.35,0,0,0,1.64,2.68,7.17,7.17,0,0,0,2.37,1.59l.18.07A7.54,7.54,0,0,0,50,73.8a7.24,7.24,0,0,0,2.44-.42l.2-.06A7.07,7.07,0,0,0,55,71.81,7.23,7.23,0,0,0,56.83,69a7.63,7.63,0,0,1,1.4-2.38c.13-.14.26-.27.4-.4A7.3,7.3,0,0,1,62,64.34a7,7,0,0,1,1.65-.2l.49,0a7.18,7.18,0,0,1,2.63.69,7.23,7.23,0,0,0,2.54.7h.26a6.93,6.93,0,0,0,3-.5,7.35,7.35,0,0,0,4.64-6.73,7.15,7.15,0,0,0-.73-3.14,7.24,7.24,0,0,1,4.13-10,7.26,7.26,0,0,0,0-13.67ZM50,60.35a22,22,0,1,1,22-22A22,22,0,0,1,50,60.35Z"></path><path fill="#fecb37" d="M57.31,40.72l6.2-6-8.57-1.24a1.5,1.5,0,0,1-1.11-.81L50,24.85l-3.83,7.77a1.52,1.52,0,0,1-1.12.81l-8.57,1.24,6.2,6a1.47,1.47,0,0,1,.43,1.3l-1.46,8.54,7.66-4a1.47,1.47,0,0,1,1.38,0l7.66,4L56.89,42A1.43,1.43,0,0,1,57.31,40.72Z"></path><path fill="#333" d="M59.93,42.29l7.79-7.59a1.49,1.49,0,0,0,.37-1.52,1.48,1.48,0,0,0-1.19-1L56.14,30.61l-4.82-9.75A1.48,1.48,0,0,0,50,20a1.49,1.49,0,0,0-1.33.82l-4.81,9.75L33.1,32.18a1.48,1.48,0,0,0-.82,2.52l7.79,7.59L38.23,53a1.47,1.47,0,0,0,2.14,1.55L50,49.5l9.62,5.06a1.44,1.44,0,0,0,.69.17,1.46,1.46,0,0,0,.87-.28A1.49,1.49,0,0,0,61.77,53Zm-9.24,4.24a1.47,1.47,0,0,0-1.38,0l-7.66,4L43.11,42a1.47,1.47,0,0,0-.43-1.3l-6.2-6,8.57-1.24a1.52,1.52,0,0,0,1.12-.81L50,24.85l3.83,7.77a1.5,1.5,0,0,0,1.11.81l8.57,1.24-6.2,6a1.43,1.43,0,0,0-.42,1.3l1.46,8.54Z"></path></svg>