<svg xmlns="http://www.w3.org/2000/svg" width="512" height="512" xmlns:v="https://vecta.io/nano"><path d="M345.438 25.188c7.913 5.597 10.743 12.134 13.684 21.09l1.072 3.254L361 52l1.962.272C402.981 57.939 448.13 71.654 475 104c5.858 9.008 7.917 16.241 7 27-2.2 7.522-7.776 12.947-14.453 16.797-21.114 9.974-50.543 6.789-72.547 1.203l1.054 3.054 3.908 11.35 1.685 4.888C411.823 197.781 411.823 197.781 406 211l-2 5 1.938.688C409 218 409 218 410.879 219.202c6.132 3.888 11.024 4.454 18.184 4.36 7.932-.071 14.473.349 20.565 5.928 2.499 2.635 4.307 5.391 6.064 8.572 4.355 7.855 8.326 11.827 16.176 16.18 2.821 1.583 5.265 3.206 7.758 5.258l1.789 1.469c4.853 6.215 4.816 12.54 4.711 20.031.115 9.6 2.595 15.921 7.844 23.848 3.098 4.808 3.75 9.46 3.031 15.152-1.302 4.064-3.149 7.763-5.566 11.277-4.759 7.258-5.124 13.733-5.12 22.198-.042 8.539-2.239 14.286-8.314 20.524-2.276 1.643-4.651 2.992-7.125 4.313l-1.879 1.049c-2.636 1.454-5.135 2.685-7.996 3.639-1.018 2.657-1.018 2.657-1 6 1.508 2.68 3.575 4.782 5.688 7l3.617 3.98 1.87 2.025c2.784 3.042 5.463 6.17 8.138 9.307l1.492 1.741c13.332 15.599 13.332 15.599 13.508 21.696l.113 2.547c-1.074 6.819-7.215 11.786-11.895 16.438l-2.174 2.18-4.539 4.528-6.932 6.945-4.418 4.41-2.087 2.099-1.962 1.943-1.713 1.708c-3.948 3.361-7.409 3.907-12.461 3.758-3.665-.497-5.557-1.804-8.246-4.305-3.25-5.969-5.742-12.159-8.187-18.492l-1.165-2.988-3.648-9.395-3.648-9.374-2.257-5.81L412 413c-2.719 1.054-5.209 2.119-7.75 3.563-6.754 2.987-12.367 2.942-19.238.34-2.468-1.107-4.732-2.452-7.012-3.902h-2l-1.326 3.415-11.631 29.81-4.604 11.812-3.627 9.276-.984 2.592c-2.155 5.384-4.497 8.429-9.828 11.095-1.953.238-1.953.238-4.25.313l-2.266.113c-6.551-1.123-11.468-7.102-15.965-11.605l-2.105-2.092-4.374-4.372-6.695-6.649-4.264-4.262-2.017-1.989c-5.175-5.226-8.318-9.602-8.561-17.233 1.356-6.074 5.497-10.598 9.684-14.973 4.389-4.659 8.531-9.44 12.527-14.445 1.665-2.043 3.348-4.02 5.102-5.984l1.418-1.615 3.992-4.479c2.014-2.559 2.014-2.559 1.789-5.406-1.223-2.793-2.258-3.585-4.891-5.07l-2.117-1.234c-2.122-1.135-2.122-1.135-5.008-2.016l-.664 2.344c-1.811 4.957-4.244 9.497-6.711 14.156l-1.615 3.075-12.437 23.011L283.5 441.5l-13.062 24.688-1.48 2.734C260.324 484.717 260.324 484.717 251 488c-9.391 1.919-16.491-2.243-24.425-6.604-2.923-1.584-5.874-3.106-8.833-4.622l-34.534-18.304L162.5 447.5l-26.191-13.98L115.5 422.5l-26.191-13.98L68.5 397.5c-10.735-5.547-21.372-11.256-31.947-17.103l-5.503-2.952-2.96-1.57-2.692-1.41c-4.468-2.729-7.187-6.372-9.773-10.84-3.034-12.745 4.076-23.287 10-34.125l2.995-5.537 2.107-3.895 11.131-20.906 19.458-36.545L76 235l16.5-31 16.375-30.75 1.143-2.161 4.576-8.652 33.661-63.185 5.17-9.709 3.199-5.98 1.433-2.727c3.767-6.997 8.036-12.815 15.863-15.493a253.17 253.17 0 0 1 7.121-1.924l2.747-.727 9.042-2.364 6.388-1.683 17.071-4.475 28.033-7.357 10.397-2.729 36.011-9.638 6.076-1.665 14.175-3.913c24.882-6.989 24.882-6.989 34.455-3.682zM365 65l2.203 6.68.707 2.144 3.994 11.918c2.557 7.523 5.072 15.032 7.247 22.676 3.633 15.504 3.633 15.504 11.906 28.395 4.492 2.288 8.864 2.489 13.83 2.248 2.942-.084 5.621.567 8.488 1.189 7.246.945 14.513.996 21.813 1.063l3.601.054c11.438-.01 20.97-1.617 29.586-9.554 2.339-4.048 2.454-7.249 1.625-11.812-4.741-13.604-18.331-21.836-30-29l-1.834-1.152C416.341 76.252 390.616 67.355 365 65z" fill="#535a88"/><path d="M183 142c2.627 1.003 2.627 1.003 5.281 2.422l3.016 1.59 3.203 1.738 3.359 1.785 23.828 12.942c6.886 3.777 13.835 7.418 20.813 11.022l26.191 13.98L289.5 198.5l26.706 14.235L341 226c0 3.617-1.07 4.329-3.375 6.922-2.926 3.742-5.188 7.948-7.562 12.055-3.538 5.187-8.21 7.784-13.562 10.898-5.793 3.465-10.288 6.489-12.5 13.125-.034 1.563-.015 3.128.035 4.691.122 11.957-1.047 20.059-7.503 30.204-3.774 6.034-5.045 10.973-3.532 18.104l1.336 2.734c1.045 5.137-1.442 8.357-3.961 12.766l-1.526 2.786-3.222 5.809-6.088 11.069-2.985 5.461L266 382.5l-13.766 25.753-6.59 12.317-1.079 2.096-2.749 5.436c-2.008 3.205-3.556 4.975-6.816 6.898-5.551.512-8.852-.536-13.699-3.191l-1.89-1.019-6.098-3.352-4.315-2.342-8.793-4.796-18.08-9.737-3.41-1.829-27.465-14.609-2.16-1.143-8.653-4.576-26.759-14.196-3.908-2.082-1.937-1.032-11.883-6.271-7.788-4.102-5.395-2.816C71.726 352.062 71.726 352.062 69 348c-.509-5.973.377-9.854 3.34-15.094l1.07-1.988 3.528-6.419 2.467-4.55 5.099-9.367 10.02-18.743 5.255-9.895 8.539-16.078 4.309-8.117 1.068-2.011 15.12-28.301 14.841-28.139 11.832-21.991c2.665-4.849 5.256-9.725 7.761-14.659l1.619-3.176 3.039-6.062c3.668-7.213 6.286-12.065 15.096-11.41z" fill="#fdbb01"/><path d="M341.468 36.526c3.192 3.118 4.366 6.35 5.743 10.486l.873 2.492 1.895 5.498 3.28 9.481 7.366 21.33 3.763 10.933 2.396 6.963 7.452 20.892C375 127 375 127 375 130c-4.789-.69-8.924-2.492-13.312-4.437l-2.373-1.051c-8.639-3.946-18.541-8.738-25.314-15.511.259-2.011.605-4.011 1-6 .78-8.78.28-15.726-5-23-5.391-6.081-10.984-9.427-19.043-10.348-8.81-.403-15.407 1.237-22.023 7.215-6.231 6.687-8.544 12.943-8.281 22.07.902 7.943 4.391 14.73 10.348 20.063 6.743 4.893 13.853 5.883 22 5 4.73-1.41 8.896-3.264 13-6 3.033.366 5.193 1.58 7.73 3.223l2.157 1.371 2.3 1.469c12.073 7.531 24.461 13.508 38.055 17.734 3.698 1.613 5.101 3.729 6.726 7.377l.841 2.376.97 2.712 1.014 2.91 1.063 3.019 2.206 6.324 3.397 9.625 2.146 6.156 1.032 2.886c2.324 6.79 3.584 12.314 1.148 19.302-5.557 10.534-5.557 10.534-12.254 12.621-3.081 1.089-5.426 2.789-8.156 4.582-8.702 4.847-18.16 4.308-27.902 4.218-2.499.001-2.499.001-4.931.769-3.525.451-5.194-.682-8.276-2.401l-3.39-1.858-3.625-2.04-5.687-3.124-3.875-2.133c-6.13-3.381-12.337-6.604-18.563-9.805l-25.818-13.794c-7.933-4.349-15.957-8.514-23.995-12.666l-20.187-10.791c-9.535-5.249-19.174-10.28-28.853-15.256-5.545-2.854-11.041-5.745-16.432-8.883-2.848-1.43-4.743-1.628-7.84-.924-5.757 4.484-8.365 11.033-11.562 17.438l-3.75 7.363-.947 1.862c-2.828 5.548-5.793 11.012-8.803 16.463L139.5 209.5l-13.98 26.191c-4.349 7.934-8.514 15.958-12.666 23.997l-10.791 20.187c-5.102 9.27-9.995 18.639-14.821 28.055-2.84 5.521-5.731 10.994-8.797 16.394l-1.695 3.004-3.195 5.52C70.531 338.18 69.035 341.847 70 348c2.648 3.162 5.429 4.967 9.086 6.813l3.035 1.551L85.375 358l6.836 3.5 3.468 1.777c4.816 2.498 9.571 5.102 14.321 7.723l23.5 12.5 26.191 13.98L180.5 408.5l24.25 12.875 2.752 1.501 11.51 6.429 3.426 1.945 2.809 1.641c3.558 1.433 5.95 1.641 9.754 1.109 5.821-4.016 8.507-11.068 11.688-17.187l1.957-3.708 4.173-7.94 6.675-12.66 1.139-2.15 2.286-4.316 3.437-6.494L295 327c6.298 8.254 8.706 14.274 8.625 24.75-.102 8.591-.102 8.591 3.375 16.25-.385 4.449-1.672 7.791-3.738 11.719l-1.717 3.29-1.857 3.492-1.914 3.644-13.302 24.645c-3.761 6.851-7.385 13.767-10.971 20.711l-13.125 24.75-1.506 2.76c-6.351 11.583-6.351 11.583-8.619 13.365-7.557 2.099-14.415-2.739-20.812-6.187l-3.346-1.771-23.78-12.894L181.5 444.5l-26.191-13.98L134.5 419.5l-26.191-13.98L87.5 394.5l-28.895-15.434-12.242-6.602-3.342-1.783-6.432-3.406-2.918-1.561-2.591-1.371C29 363 29 363 27 360c-1.087-7.764 2.065-12.942 5.75-19.625l1.783-3.328L40 327l3.113-5.719 4.435-8.11L58 293.5l11.938-22.375 14.209-26.812 10.791-20.187L108 199.5l14.602-27.434L133 152.5l13.421-25.072L157.75 106l10.813-20.375 1.754-3.148c3.067-4.512 6.427-5.917 11.609-7.309l3.569-.971 3.818-1.009 3.937-1.062L205 69l3.291-.874 27.347-7.013c7.502-1.848 14.944-3.822 22.362-5.988 11.903-3.472 23.937-6.395 35.972-9.372 7.839-1.95 15.632-4.04 23.379-6.328l2.86-.838 5.56-1.659c11.08-3.258 11.08-3.258 15.696-.404z" fill="#fefefe"/><path d="M436 263l1.922 1.359c11.77 9.179 20.357 24.84 22.691 39.488 1.057 9.823 1.569 20.704-1.613 30.152l-1 3.039c-2.736 7.686-6.254 14.334-11 20.961l-1.359 1.922c-6.979 8.95-17.152 15.127-27.641 19.078l-2.945 1.188c-15.618 5.637-34.15 3.998-49.185-2.701-17.141-8.222-28.961-22.45-35.873-40.041-5.671-16.272-4.087-34.174 2.441-49.91 8.206-16.59 22.457-28.831 39.563-35.535l2.605-1.035c20.74-6.913 44.241-.249 61.395 12.035z" fill="#fdfefe"/><path d="M398 225c2.964 1.187 5.606 2.753 8.313 4.438l4.176 2.496 1.829 1.127c3.255 1.818 5.967 2.06 9.612 2.08l2.91.059 6.047.055c7.324.186 7.324.186 11.059 2.836 1.903 2.696 3.513 5.358 5.034 8.278 4.78 9.105 9.857 12.874 19.021 17.632 6.64 4.279 6.64 4.279 8 7a77.88 77.88 0 0 1 .176 4.438c.318 13.573 1.761 22.655 9.652 33.945 1.615 3.606 1.843 6.777 1.172 10.617-1.187 2.985-2.751 5.647-4.437 8.375l-1.275 2.152L476 336c-1.254 2.507-1.142 4.282-1.176 7.086l-.072 3.07-.094 6.414-.084 3.078-.044 2.818c-.816 3.898-3.128 5.595-6.342 7.747l-1.833 1.013c-8.432 4.84-14.662 8.959-19.355 17.773l-2.687 5-1.074 2.188C441.7 394.44 440.518 394.98 438 396c-2.315.24-2.315.24-4.852.238l-2.816.038-2.958.036c-8.267.238-14.443.866-21.375 5.688l-4.75 2.813-2.047 1.27c-3.002 1.251-4.964 1.304-8.203.918-2.498-1.208-4.728-2.413-7.062-3.875-8.055-4.947-8.055-4.947-17.246-6.293l-3.014-.021-6.219.063c-7.388-.1-7.388-.1-10.395-2.27-1.581-1.786-2.838-3.56-4.064-5.604l-1.906-3.133-1.594-2.992c-4.883-8.52-11.3-12.09-19.574-16.91-2.82-1.894-4.177-3.116-5.926-5.965-.337-2.283-.337-2.283-.301-4.781l-.013-2.785.001-2.934c-.198-9.392-1.385-15.592-6.687-23.5-3.099-4.879-4.589-8.07-4-14 1.209-2.901 2.786-5.519 4.438-8.187l2.496-4.168 1.127-1.833c1.815-3.5 2.058-6.721 2.08-10.62l.059-2.764.055-5.719c.119-4.422.198-6.947 2.828-10.604 3.335-2.406 6.747-4.397 10.355-6.355 6.409-3.67 10.163-7.084 13.563-13.75l3.188-5.437 1.418-2.496C346 238 346 238 349 236c2.11-.255 2.11-.255 4.535-.273l2.688-.053 2.839-.048c11.493-.385 18.875-2.851 28.32-9.453 3.605-1.614 6.778-1.845 10.617-1.172zm-56.316 48.473c-12.093 14.112-15.802 31.324-14.852 49.455.399 4.914 1.558 9.43 3.168 14.073l1.031 3.012c6.394 16.871 18.932 29.47 34.914 37.461 16.006 7.167 34.212 8.048 50.703 2.152 17.748-6.834 30.652-18.156 38.789-35.5 7.694-17.493 7.614-36.471.82-54.262-7.259-16.524-18.851-28.857-35.66-35.871-29.743-11.361-57.438-3.444-78.914 19.48z" fill="#5c9efd"/><path d="M397 279c6.692 3.278 9.778 8.74 12.313 15.5L410 297l1.688-.105c6.316-.224 11.847.33 16.922 4.395 2.502 2.628 3.38 4.645 3.953 8.211-.783 4.872-2.684 7.87-6.422 11.113-3.805 3.099-3.805 3.099-5.367 7.516.299 2.323.75 4.579 1.227 6.871.479 4.828.483 8.051-1.75 12.438-3.324 3.786-4.867 4.396-9.875 5-3.752-.056-6.223-1.223-9.5-3-3.774-2.031-3.774-2.031-8-2.5-2.424.896-4.486 1.905-6.75 3.125-4.332 2.27-7.259 2.496-12.125 1.938-4.166-1.759-6.241-3.834-8-8-.251-3.697-.27-6.812.551-10.422.559-2.746.854-4.794.449-7.578-2.034-2.719-4.218-4.794-6.801-6.992-3.041-2.776-4.046-4.831-4.574-8.883.559-4.658 2.754-7.564 6.09-10.777 3.078-1.815 5.546-1.623 9.098-1.723 3.771-.299 3.771-.299 7.188-1.625 2.478-3.15 3.898-6.119 5.375-9.836 2.879-5.605 7.378-8.205 13.625-7.164z" fill="#565c87"/><path d="M451 399c2.899 1.293 4.766 2.565 6.813 4.984l1.553 1.815 1.634 1.95 1.708 2.007 3.525 4.157 5.181 6.05 3.211 3.723 1.504 1.743c2.392 2.788 4.714 5.594 6.871 8.569-1.352 3.03-2.855 5.085-5.23 7.391l-1.923 1.888-2.034 1.971c-4.577 4.499-9.043 8.99-13.184 13.898-3.346 3.803-7.012 7.309-10.629 10.852-1.788-.499-1.788-.499-4-2a79.45 79.45 0 0 1-3.391-8.023l-.928-2.454-2.932-7.898-2.018-5.372-2.987-7.956c-2.761-7.383-5.661-14.7-8.662-21.988C423 409.201 423 409.201 423 407l3.438-.078c13.571-.393 13.571-.393 24.563-7.922z" fill="#fdfdfd"/><path d="M335 399c2.018.939 3.791 1.826 5.508 3.254 6.918 5.598 16.029 4.647 24.492 4.746-2.123 7.526-4.713 14.805-7.527 22.098l-1.304 3.38-2.721 7.011-2.767 7.195-4.022 10.413-1.235 3.27-1.183 2.996-1.022 2.647C342 468 342 468 340.078 468.972 338 469 338 469 336.266 467.867l-1.75-1.783-2.001-2.002-2.125-2.203-2.202-2.224-6.938-7.093-4.715-4.783L305 436c1.883-4.025 4.523-7.121 7.438-10.437l3.25-3.746 1.668-1.917 7.582-8.899 1.32-1.56L335 399z" fill="#fdfdfe"/><path d="M329 220l12 6c0 3.617-1.07 4.329-3.375 6.922-2.926 3.742-5.188 7.948-7.562 12.055-3.538 5.187-8.21 7.784-13.562 10.898-5.793 3.465-10.288 6.489-12.5 13.125-.034 1.563-.015 3.128.035 4.691.122 11.957-1.047 20.059-7.503 30.204-3.774 6.034-5.045 10.973-3.532 18.104l1.227 2.93c1.041 4.132-.064 5.777-2.102 9.445l-1.742 3.211L289 340h-2l-5.5-9.5-1.59-2.687c-3.178-5.612-4.794-9.353-3.91-15.812 1.102-3.055 1.102-3.055 2.625-5.875l1.645-3.082c2.108-3.706 4.27-7.37 6.531-10.984 2.181-3.745 2.331-6.796 2.375-11.047l.072-3.58.094-7.453c.184-7.863.595-11.994 6.271-17.561l1.699-1.23 2.082-1.516c2.039-1.308 4.044-2.463 6.18-3.594 9.845-5.308 14.277-10.141 19.426-20.078 1.287-2.037 2.634-4.015 4-6z" fill="#e19b01"/><path d="M130 302c2.829 1.104 5.495 2.467 8.188 3.867l2.361 1.195 7.452 3.813 9.688 4.93 2.515 1.28 18.778 9.169 36.716 18.002 9.209 4.589 8.896 4.441 3.329 1.654 3.051 1.53 2.683 1.339C245 359 245 359 247 361c.25 3 .25 3 0 6-2 2-2 2-4.57 2.375-4.644-.508-8.161-2.296-12.305-4.375l-2.258-1.098-13.101-6.52-21.98-10.979-20.351-10.16-13.612-6.794-13.302-6.641-5.037-2.513-7.011-3.502-2.08-1.034c-9.29-4.655-9.29-4.655-11.394-6.759.313-3.5.313-3.5 1-7 3.189-1.595 5.555-.713 9 0z" fill="#555b84"/><path d="M198.188 223c5.841 3.184 9.707 7.685 11.813 14 .713 6.876.743 12.536-3.43 18.246-3.901 4.358-7.813 8.553-13.836 8.992l-3.984.074-3.953.113c-5.739-.644-9.397-3.521-13.047-7.863l-1.453-1.684c-3.823-5.539-4.275-11.354-3.297-17.879 2.765-7.187 7.025-11.803 14-15 6.068-2.023 11.351-1.627 17.188 1zm70.664 40.59c4.614 3.029 8.398 7.158 10.148 12.41.632 7.57 1.016 14.869-4 21-6.565 6.134-11.995 7.486-20.887 7.41-6.429-.847-10.57-4.511-14.551-9.41-3.21-6.163-5.011-12.204-2.945-19.043 2.83-6.475 7.806-10.848 13.82-14.395 6.634-1.456 12.284-.973 18.414 2.027z" fill="#565b83"/><path d="M393 290h2l1.539 3.211 2.086 4.164 1.004 2.117c1.761 3.456 2.68 5.17 6.246 6.914L409 307l3.211.633 3.164.492 3.211.508L421 309c-1.506 3.674-3.674 5.645-6.625 8.25-3.732 3.622-3.732 3.622-5 8.625.173 1.38.386 2.755.625 4.125l.5 6 .5 5c-4.633-.708-7.708-2.47-11.621-4.941-3.053-1.359-5.06-1.426-8.379-1.059-2.93 1.265-2.93 1.265-5.687 3-5.021 3-5.021 3-8.312 3l.5-3.875.5-5.125.242-2.613c.235-4.564.161-6.759-2.367-10.699-2.029-1.897-4.045-3.681-6.187-5.437L367 311v-2l3.359-.516 4.391-.734 2.211-.332c4.54-.784 7.183-1.557 10.039-5.418a103.64 103.64 0 0 0 3.25-6.25l1.578-3.266L393 290z" fill="#f9b903"/><path d="M108.654 327.123c4.279 1.121 7.957 2.911 11.89 4.906l2.535 1.262 8.249 4.143 5.744 2.874 12.013 6.03 15.422 7.731 11.849 5.937 5.689 2.85 7.929 3.986 2.387 1.192c5.411 2.738 5.411 2.738 7.64 4.967-.375 3.625-.375 3.625-1 7-6.434 1.615-9.887.164-15.625-2.891l-2.472-1.259-7.903-4.1-5.471-2.801-8.124-4.16A621.73 621.73 0 0 0 139.5 355l-23.75-11.5-3.127-1.531-2.889-1.437-2.556-1.264c-2.145-1.248-3.653-2.312-5.179-4.268.125-3.062.125-3.062 1-6 3-2 3-2 5.654-1.877zM243 225l7 1c1.253 3.769 1.599 5.788-.192 9.412-1.871 2.831-3.841 5.557-5.871 8.276l-4.465 6.188-2.285 3.121-9.313 13.191-3.41 4.867-7.273 10.391-1.904 2.722-3.583 5.125-3.217 4.582-2.889 4.213c-3.264 4.793-3.264 4.793-6.724 6.038C196 304 196 304 194.063 303c-1.314-2.474-1.153-4.22-.703-6.944 1.329-4.268 4.197-7.688 6.828-11.244l3.855-5.355 1.998-2.748L215 264l3.473-4.957 7.273-10.43 1.873-2.689 3.5-5.039c3.789-5.435 7.766-10.692 11.881-15.885z" fill="#565b83"/><path d="M398 198c-.965 6.04-3.382 11.082-7 16-2.113 1.475-3.991 2.226-6.434 3.035-2.681.901-2.681.901-5.227 2.711-9.843 6.446-19.381 6.266-30.867 6.16-2.518.02-2.518.02-5.094.688-3.672.627-5.609-1.101-8.691-3.031l-3.238-1.996L329 220c1.169-3.274 2.97-5.396 5.935-7.236 4.704-1.739 9.998-1.083 14.94-1.014 12.089-.119 20.092-2.184 30.125-8.75 6.471-4.014 10.273-5.613 18-5z" fill="#e3e4ed"/><path d="M295 327c6.298 8.398 8.707 14.168 8.625 24.75-.241 8.641-.241 8.641 3.375 16.25-.117 5.263-2.531 9.476-5 14-4.377-.872-6.772-2.913-10-6-2.033-3.956-2.297-7.42-2.414-11.832l-.117-3.916-.094-4.064-.117-4.123L289 342l-2-1 8-14z" fill="#e4e4ed"/><path d="M303 81l.41 2.238c2.176 10.252 6.66 18.793 14.59 25.762-1 3-1 3-2.766 4.16a20.33 20.33 0 0 1-14.523-.035c-4.721-2.688-8.071-5.87-9.711-11.125-.923-5.38-.577-9.678 2.188-14.437C295.67 84.072 298.446 81 303 81z" fill="#fafafb"/><path d="M191 232c3.658 2.04 5.669 3.504 8 7 .462 4.993.086 8-3 12-4.023 2.682-7.272 2.688-12 2-3.499-2.114-4.706-3.117-6-7-.383-4.137-.467-6.276 1.813-9.812 3.73-3.73 5.956-4.803 11.188-4.187zm70 40c5.538 3.077 5.538 3.077 7 6 .555 4.632.636 7.982-1.875 12-3.485 3.28-6.207 3.466-10.863 3.406C253 293 253 293 250 290.438c-2.207-3.793-3.078-6.049-3-10.437 3.456-6.542 6.575-8.755 14-8z" fill="#f9b903"/><path d="M335 399c2.018.939 3.791 1.826 5.508 3.254 6.918 5.598 16.029 4.647 24.492 4.746l-3 10-3-1c-1.495-.112-2.994-.178-4.492-.211l-2.637-.086-5.469-.133c-6.042-.214-9.679-1.035-14.215-5.258L331 409l-5 2c1.444-3.239 3.258-5.62 5.625-8.25l1.914-2.141L335 399z" fill="#e4e4ee"/><path d="M451 399c2.468 1.152 4.048 2.048 6 4-.099 3.675-.97 4.966-3.437 7.75-3.626 3.184-5.276 3.373-10.008 3.348l-3.262-.01-3.418-.025-3.441-.014L425 414l-2-7 3.438-.078c13.571-.393 13.571-.393 24.563-7.922z" fill="#e4e4ed"/><path d="M313 81c5.686 1.322 7.716 3.403 11 8 .961 2.882 1.106 4.699 1.063 7.688l-.027 2.449L325 101c-5.134-4.841-9.899-10.122-12-17v-3z" fill="#f2f3f6"/></svg>