<svg xmlns="http://www.w3.org/2000/svg" width="512" height="512" xmlns:v="https://vecta.io/nano"><path d="M350.688 144.875l2.762 2.68c2.496 2.466 2.496 2.466 5.18 4.547 23.343 18.69 37.897 53.675 42.027 82.551C404.759 274.608 396.493 314.146 371 346a296.81 296.81 0 0 1-6.922 7.711 94.55 94.55 0 0 0-4.125 4.875c-18.894 23.353-53.627 37.926-82.676 42.07C237.396 404.839 197.77 396.426 166 371a296.81 296.81 0 0 1-7.711-6.922 94.55 94.55 0 0 0-4.875-4.125c-23.326-18.872-37.919-53.587-42.07-82.605C107.249 237.47 115.351 197.719 141 166c2.266-2.612 4.567-5.179 6.922-7.711a94.55 94.55 0 0 0 4.125-4.875C171.577 129.275 207.875 114.386 238 111c39.408-4.078 83.119 6.202 112.688 33.875z" fill="#4fba6f"/><path d="M144 43c2.476 3.713 1.982 5.989 1.461 10.191l-.245 2.199-.841 7.172-.572 4.966-1.202 10.291-1.404 12.67-1.017 9.396-.472 4.467-.681 6.218-.383 3.555C138 117 138 117 136.748 118.902c-2.477 1.556-3.871 1.58-6.748 1.098-2.22-1.652-2.22-1.652-4.426-3.937l-2.412-2.461-2.475-2.602-2.533-2.602L112 102c-19.983 9.41-35.227 39.014-45 58l-.995 1.928C54.576 184.403 47.263 209.904 45 235l-.332 3.523C40.002 294.887 58.66 350.9 95 394c3.559 4.103 7.253 8.069 11 12l2.082 2.207c37.104 38.313 92.452 59.104 145.125 60.025 15.869.101 31.347-1.345 46.821-4.911 6.772-1.506 14.461-3.012 20.847.366 4.964 3.673 7.834 7.208 9.125 13.313.098 6.059-1.034 10.262-5 15-3.851 3.622-7.485 4.994-12.562 6.063l-2.221.493c-63.396 13.598-131.364 2.814-186.394-31.931C109.545 457.361 96.268 446.789 84 435l-1.802-1.719C73.301 424.748 65.303 415.929 58 406l-1.292-1.729C46.582 390.684 38.227 376.316 31 361l-.914-1.924C2.327 300.014 1.175 231.59 22.613 170.461 29.864 150.467 39.634 131.325 52 114l1.287-1.818C62.698 98.971 73.511 87.411 85 76c-4.553-5.538-9.532-10.41-14.805-15.254C68 58 68 58 67.555 54.785 68 52 68 52 70 50c2.737-.551 2.737-.551 6.266-.977l1.947-.242 6.392-.761 4.448-.537 9.339-1.107 11.93-1.433 9.196-1.099 4.395-.53 6.174-.726 3.541-.419c3.654-.184 6.802.02 10.372.83z" fill="#f29c1e"/><path d="M417 67l2.328 1.992C432.137 80.232 443.914 92.262 454 106l2.543 3.387C494.387 160.439 511.198 227.101 502 290c-4.758 30.116-13.589 58.093-28 85l-1.855 3.496C460.321 399.974 444.48 418.908 427 436c4.553 5.538 9.532 10.41 14.805 15.254C444 454 444 454 444.445 457.215 444 460 444 460 442 462c-2.024.455-2.024.455-4.547.746l-2.867.344-3.121.347-3.232.381L417.938 465l-6.768.789-13.139 1.512-11.198 1.367-2.342.301-6 .797c-3.721.25-6.856.077-10.49-.766-2.476-3.713-1.982-5.989-1.461-10.191l.245-2.199.841-7.172.572-4.966 1.202-10.291 1.404-12.67 1.017-9.396.472-4.467.681-6.218.383-3.555C374 395 374 395 375.252 393.098c2.477-1.556 3.871-1.58 6.748-1.098 2.22 1.652 2.22 1.652 4.426 3.938l2.412 2.461 2.475 2.602 2.533 2.602L400 410c16.499-7.745 28.619-30.257 38-45l1.144-1.778c28.342-44.597 35.077-102.893 23.906-153.827C451.582 160.522 423.69 115.805 383 86l-3.207-2.363c-7.648-5.46-15.607-10.163-23.879-14.606l-5.164-2.835c-41.643-22.149-92.946-28.013-138.728-17.517-6.787 1.499-14.499 3.019-20.897-.366-4.964-3.673-7.834-7.208-9.125-13.312-.098-6.059 1.034-10.262 5-15 4.369-4.302 8.808-5.32 14.625-6.562l2.918-.634C279.474-2.681 359.001 16.944 417 67z" fill="#f0c418"/><path d="M313.246 197.625c4.703 1.992 7.465 4.766 9.906 9.234 1.654 4.178 1.733 7.813.129 12.031-2.489 5.064-5.496 9.071-9.281 13.235l-3.496 3.941-1.777 1.989-7.79 9.007-2.973 3.473-1.481 1.731L289 261l-3 3.5-18 21-1.501 1.751-2.993 3.49-7.612 8.899c-20.381 23.885-20.381 23.885-27.164 24.598l-2.543.074-2.52.113c-6.092-.972-10.024-5.586-13.98-9.988l-1.427-1.585c-20.673-23.15-20.673-23.15-20.542-34.349.556-4.954 3.304-7.643 6.906-10.816 4.922-3.497 9.472-3.23 15.375-2.687 7.381 2.719 11.998 9.162 17 15a47.5 47.5 0 0 0 9.063-8.875c3.566-4.45 7.21-8.81 10.938-13.125l10.5-12.5c3.934-4.846 7.984-9.581 12.059-14.309L278.5 220.5l10.688-12.937 1.477-1.793c6.453-7.624 12.644-10.91 22.582-8.145z" fill="#eaefef"/></svg>