<svg xmlns="http://www.w3.org/2000/svg" width="512" height="512" xmlns:v="https://vecta.io/nano"><path d="M314.244 7.438c7.622 1.554 13.886-1.429 20.9-4.184 23.029-8.081 50.47-4.496 72.141 5.84 22.44 11.24 39.517 31.216 48.617 54.477 4.641 14.502 7.256 30.72 4.679 45.892-1.179 7.22.659 11.187 4.356 17.35C481.91 157.12 492.413 195.068 491 230l1.766.805C502.18 235.841 507.356 246.35 511 256c1.195 4.616 1.155 9.121 1.161 13.854l.015 2.673.027 8.735.017 6.095.02 12.778.058 16.317.025 12.593.024 6.012.009 8.441.028 2.474c-.094 13.158-6.11 24.333-14.923 33.855C485.695 390.212 472.311 393.36 457 394l.212 1.799c2.828 25.711 1.983 50.822-13.763 72.319C432.334 481.752 416.151 488.948 399 491c-3.477.245-6.955.41-10.437.563l-2.795.131L379 492l-.805 1.64-1.07 2.165-1.055 2.14c-4.039 7.756-10.033 10.989-18.07 14.055-4.324.762-8.505.799-12.887.727l-3.583.003-7.439-.057-11.335-.028-7.268-.043-3.391.006c-9.293-.167-16.592-2.491-23.527-8.83-6.262-7.088-7.956-14.393-7.844-23.613.736-8.514 4.814-15.638 11.273-21.164 8.516-5.504 16.763-6.155 26.668-6.203l2.776-.017 5.797-.02 8.761-.072c25.161-.146 25.161-.146 35.088 8.34 3.701 3.822 6.232 7.938 7.91 12.973 16.776.358 32.047-.193 45.711-11.18 9.572-9.19 15.168-19.931 15.535-33.328.043-5.167-.056-10.328-.246-15.492l-3.754.98c-9.044 2.362-16.365.699-24.434-3.73-7.485-5.988-11.513-12.638-12.812-22.25a178.6 178.6 0 0 1-.134-6.818l-.007-2.003-.005-6.604-.01-4.752-.012-12.88-.005-8.054-.013-28.116-.026-26.178-.018-22.502-.013-13.428-.002-12.632-.007-4.624c-.041-11.226.393-21.031 7.252-30.408 6.67-6.57 13.561-9.157 22.813-9.187L435 201h3l-2.25-9.875-.621-2.781c-1.485-6.391-3.521-12.325-6.129-18.344l-2.027 1.652c-23.271 18.273-48.92 24.937-78.421 22.113-6.49-.901-12.394-2.638-18.427-5.141-4.699-1.821-7.334-1.646-11.941.301L316 190c-10.335 5.017-10.335 5.017-17 4-2.668-2.207-3.878-3.947-4.281-7.422-.05-2.946-.016-5.883.031-8.828.159-9.17.159-9.17-4.25-16.812l-2.18-1.867c-14.178-12.651-21.283-36.694-22.445-55.032C265.161 85.361 268.225 67.669 277 51c-17.481-4.072-39.643-1.646-57 2l-2.729.57C189.879 59.528 163.777 71.229 142 89l-1.583 1.28C106.381 117.908 80.483 158.068 74 202l3-1c10.205-.873 17.773.548 26.313 6.188 9.765 10.219 9.985 22.074 9.946 35.449l.011 4.748v12.843l.003 13.472-.011 22.623.004 26.11.005 22.462.003 13.396-.01 12.6.003 4.609c.032 12.233-.333 22.663-8.761 32.191-5.478 5.241-12.971 8.392-20.566 8.746-8.374-.93-16.027-3.122-21.937-9.437-.864-1.735-1.696-3.486-2.5-5.25-1.321-2.695-1.321-2.695-3.5-4.75-4.656-1.255-9.212-1.492-14.006-1.806-12.292-1.195-23.576-8.811-31.916-17.526-7.23-9.282-10.218-18.965-10.255-30.582l-.02-2.693-.041-8.803-.012-3.05-.045-15.992-.085-16.444-.038-12.707-.035-6.058c-.113-13.095.295-24.698 7.641-36.089l1.543-2.484C11 240 11 240 13.183 238.42c3.867-2.863 6.396-4.945 7.745-9.673.377-3.223.632-6.412.746-9.655.13-3.584.406-7.157.666-10.733l.147-2.167c2.96-41.204 21.675-83.218 47.098-115.39 1.303-1.659 2.567-3.343 3.829-5.033 5.271-6.603 5.271-6.603 9.117-7.09a168.45 168.45 0 0 1 5.133.465c2.415.071 2.415.071 4.172-1.57 1.138-1.375 2.24-2.781 3.309-4.211 2.779-3.54 6.147-6.329 9.523-9.285 3.3-2.906 3.3-2.906 6.332-6.078l-.625-2.812C110 52 110 52 112 48.75c9.41-9.844 23.117-16.368 35-22.75l1.859-1.022C168.808 14.055 190.762 7.383 213 3l2.719-.539c32.844-6.15 66.34-2.892 98.525 4.977z" fill="#010101"/><path d="M327.938 222.301c8.805 7.633 16.988 15.688 23.063 25.699l1.061 1.697c15.763 25.394 21.365 56.091 14.9 85.44-4.735 19.038-13.656 40.639-29.084 53.655-2.464 2.9-2.361 4.562-2.345 8.33l-.043 3.584.023 7.453-.043 3.588.014 3.271c-.601 3.715-1.807 5.373-4.482 7.983-7.654 1.188-13.334-2.022-20.109-5.244-4.758-2.161-7.694-3.369-12.891-1.756l-3.699 1.121-5.939 1.975c-10.569 3.44-20.84 4.295-31.924 4.279l-1.997-.002c-10.981-.042-20.997-.988-31.44-4.373l-2.065-.649c-27.757-8.94-51.591-28.53-65.297-54.346-14.314-28.332-16.843-59.954-7.353-90.239 4.845-14.377 12.45-27.593 22.715-38.766l1.339-1.467c40.295-43.674 109.292-48.856 155.599-11.232z" fill="#fe8bcb"/><path d="M414.875 32.313C424.838 41.066 431.994 50.295 438 62l1.277 2.469c4.947 10.305 6.285 20.958 6.223 32.281l-.02 3.731c-.196 9.779-1.49 17.574-5.48 26.519l-.845 1.996C430.54 149.15 415.277 164.432 395 173c-21.427 7.922-43.698 8.641-64.875-.641-4.25-1.849-7.065-2.166-11.43-.457-1.593.715-3.174 1.455-4.742 2.223C312 175 312 175 310 175l.027-3.254c.132-7.742.132-7.742-2.301-14.875-1.152-1.036-2.342-2.03-3.559-2.988C291.735 143.086 283.686 124.012 282 108c-1.397-26.643 4.309-47.218 21.566-67.875 28.79-31.171 78.351-33.616 111.309-7.812z" fill="#fdd34c"/><path d="M327.938 222.301c8.805 7.633 16.988 15.688 23.063 25.699l1.061 1.697c15.763 25.394 21.365 56.091 14.9 85.44-4.735 19.038-13.656 40.639-29.084 53.655-2.464 2.9-2.361 4.562-2.345 8.33l-.043 3.584.023 7.453-.043 3.588.014 3.271c-.601 3.715-1.807 5.373-4.482 7.983-7.654 1.188-13.334-2.022-20.109-5.244-4.758-2.161-7.694-3.369-12.891-1.756l-3.699 1.121-5.939 1.975c-10.569 3.44-20.84 4.295-31.924 4.279l-1.997-.002c-10.981-.042-20.997-.988-31.44-4.373l-2.065-.649c-27.757-8.94-51.591-28.53-65.297-54.346-14.314-28.332-16.843-59.954-7.353-90.239 4.845-14.377 12.45-27.593 22.715-38.766l1.339-1.467c40.295-43.674 109.292-48.856 155.599-11.232zm-145.426 22.82C173.733 255.183 167.668 266.553 163 279l-1.316 3.289c-2.969 8.834-3.063 17.519-3.121 26.773l-.031 3.801c.244 26.065 10.792 49.577 29.058 67.949C199.153 391.901 214.442 400.997 230 405l2.809.836c21.779 5.7 43.745 2.426 63.922-6.762 5.831-1.916 10.1.098 15.52 2.488 3.747 1.806 3.747 1.806 7.75 2.438l-.051-1.693c-.316-16.048-.316-16.048 2.77-21.147 1.512-1.387 3.075-2.718 4.68-3.996C341.876 365.121 350.717 342.084 353 324c1.238-22.929 1.238-22.929-4-45l-.748-1.956C342.532 262.201 334.117 250.278 323 239l-2.211-2.25c-6.168-5.869-13.305-9.831-20.789-13.75l-2.781-1.473c-39.496-19.45-85.131-6.818-114.707 23.594z" fill="#010001"/><path d="M434 217c4.366 2.562 6.112 5.364 8 10 .42 3.005.417 5.972.401 9.003l.021 2.683.02 8.736.04 6.081.072 15.977.122 25.616.023 8.958.031 5.462-.008 2.528c-.146 4.45-.146 4.45 2.279 7.957 3.737.415 6.052.664 9.192-1.536 2.452-3.342 2.381-6.271 2.353-10.262l.031-2.366.032-7.727.05-5.364.079-14.105.102-14.398L457 236c11.457-.042 21.232 1.945 30.113 9.891 7.555 8.218 10.031 16.1 10.048 27.137l.015 2.407.027 7.858.017 5.489.02 11.507.058 14.683.025 11.343.024 5.409C497.438 344.99 497 356.416 488 367c-7.91 7.353-16.412 11.06-27.219 11.016L457 378l-.044-2.323-.268-10.427-.068-3.656-.107-3.516-.079-3.237c-.479-3.15-1.237-4.566-3.432-6.841-2.836-.663-5.042-.282-8 0-2.642 2.642-2.244 4.576-2.276 8.171l.003 2.563-.062 5.367-.045 8.466-.08 8.167.015 2.539c-.106 6.317-1.963 9.721-6.117 14.54-3.238 2.675-7.147 2.581-11.148 2.535-3.991-.606-5.59-2.385-8.289-5.348-2.032-4.001-2.259-7.362-2.281-11.818l-.018-2.04-.023-6.745-.03-4.845-.048-13.147-.023-8.217-.054-25.72-.102-29.671-.066-22.951-.05-13.701-.02-12.888-.027-4.722c-.158-13.363-.158-13.363 3.537-17.9 5.045-4.838 9.604-5.251 16.205-3.634z" fill="#7675cf"/><path d="M304 20l-1.937 1.938-1.355 1.359-4.008 3.969-2.449 2.422-2.359 2.324c-1.943 1.849-1.943 1.849-2.891 3.988l-2.042-.21c-6.452-.631-12.84-.974-19.321-1.028l-2.889-.024-6.023-.032-6.017-.062c-19.26-.284-37.444 2.149-55.834 8.044l-3.281 1.036C142.423 60.35 101.506 97.137 76.67 144.478 69.163 159.268 63.981 174.932 60 191l-.676 2.707c-1.399 6.269-1.982 12.668-2.628 19.051l-.232 2.266-.199 2.029C56 219 56 219 55 223l-18 2c-.534-32.954 9.665-65.139 25-94l1.449-2.867c6.149-11.875 14.148-22.811 22.773-32.996C89.819 90.814 90.195 88.567 90 83c0-5.822 3.032-7.997 7-12 9.904-9.373 9.904-9.373 14-12 2.438.813 2.438.813 5 2 2.611.479 4.326.381 6.658-.936 1.987-1.39 3.915-2.841 5.842-4.314C144.456 44.076 161.583 35.132 180 28l2.02-.784C193.34 22.926 205.157 20.375 217 18l2.457-.509C247.055 11.97 276.733 13.748 304 20z" fill="#d5d9fb"/><path d="M257 213c6.519-.177 12.433.37 18.813 1.688l2.658.546c6.917 1.494 13.193 3.581 19.529 6.767l3.227 1.559c7.766 3.938 14.317 8.616 20.773 14.441l2.367 2.117c14.698 13.884 27.721 36.435 28.794 56.966.384 31.476-4.395 56.682-26.161 80.917l-1.582 1.289c-3.523 2.97-4.808 5.024-5.223 9.672a169 169 0 0 0-.07 5.414l-.062 2.809L320 404l-4.27-1.391-2.402-.782c-2.092-.743-4.023-1.609-6.016-2.577-5.549-2.094-9.859-.167-15.125 2.063-16.271 6.303-30.833 7.257-48.187 6.688v-1l2.352.027c14.77-.405 25.545-7.93 36.648-17.027l2.465-2c17.82-15.109 30.985-39.125 34.254-62.32 2.64-34.534-6.235-62.301-28.383-88.66-9.41-10.158-21.846-17.381-34.336-23.02v-1z" fill="#fd77c0"/><path d="M55 238v143c-12.986 0-21.514-3.006-30.902-11.777-10.151-10.495-9.698-23.084-9.629-36.758l-.012-5.665.021-11.823-.014-15.086.001-11.682-.01-5.56c-.055-13.926.949-23.873 10.979-34.382C34.308 240.431 43.317 238 55 238z" fill="#7675ce"/><path d="M434 217c4.366 2.562 6.112 5.364 8 10 .42 3.005.417 5.972.401 9.003l.021 2.683.02 8.736.04 6.081.072 15.977.122 25.616.023 8.958.031 5.462-.008 2.528c-.146 4.45-.146 4.45 2.279 7.957l4 1v26l-5 2c-2.099 2.099-1.162 6.733-1.176 9.637l-.072 5.377-.078 8.499-.1 8.187.006 2.548c-.131 6.321-1.984 9.742-6.143 14.565-3.238 2.675-7.147 2.581-11.148 2.535-3.991-.606-5.59-2.385-8.289-5.348-2.032-4.001-2.259-7.362-2.281-11.818l-.018-2.04-.023-6.745-.03-4.845-.048-13.147-.023-8.217-.054-25.72-.102-29.671-.066-22.951-.05-13.701-.02-12.888-.027-4.722c-.158-13.363-.158-13.363 3.537-17.9 5.045-4.838 9.604-5.251 16.205-3.634z" fill="#e4effb"/><path d="M352 15c24.2-1.118 46.781 3.173 65.48 19.602C426.234 42.934 432.523 51.326 438 62l1.277 2.469c4.947 10.305 6.285 20.958 6.223 32.281l-.02 3.731c-.196 9.779-1.49 17.574-5.48 26.519l-.845 1.996C430.54 149.15 415.277 164.432 395 173c-11.206 4.143-22.053 6.197-34 6.063l-2.348-.014L353 179v-1l3.813-.125C370.988 176.253 384.074 163.304 393 153c15.403-20.438 21.618-44.968 18.732-70.358C409.255 66.883 402.035 52.288 392 40l-1.602-2.094c-6.954-8.633-19.207-19.496-30.395-21.422-2.675-.259-5.317-.429-8.004-.484v-1z" fill="#fdc719"/><path d="M87 216c4.36 2.308 7.27 4.907 10 9 .501 3.175.501 3.175.501 6.825l.017 2.042-.016 6.752.016 4.85-.014 13.159-.004 13.777-.034 23.139-.017 26.739-.01 25.733-.001 10.946-.027 12.895-.001 4.729-.024 6.463-.007 3.651c-.551 4.786-2.308 8.067-5.443 11.676-4.322 2.391-8.116 2.631-12.937 1.625-4.241-2.408-7.174-5.471-9-10-.254-3.021-.254-3.021-.261-6.629l-.012-2.015-.002-6.678-.015-4.79-.011-13.01-.009-10.862-.005-25.629-.028-26.434-.02-22.698-.015-13.555.002-12.75-.009-4.675.01-6.391-.001-3.61c.572-4.996 2.217-8.228 5.937-11.585 4.053-2.806 6.46-3.102 11.438-2.687z" fill="#e3eefa"/><path d="M376 41.688L380 44l1.852.992C388.261 48.861 392.667 56.001 395 63c.795 11.482.262 20.804-7 30.25-4.421 4.759-10.12 7.201-16 9.75l-.028 1.848-.222 8.339-.043 2.908c-.152 4.38-.297 7.201-2.535 11.041C367 129 367 129 363.5 129.625c-3.5-.625-3.5-.625-5.686-2.719-2.245-3.595-2.33-5.816-2.346-10.035l-.012-2.035.021-4.238-.025-6.471.016-4.131.014-3.776c.606-3.77 1.515-4.941 4.518-7.22 2.367-.687 2.367-.687 4.875-1 5.755-.983 9.421-2.728 13-7.5 1.68-5.226 2.026-10.074 1.125-15.5-1.99-3.84-4.647-6.135-8.25-8.437-5.732-1.172-10.78-1.511-16.125 1.063-5.514 4.988-7.256 9.891-8.816 16.984C345 77 345 77 342 79c-3.466.442-5.332.387-8.375-1.375-2.915-4.708-2.104-9.624-1.258-14.926 2.089-8.055 7.745-13.901 14.363-18.664 8.964-5.141 19.566-6.364 29.27-2.348z" fill="#030201"/><path d="M310.857 468.709l2.913-.039 3.128-.007 3.236-.02 6.773-.014 10.343-.079 6.586-.012 3.116-.044c6.014.038 9.461.509 14.048 4.504 3.184 3.715 3.474 7.062 3.277 11.789-.422 3.361-1.294 5.46-3.277 8.211-5.933 4.315-10.764 4.59-17.973 4.531l-3.155.012a740.72 740.72 0 0 1-6.578-.021c-3.349-.021-6.696 0-10.046.025l-6.408-.016-3.021.025c-5.928-.08-9.279-.656-13.819-4.556-3.582-3.941-3.56-8.227-3.422-13.336.672-4.243 2.228-5.833 5.422-8.664 3.041-1.846 5.318-2.259 8.857-2.291z" fill="#7675ce"/><path d="M451 137h2c13.066 25.847 22.703 55.822 22 85l-19-1-.687-9.187c-1.526-17.224-5.097-37.724-13.551-53.059C441 157 441 157 441.125 155.16c1.267-3.128 3.056-5.895 4.875-8.723 2.903-4.51 2.903-4.51 5-9.437z" fill="#d4d8f9"/><path d="M219.652 302.467l2.642-.026 8.643-.007 6.008-.019 12.589.009 16.141-.041 12.405-.012 5.952-.021 8.316.02 2.488-.035c3.914.065 5.765.303 8.706 2.979C305 308 305 308 305 311.625c-1 3.375-1 3.375-2.534 5.06-3.558 1.898-6.983 1.75-10.919 1.735l-2.578.026-8.434.023-5.866.023-12.294.009a1785.27 1785.27 0 0 0-15.751.065l-12.114.025-5.807.029c-2.708.022-5.414.013-8.121-.005l-2.42.04c-4.046-.061-5.938-.48-9.163-3.002C207 313 207 313 206.438 309.938c1.414-7.384 6.693-7.523 13.215-7.471z" fill="#030102"/><path d="M243.313 344.469l3.048-.012 6.375.021 9.757-.025 6.195.016 2.948-.025c6.695.093 6.695.093 9.981 2.366 2.017 3.194 1.853 5.497 1.383 9.189-1.543 2.104-2.681 2.841-5 4-1.429.109-2.862.159-4.294.177l-2.691.039-2.913.022-2.989.024-6.269.032-9.593.105-6.086.025-2.901.053c-6.604-.022-6.604-.022-9.867-2.287-2.06-3.234-1.931-5.444-1.396-9.192 3.434-5.412 8.543-4.579 14.313-4.531z" fill="#020102"/><path d="M234.118 260.492l2.473-.01 2.812-.038 3.03.025 3.12-.012 6.534.021 10.001-.025 6.346.016 3.024-.025c6.873.093 6.873.093 10.167 2.37 2.053 3.263 1.98 5.42 1.375 9.186-2.145 2.47-3.896 3.811-7.164 4.371-2.684.159-5.339.183-8.027.16l-2.977.012a662.04 662.04 0 0 1-6.216-.021c-3.172-.021-6.341 0-9.513.025l-6.045-.016-2.873.025c-6.522-.093-6.522-.093-9.787-2.37-2.048-3.201-1.863-5.468-1.399-9.186 1.46-2.574 2.19-3.806 5.118-4.508z" fill="#040203"/><path d="M368 141c2 1.625 2 1.625 3 4-.12 3.423-.393 5.954-2.125 8.938-3.098 1.755-5.403 1.55-8.875 1.063-2.5-2.062-2.5-2.062-4-5 0-3.803.203-6.019 2.625-9 3.491-1.47 5.766-.984 9.375 0z" fill="#0c0a03"/></svg>