<svg xmlns="http://www.w3.org/2000/svg" width="512" height="512" xmlns:v="https://vecta.io/nano"><path d="M90 0c4.535 1.508 6.458 5.193 8.938 9l2.941 4.387 1.547 2.306c2.569 3.766 5.26 7.439 7.949 11.12A693.66 693.66 0 0 1 124.5 45.5c4.781 7.041 9.685 13.978 14.689 20.862l12.477 17.492 7.307 10.251 1.419 1.96 2.664 3.646C166 103.778 166 103.778 166 106h-45l1 127 4-17c10.64-31.671 30.078-58.617 59-76l2.018-1.221c8.15-4.838 16.516-8.588 25.482-11.654l2.403-.831c15.263-4.916 30.382-5.75 46.284-5.692l5.993-.009 12.475.016 15.843-.011h12.35l5.836-.007c15.735-.045 30.708 1.311 45.691 6.471l2.643.904C391.142 138.343 416.068 158.492 432 185l1.221 2.018c4.838 8.15 8.588 16.516 11.654 25.482l.831 2.403c4.473 13.889 5.742 27.779 5.635 42.265l.001 4.914-.038 13.162-.024 13.821-.064 26.093-.065 29.739L451 406h45c-1.803 4.506-3.865 7.772-6.75 11.563-4.506 6.03-8.884 12.136-13.187 18.313l-1.793 2.572-3.557 5.102-12.249 17.379-4.42 6.275-17.299 24.238L422 512c-4.557-1.508-6.505-5.244-9-9.062l-2.945-4.387-1.528-2.287-7.401-10.639-1.504-2.13-11.058-15.37c-4.503-6.2-8.884-12.472-13.187-18.812-3.883-5.72-7.825-11.379-11.937-16.937l-12.125-16.687-1.606-2.231-1.469-2.07-1.311-1.837C346 408 346 408 346 406h45l-1-127-4 17c-7.153 21.292-17.541 38.619-33 55l-2.039 2.234c-14.056 14.846-32.364 25.143-51.586 31.703l-2.379.819c-15.229 4.87-30.325 5.699-46.183 5.642l-5.993.009a2801.27 2801.27 0 0 1-12.475-.016 2388.15 2388.15 0 0 0-15.843.011c-4.117.011-8.233.007-12.35 0a1254 1254 0 0 0-5.836.007c-15.735.045-30.708-1.311-45.691-6.471l-2.643-.904C120.858 373.657 95.932 353.508 80 327l-1.221-2.018c-4.85-8.171-8.594-16.55-11.654-25.545l-.831-2.428c-4.384-13.664-5.739-26.924-5.635-41.156l-.001-4.943.038-13.255.024-13.913.064-26.274.065-29.943L61 106H16c1.803-4.506 3.865-7.772 6.75-11.562 4.506-6.03 8.884-12.136 13.188-18.312l1.796-2.574 3.559-5.104 20.146-28.322c5.117-7.043 10.053-14.195 14.94-21.399C80.73 12.333 85.272 6.12 90 0z" fill="#fabd2c"/><path d="M90 0c4.535 1.508 6.458 5.193 8.938 9l2.941 4.387 1.547 2.306c2.569 3.766 5.26 7.439 7.949 11.12A693.66 693.66 0 0 1 124.5 45.5c4.781 7.041 9.685 13.978 14.689 20.862l12.477 17.492 7.307 10.251 1.419 1.96 2.664 3.646C166 103.778 166 103.778 166 106h-45l1 127 4-17c10.64-31.671 30.078-58.617 59-76l2.018-1.221C208.299 126.146 231.397 120.335 256 121v30h-15v33l-11 6c-9.299 7.008-15.412 16.565-18 28-1.376 14.568 2.016 26.057 10.383 37.969 8.312 9.574 21.19 13.491 33.324 14.629 5.154.63 9.202 1.994 12.656 5.973 2.701 4.14 3.313 7.608 2.637 12.43-1.176 3.912-2.566 6.97-5.941 9.395C261.845 300.07 259.663 301 256 301v90l-36.937.188-11.554.083-6.988.016-4.578.03c-14.88.143-29.165-1.505-43.318-6.379l-2.643-.904C120.858 373.657 95.932 353.508 80 327l-1.221-2.018c-4.85-8.171-8.594-16.55-11.654-25.545l-.831-2.428c-4.384-13.664-5.739-26.924-5.635-41.156l-.001-4.943.038-13.255.024-13.913.064-26.274.065-29.943L61 106H16c1.803-4.506 3.865-7.772 6.75-11.562 4.506-6.03 8.884-12.136 13.188-18.312l1.796-2.574 3.559-5.104 20.146-28.322c5.117-7.043 10.053-14.195 14.94-21.399C80.73 12.333 85.272 6.12 90 0z" fill="#fdd742"/><path d="M90 0c4.535 1.508 6.458 5.193 8.938 9l2.941 4.387 1.547 2.306c2.569 3.766 5.26 7.439 7.949 11.12A693.66 693.66 0 0 1 124.5 45.5c4.781 7.041 9.685 13.978 14.689 20.862l12.477 17.492 7.307 10.251 1.419 1.96 2.664 3.646C166 103.778 166 103.778 166 106h-45l.236 62.825.111 29.176.102 25.453.049 13.456.057 12.711.011 4.621c-.03 37.652 14.382 71.43 40.622 98.32C184.438 374.728 214.05 386.909 245 390v1l-24.544.155-11.402.071c-32.599.287-32.599.287-46.053-3.226l-2.934-.742c-2.517-.693-4.973-1.471-7.441-2.321l-2.643-.904C120.858 373.657 95.932 353.508 80 327l-1.221-2.018c-4.85-8.171-8.594-16.55-11.654-25.545l-.831-2.428c-4.384-13.664-5.739-26.924-5.635-41.156l-.001-4.943.038-13.255.024-13.913.064-26.274.065-29.943L61 106H16c1.803-4.506 3.865-7.772 6.75-11.562 4.506-6.03 8.884-12.136 13.188-18.312l1.796-2.574 3.559-5.104 20.146-28.322c5.117-7.043 10.053-14.195 14.94-21.399C80.73 12.333 85.272 6.12 90 0z" fill="#97de3c"/><path d="M270 121l23.371-.155 10.858-.071c31.097-.288 31.097-.288 44.772 3.226l2.94.742c2.514.694 4.969 1.471 7.435 2.321l2.643.904C391.142 138.343 416.068 158.492 432 185l1.221 2.018c4.838 8.15 8.588 16.516 11.654 25.482l.831 2.403c4.473 13.889 5.742 27.779 5.635 42.265l.001 4.914-.038 13.162-.024 13.821-.064 26.093-.065 29.739L451 406h45c-1.803 4.506-3.865 7.772-6.75 11.563-4.506 6.03-8.884 12.136-13.187 18.313l-1.793 2.572-3.557 5.102-12.249 17.379-4.42 6.275-17.299 24.238L422 512c-4.557-1.508-6.505-5.244-9-9.062l-2.945-4.387-1.528-2.287-7.401-10.639-1.504-2.13-11.058-15.37c-4.503-6.2-8.884-12.472-13.187-18.812-3.883-5.72-7.825-11.379-11.937-16.937l-12.125-16.687-1.606-2.231-1.469-2.07-1.311-1.837C346 408 346 408 346 406h45l-.236-63.659-.111-29.563-.102-25.788-.049-13.635-.057-12.876-.011-4.686c.011-14.428-1.777-28.458-6.497-42.168l-.899-2.639c-12.337-34.704-37.172-61.088-70.101-77.111C299.35 127.509 284.938 123.434 270 122v-1z" fill="#f03800"/><path d="M241 151h15v120c-12.498 0-23.143-4.659-32.625-12.875-9.336-9.869-12.911-23.082-12.652-36.27.397-5.52 1.855-9.913 4.277-14.855l1.25-2.582c5.092-9.417 12.867-16.359 22.75-20.418h2v-33z" fill="#fabe2c"/><path d="M256 241c15.43 1.286 24.361 4.706 34.75 15.813 8.23 9.872 10.817 20.678 10.629 33.301-1.26 12.929-8.333 23.908-18.062 32.156-3.536 2.641-7.769 5.73-12.316 5.73v33h-15v-60l10-4c3.453-5.015 4.897-8.835 4-15-1.214-3.833-1.214-3.833-4-7l-10-4v-30zm0-90h15v33l6 2c12.406 6.502 19.119 16.91 23.66 29.887.536 3.33.34 6.74.34 10.113h-30l-4-10c-2.937-1.852-4.851-2.972-8-4l-3-1v-60z" fill="#fe9100"/><path d="M211 286h30l3 8c3.87 4.945 5.484 5.138 12 7v60h-15v-33l-6-2c-11.095-6.345-17.359-14.233-22-26l-1.312-3.187C211 294 211 294 211 286z" fill="#fabe2c"/><path d="M256 211v30c-5.677-.946-7.768-1.426-12-5-2.687-4.747-3.678-8.576-3-14 1.512-4.276 3.62-7.068 7.5-9.437C252 211 252 211 256 211z" fill="#fdd742"/><path d="M256 271c5.673.945 7.732 1.491 12 5 2.926 4.389 3.631 7.774 3 13-1.167 3.912-2.57 6.973-5.941 9.395C261.845 300.07 259.663 301 256 301v-30z" fill="#fabd2b"/></svg>