<svg xmlns="http://www.w3.org/2000/svg" width="512" height="512" xmlns:v="https://vecta.io/nano"><path d="M315 54l1.414 1.59c2.304 2.049 4.688 2.488 7.648 3.285 15.478 4.552 28.31 13.445 36.918 27.316 6.989 13.099 10.225 27.481 10.082 42.309l-.027 3.719L371 135l2.648-1.172c21.455-9.194 47.585-14.15 70.352-6.828 6.271 2.513 12.761 5.51 18.129 9.637 2.261 1.647 4.396 2.334 7.059 3.176C481.637 144.189 490.279 152.221 496 164l1.688 3.375c2.423 6.692 3.278 13.487 3.75 20.563.285 4.187.997 7.855 2.188 11.875 1.383 4.943 1.268 8.847.688 13.938-.49 4.998-.705 7.775 2.5 11.75l1.645 1.594c5.682 7.02 4.286 19.398 3.543 27.906-1.575 7.797-5.308 15.688-11.953 20.379-4.075 2.232-7.333 3.092-12.047 2.621l-.078 1.836c-.478 7.066-1.801 14.286-6.355 19.945C480 301 480 301 476.813 301.063c-5.928 1.458-8.562 5.974-11.812 10.938-1.269 3.076-1.269 3.076-.5 6.75.032 2.899-.225 3.933-2.148 6.152C457.401 328.872 449.592 335 443 335l1 6 1.605.503 7.208 2.309 2.525.791 2.432.791 2.238.714c2.202.985 3.353 2.15 4.993 3.891 1.85.967 3.729 1.878 5.625 2.75 15.732 7.724 27.086 20.77 33.091 37.21 1.3 3.965 2.354 7.974 3.284 12.04l.526 2.298c.942 5.368.786 10.828.849 16.264l.113 3.732.035 3.584.06 3.268C508 434 508 434 506.205 436.15c-4.896 2.826-9.507 2.375-15.063 2.304l-3.638.002-9.848-.05-10.302-.032-19.496-.085-22.201-.087L380 438l1 2c.28 4.085.314 8.172.35 12.266l.082 4.076.091 5.896.06 3.564c-.789 4.323-2.097 5.539-5.583 8.198-3.226.731-6.382.675-9.679.635l-2.972.024c-3.29.02-6.579.004-9.868-.012l-7.071.027c-6.405.023-12.809.014-19.214-.002l-11.998-.003-2.012.002-4.047.005c-12.647.014-25.295-.002-37.942-.029-10.852-.022-21.703-.018-32.554.005l-37.807.022-4.032-.005-2.004-.002a4111.23 4111.23 0 0 0-13.977.015 2721.05 2721.05 0 0 1-18.812-.024 903.19 903.19 0 0 0-6.912.006c-3.141.014-6.279-.003-9.42-.028l-2.775.034c-4.452-.069-6.329-.231-9.972-3.009-2.446-3.368-2.525-5.287-2.455-9.422l.035-3.889.113-4.037.043-4.072c.149-9.875.149-9.875 1.332-12.24l-1.907.011-45.946.196-22.219.095-19.367.075-10.254.047-11.449.031-3.431.044c-7.641-.04-7.641-.04-11.63-2.359-2.32-2.76-2.43-4.291-2.427-7.873l-.016-3.405.082-3.611.055-3.698c.553-20.855 7.616-39.529 22.438-54.501C32.438 357.026 40.073 352.871 48 349l2.18-1.414c3.433-1.93 6.891-3.088 10.633-4.273l2.1-.682L68 341l1-6-1.617-.41C56.196 331.358 47.769 323.352 39 316l-.402 2.82c-.733 3.902-1.6 5.566-4.598 8.18-4.879.944-4.879.944-8 0-5.195-4.315-8.38-10.732-11.437-16.625l-1.433-2.749C8.325 298.122 4.856 288.246 2 278l-.614-2.003c-2.131-7.865-1.737-16.1-1.699-24.184l.006-2.426C-.257 236.406.36 223.747 3 211l.504-2.442c5.911-27.355 18.869-52.118 42.27-68.499 17.726-11.001 40.097-15.208 60.539-10.684 2.752.698 5.133 1.304 7.59 2.727 4.106 1.759 8.789.917 13.176.773 4.321.138 7.779.947 11.922 2.125l-.141-3.375C138.23 109.944 144.116 92.279 159 76l2-2.211c10.862-11.432 28.129-23.093 43.938-25.352C208 49 208 49 210.313 51.188c2.49 2.128 2.49 2.128 5.078 1.41a105.16 105.16 0 0 0 5.207-1.801C223 50 223 50 227 50l.313-2.812c.728-3.374 1.091-4.112 3.688-6.187 1.945-.695 1.945-.695 4.125-1.125l2.133-.445C263.724 35.283 292.966 37.364 315 54zm30 224l-1.25 2.457C331.153 304.61 313.66 319.312 289 330v13c4.897 2.007 9.803 3.942 14.789 5.719l2.563.92 5.133 1.811 2.417.867 2.172.764c2.124 1.014 3.311 2.231 4.926 3.92a90.42 90.42 0 0 0 5.5 2.25c6.357 2.535 11.863 5.9 17.5 9.75l1.363-1.504c6.856-7.241 14.772-12.365 23.785-16.574 1.96-.933 1.96-.933 4.094-2.367 3.361-1.895 6.844-3.036 10.508-4.18 4.47-1.098 4.47-1.098 8.25-3.375.041-2 .043-4 0-6l-2.676-1.215c-17.72-8.288-31.34-21.122-38.324-39.785-1.648-5.259-2.873-10.609-4-16h-2zm-167 20l-.629 1.695c-2.036 5.299-4.314 10.456-6.809 15.555l-1.684 3.453c-2.044 3.587-4.041 6.303-6.879 9.297-4.328 1.139-6.637 1.091-11 0l-3-11-3.5 2.625-2.234 1.664c-1.401 1.058-2.789 2.133-4.156 3.234-5.581 4.432-11.675 7.453-18.109 10.477v6l1.836.734 5.293 2.121 5.586 2.195 2.598 1.012 2.363.91c2.589 1.145 4.907 2.557 7.324 4.027l2.473 1.219c8.119 4.017 14.126 9.503 20.527 15.781l1.949-1.32c6.186-4.077 12.404-7.379 19.203-10.32 2.785-1.196 2.785-1.196 4.648-2.805 2.647-1.87 5.17-2.754 8.243-3.781l3.502-1.187 3.643-1.211 7.168-2.414 3.208-1.069c2.352-.667 2.352-.667 3.437-1.892a153.02 153.02 0 0 0 .063-6.562l-.027-3.629L223 330l-3.227-1.398C204.388 321.761 192.515 313.249 181 301l-3-3z" fill="#020101"/><path d="M293 145c2.126 2.027 3.826 4.091 5.5 6.5 2.689 3.671 5.718 6.726 9 9.875 6.539 6.353 10.421 13.084 14.063 21.375 3.226 7.508 3.226 7.508 9.675 12.15l2.435.756 2.456.775L338 197l.165 21.93.062 7.445.067 10.761.047 3.31c.005 21.071-8.905 40.829-23.535 55.804-17.423 17.083-38.549 24.079-62.636 24.133-20.612-.274-38.001-8.626-53.169-22.383l-1.914-1.633c-13.338-12.12-21.767-31.932-23.383-49.622-.126-3.305-.171-6.598-.171-9.906l-.023-3.615-.009-7.485-.085-11.473-.008-7.303-.05-3.459c.069-7.851.069-7.851 3.056-11.253C179 191 179 191 181 191l.785-1.641c6.401-12.431 14.581-20.866 27.883-25.621 12.366-3.915 24.836-3.972 37.731-4.14 17.428-.245 31.413-4.405 45.601-14.599z" fill="#e9ab87"/><path d="M228 50l2.375 2.5c2.464 2.857 2.464 2.857 6.25 2.875 3.362-.254 3.362-.254 6.375-1.375 23.145-1.355 45.529-1.494 64.125 14.25 3.866 3.219 6.67 4.576 11.594 5.348 11.678 2.06 20.494 9.458 27.492 18.672 7.864 12.002 9.014 25.178 9.272 39.145.153 4.798.759 7.53 3.517 11.586 2.123 7.908 1.81 16.02-1.527 23.508C353.95 172.47 348.872 178.252 343 182c-3.25.188-3.25.188-6 0l-2.187-4.375-1.41-2.781c-.863-1.75-1.692-3.519-2.461-5.312-3.478-7.848-9.065-13.445-14.941-19.531-5.445-5.775-8.954-11.136-12.023-18.434l-1.039-2.441-.91-2.242c-1.018-2.212-1.018-2.212-4.027-3.883-2.993-.083-2.993-.083-6 1-2.306 2.286-2.306 2.286-4.25 5.188-7.475 9.602-16.901 13.578-28.75 15.813-5.455.622-10.954.567-16.437.563-21.998.038-44.731 3.589-61.492 19.148-3.017 3.336-5.299 6.995-7.562 10.871-2.467 3.957-2.467 3.957-4.508 5.418-5.051-.306-8.68-4.544-12-8-1.606-2.283-2.764-4.479-4-7l-1-2c-.125-2.596-.185-5.154-.187-7.75l-.037-2.133c-.009-3.314.109-5.797 1.244-8.945 1.46-4.724 1.012-9.267.855-14.172-.259-17.71 4.591-31.744 16.892-44.792 10.219-10.477 22.719-17.528 36.124-23.2 2.259-.936 2.259-.936 4.109-3.008l.5-3.437C213 53 213 53 215.176 51.875 219.449 50.558 223.507 49.57 228 50z" fill="#894835"/><path d="M88 143.625l2.789-.035c6.788.029 15.169.369 20.211 5.41 2.035.244 2.035.244 4.359.125l2.633-.047 5.469-.156c4.955-.088 8.886.106 13.539 2.078l.184 3.035.254 4.027.246 3.973c.255 3.96.255 3.96.984 7.809L139 173c-2.125 2.438-2.125 2.438-5 5-3.54 4.724-5.685 9.262-7 15-4.278-1.634-8.2-3.676-12.207-5.879-4.465-1.792-8.367-2.91-13.005-1.402-2.398 1.114-4.68 2.343-6.976 3.656l-2.496 1.382L85 195l-2.125 1.249c-7.677 4.164-7.677 4.164-11.805 11.365-.371 3.388-.371 3.388 1.43 5.887 2.824 1.694 4.267 1.655 7.458 1.11 4.114-1.23 7.588-3.671 11.167-5.985l2.379-1.5 9.352-5.961c2.49-1.352 4.318-1.61 7.113-1.07 6.391 2.852 12.087 9.243 16.031 14.906.943 2.472 1.76 4.848 2.5 7.375 1.747 5.815 1.747 5.815 4.625 11.125 5.631 10.511 5.84 24.759 7.43 36.425.717 5.224 1.47 10.397 2.566 15.556 1.792 8.794 1.792 8.794-.555 13.23C134.715 309.149 127.008 315.734 115 321l-2.484 1.102C100.97 326.225 84.264 325.496 73 321c-10.896-5.291-19.184-12.031-26-22l-1.937-2.562c-1.491-3.42-.682-5.787-.062-9.437l.508-3.156c2.983-16.162 7.449-32.196 15.305-46.687 1.442-3.834 1.125-6.212.188-10.156-1.847-1.847-4.425-1.347-6.895-1.523-3.331.828-4.237 2.697-6.105 5.523-1.469 2.778-2.751 5.618-4 8.5l-1.064 2.44C35.055 260.34 31.461 280.36 28 300c-5.434-2.717-7.77-15.447-9.715-21.065-9.451-28.797-3.719-67.753 9.653-94.622 9.699-18.552 23.594-32.241 43.691-38.934 5.503-1.6 10.669-1.826 16.371-1.754z" fill="#eaac87"/><path d="M444.074 206.641c3.597 2.539 6.147 5.979 8.926 9.359l1.797 2.105c4.182 5.079 7.056 10.292 9.746 16.293 1.555 2.776 2.729 4.009 5.457 5.602a100.77 100.77 0 0 0 4 1l.22 13.757.082 4.66c.209 9.527-.334 17.583-3.393 26.691-1.233 3.923-1.446 6.823-.909 10.892 1.334 2.009 1.334 2.009 3 3-1.372 4.065-3.221 6.674-6.125 9.813l-2.195 2.395L463 314l-2.187-1.062c-3.221-1.074-4.615-.973-7.812.063-2.196 1.226-2.196 1.226-4.375 2.75-14.178 8.619-29.271 10.477-45.504 7.551-15.153-4.24-27.613-14.029-35.359-27.699-7.757-15.363-7.37-30.675-6.762-47.602l2.502-1.178 3.279-1.583 3.252-1.553C377.01 239.723 380.389 232.344 383 225l.625-3.875C385 218 385 218 386.887 217.056c6.889-2.045 13.327-2.495 20.488-2.556 11.877-.102 22.132-1.557 32.469-7.707 2.156-.793 2.156-.793 4.23-.152z" fill="#e9ac87"/><path d="M88 143.625l2.789-.035c6.788.029 15.169.369 20.211 5.41 2.035.244 2.035.244 4.359.125l2.633-.047 5.469-.156c4.955-.088 8.886.106 13.539 2.078l.184 3.035.254 4.027.246 3.973c.255 3.96.255 3.96.984 7.809L139 173c-2.125 2.438-2.125 2.438-5 5-3.54 4.724-5.685 9.262-7 15-4.278-1.634-8.2-3.676-12.207-5.879-4.465-1.792-8.367-2.91-13.005-1.402-2.398 1.114-4.68 2.343-6.976 3.656l-2.496 1.382L85 195l-2.125 1.249C77.094 199.675 77.094 199.675 72 204c-.859 3.488-.859 3.488-1 7-.555 3.872-2.168 5.465-5 8.125-2.893 2.646-2.893 2.646-5 5.875-2.231.276-4.429.315-6.676.363-3.464.949-4.37 2.653-6.324 5.637-1.468 2.778-2.751 5.618-4 8.5l-1.064 2.44C35.055 260.34 31.461 280.36 28 300c-5.434-2.717-7.77-15.447-9.715-21.065-9.451-28.797-3.719-67.753 9.653-94.622 9.699-18.552 23.594-32.241 43.691-38.934 5.503-1.6 10.669-1.826 16.371-1.754zm361.313 3.438l1.879 1.566c2.373 1.799 4.749 2.594 7.543 3.551 10.007 3.623 17.994 8.338 23.383 17.777 3.055 6.677 3.137 13.524 3.313 20.717.208 4.866 1.226 7.975 3.57 12.326.985 5.236.568 9.715-2.187 14.313-2.322 3.227-4.686 6.203-7.812 8.688-1.961.02-1.961.02-4-1-1.535-2.773-1.535-2.773-3.062-6.375-2.483-5.499-5.115-9.156-9.562-13.25-4.908-4.525-7.223-8.523-9.277-14.844-1.267-2.921-2.341-3.985-5.098-5.531-3.474-.398-3.474-.398-7 1-1.694 1.892-3.056 3.895-4.48 5.996-4.247 5.601-10.896 6.934-17.52 8.004-3.997.333-7.991.46-12 .563-7.057.208-13.992.554-21 1.438l-.516-3c-1.727-9.584-3.718-17.579-10.484-25l-3-2c.913-4.696.913-4.696 1.5-6.75.665-2.991.849-5.945 1.063-9l.254-3.547L375 150c21.525-9.4 53.64-18.757 74.313-2.937z" fill="#fdd458"/><path d="M321 374c15.663 4.998 27.522 19.095 35.141 33.199 3.063 6.005 4.993 12.337 6.859 18.801l.711 2.266C366.56 438.092 366 448.936 366 459h-87c2.786-2.786 5.049-4.884 8.188-7.094l2.367-1.684 4.891-3.445c6.72-4.49 6.72-4.49 11.555-10.777l-.115-5.765c-.041-9.805-.041-9.805 3.557-14.254 2.767-2.175 5.608-4.068 8.559-5.98 2.404-3.606 2.346-6.337 2.414-10.512l.059-2.207.152-6.969.117-4.729L321 374zm-130-1l.012 3.026.14 11.171.043 4.824.097 6.956-.012 2.16c.164 5.687 1.837 8.002 5.719 11.864 2.149 1.305 2.149 1.305 4.25 2.313 2.31 1.605 3.54 2.765 4.173 5.549.419 3.752.459 7.468.444 11.24.125 3.683.243 4.929 2.133 7.898 1.802 1.629 1.802 1.629 3.957 3.059l2.373 1.67 2.482 1.709 4.832 3.371 2.167 1.494c2.588 2.007 4.872 4.382 7.188 6.698h-84c0-30.488 4.339-50.63 24.938-72.25 3.977-3.875 8.338-6.861 13.063-9.75l3-1.875c2-1.125 2-1.125 3-1.125z" fill="#675b78"/><path d="M316 173c2.471 3.294 3.829 5.671 5.375 9.375 3.289 7.724 3.289 7.724 9.862 12.525l2.435.756 2.456.775L338 197l.165 21.93.062 7.445.067 10.761.047 3.31c.005 21.071-8.905 40.829-23.535 55.804-13.463 13.2-31.693 22.904-50.805 23.75 2.805-2.199 5.732-4.093 8.771-5.954 22.282-13.785 34.983-33.485 41.175-58.663 2.007-9.241 1.841-18.657 1.867-28.071l.076-5.955L316 207l-1.812.219-2.409.281-2.374.282c-3.788.343-7.545.195-11.342.093-6.144-.096-11.249.354-17.09 2.438-2.86.997-4.992 1.242-7.973.688-3.357-2.481-4.784-3.944-5.625-8.062.842-3.959 2.303-4.697 5.625-6.937 8.673-3.341 17.391-4.358 26.625-4.375l2.547-.005c4.977.09 7.845.719 12.828 2.38l1-21z" fill="#e6906e"/><path d="M321 374c16.351 5.45 28.448 20.076 36.1 35.08 2.549 5.436 4.238 11.163 5.9 16.92l.711 2.266C366.56 438.092 366 448.936 366 459h-87c2-2 2-2 4.594-2.203l3.324.067 3.761.061 4.078.098 4.162.076 10.959.227 11.18.221L343 458l-.426-9.484-.114-2.681c-.862-18.289-5.827-42.201-19.46-55.834l-1 15h-1v-31z" fill="#564c65"/><path d="M466 368c12.7 7.668 21.545 18.808 25.375 33.313.958 7.186 1.199 14.451 1.625 21.688h-58c0-2 0-2 2.07-4.199L440 416l3.305-3.27 1.759-1.743c5.039-5.006 10.031-9.994 14.605-15.437C461 394 461 394 462.613 392.48c2.52-2.691 2.547-5.64 2.703-9.148l.127-2.705.119-2.814.131-2.85L466 368z" fill="#22b9cc"/><path d="M219 251c2.244 1.683 3.72 3.644 5.445 5.836 6.409 7.78 14.435 13.341 24.717 14.383 12.696.647 23.775-.199 34.053-8.43 2.673-2.679 4.618-5.698 6.559-8.934C291 252 291 252 293 251c3.874-.359 6.149-.567 9.438 1.625 2.02 3.07 1.886 4.743 1.563 8.375-5.864 12.03-16.716 19.577-29 24-13.344 3.866-29.363 4.008-42-2l-2.777-1.215C220.912 277.28 211.971 269.731 208 260c.125-3.75.125-3.75 1-7 3.721-2.48 5.598-2.463 10-2z" fill="#030202"/><path d="M224 361l.715 3.136 12.097 51.239.856 3.395 1.596 6.318 3.236 12.974.523 2.058c.767 3.186 1.039 4.694-.023 7.879l-1.358-1.022-6.205-4.665-2.135-1.607-2.119-1.592-2.108-1.612c-2.027-1.523-2.027-1.523-4.15-2.682-1.955-1.145-3.434-2.111-4.926-3.819-.781-3.15-.598-6.152-.437-9.375.114-6.462.114-6.462-2.207-12.32-2.812-2.41-5.529-3.972-8.963-5.353C206 402 206 402 205.432 398.263a145.4 145.4 0 0 1 .079-4.65l.021-2.476.154-7.825.068-5.307L206 365l6.75-2.562 1.922-.748c3.438-1.271 5.85-2.156 9.328-.689zm65-1l5.125 1.375 2.883.773L306 365l.604 15.369.226 5.22c.776 14.491.776 14.491-3.257 19.314-2.777 2.006-5.509 3.579-8.573 5.098l-2 2 .435 6.223c.281 5.559.419 10.523-3.257 14.994-5.217 4.667-11.128 8.3-17.177 11.783l-3.109 1.875L268 448c1.675-8.753 3.64-17.438 5.625-26.125l.522-2.289 9.238-38.104c1.581-6.211 3.073-12.395 4.207-18.704C288 361 288 361 289 360z" fill="#4e455c"/><path d="M423 140c10.53-.714 20.036 1.83 28.191 8.629 2.373 1.799 4.749 2.594 7.543 3.551 10.007 3.623 17.994 8.338 23.383 17.777 3.055 6.677 3.137 13.524 3.313 20.717.208 4.866 1.226 7.975 3.57 12.326.985 5.236.568 9.715-2.187 14.313-2.322 3.227-4.686 6.203-7.812 8.688-1.93.047-1.93.047-4-1-1.37-2.278-2.485-4.403-3.562-6.812-1.844-3.995-3.608-7.773-6.437-11.187h2l-.805-1.703c-2.703-6.433-3.618-12.35-4.133-19.234-.971-12.104-4.339-23.404-13.848-31.602-5.699-4.107-12.147-6.898-18.538-9.746-5.575-2.511-5.575-2.511-6.677-4.715z" fill="#fcbb53"/><path d="M46 368l.044 1.757.268 7.931.068 2.764c.387 9.676 4.67 13.91 11.182 20.674l4.316 4.539 2.125 2.231L72 416.5l2.375 2.594C76 421 76 421 76 422H19c1.294-20.71 4.509-35.643 20-50 5.622-4 5.622-4 7-4z" fill="#fc2b5b"/><path d="M460 228c1.775 2.309 3.299 4.524 4.75 7.063 2.181 2.847 2.776 3.401 5.891 4.621L474 241l.22 13.757.082 4.66c.209 9.527-.334 17.583-3.393 26.691-1.233 3.923-1.446 6.823-.909 10.892 1.334 2.009 1.334 2.009 3 3-1.372 4.065-3.221 6.674-6.125 9.813l-2.195 2.395L463 314l-2.187-1.062c-3.227-1.076-4.608-.974-7.812.063-2.333 1.255-2.333 1.255-4.625 2.813-5.145 3.198-10.48 5.704-16.375 7.188l-2-1 1.941-1.469C444.417 310.863 452.253 300.127 457 285l1.028-2.945c1.455-5.145 1.328-10.366 1.386-15.676l.059-3.333.152-10.483.117-7.131L460 228z" fill="#e38e6d"/><path d="M77 144l10.375-.187 2.926-.076c6.62-.067 12.564.638 18.699 3.264l2 2c2.035.244 2.035.244 4.359.125l2.633-.047 5.469-.156c4.955-.088 8.886.106 13.539 2.078l.184 3.035.254 4.027.246 3.973c.255 3.96.255 3.96.984 7.809L139 173c-2.125 2.438-2.125 2.438-5 5-1.799 2.59-3.412 5.276-5 8l-2-2-1.395-1.379a145.42 145.42 0 0 1-3.367-3.523c-4.91-5.189-10.012-8.651-16.238-12.098-5.624-3.201-10.683-6.084-15-11l-1.559-1.762c-2.338-2.675-4.466-5.276-6.441-8.238-3.066-.733-3.066-.733-6-1v-1z" fill="#fcbb53"/><path d="M241 368h30c-.672 5.38-1.445 10.458-2.672 15.699l-.493 2.151-1.585 6.838-1.086 4.708L257 432h-2l-.639-2.832L251.375 416l-.545-2.399-8.102-33.402-.697-2.691-.607-2.292C241 373 241 373 241 368z" fill="#fad257"/><path d="M299.563 191.563l2.522-.03c5.346.076 9.203.89 13.916 3.468 2 3 2 3 1.875 6.5-.875 3.5-.875 3.5-2.599 5.207-2.772 1.575-4.395 1.6-7.565 1.48l-3.105-.07-6.391-.234c-6.187-.139-11.28.359-17.139 2.412-2.902.986-5.055 1.267-8.076.705-3.357-2.481-4.784-3.944-5.625-8.062.842-3.959 2.303-4.697 5.625-6.937 8.63-3.325 17.372-4.373 26.563-4.437z" fill="#050403"/><path d="M241 197c2.456 2.031 2.938 2.641 3.5 5.875-.5 3.125-.5 3.125-2.437 6.063-3.708 2.497-5.326 2.342-9.586 1.652-2.477-.59-2.477-.59-5.508-1.66-6.2-1.813-12.966-.891-19.34-.588-7.874.191-7.874.191-11.867-2.627C194 203 194 203 193.938 199.375c1.146-3.639 1.758-4.625 5.063-6.375 11.97-3.99 30.779-1.36 42 4z" fill="#050303"/><path d="M362 184c4.159 1.84 5.739 4.024 8 8 2.797 10.03 2.355 23.403-1.785 32.891-2.097 3.642-4.399 6.201-8.215 8.109-2 .04-4 .043-6 0l-.439-17.078-.164-5.802c-.565-16.128-.565-16.128 2.42-21.218 1.967-1.967 3.788-3.503 6.184-4.902z" fill="#d68666"/><path d="M147 185c4.284 2.038 8.015 4.244 11 8 .921 3.141.823 6.085.684 9.336l-.03 2.665-.216 8.374-.096 5.699L158 233c-6.664.242-6.664.242-9.687-1.937-5.651-7.484-7.506-14.999-7.562-24.187l-.062-2.477c-.04-6.298.481-13.302 4.917-18.153L147 185z" fill="#e58f6d"/><path d="M238 334h36v19h-36v-19z" fill="#cc8061"/><path d="M143 368c5.176 3.282 9.86 6.459 14 11-1.47 3.164-3.265 5.868-5.312 8.688C144.162 398.345 139.121 409.636 135 422h-22c3.882-5.175 7.36-9.614 11.938-14 4.074-3.984 7.978-8.023 11.66-12.379C138 394 138 394 139.621 392.473c2.515-2.686 2.539-5.639 2.695-9.141l.127-2.705.119-2.814.131-2.85L143 368z" fill="#fb2b5a"/><path d="M369 368l.044 1.757.268 7.931.068 2.764c.387 9.676 4.67 13.91 11.182 20.674l4.316 4.539 2.125 2.231L395 416.5l2.375 2.594C399 421 399 421 399 422h-22l-2.687-7.375c-3.949-10.57-8.758-19.582-15.324-28.742-1.563-2.267-2.859-4.384-3.988-6.883 10.444-11 10.444-11 14-11z" fill="#45cfe0"/><path d="M464 393l3 1 1.5 6.688.844 3.762c.836 5.794.656 11.696.656 17.551h-34c6.683-8.91 13.875-16.309 22.305-23.527 1.995-1.733 3.865-3.566 5.695-5.473z" fill="#46d3e4"/><path d="M137 252h1l.335 2.412 1.54 10.963.527 3.793c.776 5.492 1.577 10.944 2.73 16.371 1.78 8.735 1.78 8.735-.566 13.172C133.453 310.827 123.111 319.566 108 323c1.136-3.409 1.759-3.757 4.625-5.687 11.762-8.549 19.931-22.462 22.951-36.613.845-5.385.904-10.821 1.049-16.262l.117-3.635L137 252z" fill="#e08c6b"/><path d="M70 358l3.308 12.958 1.123 4.39C76.794 384.53 78.778 393.585 80 403c-1.581-1.258-3.144-2.542-4.645-3.895-1.773-1.585-3.618-3.091-5.492-4.555-4.549-3.877-8.292-7.42-9.401-13.496-.504-7.038-.132-14.039.538-21.055 3.371-1.498 5.204-2 9-2z" fill="#cf224a"/><path d="M393 358l4.395 18.316 2.93 12.023.577 2.352 1.068 4.267c.786 3.233 1.107 4.811.03 8.041-5.915-5.808-11.617-11.695-17-18l-1-1c-.087-1.781-.107-3.565-.098-5.348l.01-3.271.025-3.443.014-3.455L384 360c3.371-1.498 5.204-2 9-2z" fill="#1fafc1"/><path d="M119 358l9 2 .438 11.563.178 3.291c.17 7.97.17 7.97-2.077 11.339-1.763 1.748-3.584 3.28-5.538 4.808-1.783 2.005-3.507 4.046-5.227 6.105-2.081 2.223-4.384 4.013-6.773 5.895 1.319-10.159 3.575-19.907 6.125-29.812l1.129-4.447L119 358z" fill="#cf224a"/><path d="M442 358l9 2 .438 11.563.178 3.291c.17 7.97.17 7.97-2.077 11.339-1.763 1.748-3.584 3.28-5.538 4.808-1.783 2.005-3.507 4.046-5.227 6.105-2.081 2.223-4.384 4.013-6.773 5.895 1.319-10.159 3.575-19.907 6.125-29.812l1.129-4.447L442 358z" fill="#1fafc1"/><path d="M152 248h7l.516 2.895c1.34 7.149 2.802 13.735 5.715 20.445 1.926 6.657.506 13.042-1.105 19.598l-.527 2.322c-.462 1.932-1.022 3.839-1.598 5.74l-2 1c-2.482-12.945-4.953-25.886-6.812-38.937l-.374-2.612c-.49-3.559-.813-6.841-.813-10.45z" fill="#f6b651"/><path d="M409 362h17c-1.219 7.423-2.797 14.738-4.5 22.063l-.647 2.85-.634 2.685-.564 2.422C419 394 419 394 417 396l-.734-2.973-1.016-4.09-.538-2.167-4.978-18.759C409 365 409 365 409 362zm-323 0h17c-1.219 7.423-2.797 14.738-4.5 22.063l-.647 2.85-.634 2.685-.564 2.422C96 394 96 394 94 396l-.734-2.973-1.016-4.09-.538-2.167-4.978-18.759C86 365 86 365 86 362z" fill="#ced1d9"/><path d="M143 368c5.176 3.282 9.86 6.459 14 11-3.224 6.91-8.138 13.165-13 19l-1-4c-2.992 1.364-5.29 2.949-7.75 5.125l-1.859 1.633L132 402c1.393-3.186 3.029-5.198 5.563-7.562 3.715-3.468 4.53-6.078 4.754-11.105l.127-2.705.119-2.814.131-2.85L143 368z" fill="#de2550"/><path d="M492 233c3 1 3 1 4.168 3.203 2.32 7.8 1.396 16.506-2.168 23.797l-2 2h-3l-.187-12.812-.076-3.682-.029-3.525-.048-3.253C489 236 489 236 490.518 234.126L492 233z" fill="#d08264"/><path d="M407 339h21v8h-21v-8zm-323 0h21v8H84v-8z" fill="#cc7f61"/></svg>